<?xml version="1.0" standalone="no"?>
<!DOCTYPE svg PUBLIC "-//W3C//DTD SVG 20010904//EN"
 "http://www.w3.org/TR/2001/REC-SVG-20010904/DTD/svg10.dtd">
<svg version="1.0" xmlns="http://www.w3.org/2000/svg"
 width="260.000000pt" height="260.000000pt" viewBox="0 0 260.000000 260.000000"
 preserveAspectRatio="xMidYMid meet">
<metadata>
Created by potrace 1.11, written by Peter Selinger 2001-2013
</metadata>
<g transform="translate(0.000000,260.000000) scale(0.100000,-0.100000)"
fill="#000000" stroke="none">
<path d="M0 1300 l0 -1300 1300 0 1300 0 0 1300 0 1300 -1300 0 -1300 0 0
-1300z m1572 989 l263 -70 194 -193 193 -194 69 -257 c38 -141 69 -262 69
-268 1 -7 -30 -128 -67 -269 l-68 -258 -200 -198 -200 -199 -251 -66 c-138
-37 -258 -67 -267 -67 -9 0 -132 31 -273 69 l-257 69 -193 194 -193 193 -71
264 -70 263 70 262 70 261 198 198 198 198 254 69 c140 37 258 69 262 69 4 1
125 -31 270 -70z"/>
<path d="M1267 1740 c-77 -14 -137 -84 -137 -159 0 -139 169 -208 280 -115 42
36 60 74 60 127 0 99 -94 167 -203 147z"/>
<path d="M1261 1170 c-74 -17 -131 -86 -131 -158 0 -95 76 -158 182 -150 200
15 215 282 18 311 -19 3 -50 1 -69 -3z"/>
</g>
</svg>
