<svg id="Layer_1" data-name="Layer 1" xmlns="http://www.w3.org/2000/svg" viewBox="0 0 207.68 182.9"><title>new_icons</title><path d="M43.73,139.21a20.64,20.64,0,1,1,20.64-20.64,20.66,20.66,0,0,1-20.64,20.64h0Z" fill="#f2ebeb"/><path d="M40.54,182.9a96.66,96.66,0,0,1-19.12-1.62c-6.06-1.32-9-3.33-9-6.14,0-19.14,14.05-34.71,31.33-34.71S75.06,156,75.06,175.15c0,6.36-24.92,7.76-34.53,7.76h0Z" fill="#f2ebeb"/><path d="M55,65.1H47.21V49.22H55V65.1Zm-6.25-1.5h4.75V50.72H48.71V63.6Z" fill="#f2ebeb"/><path d="M65.63,65.1H57.87V42.6h7.75V65.1Zm-6.25-1.5h4.75V44.1H59.37V63.6Z" fill="#f2ebeb"/><path d="M76.66,65.1H68.91V26.41h7.75V65.1Zm-6.25-1.5h4.75V27.91H70.41V63.6Z" fill="#f2ebeb"/><path d="M17.29,56.37V53.32c0-1.83-1.12-3.94-2.41-6.38-1.77-3.34-3.77-7.12-3.77-11.67a14.45,14.45,0,0,1,28.9,0c0,4.61-2.07,8.41-3.89,11.76-1.33,2.44-2.47,4.54-2.47,6.36V54Zm8.26-34.05a13,13,0,0,0-13,12.95c0,4.18,1.91,7.79,3.6,11,1.39,2.62,2.59,4.88,2.59,7.08v1.33l13.38-1.91c0.21-2,1.33-4.06,2.62-6.42,1.74-3.2,3.71-6.82,3.71-11A13,13,0,0,0,25.55,22.32Z" fill="#f2ebeb"/><rect x="18.97" y="56.78" width="13.72" height="1.5" transform="translate(-8.32 4.51) rotate(-8.61)" fill="#f2ebeb"/><rect x="18.97" y="59.52" width="13.72" height="1.5" transform="translate(-8.73 4.55) rotate(-8.61)" fill="#f2ebeb"/><path d="M25.76,66.16c-2.89,0-5.82-1-5.82-2.8h1.5c0,0.38,1.51,1.3,4.32,1.3s4.32-.93,4.32-1.3h1.5C31.58,65.19,28.65,66.16,25.76,66.16Z" fill="#f2ebeb"/><path d="M28.69,50.43h-1.5a37.69,37.69,0,0,1,1.06-9,3,3,0,0,1-2.7-.94,2.87,2.87,0,0,1-2.24,1,30.83,30.83,0,0,1,1.13,8.93h-1.5a26.72,26.72,0,0,0-1.45-9.6,2.94,2.94,0,0,1-1.07-2.27V36.45l1.33,1.63a7.74,7.74,0,0,1,1,1.76,1.43,1.43,0,0,0,.64.15,1.44,1.44,0,0,0,1.44-1.44h1.5a1.44,1.44,0,0,0,2.48,1c0.25-.78.43-1.23,0.46-1.29l1.44-3.42v3.71a2.93,2.93,0,0,1-.54,1.7A35.45,35.45,0,0,0,28.69,50.43Z" fill="#f2ebeb"/><path d="M45.5,90.78L37.73,83H7a7,7,0,0,1-7-7V7A7,7,0,0,1,7,0H78a7,7,0,0,1,7,7V76a7,7,0,0,1-7,7H52.31ZM7,2A5,5,0,0,0,2,7V76a5,5,0,0,0,5,5H38.56l6.85,6.85,6-6.85H78a5,5,0,0,0,5-5V7a5,5,0,0,0-5-5H7Z" fill="#f2ebeb"/><rect x="140.57" y="20.82" width="22.33" height="1.5" fill="#f2ebeb"/><path d="M128.6,26.7a4.63,4.63,0,1,1,4.63-4.63A4.63,4.63,0,0,1,128.6,26.7Zm0-7.75a3.13,3.13,0,1,0,3.13,3.13A3.13,3.13,0,0,0,128.6,18.95Z" fill="#f2ebeb"/><rect x="140.57" y="41.71" width="22.33" height="1.5" fill="#f2ebeb"/><path d="M128.6,47.59A4.63,4.63,0,1,1,133.23,43,4.63,4.63,0,0,1,128.6,47.59Zm0-7.75A3.13,3.13,0,1,0,131.73,43,3.13,3.13,0,0,0,128.6,39.84Z" fill="#f2ebeb"/><rect x="141.11" y="62.61" width="22.33" height="1.5" fill="#f2ebeb"/><path d="M129.28,68.49a4.63,4.63,0,1,1,4.63-4.63A4.63,4.63,0,0,1,129.28,68.49Zm0-7.75a3.13,3.13,0,1,0,3.13,3.13A3.13,3.13,0,0,0,129.28,60.74Z" fill="#f2ebeb"/><path d="M145.36,90.78L137.58,83H114a7,7,0,0,1-7-7V7a7,7,0,0,1,7-7h57a7,7,0,0,1,7,7V76a7,7,0,0,1-7,7H152.17ZM114,2a5,5,0,0,0-5,5V76a5,5,0,0,0,5,5h24.41l6.85,6.85,6-6.85H171a5,5,0,0,0,5-5V7a5,5,0,0,0-5-5H114Z" fill="#f2ebeb"/><path d="M110.53,99.93a18.64,18.64,0,1,1-18.64,18.64,18.66,18.66,0,0,1,18.64-18.64m0-2a20.64,20.64,0,1,0,20.64,20.64,20.66,20.66,0,0,0-20.64-20.64h0Z" fill="#f2ebeb"/><path d="M110.53,142.43c16.17,0,29.33,14.67,29.33,32.71,0,0.68-2.15,2.77-12,4.29a149.66,149.66,0,0,1-20.56,1.47,94.51,94.51,0,0,1-18.69-1.57c-2.78-.6-7.45-2-7.45-4.18,0-18,13.16-32.71,29.33-32.71m0-2c-17.28,0-31.33,15.57-31.33,34.71,0,2.81,3,4.82,9,6.14a96.66,96.66,0,0,0,19.12,1.62c9.61,0,34.53-1.4,34.53-7.76,0-19.14-14.06-34.71-31.33-34.71h0Z" fill="#f2ebeb"/><path d="M176.34,99.93a18.64,18.64,0,1,1-18.64,18.64,18.66,18.66,0,0,1,18.64-18.64m0-2A20.64,20.64,0,1,0,197,118.57a20.66,20.66,0,0,0-20.64-20.64h0Z" fill="#f2ebeb"/><path d="M176.34,142.43c16.17,0,29.33,14.67,29.33,32.71,0,0.68-2.15,2.77-12,4.29a149.66,149.66,0,0,1-20.56,1.47,94.5,94.5,0,0,1-18.69-1.57c-2.78-.6-7.45-2-7.45-4.18,0-18,13.16-32.71,29.33-32.71m0-2C159.06,140.43,145,156,145,175.15c0,2.81,3,4.82,9,6.14a96.66,96.66,0,0,0,19.12,1.62c9.61,0,34.53-1.4,34.53-7.76,0-19.14-14.06-34.71-31.33-34.71h0Z" fill="#f2ebeb"/></svg>