<svg id="Layer_1" data-name="Layer 1" xmlns="http://www.w3.org/2000/svg" viewBox="0 0 146.65 184.94"><title>new_icons</title><path d="M31,140.3a20.64,20.64,0,1,1,20.64-20.64A20.66,20.66,0,0,1,31,140.3h0Z" fill="#f2ebeb"/><path d="M27.79,184a96.66,96.66,0,0,1-19.12-1.62c-6.06-1.32-9-3.33-9-6.14,0-19.14,14.05-34.71,31.33-34.71s31.33,15.57,31.33,34.71c0,6.36-24.92,7.76-34.53,7.76h0Z" fill="#f2ebeb"/><path d="M146.29,163.57H67.5V110.79h78.79v52.78Zm-76.79-2h74.79V112.79H69.5v48.78Z" fill="#f2ebeb"/><rect x="94.51" y="170.24" width="24.77" height="2" fill="#f2ebeb"/><rect x="105.9" y="162.57" width="2" height="8.67" fill="#f2ebeb"/><rect x="68.5" y="151.66" width="77.07" height="2" fill="#f2ebeb"/><rect x="68.65" y="130" width="77" height="1" fill="#f2ebeb"/><rect x="91.65" y="120" width="30" height="1" fill="#f2ebeb"/><path d="M96.65,148h-17V135h17v13Zm-16-1h15V136h-15v11Z" fill="#f2ebeb"/><rect x="104.65" y="140" width="31" height="1" fill="#f2ebeb"/><rect x="104.65" y="144" width="31" height="1" fill="#f2ebeb"/><rect x="104.65" y="135" width="31" height="1" fill="#f2ebeb"/><path d="M31.68,22.31h3.11a0.61,0.61,0,0,0,0-1.23H31.68a0.61,0.61,0,1,0,0,1.23h0Zm0,0" fill="#f2ebeb"/><path d="M44.51,51.12a2.41,2.41,0,0,0-3.44,0l-2.52,2.52a1.68,1.68,0,0,1-2.87-1.19V49.6h3.26a2.42,2.42,0,0,0,2.42-2.42V21.7a2.42,2.42,0,0,0-2.42-2.42H27.52a2.42,2.42,0,0,0-2.42,2.42V43.48a2.4,2.4,0,0,0-1.38,2.17V46a2.4,2.4,0,0,0-3.57,2.09v6.72a11.82,11.82,0,0,0,2.63,7.42,0.61,0.61,0,0,0,1-.77,10.59,10.59,0,0,1-2.36-6.65V48.11a1.17,1.17,0,0,1,2.35,0v2.37a0.61,0.61,0,1,0,1.23,0V45.66a1.17,1.17,0,0,1,2.35,0v4.07a0.61,0.61,0,1,0,1.23,0V45.11a1.17,1.17,0,1,1,2.35,0v5.2a0.61,0.61,0,1,0,1.23,0V37a1.17,1.17,0,0,1,2.35,0V52.42a2.91,2.91,0,0,0,5,2.06L41.94,52a1.16,1.16,0,0,1,.85-0.35,1.18,1.18,0,0,1,.86,2l-4.38,4.74a10.3,10.3,0,0,1-6,3.17,0.61,0.61,0,0,0,.09,1.22h0.1a11.53,11.53,0,0,0,6.67-3.55l4.38-4.74a2.41,2.41,0,0,0,0-3.32h0Zm-5.57-2.74H35.68V44.84h4.45v2.34a1.19,1.19,0,0,1-1.19,1.19h0ZM27.52,20.52H38.94a1.19,1.19,0,0,1,1.19,1.19v1.4H26.33V21.7a1.19,1.19,0,0,1,1.19-1.19h0Zm-1.19,3.81M40.13,43.62H35.68V37a2.4,2.4,0,0,0-2.4-2.4h0a2.4,2.4,0,0,0-2.4,2.4v6a2.4,2.4,0,0,0-3.2.81,2.39,2.39,0,0,0-1.34-.56V24.33H40.13V43.62Zm-6.85-9" fill="#f2ebeb"/><path d="M30.18,89.84l-6.81-7.78H14.54a7,7,0,0,1-7-7v-69a7,7,0,0,1,7-7h97a7,7,0,0,1,7,7v69a7,7,0,0,1-7,7H38ZM14.54,1.06a5,5,0,0,0-5,5v69a5,5,0,0,0,5,5h9.74l6,6.85,6.85-6.85h74.41a5,5,0,0,0,5-5v-69a5,5,0,0,0-5-5h-97Z" fill="#f2ebeb"/><rect x="82.82" y="24.88" width="22.33" height="1.5" fill="#f2ebeb"/><polygon points="72.87 26.11 68.69 21.93 69.75 20.86 72.87 23.98 82.29 14.56 83.35 15.63 72.87 26.11" fill="#f2ebeb"/><rect x="82.82" y="45.77" width="22.33" height="1.5" fill="#f2ebeb"/><polygon points="72.87 48.1 68.69 43.92 69.75 42.86 72.87 45.98 82.29 36.56 83.35 37.63 72.87 48.1" fill="#f2ebeb"/><rect x="83.36" y="66.67" width="22.33" height="1.5" fill="#f2ebeb"/><polygon points="72.87 70.11 68.69 65.92 69.75 64.86 72.87 67.98 82.29 58.56 83.35 59.63 72.87 70.11" fill="#f2ebeb"/></svg>