<svg id="Layer_1" data-name="Layer 1" xmlns="http://www.w3.org/2000/svg" viewBox="0 0 179.34 150.73"><title>ic_metho_wednesday</title><path d="M89.26,117.78a0.65,0.65,0,0,0,.65-0.65v-6.46a0.65,0.65,0,1,0-1.29,0v6.46a0.65,0.65,0,0,0,.65.65M97,119.08a0.65,0.65,0,0,0,.65-0.65V112a0.65,0.65,0,1,0-1.29,0v6.46a0.65,0.65,0,0,0,.65.65m-3.88-1.29a0.65,0.65,0,0,0,.65-0.65v-3.88a0.65,0.65,0,1,0-1.29,0v3.88a0.65,0.65,0,0,0,.65.65m9,5.82H100.9v-1.94a1.29,1.29,0,0,0-1.29-1.29H78.92a1.29,1.29,0,0,0-1.29,1.29v7.76A9,9,0,0,0,82,137.17H78.28a0.65,0.65,0,1,0,0,1.29h22a0.65,0.65,0,1,0,0-1.29H96.5a9.06,9.06,0,0,0,4.19-5.82h1.51a3.88,3.88,0,1,0,0-7.76M91.85,137.17H86.68a7.73,7.73,0,0,1-5.77-2.59H97.62a7.73,7.73,0,0,1-5.77,2.59m7.76-7.76a7.71,7.71,0,0,1-1,3.88H80a7.7,7.7,0,0,1-1-3.88v-7.76H99.6v7.76Zm2.59,0.65h-1.32c0-.21,0-0.43,0-0.65v-4.52h1.29a2.59,2.59,0,1,1,0,5.17M81.51,117.78a0.65,0.65,0,0,0,.65-0.65v-3.88a0.65,0.65,0,1,0-1.29,0v3.88a0.65,0.65,0,0,0,.65.65m3.88,1.29a0.65,0.65,0,0,0,.65-0.65V112a0.65,0.65,0,1,0-1.29,0v6.46a0.65,0.65,0,0,0,.65.65" fill="#666"/><path d="M36.83,67.76A18.64,18.64,0,1,1,18.19,86.4,18.66,18.66,0,0,1,36.83,67.76m0-2A20.64,20.64,0,1,0,57.46,86.4,20.66,20.66,0,0,0,36.83,65.76h0Z" fill="#666"/><path d="M36.83,110.26c16.17,0,29.33,14.67,29.33,32.71,0,0.68-2.15,2.77-12,4.29a149.66,149.66,0,0,1-20.56,1.47,94.5,94.5,0,0,1-18.69-1.57c-2.78-.6-7.45-2-7.45-4.18,0-18,13.16-32.71,29.33-32.71m0-2c-17.28,0-31.33,15.57-31.33,34.71,0,2.81,3,4.82,9,6.14a96.66,96.66,0,0,0,19.12,1.62c9.61,0,34.53-1.4,34.53-7.76,0-19.14-14.06-34.71-31.33-34.71h0Z" fill="#666"/><rect x="1.66" y="1" width="69.72" height="46.11" fill="none" stroke="#666" stroke-miterlimit="10" stroke-width="2"/><line x1="25.28" y1="54.98" x2="47.77" y2="54.98" fill="none" stroke="#666" stroke-miterlimit="10" stroke-width="2"/><line x1="36.52" y1="54.98" x2="36.52" y2="47.11" fill="none" stroke="#666" stroke-miterlimit="10" stroke-width="2"/><line x1="1.66" y1="38.11" x2="71.64" y2="38.11" fill="none" stroke="#666" stroke-miterlimit="10" stroke-width="2"/><polyline points="27.93 11.6 36.58 20.25 28.09 28.73" fill="none" stroke="#666" stroke-miterlimit="10" stroke-width="1.5"/><line x1="35" y1="30.5" x2="46" y2="30.5" fill="none" stroke="#666" stroke-miterlimit="10"/><path d="M143.83,67.76A18.64,18.64,0,1,1,125.19,86.4a18.66,18.66,0,0,1,18.64-18.64m0-2A20.64,20.64,0,1,0,164.46,86.4a20.66,20.66,0,0,0-20.64-20.64h0Z" fill="#666"/><path d="M143.83,110.26c16.17,0,29.33,14.67,29.33,32.71,0,0.68-2.15,2.77-12,4.29a149.66,149.66,0,0,1-20.56,1.47,94.5,94.5,0,0,1-18.69-1.57c-2.78-.6-7.45-2-7.45-4.18,0-18,13.16-32.71,29.33-32.71m0-2c-17.28,0-31.33,15.57-31.33,34.71,0,2.81,3,4.82,9,6.14a96.66,96.66,0,0,0,19.12,1.62c9.61,0,34.53-1.4,34.53-7.76,0-19.14-14.06-34.71-31.33-34.71h0Z" fill="#666"/><rect x="109.28" y="1" width="69.72" height="46.11" fill="none" stroke="#666" stroke-miterlimit="10" stroke-width="2"/><line x1="132.89" y1="54.98" x2="155.38" y2="54.98" fill="none" stroke="#666" stroke-miterlimit="10" stroke-width="2"/><line x1="144.14" y1="54.98" x2="144.14" y2="47.11" fill="none" stroke="#666" stroke-miterlimit="10" stroke-width="2"/><line x1="109.28" y1="38.11" x2="179.25" y2="38.11" fill="none" stroke="#666" stroke-miterlimit="10" stroke-width="2"/><line x1="110" y1="18.5" x2="180" y2="18.5" fill="none" stroke="#666" stroke-miterlimit="10"/><line x1="131" y1="9.5" x2="158" y2="9.5" fill="none" stroke="#666" stroke-miterlimit="10"/><rect x="119.5" y="22.5" width="15" height="11" fill="none" stroke="#666" stroke-miterlimit="10"/><line x1="143" y1="27.5" x2="170" y2="27.5" fill="none" stroke="#666" stroke-miterlimit="10"/><line x1="143" y1="31.5" x2="170" y2="31.5" fill="none" stroke="#666" stroke-miterlimit="10"/><line x1="143" y1="23.5" x2="170" y2="23.5" fill="none" stroke="#666" stroke-miterlimit="10"/></svg>