<?xml version="1.0" encoding="UTF-8" standalone="no"?>
<svg width="18px" height="18px" viewBox="0 0 18 18" version="1.1" xmlns="http://www.w3.org/2000/svg" xmlns:xlink="http://www.w3.org/1999/xlink" xmlns:sketch="http://www.bohemiancoding.com/sketch/ns">
    <!-- Generator: sketchtool 3.4.4 (395) - http://www.bohemiancoding.com/sketch -->
    <title>Path</title>
    <desc>Created with sketchtool.</desc>
    <defs></defs>
    <g id="guidelines" stroke="none" stroke-width="1" fill="none" fill-rule="evenodd" sketch:type="MSPage">
        <g id="form-fields" sketch:type="MSArtboardGroup" transform="translate(-656.000000, -403.000000)" fill="#FF0000">
            <g id="forms" sketch:type="MSLayerGroup" transform="translate(18.000000, 80.000000)">
                <g id="small-field-error" transform="translate(0.000000, 292.000000)" sketch:type="MSShapeGroup">
                    <path d="M647,49 C651.970563,49 656,44.9705627 656,40 C656,35.0294373 651.970563,31 647,31 C642.029437,31 638,35.0294373 638,40 C638,44.9705627 642.029437,49 647,49 Z M646.856,41.832 L647.768,41.832 L647.944,35.784 L647.976,34.28 L646.648,34.28 L646.68,35.784 L646.856,41.832 Z M646.36,44.2 C646.36,44.776 646.792,45.192 647.32,45.192 C647.832,45.192 648.264,44.776 648.264,44.2 C648.264,43.592 647.832,43.176 647.32,43.176 C646.792,43.176 646.36,43.592 646.36,44.2 Z" id="Path"></path>
                </g>
            </g>
        </g>
    </g>
</svg>