<?xml version="1.0" encoding="UTF-8" standalone="no"?>
<!-- Created with Inkscape (http://www.inkscape.org/) -->

<svg
   xmlns:dc="http://purl.org/dc/elements/1.1/"
   xmlns:cc="http://creativecommons.org/ns#"
   xmlns:rdf="http://www.w3.org/1999/02/22-rdf-syntax-ns#"
   xmlns:svg="http://www.w3.org/2000/svg"
   xmlns="http://www.w3.org/2000/svg"
   xmlns:sodipodi="http://sodipodi.sourceforge.net/DTD/sodipodi-0.dtd"
   xmlns:inkscape="http://www.inkscape.org/namespaces/inkscape"
   width="42.333332mm"
   height="42.333046mm"
   viewBox="0 0 150 149.99898"
   id="svg4778"
   version="1.1"
   inkscape:version="0.91 r13725"
   sodipodi:docname="autonomy.svg">
  <defs
     id="defs4780" />
  <sodipodi:namedview
     id="base"
     pagecolor="#ffffff"
     bordercolor="#666666"
     borderopacity="1.0"
     inkscape:pageopacity="0.0"
     inkscape:pageshadow="2"
     inkscape:zoom="2.2331862"
     inkscape:cx="119.18249"
     inkscape:cy="9.2211815"
     inkscape:document-units="px"
     inkscape:current-layer="layer1"
     showgrid="false"
     borderlayer="false"
     showborder="true"
     fit-margin-top="0"
     fit-margin-left="0"
     fit-margin-right="0"
     fit-margin-bottom="0"
     inkscape:window-width="1920"
     inkscape:window-height="1011"
     inkscape:window-x="0"
     inkscape:window-y="27"
     inkscape:window-maximized="1" />
  <metadata
     id="metadata4783">
    <rdf:RDF>
      <cc:Work
         rdf:about="">
        <dc:format>image/svg+xml</dc:format>
        <dc:type
           rdf:resource="http://purl.org/dc/dcmitype/StillImage" />
        <dc:title></dc:title>
      </cc:Work>
    </rdf:RDF>
  </metadata>
  <g
     inkscape:label="Layer 1"
     inkscape:groupmode="layer"
     id="layer1"
     transform="translate(-5.68098,-38.110193)">
    <g
       id="g5562"
       transform="matrix(0.81751987,0,0,0.81751985,-79.546394,-54.218179)">
      <g
         transform="matrix(1.25,0,0,-1.25,286.2039,204.67743)"
         id="g548">
        <path
           inkscape:connector-curvature="0"
           id="path550"
           style="fill:none;stroke:#666666;stroke-width:2.44642377;stroke-linecap:butt;stroke-linejoin:miter;stroke-miterlimit:10;stroke-dasharray:none;stroke-opacity:1"
           d="m 0,0 c 0,-39.858 -32.311,-72.169 -72.169,-72.169 -39.858,0 -72.17,32.311 -72.17,72.169 0,39.858 32.312,72.169 72.17,72.169 C -32.311,72.169 0,39.858 0,0 Z" />
      </g>
      <g
         transform="matrix(1.25,0,0,-1.25,197.0399,240.14194)"
         id="g552">
        <path
           inkscape:connector-curvature="0"
           id="path554"
           style="fill:#666666;fill-opacity:1;fill-rule:nonzero;stroke:none"
           d="M 0,0 C -0.793,0 -1.434,0.641 -1.434,1.433 -1.434,0.641 -2.075,0 -2.868,0 -3.66,0 -4.301,0.641 -4.301,1.433 l 0,4.301 c 0,0.792 0.641,1.433 1.433,1.433 0.793,0 1.434,-0.641 1.434,-1.433 0,0.792 0.641,1.433 1.434,1.433 0.792,0 1.433,-0.641 1.433,-1.433 l 0,-4.301 C 1.433,0.641 0.792,0 0,0" />
      </g>
      <g
         transform="matrix(1.25,0,0,-1.25,195.248,166.67856)"
         id="g556">
        <path
           inkscape:connector-curvature="0"
           id="path558"
           style="fill:#666666;fill-opacity:1;fill-rule:nonzero;stroke:none"
           d="m 0,0 c -11.857,0 -21.502,-9.644 -21.502,-21.502 0,-11.858 9.644,-21.503 21.502,-21.503 11.858,0 21.503,9.645 21.503,21.503 C 21.503,-9.645 11.858,0 0,0 m 0,-45.872 c -13.438,0 -24.369,10.933 -24.369,24.37 0,13.438 10.931,24.369 24.369,24.369 13.437,0 24.37,-10.931 24.37,-24.369 0,-13.437 -10.933,-24.37 -24.37,-24.37" />
      </g>
      <g
         transform="matrix(1.25,0,0,-1.25,195.2496,234.74856)"
         id="g560">
        <path
           inkscape:connector-curvature="0"
           id="path562"
           style="fill:#666666;fill-opacity:1;fill-rule:nonzero;stroke:none"
           d="m 0,0 c -7.998,0 -15.993,2.884 -22.278,8.651 l -1.036,-1.036 c -0.56,-0.56 -1.467,-0.56 -2.027,0 -0.56,0.56 -0.56,1.467 0,2.027 l 1.944,1.943 c 0.025,0.028 0.053,0.059 0.081,0.087 0.028,0.028 0.058,0.056 0.088,0.081 l 1.942,1.941 c 0.559,0.559 1.467,0.559 2.026,0 0.561,-0.561 0.561,-1.467 0,-2.028 l -0.988,-0.988 c 11.8,-10.737 30.134,-10.407 41.531,0.988 11.395,11.398 11.726,29.736 0.989,41.536 l -0.989,-0.99 c -0.559,-0.56 -1.467,-0.56 -2.026,0 -0.561,0.56 -0.561,1.467 0,2.027 l 4.054,4.054 c 0.559,0.561 1.467,0.561 2.027,0 0.56,-0.559 0.56,-1.467 0,-2.026 L 24.302,55.231 C 36.153,42.312 35.823,22.154 23.311,9.64 16.885,3.214 8.441,0.003 0,0 m -12.13,-7.182 24.253,0 c -7.498,3.775 -16.751,3.775 -24.253,0 m 29.276,-2.866 -34.297,0 c -0.618,0 -1.165,0.394 -1.361,0.979 -0.194,0.586 0.007,1.233 0.501,1.602 5.258,3.936 11.485,6.019 18.01,6.019 6.522,0 12.748,-2.083 18.006,-6.019 0.493,-0.369 0.694,-1.016 0.501,-1.602 -0.195,-0.585 -0.745,-0.979 -1.36,-0.979" />
      </g>
    </g>
  </g>
</svg>
