<?xml version="1.0" encoding="UTF-8" standalone="no"?>
<svg width="124px" height="47px" viewBox="0 0 124 47" version="1.1" xmlns="http://www.w3.org/2000/svg" xmlns:xlink="http://www.w3.org/1999/xlink" xmlns:sketch="http://www.bohemiancoding.com/sketch/ns">
    <!-- Generator: Sketch 3.4.4 (17249) - http://www.bohemiancoding.com/sketch -->
    <title>citrix</title>
    <desc>Created with Sketch.</desc>
    <defs></defs>
    <g id="landing" stroke="none" stroke-width="1" fill="none" fill-rule="evenodd" sketch:type="MSPage">
        <g id="landing_page" sketch:type="MSArtboardGroup" transform="translate(-1177.000000, -2659.000000)" fill="#F2F2F2">
            <g id="portfolio" sketch:type="MSLayerGroup" transform="translate(-1.000000, 1536.000000)">
                <g id="brands" transform="translate(1.000000, 969.000000)" sketch:type="MSShapeGroup">
                    <g id="brand-logos" transform="translate(65.000000, 150.000000)">
                        <path d="M1194.81754,14.5824419 L1201.79436,14.5824419 L1201.79436,39.9180942 L1194.81754,39.9180942 L1194.81754,14.5824419 Z M1131.51408,30.5871991 L1131.29336,30.8701239 C1130.53843,31.838746 1129.64467,32.5687271 1128.70838,32.9823948 C1127.69512,33.430154 1126.65445,33.6571968 1125.61554,33.6571968 C1123.74964,33.6571968 1122.20427,33.0674479 1121.02161,31.9051718 C1119.83965,30.7435985 1119.24041,29.2312688 1119.24041,27.4107092 C1119.24041,25.448863 1119.83298,23.8462082 1121.00123,22.6470288 C1122.16842,21.4503096 1123.72082,20.8429878 1125.61554,20.8429878 C1126.68503,20.8429878 1127.73062,21.0672189 1128.72384,21.5104092 C1129.82778,22.0017494 1130.61715,22.6512463 1131.28387,23.6177596 L1131.51408,23.9505917 L1135.33479,18.1272612 L1135.16188,17.9708618 C1133.16383,16.1601431 1130.99884,14.9739677 1128.72806,14.4446698 C1127.60937,14.1842384 1126.3297,14.0524412 1124.92492,14.0524412 C1121.23706,14.0524412 1118.12734,15.3226154 1115.68189,17.8271149 C1113.23889,20.3309115 1112,23.5123218 1112,27.2824266 C1112,31.0532342 1113.23643,34.2233978 1115.67486,36.7057554 C1118.11504,39.1884645 1121.22721,40.4477434 1124.92492,40.4477434 C1126.42952,40.4477434 1127.66771,40.3162976 1128.71014,40.0456739 C1129.86187,39.7462305 1132.80886,38.7614413 1135.2891,36.0808607 L1135.44199,35.9156748 L1131.51408,30.5871991 Z M1148.46215,14.5824419 L1148.46215,20.811005 L1155.10368,20.811005 L1155.10368,39.9180942 L1162.10299,39.9180942 L1162.10299,20.811005 L1168.71289,20.811005 L1168.71289,14.5824419 L1148.46215,14.5824419 Z M1183.47383,23.5249743 C1183.47383,24.5259307 1183.1779,25.2372844 1182.56918,25.7012108 C1181.94674,26.1753295 1180.94333,26.4157277 1179.5874,26.4157277 L1178.68731,26.4157277 L1178.68731,20.3769527 L1179.69986,20.3769527 C1181.09164,20.3769527 1182.08276,20.6222713 1182.64509,21.1062309 C1183.19513,21.5792952 1183.47383,22.3936266 1183.47383,23.5249743 Z M1185.36715,29.9292672 C1187.03236,29.502244 1188.33487,28.6991593 1189.24304,27.538289 C1190.21904,26.2902567 1190.7139,24.6640542 1190.7139,22.706074 C1190.7139,19.911269 1189.85704,17.8320353 1188.16722,16.5260123 C1186.49955,15.2365078 1183.59087,14.5824419 1179.52308,14.5824419 L1171.68835,14.5824419 L1171.68835,39.9180942 L1178.68731,39.9180942 L1178.68731,31.0089504 L1183.94338,39.9180942 L1192.21041,39.9180942 L1185.36715,29.9292672 Z M1216.43932,31.9051718 L1221.64619,39.9180942 L1229.70585,39.9180942 L1220.74118,26.5285462 L1228.84232,14.5824419 L1220.76297,14.5824419 L1216.4474,21.2274844 L1212.11566,14.5824419 L1204.03632,14.5824419 L1212.13745,26.5285462 L1203.17278,39.9180942 L1211.2328,39.9180942 L1216.43932,31.9051718 Z M1232.83595,20.1850559 C1231.41606,20.1850559 1230.26151,19.0305118 1230.26151,17.6109674 C1230.26151,16.1945861 1231.41606,15.0421508 1232.83595,15.0421508 C1234.25374,15.0421508 1235.40688,16.1945861 1235.40688,17.6109674 C1235.40688,19.0305118 1234.25374,20.1850559 1232.83595,20.1850559 Z M1232.83595,14.529723 C1231.13383,14.529723 1229.74873,15.9120127 1229.74873,17.6109674 C1229.74873,19.3130851 1231.13383,20.6978351 1232.83595,20.6978351 C1234.53491,20.6978351 1235.9172,19.3130851 1235.9172,17.6109674 C1235.9172,15.9120127 1234.53491,14.529723 1232.83595,14.529723 Z M1234.27588,16.8887183 C1234.27588,16.0097184 1233.57296,15.8786241 1233.15402,15.8786241 L1231.59706,15.8786241 L1231.59706,19.3088676 L1232.14182,19.3088676 L1232.14182,17.8984611 L1232.91011,17.8984611 L1233.79087,19.2842655 L1233.80668,19.3088676 L1234.46391,19.3088676 L1233.53922,17.8552316 C1234.17782,17.7142964 1234.27588,17.1937851 1234.27588,16.8887183 L1234.27588,16.8887183 Z M1198.33178,41.7358421 C1195.94537,41.7358421 1194.00356,43.6776551 1194.00356,46.0640643 C1194.00356,48.4504735 1195.94537,50.392638 1198.33178,50.392638 C1200.71854,50.392638 1202.66035,48.4504735 1202.66035,46.0640643 C1202.66035,43.6776551 1200.71854,41.7358421 1198.33178,41.7358421 M1138.5633,14.5824419 L1145.54012,14.5824419 L1145.54012,39.9180942 L1138.5633,39.9180942 L1138.5633,14.5824419 Z M1142.02588,12.7179499 C1144.41264,12.7179499 1146.35445,10.7761368 1146.35445,8.38972764 C1146.35445,6.00261554 1144.41264,4.06080247 1142.02588,4.06080247 C1139.63912,4.06080247 1137.69766,6.00261554 1137.69766,8.38972764 C1137.69766,10.7761368 1139.63912,12.7179499 1142.02588,12.7179499" id="citrix"></path>
                    </g>
                </g>
            </g>
        </g>
    </g>
</svg>