<svg width="26" height="26" viewBox="0 0 26 26" xmlns="http://www.w3.org/2000/svg"><title>github</title><path d="M17.454 25.215c-.126.045-.254.1-.384.123-.5.09-.818-.168-.82-.68-.008-.946-.008-1.892.007-2.84.017-1.09-.008-2.164-.838-3.063.492-.09.93-.15 1.36-.25 2.843-.652 4.32-2.445 4.508-5.422.097-1.515-.173-2.905-1.18-4.098-.073-.084-.077-.274-.042-.397.268-.986.19-1.95-.123-2.914-.077-.24-.205-.315-.443-.3-.835.047-1.6.34-2.274.79-.65.437-1.255.532-2.027.355-1.702-.385-3.413-.273-5.11.12-.192.046-.45-.015-.627-.118-.796-.467-1.593-.92-2.51-1.1-.712-.14-.774-.104-.962.582-.236.866-.26 1.733-.017 2.603.034.127-.002.33-.087.424-1.882 2.1-1.2 6.07.068 7.59.987 1.18 2.297 1.712 3.752 1.988.254.047.506.083.76.128-.218.566-.414 1.102-.635 1.628-.043.102-.18.187-.293.23-1.427.553-2.653.146-3.47-1.15-.436-.69-.996-1.205-1.83-1.355-.028-.006-.055-.02-.08-.016l-.67.18c.126.176.215.412.384.517.708.45 1.168 1.087 1.472 1.84.478 1.18 1.406 1.707 2.61 1.81.59.048 1.183.007 1.827.007 0 .734.026 1.57-.012 2.404-.02.45-.47.63-1.01.446-1.434-.49-2.763-1.194-3.91-2.182C.704 19.524-.894 15.012.484 9.73 1.857 4.465 5.434 1.236 10.786.222c7.403-1.4 14.417 3.99 15.15 11.507.58 5.923-2.906 11.467-8.482 13.485zm-6.98-6.507l-.01.028.04.006c.01 0 .02.02-.03-.034zm-3.35 2.34c.117.073.227.163.353.202.045.015.13-.09.28-.2-.208-.078-.33-.147-.46-.165-.05-.006-.114.107-.172.164zm1.056.182c.017.078.17.174.262.173.087-.002.173-.118.26-.184-.08-.074-.16-.145-.403-.365-.054.153-.142.277-.12.375zm1.294-.31c-.108.025-.2.126-.3.195.058.073.116.142.21.258.13-.118.216-.2.305-.28-.075-.064-.16-.187-.216-.174zm-3.208-.438c.06.115.154.213.28.374.085-.138.177-.244.16-.265-.08-.105-.188-.19-.295-.27-.007-.005-.156.137-.144.162z" fill="#F2EBEB" fill-rule="evenodd"/></svg>