<svg id="Layer_1" data-name="Layer 1" xmlns="http://www.w3.org/2000/svg" xmlns:xlink="http://www.w3.org/1999/xlink" viewBox="0 0 146.34 146.34"><defs><clipPath id="clip-path"><circle cx="73.25" cy="75.76" r="2.95" fill="#666"/></clipPath><clipPath id="clip-path-2"><rect x="46.67" y="31.46" width="71" height="71" fill="#666"/></clipPath><clipPath id="clip-path-3"><path d="M73.25,69.85a5.91,5.91,0,1,0,5.91,5.91A5.91,5.91,0,0,0,73.25,69.85Zm0,14.77a8.86,8.86,0,1,1,8.86-8.86A8.87,8.87,0,0,1,73.25,84.62Z" fill="#666" clip-rule="evenodd"/></clipPath><clipPath id="clip-path-5"><path d="M73.25,61A14.77,14.77,0,1,0,88,75.76,14.78,14.78,0,0,0,73.25,61Zm0,32.49A17.72,17.72,0,1,1,91,75.76,17.74,17.74,0,0,1,73.25,93.48Z" fill="#666" clip-rule="evenodd"/></clipPath><clipPath id="clip-path-7"><path d="M73.25,52.13A23.63,23.63,0,1,0,96.88,75.76,23.65,23.65,0,0,0,73.25,52.13Zm0,50.21A26.58,26.58,0,1,1,99.83,75.76,26.61,26.61,0,0,1,73.25,102.34Z" fill="#666" clip-rule="evenodd"/></clipPath><clipPath id="clip-path-9"><path d="M73.25,77.24a1.48,1.48,0,0,1-1-2.52l35.44-35.44a1.48,1.48,0,1,1,2.09,2.09L74.29,76.8A1.47,1.47,0,0,1,73.25,77.24Z" fill="#666" clip-rule="evenodd"/></clipPath><clipPath id="clip-path-11"><path d="M107.21,35c-4.15,1.62-11,5.1-12,9.41-0.52,2.12.37,4.29,2.73,6.65s4.54,3.25,6.65,2.73c4.33-1.06,7.8-7.88,9.41-12h-5.3a1.48,1.48,0,0,1-1.48-1.48V35h0Zm-3.82,21.89c-2.54,0-5.07-1.25-7.56-3.74-3.11-3.11-4.29-6.29-3.51-9.45,1.91-7.74,15.36-12,15.93-12.2a1.48,1.48,0,0,1,1.92,1.41v5.91h5.91a1.48,1.48,0,0,1,1.41,1.92c-0.18.57-4.46,14-12.21,15.93A7.81,7.81,0,0,1,103.39,56.92Z" fill="#666" clip-rule="evenodd"/></clipPath><clipPath id="clip-path-13"><rect x="99.83" y="36.17" width="2.95" height="11.53" fill="#666"/></clipPath><clipPath id="clip-path-15"><path d="M48.15,102.34a1.48,1.48,0,0,1-1-2.52l7.38-7.38a1.48,1.48,0,0,1,2.09,2.09l-7.38,7.38A1.47,1.47,0,0,1,48.15,102.34Z" fill="#666" clip-rule="evenodd"/></clipPath><clipPath id="clip-path-17"><path d="M98.35,102.34a1.47,1.47,0,0,1-1-.43l-7.38-7.38A1.48,1.48,0,0,1,92,92.43l7.38,7.38A1.48,1.48,0,0,1,98.35,102.34Z" fill="#666" clip-rule="evenodd"/></clipPath></defs><title>ic</title><circle cx="73.17" cy="73.17" r="72.17" fill="none" stroke="#666" stroke-miterlimit="10" stroke-width="2"/><circle cx="73.25" cy="75.76" r="2.95" fill="#666"/><g clip-path="url(#clip-path)"><rect x="46.67" y="31.46" width="71" height="71" fill="#666"/><g clip-path="url(#clip-path-2)"><rect x="65.3" y="67.81" width="15.91" height="15.91" fill="#666"/></g></g><path d="M73.25,69.85a5.91,5.91,0,1,0,5.91,5.91A5.91,5.91,0,0,0,73.25,69.85Zm0,14.77a8.86,8.86,0,1,1,8.86-8.86A8.87,8.87,0,0,1,73.25,84.62Z" fill="#666" fill-rule="evenodd"/><g clip-path="url(#clip-path-3)"><rect x="46.67" y="31.46" width="71" height="71" fill="#666"/><g clip-path="url(#clip-path-2)"><rect x="59.39" y="61.9" width="27.72" height="27.72" fill="#666"/></g></g><path d="M73.25,61A14.77,14.77,0,1,0,88,75.76,14.78,14.78,0,0,0,73.25,61Zm0,32.49A17.72,17.72,0,1,1,91,75.76,17.74,17.74,0,0,1,73.25,93.48Z" fill="#666" fill-rule="evenodd"/><g clip-path="url(#clip-path-5)"><rect x="46.67" y="31.46" width="71" height="71" fill="#666"/><g clip-path="url(#clip-path-2)"><rect x="50.53" y="53.04" width="45.44" height="45.44" fill="#666"/></g></g><path d="M73.25,52.13A23.63,23.63,0,1,0,96.88,75.76,23.65,23.65,0,0,0,73.25,52.13Zm0,50.21A26.58,26.58,0,1,1,99.83,75.76,26.61,26.61,0,0,1,73.25,102.34Z" fill="#666" fill-rule="evenodd"/><g clip-path="url(#clip-path-7)"><rect x="46.67" y="31.46" width="71" height="71" fill="#666"/><g clip-path="url(#clip-path-2)"><rect x="41.67" y="44.18" width="63.16" height="63.16" fill="#666"/></g></g><path d="M73.25,77.24a1.48,1.48,0,0,1-1-2.52l35.44-35.44a1.48,1.48,0,1,1,2.09,2.09L74.29,76.8A1.47,1.47,0,0,1,73.25,77.24Z" fill="#666" fill-rule="evenodd"/><g clip-path="url(#clip-path-9)"><rect x="46.67" y="31.46" width="71" height="71" fill="#666"/><g clip-path="url(#clip-path-2)"><rect x="66.77" y="33.84" width="48.39" height="48.39" fill="#666"/></g></g><path d="M107.21,35c-4.15,1.62-11,5.1-12,9.41-0.52,2.12.37,4.29,2.73,6.65s4.54,3.25,6.65,2.73c4.33-1.06,7.8-7.88,9.41-12h-5.3a1.48,1.48,0,0,1-1.48-1.48V35h0Zm-3.82,21.89c-2.54,0-5.07-1.25-7.56-3.74-3.11-3.11-4.29-6.29-3.51-9.45,1.91-7.74,15.36-12,15.93-12.2a1.48,1.48,0,0,1,1.92,1.41v5.91h5.91a1.48,1.48,0,0,1,1.41,1.92c-0.18.57-4.46,14-12.21,15.93A7.81,7.81,0,0,1,103.39,56.92Z" fill="#666" fill-rule="evenodd"/><g clip-path="url(#clip-path-11)"><rect x="46.67" y="31.46" width="71" height="71" fill="#666"/><g clip-path="url(#clip-path-2)"><rect x="87.09" y="26.46" width="35.46" height="35.46" fill="#666"/></g></g><rect x="99.83" y="36.17" width="2.95" height="11.53" fill="#666"/><g clip-path="url(#clip-path-13)"><rect x="46.67" y="31.46" width="71" height="71" fill="#666"/><g clip-path="url(#clip-path-2)"><rect x="94.83" y="31.17" width="12.95" height="21.53" fill="#666"/></g></g><path d="M48.15,102.34a1.48,1.48,0,0,1-1-2.52l7.38-7.38a1.48,1.48,0,0,1,2.09,2.09l-7.38,7.38A1.47,1.47,0,0,1,48.15,102.34Z" fill="#666" fill-rule="evenodd"/><g clip-path="url(#clip-path-15)"><rect x="46.67" y="31.46" width="71" height="71" fill="#666"/><g clip-path="url(#clip-path-2)"><rect x="41.67" y="87" width="20.34" height="20.34" fill="#666"/></g></g><path d="M98.35,102.34a1.47,1.47,0,0,1-1-.43l-7.38-7.38A1.48,1.48,0,0,1,92,92.43l7.38,7.38A1.48,1.48,0,0,1,98.35,102.34Z" fill="#666" fill-rule="evenodd"/><g clip-path="url(#clip-path-17)"><rect x="46.67" y="31.46" width="71" height="71" fill="#666"/><g clip-path="url(#clip-path-2)"><rect x="84.49" y="87" width="20.34" height="20.34" fill="#666"/></g></g></svg>