<svg id="Layer_1" data-name="Layer 1" xmlns="http://www.w3.org/2000/svg" viewBox="0 0 146.34 146.34"><title>ic</title><circle cx="72.65" cy="72.8" r="72.17" fill="none" stroke="#666" stroke-miterlimit="10" stroke-width="2"/><path d="M95.44,88.76L81.23,74.55,92.76,63a11.46,11.46,0,0,0,13.5-14.85l-5.44,5.42a5.11,5.11,0,0,1-7.23-7.23L99,40.94A11.44,11.44,0,0,0,84.17,54.42L72.65,66,61.12,54.43A11.46,11.46,0,0,0,46.27,40.94l5.42,5.42a5.11,5.11,0,0,1-7.23,7.23L39,48.17A11.46,11.46,0,0,0,52.54,63L64.06,74.55l-14.2,14.2a9.28,9.28,0,1,0,8.59,8.59l14.2-14.2,14.2,14.2a9.29,9.29,0,1,0,8.59-8.57h0Zm-45,13.93-4.73-1.26L44.49,96.7l3.45-3.45,4.73,1.26,1.26,4.73Zm49-1.25-4.73,1.25-3.45-3.45,1.26-4.72,4.73-1.26,3.45,3.45Zm0,0" fill="none" stroke="#666" stroke-miterlimit="10" stroke-width="2"/></svg>