<?xml version="1.0" encoding="UTF-8" standalone="no"?>
<svg width="114px" height="64px" viewBox="0 0 114 64" version="1.1" xmlns="http://www.w3.org/2000/svg" xmlns:xlink="http://www.w3.org/1999/xlink" xmlns:sketch="http://www.bohemiancoding.com/sketch/ns">
    <!-- Generator: sketchtool 3.4.4 (395) - http://www.bohemiancoding.com/sketch -->
    <title>ic-location</title>
    <desc>Created with sketchtool.</desc>
    <defs></defs>
    <g id="contact" stroke="none" stroke-width="1" fill="none" fill-rule="evenodd" sketch:type="MSPage">
        <g id="contact_desktop" sketch:type="MSArtboardGroup" transform="translate(-927.000000, -871.000000)">
            <g id="contact-section" sketch:type="MSLayerGroup" transform="translate(0.000000, 801.000000)">
                <g id="Rua-da-Glória-190,-s-+-Type-something-+-ic-location" transform="translate(833.000000, 70.000000)" sketch:type="MSShapeGroup">
                    <g id="ic-location" transform="translate(94.000000, 0.000000)">
                        <path d="M56.550222,0 L56.550222,0 C48.5137367,0 42.0242262,6.44444444 42.0242262,14.4251208 C42.0242262,17.2077295 42.9193311,19.8647343 44.1646944,22.0482126 L53.6314016,38.3186473 C54.2248951,39.3814493 55.4216114,39.9128502 56.550222,39.9128502 C57.6789298,39.9128502 58.8171724,39.3814493 59.4690423,38.3186473 L68.9357495,22.0578744 C70.1908422,19.8742029 71.0762177,17.2655072 71.0762177,14.4345894 C71.0762177,6.45410628 64.5867072,0 56.550222,0 L56.550222,0 Z M56.550222,18.6859903 C53.6314016,18.6859903 51.2476984,16.3188406 51.2476984,13.4202899 C51.2476984,10.5217391 53.6314016,8.15458937 56.550222,8.15458937 C59.4690423,8.15458937 61.8527455,10.5217391 61.8527455,13.4202899 C61.8527455,16.3285024 59.4690423,18.6859903 56.550222,18.6859903 L56.550222,18.6859903 Z" id="marker" fill="#373131"></path>
                        <g id="map" transform="translate(0.000000, 24.000000)" stroke="#373131" stroke-width="2">
                            <path d="M20,0 L94,0 L114,40 L0,40 L20,0 Z" id="Rectangle-33"></path>
                            <path d="M28,38 L41.5,1.5" id="Line" stroke-linecap="square"></path>
                            <path d="M74,38 L86.5,2.5" id="Line" stroke-linecap="square" transform="translate(80.500000, 20.000000) scale(1, -1) translate(-80.500000, -20.000000) "></path>
                        </g>
                    </g>
                </g>
            </g>
        </g>
    </g>
</svg>