<svg id="Layer_1" data-name="Layer 1" xmlns="http://www.w3.org/2000/svg" viewBox="0 0 146.34 146.34"><title>ic</title><circle cx="73.83" cy="73.51" r="72.17" fill="none" stroke="#666" stroke-miterlimit="10" stroke-width="2"/><path d="M67.31,58.13a1.64,1.64,0,0,1-.58-0.1L53.1,52.94l3-14.22a1.65,1.65,0,1,1,3.23.68L56.93,50.84l11,4.09a1.65,1.65,0,0,1-.58,3.2h0Zm0,0" fill="#666"/><path d="M104.31,76.61A1.65,1.65,0,0,1,102.66,75,28.6,28.6,0,0,0,57,52a1.65,1.65,0,0,1-2-2.65A31.9,31.9,0,0,1,106,75a1.65,1.65,0,0,1-1.65,1.65h0Zm0,0" fill="#666"/><path d="M73.6,104a31.94,31.94,0,0,1-31.9-31.9,1.65,1.65,0,1,1,3.3,0A28.6,28.6,0,0,0,90.63,95a1.65,1.65,0,0,1,2,2.65,31.64,31.64,0,0,1-19,6.28h0Zm0,0" fill="#666"/><path d="M89.93,109.61a1.55,1.55,0,0,1-.35,0,1.65,1.65,0,0,1-1.27-2l2.43-11.44-11-4.09A1.65,1.65,0,0,1,80.94,89l13.62,5.09-3,14.22a1.65,1.65,0,0,1-1.61,1.31h0Zm0,0" fill="#666"/></svg>