<svg id="Layer_1" data-name="Layer 1" xmlns="http://www.w3.org/2000/svg" xmlns:xlink="http://www.w3.org/1999/xlink" viewBox="0 0 146.34 146.34"><defs><clipPath id="clip-path"><path d="M60.71,42.65h3a0.81,0.81,0,1,0,0-1.58h-3A0.81,0.81,0,1,0,60.71,42.65Z" fill="#666" clip-rule="evenodd"/></clipPath><clipPath id="clip-path-2"><rect x="53.67" y="35.01" width="39" height="78" fill="#666"/></clipPath><clipPath id="clip-path-3"><path d="M84.87,41.07H67.76a0.81,0.81,0,1,0,0,1.58H84.87A0.81,0.81,0,1,0,84.87,41.07Z" fill="#666" clip-rule="evenodd"/></clipPath><clipPath id="clip-path-5"><path d="M84.87,45.13H60.71a0.81,0.81,0,1,0,0,1.58H84.87A0.81,0.81,0,1,0,84.87,45.13Z" fill="#666" clip-rule="evenodd"/></clipPath><clipPath id="clip-path-7"><path d="M84.87,49.18h-3a0.81,0.81,0,1,0,0,1.58h3A0.81,0.81,0,1,0,84.87,49.18Z" fill="#666" clip-rule="evenodd"/></clipPath><clipPath id="clip-path-9"><path d="M60.71,50.76H77.82a0.81,0.81,0,1,0,0-1.58H60.71A0.81,0.81,0,1,0,60.71,50.76Z" fill="#666" clip-rule="evenodd"/></clipPath><clipPath id="clip-path-11"><path d="M84.87,53.23H60.71a0.81,0.81,0,1,0,0,1.58H84.87A0.81,0.81,0,1,0,84.87,53.23Z" fill="#666" clip-rule="evenodd"/></clipPath><clipPath id="clip-path-13"><path d="M91.62,113H54.71a1,1,0,0,1-1-1v-3.6a6.7,6.7,0,0,1,4.51-6.28L67.34,99V94.47h1.94v5.18a1,1,0,0,1-.64.9L58.91,104a4.78,4.78,0,0,0-3.22,4.49v2.64h35v-2.64A4.78,4.78,0,0,0,87.42,104l-9.73-3.41a1,1,0,0,1-.64-0.9V94.11H79V99l9.08,3.19a6.7,6.7,0,0,1,4.51,6.28V112A1,1,0,0,1,91.62,113Z" fill="#666" clip-rule="evenodd"/></clipPath><clipPath id="clip-path-15"><path d="M72.92,73.91c-4.82,0-8.74,4.7-8.74,10.49s3.92,10.49,8.74,10.49,8.74-4.7,8.74-10.49S77.74,73.91,72.92,73.91Zm0,22.88c-5.89,0-10.68-5.56-10.68-12.39S67,72,72.92,72,83.61,77.57,83.61,84.4,78.81,96.79,72.92,96.79Z" fill="#666" clip-rule="evenodd"/></clipPath><clipPath id="clip-path-17"><path d="M80,84.57a6.71,6.71,0,0,1-5.67-3.13,10.77,10.77,0,0,1-7.25,3,8.9,8.9,0,0,1-4.21-1l0.9-1.69a6.9,6.9,0,0,0,3.31.78c2.54,0,5.56-1.48,6.45-3.17a1,1,0,0,1,.84-0.51h0a1,1,0,0,1,.84.48c1.66,2.85,3.4,3.76,6.23,3.22l1-.1,0.2,1.9-0.88.09A9.45,9.45,0,0,1,80,84.57Z" fill="#666" clip-rule="evenodd"/></clipPath></defs><title>ic</title><circle cx="73.17" cy="73.51" r="72.17" fill="none" stroke="#666" stroke-miterlimit="10" stroke-width="2"/><path d="M90.91,41.07a5.06,5.06,0,0,0-5-5.07H59.7a5.06,5.06,0,0,0-5,5.07V55.26a5.06,5.06,0,0,0,5,5.07H73.8v4.05a1,1,0,0,0,.62.94,1,1,0,0,0,1.1-.22l4.74-4.77h5.62a5.06,5.06,0,0,0,5-5.07V41.07Z" fill="none" stroke="#666" stroke-miterlimit="10" stroke-width="2"/><path d="M60.71,42.65h3a0.81,0.81,0,1,0,0-1.58h-3A0.81,0.81,0,1,0,60.71,42.65Z" fill="#666" fill-rule="evenodd"/><g clip-path="url(#clip-path)"><rect x="53.67" y="35.01" width="39" height="78" fill="#666"/><g clip-path="url(#clip-path-2)"><rect x="54.7" y="36.07" width="15.03" height="11.58" fill="#666"/></g></g><path d="M84.87,41.07H67.76a0.81,0.81,0,1,0,0,1.58H84.87A0.81,0.81,0,1,0,84.87,41.07Z" fill="#666" fill-rule="evenodd"/><g clip-path="url(#clip-path-3)"><rect x="53.67" y="35.01" width="39" height="78" fill="#666"/><g clip-path="url(#clip-path-2)"><rect x="61.75" y="36.07" width="29.13" height="11.58" fill="#666"/></g></g><path d="M84.87,45.13H60.71a0.81,0.81,0,1,0,0,1.58H84.87A0.81,0.81,0,1,0,84.87,45.13Z" fill="#666" fill-rule="evenodd"/><g clip-path="url(#clip-path-5)"><rect x="53.67" y="35.01" width="39" height="78" fill="#666"/><g clip-path="url(#clip-path-2)"><rect x="54.7" y="40.13" width="36.17" height="11.58" fill="#666"/></g></g><path d="M84.87,49.18h-3a0.81,0.81,0,1,0,0,1.58h3A0.81,0.81,0,1,0,84.87,49.18Z" fill="#666" fill-rule="evenodd"/><g clip-path="url(#clip-path-7)"><rect x="53.67" y="35.01" width="39" height="78" fill="#666"/><g clip-path="url(#clip-path-2)"><rect x="75.84" y="44.18" width="15.03" height="11.58" fill="#666"/></g></g><path d="M60.71,50.76H77.82a0.81,0.81,0,1,0,0-1.58H60.71A0.81,0.81,0,1,0,60.71,50.76Z" fill="#666" fill-rule="evenodd"/><g clip-path="url(#clip-path-9)"><rect x="53.67" y="35.01" width="39" height="78" fill="#666"/><g clip-path="url(#clip-path-2)"><rect x="54.7" y="44.18" width="29.13" height="11.58" fill="#666"/></g></g><path d="M84.87,53.23H60.71a0.81,0.81,0,1,0,0,1.58H84.87A0.81,0.81,0,1,0,84.87,53.23Z" fill="#666" fill-rule="evenodd"/><g clip-path="url(#clip-path-11)"><rect x="53.67" y="35.01" width="39" height="78" fill="#666"/><g clip-path="url(#clip-path-2)"><rect x="54.7" y="48.23" width="36.17" height="11.58" fill="#666"/></g></g><path d="M91.62,113H54.71a1,1,0,0,1-1-1v-3.6a6.7,6.7,0,0,1,4.51-6.28L67.34,99V94.47h1.94v5.18a1,1,0,0,1-.64.9L58.91,104a4.78,4.78,0,0,0-3.22,4.49v2.64h35v-2.64A4.78,4.78,0,0,0,87.42,104l-9.73-3.41a1,1,0,0,1-.64-0.9V94.11H79V99l9.08,3.19a6.7,6.7,0,0,1,4.51,6.28V112A1,1,0,0,1,91.62,113Z" fill="#666" fill-rule="evenodd"/><g clip-path="url(#clip-path-13)"><rect x="53.67" y="35.01" width="39" height="78" fill="#666"/><g clip-path="url(#clip-path-2)"><rect x="48.74" y="89.11" width="48.85" height="28.89" fill="#666"/></g></g><path d="M72.92,73.91c-4.82,0-8.74,4.7-8.74,10.49s3.92,10.49,8.74,10.49,8.74-4.7,8.74-10.49S77.74,73.91,72.92,73.91Zm0,22.88c-5.89,0-10.68-5.56-10.68-12.39S67,72,72.92,72,83.61,77.57,83.61,84.4,78.81,96.79,72.92,96.79Z" fill="#666" fill-rule="evenodd"/><g clip-path="url(#clip-path-15)"><rect x="53.67" y="35.01" width="39" height="78" fill="#666"/><g clip-path="url(#clip-path-2)"><rect x="57.24" y="67.01" width="31.37" height="34.79" fill="#666"/></g></g><path d="M80,84.57a6.71,6.71,0,0,1-5.67-3.13,10.77,10.77,0,0,1-7.25,3,8.9,8.9,0,0,1-4.21-1l0.9-1.69a6.9,6.9,0,0,0,3.31.78c2.54,0,5.56-1.48,6.45-3.17a1,1,0,0,1,.84-0.51h0a1,1,0,0,1,.84.48c1.66,2.85,3.4,3.76,6.23,3.22l1-.1,0.2,1.9-0.88.09A9.45,9.45,0,0,1,80,84.57Z" fill="#666" fill-rule="evenodd"/><g clip-path="url(#clip-path-17)"><rect x="53.67" y="35.01" width="39" height="78" fill="#666"/><g clip-path="url(#clip-path-2)"><rect x="57.89" y="73.81" width="29.76" height="15.76" fill="#666"/></g></g></svg>