<?xml version="1.0" encoding="UTF-8" standalone="no"?>
<svg width="442px" height="438px" viewBox="0 0 442 438" version="1.1" xmlns="http://www.w3.org/2000/svg" xmlns:xlink="http://www.w3.org/1999/xlink" xmlns:sketch="http://www.bohemiancoding.com/sketch/ns">
    <!-- Generator: sketchtool 3.5.2 (25235) - http://www.bohemiancoding.com/sketch -->
    <title>ozzy</title>
    <desc>Created with sketchtool.</desc>
    <defs>
        <path id="path-1" d="M0,0.456530769 L441.806801,0.456530769 L441.806801,438 L0,438 L0,0.456530769 Z"></path>
    </defs>
    <g id="redirect" stroke="none" stroke-width="1" fill="none" fill-rule="evenodd" sketch:type="MSPage">
        <g id="404" sketch:type="MSArtboardGroup" transform="translate(-210.000000, -190.000000)">
            <g id="text" sketch:type="MSLayerGroup" transform="translate(210.000000, 159.000000)">
                <g id="ozzy" transform="translate(0.000000, 31.000000)">
                    <g id="mesa" transform="translate(0.000000, 400.000000)" sketch:type="MSShapeGroup">
                        <path d="M61.0842877,0.93863 L0.000112325286,31.8631146 L404.23579,31.8631146 L349.42442,0.93863 L61.0842877,0.93863 Z" id="Fill-1" fill="#444141"></path>
                        <path d="M0,38 L404.235677,38 L404.235677,31.8629462 L0,31.8629462 L0,38 Z" id="Fill-2" fill="#383232"></path>
                    </g>
                    <g id="boneco">
                        <path d="M334.963663,408.323478 C329.567556,408.323478 324.214694,406.003763 320.511891,401.518194 L237.713553,301.237532 C231.129045,293.262563 232.256791,281.461271 240.232448,274.878917 C248.209228,268.294878 260.011246,269.423009 266.594631,277.397978 L349.394092,377.679202 C355.977477,385.654171 354.849731,397.454902 346.874636,404.037817 C343.385251,406.918509 339.160697,408.323478 334.963663,408.323478" id="Fill-3" fill="#FF4245" sketch:type="MSShapeGroup"></path>
                        <path d="M359.64866,389.754805 C359.64866,402.685913 349.165342,413.168713 336.232208,413.168713 C323.299075,413.168713 312.815194,402.685913 312.815194,389.754805 C312.815194,376.823698 323.299075,366.342021 336.232208,366.342021 C349.165342,366.342021 359.64866,376.823698 359.64866,389.754805" id="Fill-5" fill="#A40710" sketch:type="MSShapeGroup"></path>
                        <path d="M401.498422,313.514672 C401.498422,313.514672 400.392018,319.122195 396.152862,321.207188 C396.077042,321.351503 395.992237,321.49638 395.906308,321.641257 L387.302753,335.681403 L348.799891,398.506326 C344.374275,405.730518 334.927718,408.002503 327.701833,403.57758 C320.476509,399.144234 318.204168,389.699157 322.638209,382.474403 C322.935309,381.981372 323.3189,381.445103 323.659246,381.002049 L379.073241,310.638472 L379.097952,310.60478 L379.097952,310.596918 L385.498247,300.546503 L386.1795,299.474526 L396.680791,302.733134 L401.498422,313.514672 Z" id="Fill-7" fill="#FBD8C2" sketch:type="MSShapeGroup"></path>
                        <path d="M401.498422,313.514672 C401.498422,313.514672 400.392018,319.122195 396.152862,321.207188 C396.077042,321.351503 395.992237,321.49638 395.906308,321.641257 L387.302753,335.681403 L385.498247,300.546503 L386.1795,299.474526 L396.680791,302.733134 L401.498422,313.514672 Z" id="Fill-9" fill="#F2BAA1" sketch:type="MSShapeGroup"></path>
                        <path d="M379.097728,310.596806 L379.097728,310.604668 L379.073016,310.63836 L379.073016,310.289645 C379.073016,310.391845 379.08144,310.494045 379.097728,310.596806" id="Fill-11" fill="#FFE89A" sketch:type="MSShapeGroup"></path>
                        <path d="M435.095309,273.167516 C435.095309,275.382785 433.282378,277.195432 431.066762,277.195432 L394.933403,277.195432 C392.718348,277.195432 390.905979,275.382785 390.905979,273.167516 L390.905979,269.275493 C390.905979,267.060224 392.718348,265.247578 394.933403,265.247578 L431.066762,265.247578 C433.282378,265.247578 435.095309,267.060224 435.095309,269.275493 L435.095309,273.167516 Z" id="Fill-13" fill="#383232" sketch:type="MSShapeGroup"></path>
                        <path d="M435.094691,278.093444 L435.044144,278.535375 L434.166884,286.568744 L428.796612,335.846552 L397.204564,335.846552 L391.835415,286.568744 L390.957593,278.535375 L390.907608,278.093444 L435.094691,278.093444 Z" id="Fill-15" fill="#F2F2F2" sketch:type="MSShapeGroup"></path>
                        <mask id="mask-2" sketch:name="Clip 18" fill="white">
                            <use xlink:href="#path-1"></use>
                        </mask>
                        <g id="Clip-18"></g>
                        <path d="M438.327525,278.328223 L387.673875,278.328223 L387.673875,272.286631 L438.327525,272.286631 L438.327525,278.328223 Z" id="Fill-17" fill="#383232" sketch:type="MSShapeGroup" mask="url(#mask-2)"></path>
                        <path d="M412.868156,305.532347 C411.838133,305.532347 410.854726,304.75967 410.854726,303.683201 C410.854726,302.535416 411.884748,301.693108 412.985536,301.693108 C414.015559,301.693108 414.998967,302.465785 414.998967,303.542255 C414.998967,304.689478 413.945356,305.532347 412.868156,305.532347 L412.868156,305.532347 Z M412.868156,312.274178 C411.838133,312.274178 410.854726,311.501501 410.854726,310.425032 C410.854726,309.300832 411.884748,308.458524 412.985536,308.458524 C414.015559,308.458524 414.998967,309.207616 414.998967,310.30767 C414.998967,311.431308 413.945356,312.274178 412.868156,312.274178 L412.868156,312.274178 Z M425.558667,306.956408 L423.875473,300.678408 L419.279684,296.082778 L413.001262,294.40097 L406.72284,296.082778 L402.125366,300.678408 L400.443856,306.956408 L400.447226,306.969885 L400.443856,306.983362 L401.194751,309.786001 L401.501961,310.932101 L402.125928,313.261924 L402.706088,313.841432 L402.943094,314.078401 L404.900362,316.035362 L406.722278,317.856432 L408.791872,318.411232 L409.342266,318.558916 L410.619966,318.900893 L410.626705,318.903139 L412.057168,319.286108 L412.065592,319.288355 L413.001262,319.539362 L415.533635,318.860462 L415.552731,318.85597 L417.021945,318.462332 L417.046095,318.455593 L418.143513,318.161347 L418.143513,318.161347 L419.280245,317.856993 L421.625597,315.512008 L421.83733,315.300308 L422.491064,314.646116 L422.492187,314.645555 L423.495813,313.641524 L423.715409,313.421962 L423.876034,313.261924 L424.008017,312.768893 L424.056316,312.589201 L424.075973,312.515078 L424.076535,312.513955 L424.761719,309.95727 L425.332893,307.824547 L425.558667,306.983362 L425.554736,306.969885 L425.558667,306.956408 Z" id="Fill-19" fill="#B71F25" sketch:type="MSShapeGroup" mask="url(#mask-2)"></path>
                        <path d="M435.044987,278.329571 L434.167726,286.36294 L391.835696,286.36294 L390.958435,278.329571 L435.044987,278.329571 Z" id="Fill-20" fill-opacity="0.400000006" fill="#89817E" sketch:type="MSShapeGroup" mask="url(#mask-2)"></path>
                        <path d="M394.058557,313.147202 C391.444186,313.147202 388.991563,311.528848 388.054209,308.92724 L382.377851,293.185071 C381.18271,289.869748 382.901848,286.213571 386.218814,285.018055 C389.53241,283.82254 393.192529,285.540848 394.388232,288.857855 L400.064028,304.600025 C401.258608,307.915348 399.540031,311.572086 396.223627,312.767602 C395.508676,313.025909 394.777439,313.147202 394.058557,313.147202" id="Fill-21" fill="#FBD8C2" sketch:type="MSShapeGroup" mask="url(#mask-2)"></path>
                        <path d="M427.29252,296.206035 C425.424551,296.206035 423.6251,295.177858 422.727621,293.395535 C421.458906,290.877035 422.473204,287.807666 424.992098,286.539712 L434.402149,281.803135 C436.921044,280.535182 439.992017,281.548197 441.26017,284.067258 C442.528322,286.585758 441.514586,289.655689 438.99513,290.923082 L429.585079,295.659658 C428.848225,296.030274 428.064757,296.206035 427.29252,296.206035" id="Fill-22" fill="#FBD8C2" sketch:type="MSShapeGroup" mask="url(#mask-2)"></path>
                        <path d="M427.29252,307.480829 C425.424551,307.480829 423.6251,306.453775 422.727621,304.670329 C421.458906,302.151829 422.473204,299.08246 424.992098,297.814506 L434.402149,293.077929 C436.921044,291.809975 439.992017,292.822991 441.26017,295.342052 C442.528322,297.860552 441.514586,300.930483 438.99513,302.197875 L429.585079,306.934452 C428.848225,307.306191 428.064757,307.480829 427.29252,307.480829" id="Fill-23" fill="#FBD8C2" sketch:type="MSShapeGroup" mask="url(#mask-2)"></path>
                        <path d="M427.29252,318.755623 C425.424551,318.755623 423.6251,317.727446 422.727621,315.945123 C421.458906,313.426623 422.473204,310.357254 424.992098,309.0893 L434.402149,304.352723 C436.921044,303.085331 439.992017,304.097785 441.26017,306.616846 C442.528322,309.135346 441.514586,312.205277 438.99513,313.472669 L429.585079,318.210369 C428.848225,318.580985 428.064757,318.755623 427.29252,318.755623" id="Fill-24" fill="#FBD8C2" sketch:type="MSShapeGroup" mask="url(#mask-2)"></path>
                        <path d="M276.184683,308.067805 L276.184683,416.683382 L137.090596,416.683382 L137.090596,308.067805 C137.090596,287.854667 153.643974,271.304444 173.869826,271.304444 L239.414439,271.304444 C259.640291,271.304444 276.184683,287.854667 276.184683,308.067805" id="Fill-25" fill="#FF4245" sketch:type="MSShapeGroup" mask="url(#mask-2)"></path>
                        <path d="M77.4488463,407.200402 C73.3068513,407.200402 69.1407065,405.814525 65.6973748,402.972017 C57.8284269,396.477263 56.715845,384.834325 63.2110546,376.966048 L144.902989,278.025217 C151.399883,270.157502 163.044084,269.043409 170.913593,275.539848 C178.782541,282.03404 179.895123,293.67754 173.399352,301.545817 L91.707418,400.486086 C88.0540381,404.911009 82.7719416,407.200402 77.4488463,407.200402" id="Fill-26" fill="#FF4245" sketch:type="MSShapeGroup" mask="url(#mask-2)"></path>
                        <path d="M53.0137159,389.754805 C53.0137159,402.685913 63.4970348,413.168713 76.4307299,413.168713 C89.3638633,413.168713 99.8471822,402.685913 99.8471822,389.754805 C99.8471822,376.823698 89.3638633,366.342021 76.4307299,366.342021 C63.4970348,366.342021 53.0137159,376.823698 53.0137159,389.754805" id="Fill-27" fill="#A40710" sketch:type="MSShapeGroup" mask="url(#mask-2)"></path>
                        <path d="M76.4434226,374.438058 L151.436838,379.781658 C156.980091,380.176981 161.154099,384.990488 160.758714,390.532873 C160.398149,395.596827 156.345453,399.516365 151.420551,399.85385 L76.4175878,405.071665 C67.9566856,405.660158 60.6201596,399.279958 60.0315751,390.819819 C59.442429,382.360242 65.8247517,375.024304 74.2856539,374.436373 C74.9848788,374.386958 75.7627314,374.394258 76.4434226,374.438058" id="Fill-28" fill="#FBD8C2" sketch:type="MSShapeGroup" mask="url(#mask-2)"></path>
                        <path d="M225.06713,271.328028 C225.06713,271.328028 221.556965,283.255667 206.640167,283.255667 C191.722807,283.255667 188.213204,271.328028 188.213204,271.328028 L188.213204,226.596436 L225.06713,226.596436 L225.06713,271.328028 Z" id="Fill-29" fill="#FBD8C2" sketch:type="MSShapeGroup" mask="url(#mask-2)"></path>
                        <path d="M225.067299,260.101808 L188.213372,260.101808 L188.213372,250.311385 L225.067299,250.311385 L225.067299,260.101808 Z" id="Fill-30" fill="#F2BAA1" sketch:type="MSShapeGroup" mask="url(#mask-2)"></path>
                        <path d="M143.510267,172.160336 C143.510267,180.150467 137.031345,186.628936 129.039401,186.628936 C121.047457,186.628936 114.568534,180.150467 114.568534,172.160336 C114.568534,164.170205 121.047457,157.691736 129.039401,157.691736 C137.031345,157.691736 143.510267,164.170205 143.510267,172.160336" id="Fill-31" fill="#F2BAA1" sketch:type="MSShapeGroup" mask="url(#mask-2)"></path>
                        <path d="M298.711294,172.160336 C298.711294,180.150467 292.232933,186.628936 284.240428,186.628936 C276.247922,186.628936 269.770123,180.150467 269.770123,172.160336 C269.770123,164.170205 276.247922,157.691736 284.240428,157.691736 C292.232933,157.691736 298.711294,164.170205 298.711294,172.160336" id="Fill-32" fill="#F2BAA1" sketch:type="MSShapeGroup" mask="url(#mask-2)"></path>
                        <path d="M284.024426,89.6071631 L284.024426,205.072386 C284.024426,226.338971 266.628609,243.73094 245.369364,243.73094 L167.918271,243.73094 C146.648917,243.73094 129.253661,226.338971 129.253661,205.072386 L129.253661,89.6071631 C129.253661,68.3506862 146.648917,50.9587169 167.918271,50.9587169 L245.369364,50.9587169 C266.628609,50.9587169 284.024426,68.3506862 284.024426,89.6071631" id="Fill-33" fill="#FBD8C2" sketch:type="MSShapeGroup" mask="url(#mask-2)"></path>
                        <path d="M134.536151,109.470519 L134.536151,111.81775 C134.536151,111.81775 134.475495,110.94175 134.475495,109.470519 L134.536151,109.470519 Z" id="Fill-34" fill="#432427" sketch:type="MSShapeGroup" mask="url(#mask-2)"></path>
                        <path d="M278.803154,109.470519 C278.803154,110.94175 278.741375,111.81775 278.741375,111.81775 L278.741375,109.470519 L278.803154,109.470519 Z" id="Fill-35" fill="#432427" sketch:type="MSShapeGroup" mask="url(#mask-2)"></path>
                        <path d="M171.549242,44.2398531 C170.733761,44.3201531 170.209763,44.3313838 170.039029,44.3313838 C170.482152,44.3100454 170.985369,44.2802838 171.549242,44.2398531" id="Fill-36" fill="#432427" sketch:type="MSShapeGroup" mask="url(#mask-2)"></path>
                        <path d="M144.611167,147.514525 C144.611167,149.729795 146.424098,151.542441 148.639714,151.542441 L181.876766,151.542441 C184.093505,151.542441 185.905312,149.729795 185.905312,147.514525 L185.905312,145.396402 C185.905312,143.180572 184.093505,141.368487 181.876766,141.368487 L148.639714,141.368487 C146.424098,141.368487 144.611167,143.180572 144.611167,145.396402 L144.611167,147.514525 Z" id="Fill-37" fill="#383232" sketch:type="MSShapeGroup" mask="url(#mask-2)"></path>
                        <path d="M255.48712,112.601938 L157.79108,112.601938 C156.955941,112.601938 156.279743,111.925846 156.279743,111.091962 C156.279743,110.258077 156.955941,109.580862 157.79108,109.580862 L255.48712,109.580862 C256.320574,109.580862 256.996772,110.258077 256.996772,111.091962 C256.996772,111.925846 256.320574,112.601938 255.48712,112.601938" id="Fill-38" fill="#F2BAA1" sketch:type="MSShapeGroup" mask="url(#mask-2)"></path>
                        <path d="M255.48712,99.6616215 L157.79108,99.6616215 C156.955941,99.6616215 156.279743,98.9855292 156.279743,98.1510831 C156.279743,97.31776 156.955941,96.6399831 157.79108,96.6399831 L255.48712,96.6399831 C256.320574,96.6399831 256.996772,97.31776 256.996772,98.1510831 C256.996772,98.9855292 256.320574,99.6616215 255.48712,99.6616215" id="Fill-39" fill="#F2BAA1" sketch:type="MSShapeGroup" mask="url(#mask-2)"></path>
                        <path d="M287.800409,413.924263 C287.800409,420.061878 282.778346,425.08484 276.639769,425.08484 L133.345278,425.08484 C127.206701,425.08484 122.184076,420.061878 122.184076,413.924263 L122.184076,336.540332 C122.184076,330.403278 127.206701,325.380317 133.345278,325.380317 L276.639769,325.380317 C282.778346,325.380317 287.800409,330.403278 287.800409,336.540332 L287.800409,413.924263 Z" id="Fill-40" fill="#E6E6E6" sketch:type="MSShapeGroup" mask="url(#mask-2)"></path>
                        <path d="M409.088354,257.446966 C413.156214,246.890043 406.007272,232.635389 398.401165,218.394212 C390.598489,204.153597 390.714184,189.924774 409.088354,179.421197 C405.141244,189.924774 412.158204,204.153597 419.738476,218.394212 C427.494537,232.635389 427.439498,246.890043 409.088354,257.446966" id="Fill-41" fill="#FFFFFF" sketch:type="MSShapeGroup" mask="url(#mask-2)"></path>
                        <path d="M125.85453,50.0169046 L116.273744,40.4387431 C115.737953,39.9019123 115.737953,39.0320892 116.273744,38.4969431 C116.810098,37.9601123 117.680057,37.9601123 118.21641,38.49582 L127.797195,48.0751046 C128.333549,48.6119354 128.332987,49.4817585 127.797195,50.0174662 C127.260842,50.5537354 126.390883,50.5537354 125.85453,50.0169046" id="Fill-42" fill="#FFFFFF" sketch:type="MSShapeGroup" mask="url(#mask-2)"></path>
                        <path d="M130.673453,45.1975569 C130.517882,45.0414492 130.397133,44.8454723 130.329737,44.6197338 L126.424749,31.5269031 C126.207961,30.7997108 126.62188,30.0354569 127.348063,29.8187031 C128.075369,29.6013877 128.840304,30.0152415 129.055969,30.7424338 L132.961519,43.8352646 C133.178868,44.5618954 132.76495,45.3267108 132.038205,45.5434646 C131.537796,45.6928338 131.018291,45.5423415 130.673453,45.1975569" id="Fill-43" fill="#FFFFFF" sketch:type="MSShapeGroup" mask="url(#mask-2)"></path>
                        <path d="M107.939657,50.9343462 C107.594819,50.589 107.445426,50.0695769 107.594819,49.5698077 C107.811045,48.8426154 108.575419,48.4293231 109.302725,48.6460769 L122.397607,52.5510154 C123.124351,52.7677692 123.53827,53.5320231 123.32092,54.2592154 C123.104133,54.9852846 122.339759,55.3991385 121.613014,55.1818231 L108.517571,51.2780077 C108.291797,51.2095 108.09579,51.0898923 107.939657,50.9343462" id="Fill-44" fill="#FFFFFF" sketch:type="MSShapeGroup" mask="url(#mask-2)"></path>
                        <path d="M178.344978,166.670792 C178.344978,173.897231 172.48553,179.755762 165.257959,179.755762 C158.030389,179.755762 152.171502,173.897231 152.171502,166.670792 C152.171502,159.444354 158.030389,153.585823 165.257959,153.585823 C172.48553,153.585823 178.344978,159.444354 178.344978,166.670792" id="Fill-45" fill="#F2BAA1" sketch:type="MSShapeGroup" mask="url(#mask-2)"></path>
                        <path d="M176.970903,166.670792 C176.970903,173.138592 171.726997,178.381677 165.258184,178.381677 C158.789371,178.381677 153.545465,173.138592 153.545465,166.670792 C153.545465,160.202992 158.789371,154.959908 165.258184,154.959908 C171.726997,154.959908 176.970903,160.202992 176.970903,166.670792" id="Fill-46" fill="#F4B38B" sketch:type="MSShapeGroup" mask="url(#mask-2)"></path>
                        <path d="M175.003526,166.670792 C175.003526,172.052015 170.64025,176.414608 165.258184,176.414608 C159.876118,176.414608 155.512842,172.052015 155.512842,166.670792 C155.512842,161.289569 159.876118,156.926977 165.258184,156.926977 C170.64025,156.926977 175.003526,161.289569 175.003526,166.670792" id="Fill-47" fill="#FFFFFF" sketch:type="MSShapeGroup" mask="url(#mask-2)"></path>
                        <path d="M170.130855,166.670792 C170.130855,169.361685 167.949498,171.5427 165.258184,171.5427 C162.56687,171.5427 160.385513,169.361685 160.385513,166.670792 C160.385513,163.9799 162.56687,161.798885 165.258184,161.798885 C167.949498,161.798885 170.130855,163.9799 170.130855,166.670792" id="Fill-48" fill="#383232" sketch:type="MSShapeGroup" mask="url(#mask-2)"></path>
                        <path d="M258.675024,166.670792 C258.675024,173.897231 252.815576,179.755762 245.588005,179.755762 C238.360435,179.755762 232.501548,173.897231 232.501548,166.670792 C232.501548,159.444354 238.360435,153.585823 245.588005,153.585823 C252.815576,153.585823 258.675024,159.444354 258.675024,166.670792" id="Fill-49" fill="#F2BAA1" sketch:type="MSShapeGroup" mask="url(#mask-2)"></path>
                        <path d="M257.300893,166.670792 C257.300893,173.138592 252.056987,178.381677 245.588174,178.381677 C239.11936,178.381677 233.875454,173.138592 233.875454,166.670792 C233.875454,160.202992 239.11936,154.959908 245.588174,154.959908 C252.056987,154.959908 257.300893,160.202992 257.300893,166.670792" id="Fill-50" fill="#F4B38B" sketch:type="MSShapeGroup" mask="url(#mask-2)"></path>
                        <path d="M255.333572,166.670792 C255.333572,172.052015 250.970296,176.414608 245.58823,176.414608 C240.206164,176.414608 235.842888,172.052015 235.842888,166.670792 C235.842888,161.289569 240.206164,156.926977 245.58823,156.926977 C250.970296,156.926977 255.333572,161.289569 255.333572,166.670792" id="Fill-51" fill="#FFFFFF" sketch:type="MSShapeGroup" mask="url(#mask-2)"></path>
                        <path d="M250.460901,166.670792 C250.460901,169.361685 248.279544,171.5427 245.58823,171.5427 C242.896916,171.5427 240.715559,169.361685 240.715559,166.670792 C240.715559,163.9799 242.896916,161.798885 245.58823,161.798885 C248.279544,161.798885 250.460901,163.9799 250.460901,166.670792" id="Fill-52" fill="#383232" sketch:type="MSShapeGroup" mask="url(#mask-2)"></path>
                        <path d="M165.273572,44.3813608 C142.551852,44.3813608 123.969318,62.9609838 123.969318,85.6684762 L123.969318,196.621176 L134.534635,196.621176 L134.534635,111.819884 C134.534635,111.819884 134.473979,110.943884 134.473979,109.474338 C134.484088,101.52913 136.196487,76.0717838 157.870774,76.0717838 L183.553951,76.0717838 L220.143351,76.0717838 L255.404505,76.0717838 C277.078792,76.0717838 278.791191,101.52913 278.801862,109.474338 C278.801862,110.943884 278.740083,111.819884 278.740083,111.819884 L278.740083,196.621176 L289.305961,196.621176 L289.305961,85.6684762 C289.305961,62.9609838 270.722866,44.3813608 248.011816,44.3813608 L165.273572,44.3813608 Z" id="Fill-53" fill="#383232" sketch:type="MSShapeGroup" mask="url(#mask-2)"></path>
                        <path d="M204.873515,375.071473 C203.953571,375.071473 203.075187,374.381342 203.075187,373.419988 C203.075187,372.395181 203.995131,371.642719 204.977977,371.642719 C205.898483,371.642719 206.776867,372.332288 206.776867,373.294204 C206.776867,374.319012 205.835581,375.071473 204.873515,375.071473 L204.873515,375.071473 Z M204.873515,381.093412 C203.953571,381.093412 203.075187,380.402719 203.075187,379.441365 C203.075187,378.437335 203.995131,377.685435 204.977977,377.685435 C205.898483,377.685435 206.776867,378.354227 206.776867,379.336919 C206.776867,380.340388 205.835581,381.093412 204.873515,381.093412 L204.873515,381.093412 Z M216.208259,376.343358 L214.705347,370.736396 L210.599858,366.63155 L204.992018,365.129435 L199.38474,366.63155 L195.278689,370.736396 L193.776338,376.343358 L193.779708,376.35515 L193.776338,376.367504 L194.44692,378.870281 L194.721556,379.894527 L195.279251,381.975027 L195.79707,382.492765 L196.008803,382.704465 L197.757146,384.452535 L199.384178,386.079312 L201.233052,386.574588 L201.724475,386.70655 L202.8657,387.012027 L202.871317,387.013712 L204.149017,387.35625 L204.156318,387.357935 L204.992018,387.581988 L207.254249,386.976088 L207.27166,386.971596 L208.583057,386.620073 L208.604961,386.613896 L209.585561,386.351658 L209.585561,386.351096 L210.60042,386.079312 L212.695286,383.984773 L212.884554,383.796096 L213.468084,383.211535 L213.469207,383.210973 L214.365563,382.314196 L214.562132,382.118219 L214.705347,381.975027 L214.823289,381.535342 L214.866534,381.374181 L214.883944,381.308481 L214.884506,381.307358 L215.496117,379.023581 L216.006636,377.118842 L216.208259,376.367504 L216.20489,376.355712 L216.208259,376.343358 Z" id="Fill-54" fill="#FFFFFF" sketch:type="MSShapeGroup" mask="url(#mask-2)"></path>
                        <path d="M134.535926,141.696931 L123.97061,141.696931 L123.97061,137.9992 L134.535926,137.9992 L134.535926,141.696931 Z" id="Fill-55" fill="#5B5959" sketch:type="MSShapeGroup" mask="url(#mask-2)"></path>
                        <path d="M134.535926,150.419308 L123.97061,150.419308 L123.97061,146.721577 L134.535926,146.721577 L134.535926,150.419308 Z" id="Fill-56" fill="#5B5959" sketch:type="MSShapeGroup" mask="url(#mask-2)"></path>
                        <path d="M289.307814,141.696931 L278.741375,141.696931 L278.741375,137.9992 L289.307814,137.9992 L289.307814,141.696931 Z" id="Fill-57" fill="#5B5959" sketch:type="MSShapeGroup" mask="url(#mask-2)"></path>
                        <path d="M289.307814,150.419308 L278.741375,150.419308 L278.741375,146.721577 L289.307814,146.721577 L289.307814,150.419308 Z" id="Fill-58" fill="#5B5959" sketch:type="MSShapeGroup" mask="url(#mask-2)"></path>
                        <path d="M289.307534,191.683344 L289.307534,209.013544 C289.307534,231.731705 270.724438,250.311328 248.013389,250.311328 L165.275145,250.311328 C142.553424,250.311328 123.970891,231.731705 123.970891,209.013544 L123.970891,191.582828 L134.536207,191.582828 C134.536207,191.582828 135.543203,209.326321 157.368006,209.326321 C179.193933,209.326321 182.719262,186.557621 197.071064,186.557621 L216.015846,186.557621 C230.36821,186.557621 233.903648,209.326321 255.718342,209.326321 C277.544268,209.326321 278.741094,191.582828 278.741094,191.582828 L289.115457,191.582828 L289.307534,191.683344 Z" id="Fill-59" fill="#383232" sketch:type="MSShapeGroup" mask="url(#mask-2)"></path>
                        <path d="M206.640055,196.125169 C201.355712,196.125169 197.071625,191.841754 197.071625,186.558238 L197.071625,158.352162 C197.071625,153.069208 201.355712,148.785792 206.640055,148.785792 C211.924398,148.785792 216.208484,153.069208 216.208484,158.352162 L216.208484,186.558238 C216.208484,191.841754 211.924398,196.125169 206.640055,196.125169" id="Fill-60" fill="#F4B38B" sketch:type="MSShapeGroup" mask="url(#mask-2)"></path>
                        <path d="M186.795322,204.63725 L180.846013,210.719835 C179.797456,211.792373 179.210557,213.232158 179.210557,214.731465 L179.210557,218.590358 C179.210557,223.980565 183.581134,228.349896 188.972186,228.349896 L190.978877,228.349896 C192.193113,228.349896 193.356803,227.863604 194.209352,226.998835 L198.138491,223.014719 C199.699251,221.432865 201.828938,220.541704 204.050732,220.541704 L209.035167,220.541704 C211.257522,220.541704 213.386648,221.432865 214.947408,223.014719 L218.876547,226.998835 C219.729096,227.863604 220.892786,228.349896 222.107022,228.349896 L224.114275,228.349896 C229.505327,228.349896 233.875342,223.980565 233.875342,218.590358 L233.875342,214.731465 C233.875342,213.232158 233.288442,211.792373 232.239886,210.719835 L226.290577,204.63725 C222.401314,200.660996 217.073726,198.419335 211.510816,198.419335 L201.575083,198.419335 C196.012173,198.419335 190.684585,200.660996 186.795322,204.63725" id="Fill-61" fill="#FBD8C2" sketch:type="MSShapeGroup" mask="url(#mask-2)"></path>
                        <path d="M191.125967,215.920579 C191.125967,210.192325 198.072724,205.551772 206.636966,205.551772 C215.207947,205.551772 222.154142,210.192325 222.154142,215.920579 L191.125967,215.920579 Z" id="Fill-62" fill="#F4B38B" sketch:type="MSShapeGroup" mask="url(#mask-2)"></path>
                        <path d="M224.940989,131.789539 C224.940989,134.004808 226.753919,135.817455 228.969535,135.817455 L262.206587,135.817455 C264.423327,135.817455 266.235134,134.004808 266.235134,131.789539 L266.235134,129.671416 C266.235134,127.455585 264.423327,125.643501 262.206587,125.643501 L228.969535,125.643501 C226.753919,125.643501 224.940989,127.455585 224.940989,129.671416 L224.940989,131.789539 Z" id="Fill-63" fill="#383232" sketch:type="MSShapeGroup" mask="url(#mask-2)"></path>
                        <path d="M126.701013,72.3463131 C130.69867,59.0221285 141.035404,52.4852592 141.035404,52.4852592 C141.035404,52.4852592 140.467038,44.8157669 142.229422,40.5907515 C144.820766,34.3773285 148.994212,30.9519438 148.994212,30.9519438 C148.994212,30.9519438 146.354568,34.3498131 145.950197,39.4070285 C145.611536,43.6348515 149.026225,48.4169131 149.026225,48.4169131 C149.026225,48.4169131 150.730761,33.8096131 172.888047,24.5577054 C195.046456,15.3074823 215.012838,29.1842208 231.813331,28.9410746 C248.614385,28.6968054 260.05977,9.95152846 260.05977,9.95152846 L250.890657,32.39229 C250.890657,32.39229 271.519758,27.1284285 281.729003,0.456474615 C281.729003,0.456474615 286.193371,55.0992208 274.43516,79.8074746 C274.43516,79.8074746 210.592838,100.622582 178.271237,70.0148054 C145.950197,39.4070285 126.701013,72.3463131 126.701013,72.3463131" id="Fill-64" fill="#383232" sketch:type="MSShapeGroup" mask="url(#mask-2)"></path>
                    </g>
                </g>
            </g>
        </g>
    </g>
</svg>