<svg width="182" height="51" viewBox="0 0 182 51" xmlns="http://www.w3.org/2000/svg"><title>ESPN_wordmark</title><path d="M6.373.78H45.36l-1.655 14.14H4.787L6.373.78zM4.085 20.118h39.03l-1.2 11.5H17.52l-.634 5.5H41.33L39.81 50.25H.686l3.398-30.133zm41.908-5.198s.272-4.823 1.36-7.334c1.02-2.36 2.378-4.068 4.666-5.5C53.376 1.284 55.8.782 55.8.782h70.226s2.945.05 4.213.63c1.36.626 3.33 1.555 4.373 4.368 1.02 2.687.815 3.566.815 6.253 0 2.637-.07 2.89-.07 2.89H45.994zm-.634 5.322h35.926s3.195 0 4.667.98c1.54 1.13 2.243 2.51 2.696 4.695.43 2.185-.77 13.21-1.474 15.896-.77 2.637-1.676 5.123-5.39 7.182-3.33 1.883-8.383 1.256-8.383 1.256H42.37l1.834-13.132h29.064l.59-5.575h-20.05s-3.26.503-6.32-2.435c-1.857-1.758-2.06-4.445-2.174-5.625-.136-.678.045-3.24.045-3.24zm46.732 0h42.385s-.386 5.424-1.54 7.358c-1.156 2.01-2.176 3.09-4.1 3.566-1.972.502-4.917.502-4.917.502h-18.44l-1.924 18.583H88.763l3.33-30.007zm45.262-5.198h44.038s.838-4.27.385-6.956c-.453-2.687-1.54-4.495-3.33-5.8-2.355-1.835-6.66-1.508-6.59-1.508h-32.713l-1.79 14.264zm-.567 5.198h14.59l-3.33 30.01H133.57l3.218-30.01zm29.314.126h14.454l-3.33 29.883H162.84l3.262-29.88z" fill="#FF4245" fill-rule="evenodd"/></svg>