<svg id="Layer_1" data-name="Layer 1" xmlns="http://www.w3.org/2000/svg" viewBox="0 0 207.68 182.9"><title>ic_metho_monday</title><path d="M43.73,139.21a20.64,20.64,0,1,1,20.64-20.64,20.66,20.66,0,0,1-20.64,20.64h0Z" fill="#666"/><path d="M40.54,182.9a96.66,96.66,0,0,1-19.12-1.62c-6.06-1.32-9-3.33-9-6.14,0-19.14,14.05-34.71,31.33-34.71S75.06,156,75.06,175.15c0,6.36-24.92,7.76-34.53,7.76h0Z" fill="#666"/><rect x="47.96" y="49.97" width="6.25" height="14.38" fill="none" stroke="#666" stroke-miterlimit="10" stroke-width="1.5"/><rect x="58.62" y="43.35" width="6.25" height="21" fill="none" stroke="#666" stroke-miterlimit="10" stroke-width="1.5"/><rect x="69.66" y="27.16" width="6.25" height="37.18" fill="none" stroke="#666" stroke-miterlimit="10" stroke-width="1.5"/><path d="M18,55.51l14.85-2.12c0-4.62,6.36-10.31,6.36-18.12a13.7,13.7,0,0,0-27.4,0C11.85,43,18,48.7,18,53.32v2.19Z" fill="none" stroke="#666" stroke-miterlimit="10" stroke-width="1.5"/><line x1="19.04" y1="58.56" x2="32.61" y2="56.5" fill="none" stroke="#666" stroke-miterlimit="10" stroke-width="1.5"/><line x1="19.04" y1="61.3" x2="32.61" y2="59.24" fill="none" stroke="#666" stroke-miterlimit="10" stroke-width="1.5"/><path d="M30.83,63.35c0,1.14-2.27,2.05-5.07,2.05s-5.07-.92-5.07-2.05" fill="none" stroke="#666" stroke-miterlimit="10" stroke-width="1.5"/><path d="M23.7,50.43c0-8.77-2.53-11.87-2.53-11.87a2.19,2.19,0,0,0,4.38,0,2.19,2.19,0,0,0,4.38,0,33.35,33.35,0,0,0-2,11.87" fill="none" stroke="#666" stroke-miterlimit="10" stroke-width="1.5"/><path d="M78,1H7A6,6,0,0,0,1,7V76a6,6,0,0,0,6,6H38.14l7.31,7.31L51.86,82H78a6,6,0,0,0,6-6V7A6,6,0,0,0,78,1Z" fill="none" stroke="#666" stroke-miterlimit="10" stroke-width="2"/><line x1="140.57" y1="21.57" x2="162.9" y2="21.57" fill="none" stroke="#666" stroke-miterlimit="10" stroke-width="1.5"/><circle cx="128.6" cy="22.07" r="3.88" fill="none" stroke="#666" stroke-miterlimit="10" stroke-width="1.5"/><line x1="140.57" y1="42.46" x2="162.9" y2="42.46" fill="none" stroke="#666" stroke-miterlimit="10" stroke-width="1.5"/><circle cx="128.6" cy="42.97" r="3.88" fill="none" stroke="#666" stroke-miterlimit="10" stroke-width="1.5"/><line x1="141.11" y1="63.36" x2="163.45" y2="63.36" fill="none" stroke="#666" stroke-miterlimit="10" stroke-width="1.5"/><circle cx="129.28" cy="63.86" r="3.88" fill="none" stroke="#666" stroke-miterlimit="10" stroke-width="1.5"/><path d="M171,1H114a6,6,0,0,0-6,6V76a6,6,0,0,0,6,6h24l7.31,7.31,6.4-7.31H171a6,6,0,0,0,6-6V7A6,6,0,0,0,171,1Z" fill="none" stroke="#666" stroke-miterlimit="10" stroke-width="2"/><path d="M110.53,99.93a18.64,18.64,0,1,1-18.64,18.64,18.66,18.66,0,0,1,18.64-18.64m0-2a20.64,20.64,0,1,0,20.64,20.64,20.66,20.66,0,0,0-20.64-20.64h0Z" fill="#666"/><path d="M110.53,142.43c16.17,0,29.33,14.67,29.33,32.71,0,0.68-2.15,2.77-12,4.29a149.66,149.66,0,0,1-20.56,1.47,94.51,94.51,0,0,1-18.69-1.57c-2.78-.6-7.45-2-7.45-4.18,0-18,13.16-32.71,29.33-32.71m0-2c-17.28,0-31.33,15.57-31.33,34.71,0,2.81,3,4.82,9,6.14a96.66,96.66,0,0,0,19.12,1.62c9.61,0,34.53-1.4,34.53-7.76,0-19.14-14.06-34.71-31.33-34.71h0Z" fill="#666"/><path d="M176.34,99.93a18.64,18.64,0,1,1-18.64,18.64,18.66,18.66,0,0,1,18.64-18.64m0-2A20.64,20.64,0,1,0,197,118.57a20.66,20.66,0,0,0-20.64-20.64h0Z" fill="#666"/><path d="M176.34,142.43c16.17,0,29.33,14.67,29.33,32.71,0,0.68-2.15,2.77-12,4.29a149.66,149.66,0,0,1-20.56,1.47,94.5,94.5,0,0,1-18.69-1.57c-2.78-.6-7.45-2-7.45-4.18,0-18,13.16-32.71,29.33-32.71m0-2C159.06,140.43,145,156,145,175.15c0,2.81,3,4.82,9,6.14a96.66,96.66,0,0,0,19.12,1.62c9.61,0,34.53-1.4,34.53-7.76,0-19.14-14.06-34.71-31.33-34.71h0Z" fill="#666"/></svg>
