<svg id="Layer_1" data-name="Layer 1" xmlns="http://www.w3.org/2000/svg" viewBox="0 0 192 184.94"><title>ic_metho_friday</title><path d="M44.53,141.24a20.64,20.64,0,1,1,20.64-20.64,20.66,20.66,0,0,1-20.64,20.64h0Z" fill="#666"/><path d="M41.34,184.94a96.66,96.66,0,0,1-19.12-1.62c-6.06-1.32-9-3.33-9-6.14,0-19.14,14.05-34.71,31.33-34.71S75.86,158,75.86,177.18c0,6.36-24.92,7.76-34.53,7.76h0Z" fill="#666"/><path d="M78,1H7A6,6,0,0,0,1,7V76a6,6,0,0,0,6,6H37.63l7.31,7.31L51.35,82H78a6,6,0,0,0,6-6V7A6,6,0,0,0,78,1Z" fill="none" stroke="#666" stroke-miterlimit="10" stroke-width="2"/><path d="M42.73,61.2A14.44,14.44,0,0,1,28.31,46.77a0.8,0.8,0,1,1,1.6,0,12.82,12.82,0,0,0,25.65,0,0.8,0.8,0,1,1,1.6,0A14.44,14.44,0,0,1,42.73,61.2h0Z" fill="#666"/><path d="M30.09,37.62a0.79,0.79,0,0,1-.29-0.05,0.8,0.8,0,0,1-.47-1,5,5,0,0,1,4.84-3,5.16,5.16,0,0,1,4.9,3,0.8,0.8,0,0,1-1.49.61,3.59,3.59,0,0,0-3.41-2,3.45,3.45,0,0,0-3.34,1.94,0.8,0.8,0,0,1-.75.52h0Z" fill="#666"/><path d="M55.5,37.62a0.8,0.8,0,0,1-.74-0.5,3.59,3.59,0,0,0-3.42-2A3.46,3.46,0,0,0,48,37.11a0.8,0.8,0,0,1-1.5-.58,5,5,0,0,1,4.84-3,5.16,5.16,0,0,1,4.9,3,0.8,0.8,0,0,1-.44,1,0.82,0.82,0,0,1-.3.06h0Z" fill="#666"/><circle cx="42.73" cy="43.38" r="24.08" fill="none" stroke="#666" stroke-miterlimit="10" stroke-width="1.5"/><path d="M93.57,132.28a1.08,1.08,0,0,1-.38-0.07l-9-3.36,2-9.41a1.09,1.09,0,1,1,2.14.45l-1.61,7.57,7.25,2.71a1.09,1.09,0,0,1-.38,2.12h0Zm0,0" fill="#666"/><path d="M118.05,144.51a1.09,1.09,0,0,1-1.09-1.09,18.92,18.92,0,0,0-30.19-15.2,1.09,1.09,0,0,1-1.3-1.76,21.11,21.11,0,0,1,33.68,17,1.09,1.09,0,0,1-1.09,1.09h0Zm0,0" fill="#666"/><path d="M97.73,162.6a21.13,21.13,0,0,1-21.11-21.11,1.09,1.09,0,1,1,2.19,0A18.92,18.92,0,0,0,109,156.69a1.09,1.09,0,0,1,1.3,1.76,20.93,20.93,0,0,1-12.58,4.16h0Zm0,0" fill="#666"/><path d="M108.53,166.34l-0.23,0a1.09,1.09,0,0,1-.84-1.3l1.61-7.57-7.25-2.71a1.09,1.09,0,0,1,.76-2l9,3.37-2,9.41a1.09,1.09,0,0,1-1.07.87h0Zm0,0" fill="#666"/><path d="M151.53,102a18.64,18.64,0,1,1-18.64,18.64A18.66,18.66,0,0,1,151.53,102m0-2a20.64,20.64,0,1,0,20.64,20.64A20.66,20.66,0,0,0,151.53,100h0Z" fill="#666"/><path d="M151.53,144.47c16.17,0,29.33,14.67,29.33,32.71,0,0.68-2.15,2.77-12,4.29a149.67,149.67,0,0,1-20.56,1.47,94.5,94.5,0,0,1-18.69-1.57c-2.78-.6-7.45-2-7.45-4.18,0-18,13.16-32.71,29.33-32.71m0-2c-17.28,0-31.33,15.57-31.33,34.71,0,2.81,3,4.82,9,6.14a96.66,96.66,0,0,0,19.12,1.62c9.61,0,34.53-1.4,34.53-7.76,0-19.14-14.06-34.71-31.33-34.71h0Z" fill="#666"/><path d="M185,1H114a6,6,0,0,0-6,6V76a6,6,0,0,0,6,6h30.63l7.31,7.31,6.4-7.31H185a6,6,0,0,0,6-6V7A6,6,0,0,0,185,1Z" fill="none" stroke="#666" stroke-miterlimit="10" stroke-width="2"/><rect x="143.58" y="27.33" width="6.1" height="5.55" fill="none" stroke="#666" stroke-miterlimit="10" stroke-width="1.5"/><rect x="143.58" y="36.8" width="8.9" height="5.55" fill="none" stroke="#666" stroke-miterlimit="10" stroke-width="1.5"/><rect x="143.58" y="46.6" width="15.76" height="5.55" fill="none" stroke="#666" stroke-miterlimit="10" stroke-width="1.5"/><rect x="137.49" y="13.88" width="27.95" height="51.96" rx="3.6" ry="3.6" fill="none" stroke="#666" stroke-miterlimit="10" stroke-width="1.5"/><line x1="149.49" y1="62.44" x2="153.44" y2="62.44" fill="none" stroke="#666" stroke-linecap="round" stroke-linejoin="round" stroke-width="1.5"/><line x1="149.49" y1="17.98" x2="153.44" y2="17.98" fill="none" stroke="#666" stroke-linecap="round" stroke-linejoin="round" stroke-width="1.5"/><line x1="137" y1="21.5" x2="166" y2="21.5" fill="none" stroke="#666" stroke-miterlimit="10"/><line x1="137" y1="59.5" x2="166" y2="59.5" fill="none" stroke="#666" stroke-miterlimit="10"/></svg>