<svg width="195" height="31" viewBox="0 0 195 31" xmlns="http://www.w3.org/2000/svg"><title>locaweb</title><g fill="#F2EBEB" fill-rule="evenodd"><path d="M4.623.62h5.645l-3.12 16.675c-.38 2.056-.596 3.46-.596 4.118-.072 1.403.318 2.256 1.3 2.802.877.463 2.524.77 4.977.77h5.468l-.984 5.21h-6.062c-2.844.12-4.873-.11-6.137-.54-2.77-.853-4.207-2.916-4.42-6.186 0-1.2.212-3.258.773-6.175L4.623.62zM70.138 24.986l-.98 5.21h-9.29c-1.753 0-3.118-.11-3.998-.228-3.154-.745-5.12-2.797-5.885-6.184-.492-2.177-.385-4.975.208-8.24.772-3.964 2.14-7.22 3.995-9.717 1.366-1.826 2.944-3.153 4.8-3.888C60.846 1.045 63.09.62 65.72.62h9.11l-.977 5.32H65.44c-2.556 0-4.59.744-6.06 2.258-1.163 1.202-2.142 3.5-2.74 6.687-.873 4.354-.598 7.267.597 8.71.98.852 2.526 1.39 4.767 1.39h8.134zM109.247.62L111 22.923 120.885.62h6.35l1.36 22.304L138.84.62h5.778l-14.154 29.576H123.9l-1.433-21.34-9.603 21.34h-6.448L103.366.62h5.88zM167.896.62l-.987 5.32h-7.43c-1.962 0-3.43.125-4.307.433-.978.31-1.756.847-2.523 1.75a8.41 8.41 0 0 0-1.197 1.708c-.172.665-.594 1.634-.876 3.036h14.97l-.98 5.284h-15.07c-.282 2.483.096 4.347.977 5.32.98.98 2.838 1.517 5.575 1.517h7.255l-1.09 5.21h-7.323c-2.07 0-3.823-.11-5.295-.35-2.343-.43-3.99-1.595-5.08-3.573-1.47-2.678-1.75-6.377-.882-11.04.99-5.05 3.127-9.097 6.557-12.007 1.158-.972 2.35-1.635 3.507-1.944 1.192-.43 2.733-.664 4.588-.664h9.608zM87.734 18.143h3.824l-1.86-10.37-1.964 3.574V.732L94.396.62l5.356 29.576h-6.62l-1.296-6.845H87.73v-5.207h.004zm0 0v5.21h-6.066l-3.89 6.843h-6.66L87.734.728v10.614l-3.823 6.8h3.824zM182.09 12.862h1.437c.807 0 1.368-.08 1.752-.196.42-.12.805-.234 1.194-.546a5.108 5.108 0 0 0 1.856-2.913c.177-1.204 0-2.063-.7-2.607-.487-.466-1.36-.66-2.73-.66h-2.806V.62h5.467c2.35 0 4 .347 4.984.897 1.08.737 1.857 1.946 2.13 3.457.32 1.09.32 2.246 0 3.455-.273 1.516-.872 2.916-1.852 4.353-.983 1.245-2.138 2.103-3.33 2.64 2.344 1.328 3.156 3.693 2.56 6.963-.39 1.938-1.086 3.574-2.14 4.897-.98 1.048-2.074 1.94-3.263 2.367-1.048.315-2.59.546-4.554.546v-5.21c.382-.117.666-.117.844-.117.485-.113.805-.31 1.187-.657.987-.625 1.58-1.597 1.864-2.92.202-1.2 0-2.053-.704-2.6-.486-.426-1.363-.662-2.624-.662h-.566v-5.168h-.006zm-.036 0h.036v5.163h-7.359l-1.26 6.96h8.62v5.21h-15.387L172.38.614h9.707V5.94h-5.011l-1.26 6.922h6.238zM34.488 25.185a6.81 6.81 0 0 0 3.75-2.14c1.476-1.635 2.558-4.24 3.154-7.624.564-3.063.564-5.36 0-6.994-.697-1.94-2.344-2.912-5.01-2.912-.667 0-1.228 0-1.895.08V.613c.95-.112 1.824-.112 2.875-.197 2.666 0 4.907.548 6.765 1.517 2.14 1.287 3.4 3.23 3.82 6.065.384 2.295.176 4.86-.422 7.89-.492 3.036-1.438 5.636-2.8 7.777-1.686 2.727-3.753 4.585-6.383 5.557-1.155.545-2.417.86-3.855 1.044v-5.083zm-.034.032c0-.032 0-.032.034-.032v5.083l-.034.047c-.805.075-1.577.075-2.452.075-2.945 0-5.468-.62-7.433-1.826-1.685-1.083-2.842-2.722-3.437-4.897-.49-2.256-.49-4.973.106-8.124 1.085-5.596 3.12-9.602 6.168-11.973 1.86-1.557 4.205-2.53 7.044-2.956h.033v4.98c-.033 0-.033 0-.033.032-1.683.433-3.154 1.293-4.206 2.692-1.192 1.426-2.065 3.803-2.662 7.034-.668 3.452-.564 6.058.21 7.692.772 1.628 2.452 2.377 4.8 2.377.668 0 1.264 0 1.86-.203z"/></g></svg>