<svg data-name="Layer 1" xmlns="http://www.w3.org/2000/svg" viewBox="0 0 402.52 141.73"><title>logo_branco</title><path d="M182.81 100V76.36H170V100h-13.33V43.4H170v21.37h12.76V43.4h13.38V100h-13.33zm19.3 0V43.4h32.78v11.5h-19.4v9.88h14.91v11.67h-14.91V88.3h20.39V100h-33.77zm39.6-31.64c0-4.4 4-7.63 8.17-7.63 4 0 7.73 3 7.73 7.1 0 4.4-4 7.63-8.17 7.63-3.95 0-7.73-2.96-7.73-7.1zm0 25.87c0-4.31 4-7.55 8.17-7.55 4 0 7.73 2.87 7.73 7.1s-4 7.54-8.17 7.54c-3.95 0-7.73-2.96-7.73-7.09zm23.35-13.38V37.56h12.84v43.29a61 61 0 0 0 2.79 19.15h-12.57c-1.62-3.7-3.06-9.18-3.06-19.15zm51.64 20.47c-4.67 0-7.27-3.05-7.81-7.09-1.62 4.4-6.47 7.09-11 7.09-8.8 0-13.74-4.4-13.74-13.38 0-3.14 1.71-6.74 3.23-9.52l19.76-7.9v-1.89c0-2.42-2.79-3.59-4.85-3.59a17.39 17.39 0 0 0-10.87 4.13l-4.58-7.36c4.22-4 10.78-7.19 16.71-7.19 8.53 0 15.72 4 15.72 13.29v23.45c0 .81 0 2.33 1.08 2.33a3 3 0 0 0 1.26-.36l2 6.11a15.64 15.64 0 0 1-6.91 1.88zm-19.49-18.05a15.22 15.22 0 0 0-.81 4.49 3.32 3.32 0 0 0 3.5 3.14c5.21 0 7.54-4.76 7.54-9.43v-2.42zm30.54 11.68V37.56h13V59.2c2-2.07 5.48-4.58 8.35-4.58 11.32 0 16.88 10.69 16.88 20.75 0 13.2-5.75 26-20.75 26-6.23-.05-12.37-2.83-17.48-6.42zm13-25V89a8.71 8.71 0 0 0 4.85 1.62c6.65 0 7.19-9.61 7.19-14.37 0-4-.27-10.87-5.75-10.87-2.77.02-4.83 2.44-6.27 4.62zm28.57 25.18l4.76-8.71s7.1 4.58 10.69 4.58c3.14 0 4.94-1.08 4.94-3.23 0-1.17-1-2.33-3.5-3.5-7.9-3.86-18.41-6.29-18.05-16.44.27-6.56 5.75-13.2 17.42-13.2a20.39 20.39 0 0 1 16 7.55l-6.83 6.29s-4.85-3.68-9.34-3.68c-2.25 0-4.31.63-4.31 2.51 0 1.62 1.53 2.25 3.23 3.05 8.44 4 19 6.74 18.14 17.78a13.31 13.31 0 0 1-8.17 11.23 22.31 22.31 0 0 1-9.79 2c-7.28-.04-15.19-6.23-15.19-6.23zm-237.09-59.7L106.3 9.5 70.86 0 35.43 9.5 9.49 35.43 0 70.87l9.49 35.43 25.94 25.94 35.43 9.5 35.43-9.5 25.94-25.94 9.5-35.43zm-62.11 65.45c-5.81 0-11.36-4.36-11.36-10.44 0-6.34 5.81-11.1 12-11.1 5.81 0 11.36 4.23 11.36 10.44s-5.93 11.1-12 11.1zm0-38.05c-5.81 0-11.36-4.36-11.36-10.44 0-6.47 5.81-11.23 12-11.23 5.81 0 11.36 4.36 11.36 10.44.02 6.47-5.93 11.23-12 11.23z" fill="#fff"/></svg>