<svg width="127" height="55" viewBox="0 0 127 55" xmlns="http://www.w3.org/2000/svg" xmlns:xlink="http://www.w3.org/1999/xlink"><title>eduk</title><defs><path d="M37.2.098a.808.808 0 0 0-.804.81v7.16a30.15 30.15 0 0 0-3.846-.285c-6.452 0-9.58 3.843-9.58 10.155v3.115c0 6.31 3.128 10.152 9.58 10.152 2.565 0 5.57-.405 8.054-1.052.922-.242 1.082-.485 1.082-1.092V.908c0-.446-.36-.81-.8-.81h-3.687zM28.26 21.053v-3.115c0-3.318.842-5.787 4.288-5.787.962 0 2.725.123 3.846.286v14.117c-.76.162-2.404.283-3.846.283-3.446 0-4.288-2.467-4.288-5.783zM.094 18.058v2.995c0 7.967 5.69 10.152 9.697 10.152 3.607 0 5.17-.202 7.774-.69.722-.12.842-.403.842-1.05v-2.67c0-.405-.32-.606-.722-.606h-.12c-1.683.16-4.448.403-7.373.403-3.846 0-4.807-2.792-4.807-5.137v-.122h13.063c.56 0 .802-.364.802-1.01v-2.266c0-6.028-3.367-10.275-9.538-10.275-6.13 0-9.616 3.964-9.616 10.275zm5.328-.688c0-3.196 1.803-4.976 4.288-4.976 2.485 0 4.208 1.82 4.208 4.976v.163H5.422v-.163zM60.92 8.067c-.442 0-.803.404-.803.848v16.182c-1.122.607-3.046 1.618-4.528 1.618-1.243 0-1.924-.243-2.485-.728-.76-.69-.923-1.86-.923-3.883V8.914c0-.443-.36-.847-.8-.847h-3.687c-.442 0-.8.404-.8.848v13.19c0 3.356.52 5.864 2.003 7.36 1.162 1.173 2.925 1.7 4.928 1.7 2.564 0 4.208-.65 6.29-2.024v.932c0 .444.362.81.803.81h3.684a.81.81 0 0 0 .803-.81V8.915c0-.444-.36-.848-.803-.848H60.92z" id="a"/></defs><g fill="none" fill-rule="evenodd"><path d="M109.72 43.314a.89.89 0 0 1 .136.46c0 .275-.18.503-.59.503H99.72c-.546 0-.727-.366-.955-.78l-8-14.636v14.5c0 .504-.408.917-.91.917H82.45c-.5 0-.954-.413-.954-.917V11.058c0-.505.453-.872.954-.872h7.408c.5 0 .91.367.91.872v14.545L99.49 10.92c.228-.414.5-.734 1-.734h8.728c.41 0 .636.183.636.504 0 .138-.045.32-.18.504l-9.91 15.785 9.955 16.334zM117.524 0H74.19C72.986 0 72 .994 72 2.21v43.744c0 4.863 3.94 8.843 8.758 8.843h36.765c4.82 0 8.76-3.98 8.76-8.843V8.842c0-4.864-3.94-8.842-8.76-8.842z" fill="#F2EBEB"/><g transform="translate(0 14)"><mask id="b" fill="#fff"><use xlink:href="#a"/></mask><path d="M.094.098h65.313v31.107H.094V.098z" fill="#F2EBEB" mask="url(#b)"/></g></g></svg>