<?xml version="1.0" encoding="UTF-8" standalone="no"?>
<svg width="23px" height="44px" viewBox="0 0 23 44" version="1.1" xmlns="http://www.w3.org/2000/svg" xmlns:xlink="http://www.w3.org/1999/xlink" xmlns:sketch="http://www.bohemiancoding.com/sketch/ns">
    <!-- Generator: sketchtool 3.5.2 (25235) - http://www.bohemiancoding.com/sketch -->
    <title>ic_agile</title>
    <desc>Created with sketchtool.</desc>
    <defs></defs>
    <g id="services" stroke="none" stroke-width="1" fill="none" fill-rule="evenodd" sketch:type="MSPage">
        <g id="serviços" sketch:type="MSArtboardGroup" transform="translate(-1048.000000, -656.000000)" fill="#444141">
            <g sketch:type="MSLayerGroup" transform="translate(115.000000, 410.000000)" id="agile">
                <g transform="translate(620.000000, 0.000000)" sketch:type="MSShapeGroup">
                    <g transform="translate(310.000000, 246.000000)">
                        <g id="ic_agile" transform="translate(3.000000, 0.000000)">
                            <path d="M11.2912911,17.0642025 C12.6970633,17.0642025 13.9892152,16.2961519 14.6614684,15.0602532 C14.9638987,14.5032911 15.1226329,13.8722532 15.1226329,13.2350886 C15.1226329,11.1225316 13.4038481,9.40374684 11.2912911,9.40374684 C9.17873418,9.40374684 7.46217722,11.1225316 7.46217722,13.2350886 C7.46217722,13.9418734 7.65822785,14.6364051 8.03250633,15.2407089 C8.73762025,16.383038 9.9556962,17.0642025 11.2912911,17.0642025 L11.2912911,17.0642025 Z M11.2912911,10.296 C12.9126076,10.296 14.2309367,11.6143291 14.2309367,13.2350886 C14.2309367,13.7246582 14.108962,14.2075443 13.8761519,14.6364051 C13.3626329,15.5849114 12.3706835,16.1741772 11.2912911,16.1741772 C10.267038,16.1741772 9.33356962,15.6500759 8.79164557,14.7734177 C8.50481013,14.3077975 8.35443038,13.7770127 8.35443038,13.2350886 C8.35220253,11.6143291 9.67053165,10.296 11.2912911,10.296 L11.2912911,10.296 Z" id="Fill-1"></path>
                            <path d="M0.0194936709,25.6274937 L3.32450633,36.5211139 C3.37017722,36.6776203 3.50050633,36.7951392 3.66146835,36.827443 C3.82243038,36.8580759 3.9878481,36.7995949 4.09255696,36.6753924 C5.02992405,35.5464304 6.33321519,34.6630886 7.80860759,34.1451139 L7.80860759,34.8218228 C7.80860759,35.0696709 8.00855696,35.2679494 8.25417722,35.2679494 L14.2961013,35.2679494 C14.5439494,35.2679494 14.7422278,35.0696709 14.7422278,34.8218228 L14.7422278,34.2843544 C16.2192911,34.8001013 17.5225823,35.6856709 18.4582785,36.8124051 C18.5451646,36.9148861 18.671038,36.9733671 18.8019241,36.9733671 C18.8303291,36.9733671 18.8604051,36.9711392 18.8888101,36.9644557 C19.0497722,36.9321519 19.1806582,36.8146329 19.228,36.6581266 L22.5330127,25.7645063 C22.572,25.6319494 22.5480506,25.4882532 22.4678481,25.3774177 C21.8652152,24.5286076 21.2169114,23.7566582 20.533519,23.0799494 C20.8598987,21.5483038 21.0230886,19.9882532 21.0230886,18.4393418 C21.0230886,11.0768608 17.3833418,4.23681013 11.5263291,0.592607595 C11.3831899,0.503493671 11.1999494,0.503493671 11.0545823,0.592607595 C5.19534177,4.23903797 1.55782278,11.0746329 1.55782278,18.4393418 C1.55782278,19.9448101 1.71210127,21.4591899 2.01453165,22.9407089 C1.33559494,23.6190886 0.685063291,24.3893671 0.0824303797,25.2404051 C0.0022278481,25.3512405 -0.021721519,25.4949367 0.0194936709,25.6274937 L0.0194936709,25.6274937 Z M2.81098734,23.408557 C2.92182278,23.3016203 2.96972152,23.1451139 2.93686076,22.9925063 C2.61270886,21.4959494 2.4478481,19.9620759 2.4478481,18.4371139 C2.4478481,11.4795443 5.82860759,5.01544304 11.2896203,1.49544304 C16.7523038,5.01544304 20.1330633,11.4795443 20.1330633,18.4371139 C20.1330633,20.0010633 19.9570633,21.5761519 19.6156456,23.1167089 C19.6000506,23.188557 19.6067342,23.2821266 19.6262278,23.3539747 C19.6479494,23.4280506 19.6897215,23.4976709 19.7459747,23.5494684 C20.4031899,24.1827342 21.032,24.9117975 21.6151392,25.7121519 L18.6014177,35.6505823 C17.4813671,34.5366582 16.0215696,33.6945316 14.4158481,33.2467342 C14.3746329,33.2355949 14.3350886,33.2311392 14.2938734,33.2311392 C14.1980759,33.2311392 14.1045063,33.2617722 14.0265316,33.3202532 C13.9129114,33.4054684 13.8499747,33.5357975 13.8499747,33.675038 L13.8499747,34.3734684 L8.69807595,34.3734684 L8.69807595,33.5380253 C8.69807595,33.3987848 8.63291139,33.2684557 8.52207595,33.1832405 C8.41124051,33.0985823 8.2675443,33.0701772 8.13275949,33.1097215 C6.52703797,33.5552911 5.06946835,34.3974177 3.94886076,35.5113418 L0.935696203,25.5751392 C1.52273418,24.772557 2.15377215,24.0434937 2.81098734,23.408557 L2.81098734,23.408557 Z" id="Fill-3"></path>
                            <path d="M15.0725063,29.6961013 C14.9705823,29.92 15.0725063,30.1856709 15.296962,30.2831392 C15.355443,30.3115443 15.4167089,30.3226835 15.4796456,30.3226835 C15.649519,30.3226835 15.8127089,30.2246582 15.884557,30.0614684 C19.2196456,22.6444051 18.7451139,16.2092658 18.7233924,15.9391392 C18.7038987,15.6957468 18.4994937,15.5108354 18.244962,15.532557 C17.9987848,15.5520506 17.8161013,15.7653671 17.8355949,16.0109873 C17.8400506,16.074481 18.3145823,22.4856709 15.0725063,29.6961013 L15.0725063,29.6961013 Z" id="Fill-5"></path>
                            <path d="M8.10212658,36.7427848 L8.10212658,40.2806076 C8.10212658,40.5284557 8.2998481,40.7261772 8.54602532,40.7261772 C8.79387342,40.7261772 8.9921519,40.5284557 8.9921519,40.2806076 L8.9921519,36.7427848 C8.9921519,36.4971646 8.79387342,36.2988861 8.54602532,36.2988861 C8.2998481,36.2988861 8.10212658,36.4971646 8.10212658,36.7427848 L8.10212658,36.7427848 Z" id="Fill-6"></path>
                            <path d="M10.8301266,36.7427848 L10.8301266,42.9974684 C10.8301266,43.2436456 11.0306329,43.4435949 11.2762532,43.4435949 C11.5224304,43.4435949 11.7223797,43.2436456 11.7223797,42.9974684 L11.7223797,36.7427848 C11.7223797,36.4971646 11.5224304,36.2988861 11.2762532,36.2988861 C11.0306329,36.2988861 10.8301266,36.4971646 10.8301266,36.7427848 L10.8301266,36.7427848 Z" id="Fill-7"></path>
                            <path d="M13.8850633,36.2988861 C13.6388861,36.2988861 13.4411646,36.4971646 13.4411646,36.7427848 L13.4411646,40.2806076 C13.4411646,40.5284557 13.6388861,40.7261772 13.8850633,40.7261772 C14.1329114,40.7261772 14.3306329,40.5284557 14.3306329,40.2806076 L14.3306329,36.7427848 C14.3306329,36.4971646 14.1329114,36.2988861 13.8850633,36.2988861 L13.8850633,36.2988861 Z" id="Fill-8"></path>
                        </g>
                    </g>
                </g>
            </g>
        </g>
    </g>
</svg>