<?xml version="1.0" encoding="UTF-8" standalone="no"?>
<svg width="56px" height="44px" viewBox="0 0 56 44" version="1.1" xmlns="http://www.w3.org/2000/svg" xmlns:xlink="http://www.w3.org/1999/xlink" xmlns:sketch="http://www.bohemiancoding.com/sketch/ns">
    <!-- Generator: sketchtool 3.5.2 (25235) - http://www.bohemiancoding.com/sketch -->
    <title>ic-fullstack</title>
    <desc>Created with sketchtool.</desc>
    <defs></defs>
    <g id="services" stroke="none" stroke-width="1" fill="none" fill-rule="evenodd" sketch:type="MSPage">
        <g id="serviços" sketch:type="MSArtboardGroup" transform="translate(-737.000000, -410.000000)" stroke="#444141">
            <g sketch:type="MSLayerGroup" transform="translate(115.000000, 410.000000)" id="fullstack">
                <g transform="translate(620.000000, 0.000000)" sketch:type="MSShapeGroup">
                    <g transform="translate(0.000000, 1.000000)">
                        <g id="ic-fullstack" transform="translate(3.000000, 0.000000)">
                            <path d="M27.426888,13.5447246 C28.457418,13.5447246 29.2925923,14.3837125 29.2925923,15.4189481 C29.2925923,16.4541836 28.457418,17.2937521 27.426888,17.2937521 C26.3963581,17.2937521 25.5611838,16.4541836 25.5611838,15.4189481 C25.5611838,14.3837125 26.3963581,13.5447246 27.426888,13.5447246 L27.426888,13.5447246 Z" id="Stroke-6"></path>
                            <path d="M12.5597449,8.59637977 L5.86447897,15.3222177 L12.4302784,21.9174173" id="Stroke-8"></path>
                            <path d="M42.0178746,8.59637977 L48.7131405,15.3222177 L42.1473411,21.9174173" id="Stroke-10"></path>
                            <path d="M0.347415701,0.353686577 L54.309502,0.353686577 L54.309502,36.201404 L0.347415701,36.201404 L0.347415701,0.353686577 Z" id="Stroke-1"></path>
                            <path d="M18.6250755,41.9032095 L36.0319578,41.9032095" id="Stroke-2"></path>
                            <path d="M27.2370862,42.321603 L27.2370862,36.2013459" id="Stroke-3"></path>
                            <path d="M0.347646891,28.8084566 L54.5062448,28.8084566" id="Stroke-4"></path>
                            <path d="M27.426888,5.73435691 L25.5611838,5.73435691 L25.5611838,8.54627274 L23.6949015,9.1710139 L21.8291972,7.29620981 L19.3410135,9.79575506 L21.2067178,11.6699785 L20.5848164,13.5447826 L17.78626,13.5447826 L17.78626,17.2938102 L20.5848164,17.2938102 L21.2067178,19.1680337 L19.3410135,21.0428378 L21.8291972,23.5418024 L23.6949015,21.6675789 L25.5611838,22.2923201 L25.5611838,25.1042359 L27.426888,25.1042359 L29.2925923,25.1042359 L29.2925923,22.2923201 L31.1588746,21.6675789 L33.0245789,23.5418024 L35.5127625,21.0428378 L33.6470583,19.1680337 L34.2689597,17.2938102 L37.0675161,17.2938102 L37.0675161,13.5447826 L34.2689597,13.5447826 L33.6470583,11.6699785 L35.5127625,9.79575506 L33.0245789,7.29620981 L31.1588746,9.1710139 L29.2925923,8.54627274 L29.2925923,5.73435691 L27.426888,5.73435691 L27.426888,5.73435691 Z" id="Stroke-5"></path>
                        </g>
                    </g>
                </g>
            </g>
        </g>
    </g>
</svg>