<?xml version="1.0" encoding="UTF-8" standalone="no"?>
<svg width="40px" height="37px" viewBox="0 0 40 37" version="1.1" xmlns="http://www.w3.org/2000/svg" xmlns:xlink="http://www.w3.org/1999/xlink" xmlns:sketch="http://www.bohemiancoding.com/sketch/ns">
    <!-- Generator: sketchtool 3.5.2 (25235) - http://www.bohemiancoding.com/sketch -->
    <title>ic_link</title>
    <desc>Created with sketchtool.</desc>
    <defs></defs>
    <g id="portfolio" stroke="none" stroke-width="1" fill="none" fill-rule="evenodd" sketch:type="MSPage">
        <g id="portfolio-depoimentos" sketch:type="MSArtboardGroup" transform="translate(-638.000000, -490.000000)" fill="#F2F2F2">
            <g id="cases" sketch:type="MSLayerGroup" transform="translate(0.000000, -59.000000)">
                <g id="02_hover" transform="translate(528.000000, 421.000000)" sketch:type="MSShapeGroup">
                    <g id="icons" transform="translate(110.000000, 127.000000)">
                        <path d="M8.84666162,37.2677508 C6.49368799,37.2677508 4.23928983,36.3856149 2.5732497,34.7191163 C-0.8577499,31.2885752 -0.8577499,25.7011798 2.5732497,22.270524 L10.1209216,14.7228522 C13.5515773,11.2923111 19.1385142,11.2923111 22.5695138,14.7228522 C24.0395492,16.1932315 24.9220289,18.1535079 25.1181483,20.3102476 C25.2156922,21.0942665 24.5297903,21.780283 23.7457714,21.8782853 C22.961294,21.9764023 22.2753921,21.2903858 22.1772751,20.5059084 C22.0792727,19.1341046 21.4913732,17.7617277 20.5107765,16.781131 C18.2563783,14.5267328 14.5316009,14.5267328 12.1792004,16.781131 L4.63152852,24.3288028 C2.37713036,26.5836595 2.37713036,30.3084369 4.63152852,32.6608375 C6.88592668,34.9152356 10.6107041,34.9152356 12.9636777,32.6608375 L18.5506147,27.0734421 C19.1389727,26.4855425 20.0209939,26.4855425 20.6088935,27.0734421 C21.1972515,27.6618001 21.1972515,28.5438213 20.6088935,29.1321794 L15.0219566,34.7191163 C13.4534603,36.3856149 11.1990621,37.2677508 8.84666162,37.2677508 Z M23.647769,26.0933038 C21.2947954,26.0933038 19.0403972,25.2112826 17.3743571,23.544784 C15.9039778,22.0744047 15.0214981,20.1141282 14.8258372,17.9573886 C14.7277202,17.1733697 15.4137368,16.4874678 16.197641,16.3893508 C16.9821184,16.2913484 17.6681349,16.9772503 17.7661373,17.7617277 C17.8642543,19.1336461 18.4524977,20.5059084 19.4326359,21.4865051 C20.5107765,22.5646457 21.9812704,23.1525453 23.5491935,23.1525453 C25.1176898,23.1525453 26.5880691,22.5646457 27.6662097,21.4865051 L35.2138815,13.9388333 C37.4682797,11.6840913 37.4682797,7.95965769 35.2138815,5.60679868 C32.9594834,3.35240052 29.2347059,3.35240052 26.8821908,5.60679868 L21.2947954,11.1941941 C20.7068958,11.7820936 19.8244161,11.7820936 19.2365166,11.1941941 C18.6481585,10.6058361 18.6481585,9.72381481 19.2365166,9.13545677 L24.8234535,3.54851986 C26.4899521,1.88202124 28.7443502,1 31.0968654,1 C33.4492659,1 35.7041226,1.88202124 37.3701627,3.54851986 C39.0366613,5.21501848 39.9187972,7.46941664 39.9187972,9.82181717 C39.9187972,12.1743323 39.0366613,14.4287305 37.3701627,16.0952291 L29.8226055,23.6429009 C28.2545677,25.2112826 26.0001695,26.0933038 23.647769,26.0933038 Z" id="ic_link"></path>
                    </g>
                </g>
            </g>
        </g>
    </g>
</svg>