<?xml version="1.0" encoding="UTF-8" standalone="no"?>
<svg width="29px" height="45px" viewBox="0 0 29 45" version="1.1" xmlns="http://www.w3.org/2000/svg" xmlns:xlink="http://www.w3.org/1999/xlink" xmlns:sketch="http://www.bohemiancoding.com/sketch/ns">
    <!-- Generator: sketchtool 3.5.2 (25235) - http://www.bohemiancoding.com/sketch -->
    <title>ic-product</title>
    <desc>Created with sketchtool.</desc>
    <defs></defs>
    <g id="services" stroke="none" stroke-width="1" fill="none" fill-rule="evenodd" sketch:type="MSPage">
        <g id="serviços" sketch:type="MSArtboardGroup" transform="translate(-738.000000, -656.000000)" stroke="#444141">
            <g sketch:type="MSLayerGroup" transform="translate(115.000000, 410.000000)" id="strategy">
                <g transform="translate(620.000000, 0.000000)" sketch:type="MSShapeGroup">
                    <g transform="translate(0.000000, 246.000000)">
                        <g id="ic-product" transform="translate(3.000000, 0.000000)">
                            <path d="M8.56263677,35.9930377 L20.1627406,34.3265269 C20.1627406,30.6982978 25.1341407,26.227572 25.1341407,20.0929023 C25.1341407,14.1497326 20.3424605,9.33143193 14.4316153,9.33143193 C8.5207702,9.33143193 3.72909,14.1497326 3.72909,20.0929023 C3.72909,26.1736645 8.56263677,30.6428501 8.56263677,34.2715927 L8.56263677,35.9930377 L8.56263677,35.9930377 Z" id="Stroke-1"></path>
                            <path d="M9.3480945,38.3884288 L19.9439111,36.7742853" id="Stroke-3"></path>
                            <path d="M9.3480945,40.5408256 L19.9439111,38.926682" id="Stroke-5"></path>
                            <path d="M18.5520008,42.1551745 C18.5520008,43.046958 16.7793089,43.7693181 14.5925464,43.7693181 C12.4057838,43.7693181 10.6325813,43.046958 10.6325813,42.1551745" id="Stroke-7"></path>
                            <path d="M12.9817045,32.0007022 C12.9817045,25.1128682 11.0068276,22.6762508 11.0068276,22.6762508 C11.0068276,23.6270758 11.7742113,24.3976959 12.7197831,24.3976959 C13.6658655,24.3976959 14.432228,23.6270758 14.432228,22.6762508 C14.432228,23.6270758 15.1985905,24.3976959 16.1451835,24.3976959 C17.0902448,24.3976959 17.8576284,23.6270758 17.8576284,22.6762508 C17.8576284,22.6762508 16.2973327,26.4045938 16.2973327,32.0007022" id="Stroke-9"></path>
                            <path d="M14,0.155303092 L14,6.82956077" id="Stroke-11"></path>
                            <path d="M22.9900616,1.88111211 L19.6769862,7.654345" id="Stroke-13"></path>
                            <path d="M28.8950352,6.57640104 L23.7148128,10.7354904" id="Stroke-15"></path>
                            <path d="M6.2478238,1.88111211 L9.56089922,7.654345" id="Stroke-17"></path>
                            <path d="M0.342850197,6.57640104 L5.5230726,10.7354904" id="Stroke-19"></path>
                        </g>
                    </g>
                </g>
            </g>
        </g>
    </g>
</svg>