<?xml version="1.0" encoding="UTF-8" standalone="no"?>
<svg width="26px" height="44px" viewBox="0 0 26 44" version="1.1" xmlns="http://www.w3.org/2000/svg" xmlns:xlink="http://www.w3.org/1999/xlink" xmlns:sketch="http://www.bohemiancoding.com/sketch/ns">
    <!-- Generator: sketchtool 3.5.2 (25235) - http://www.bohemiancoding.com/sketch -->
    <title>ic-ux</title>
    <desc>Created with sketchtool.</desc>
    <defs></defs>
    <g id="services" stroke="none" stroke-width="1" fill="none" fill-rule="evenodd" sketch:type="MSPage">
        <g id="serviços" sketch:type="MSArtboardGroup" transform="translate(-1048.000000, -410.000000)" fill="#444141">
            <g sketch:type="MSLayerGroup" transform="translate(115.000000, 410.000000)" id="ux">
                <g transform="translate(620.000000, 0.000000)" sketch:type="MSShapeGroup">
                    <g transform="translate(310.000000, 0.000000)">
                        <g id="ic-ux" transform="translate(3.000000, 0.000000)">
                            <path d="M11.8898637,3.31883047 L14.9886375,3.31883047 C15.3263654,3.31883047 15.6000691,3.04512679 15.6000691,2.7079324 C15.6000691,2.36967094 15.3263654,2.09596726 14.9886375,2.09596726 L11.8898637,2.09596726 C11.5521358,2.09596726 11.2784321,2.36967094 11.2784321,2.7079324 C11.2784321,3.04512679 11.5521358,3.31883047 11.8898637,3.31883047" id="Fill-3" fill-opacity="0.85"></path>
                            <path d="M20.3044111,24.5262769 L15.8739329,24.5262769 L15.8739329,17.9824649 C15.8739329,16.6646324 14.8020602,15.5916926 13.4836941,15.5916926 C12.1658616,15.5916926 11.0934554,16.6646324 11.0934554,17.9824649 L11.0934554,23.9319185 C10.7477244,23.737178 10.3491735,23.6256691 9.92554634,23.6256691 C9.07882562,23.6256691 8.33401016,24.0690371 7.90931595,24.7348893 C7.54224358,24.4238381 7.08020189,24.2221617 6.57441031,24.1784118 L6.57441031,5.3334069 L20.3044111,5.3334069 L20.3044111,24.5262769 Z M7.75512421,1.53623524 L19.1231636,1.53623524 C19.7746104,1.53623524 20.3044111,2.06603592 20.3044111,2.71801622 L20.3044111,4.11054369 L6.57441031,4.11054369 L6.57441031,2.71801622 C6.57441031,2.06603592 7.10421099,1.53623524 7.75512421,1.53623524 L7.75512421,1.53623524 Z M19.1178283,29.2651386 L15.8739329,29.2651386 L15.8739329,25.7486066 L20.3044111,25.7486066 L20.3044111,28.0790894 C20.3044111,28.7326703 19.7724762,29.2651386 19.1178283,29.2651386 L19.1178283,29.2651386 Z M24.6623285,31.9915047 C24.211491,31.5251947 23.6059283,31.2658965 22.9576828,31.2605611 C22.3051689,31.2562928 21.6996062,31.5054539 21.2407657,31.9637608 L18.7342163,34.4708438 C18.1505285,35.0545316 17.4083808,35.0411932 16.9084581,34.8336479 C16.4080018,34.6266362 15.8739329,34.1112409 15.8739329,33.2863951 L15.8739329,30.4874683 L19.1178283,30.4874683 C20.4463315,30.4874683 21.5267407,29.407059 21.5267407,28.0785558 L21.5267407,2.71801622 C21.5267407,1.39218067 20.4484656,0.31390557 19.1231636,0.31390557 L7.75512421,0.31390557 C6.43035574,0.31390557 5.3515471,1.39218067 5.3515471,2.71801622 L5.3515471,24.3960943 C4.54003971,24.7786392 3.9766263,25.6040185 3.9766263,26.5590469 L3.9766263,26.9159821 C3.63089534,26.7212417 3.23287791,26.6102663 2.80925078,26.6102663 C1.49088473,26.6102663 0.418478515,27.682139 0.418478515,28.9999715 L0.418478515,35.6921064 C0.418478515,38.3736555 1.34843077,40.9975827 3.03707041,43.080505 C3.15871648,43.2293614 3.33478318,43.3067241 3.51245047,43.3067241 C3.64796847,43.3067241 3.78402001,43.2619071 3.89712952,43.170139 C4.15962895,42.9572584 4.19964411,42.5725793 3.98729701,42.3106134 C2.47419053,40.4443065 1.64080818,38.0940829 1.64080818,35.6921064 L1.64080818,28.9999715 C1.64080818,28.3565278 2.16473998,27.832596 2.80925078,27.832596 C3.45269451,27.832596 3.9766263,28.3565278 3.9766263,28.9999715 L3.9766263,31.3587316 C3.9766263,31.695926 4.25032997,31.9696297 4.5880579,31.9696297 C4.92525229,31.9696297 5.19895597,31.695926 5.19895597,31.3587316 L5.19895597,26.5590469 C5.19895597,25.9156032 5.72288776,25.3916714 6.36739856,25.3916714 C7.01084229,25.3916714 7.53477408,25.9156032 7.53477408,26.5590469 L7.53477408,30.6139162 C7.53477408,30.9516441 7.80847776,31.2253478 8.14620568,31.2253478 C8.48340008,31.2253478 8.75710375,30.9516441 8.75710375,30.6139162 L8.75710375,26.0164414 C8.75710375,25.3719306 9.28103554,24.8479988 9.92554634,24.8479988 C10.5695236,24.8479988 11.0934554,25.3719306 11.0934554,26.0164414 L11.0934554,31.1933357 C11.0934554,31.53053 11.3666255,31.8042337 11.7043535,31.8042337 C12.0420814,31.8042337 12.3152515,31.53053 12.3152515,31.1933357 L12.3152515,17.9824649 C12.3152515,17.3384876 12.8391833,16.8145558 13.4836941,16.8145558 C14.1276714,16.8145558 14.6516032,17.3384876 14.6516032,17.9824649 L14.6516032,33.2863951 C14.6516032,34.4804474 15.3366627,35.5064361 16.4400139,35.9631424 C17.5433652,36.4203823 18.7534236,36.1797578 19.5980102,35.3357047 L22.1045596,32.8280882 C22.3297116,32.6034698 22.6258237,32.4786225 22.9475456,32.4834243 C23.2655327,32.4855585 23.5627119,32.613607 23.7841291,32.8419601 C24.2189605,33.2906634 24.2274971,34.0018662 23.8033364,34.4612402 L19.4400837,39.1819617 C17.8842944,40.8657995 15.7789635,41.9872909 13.5135721,42.3399579 C13.1801125,42.3917108 12.9517593,42.703829 13.0035122,43.0378222 C13.0504634,43.3398033 13.3108286,43.5553516 13.6069408,43.5553516 C13.6378859,43.5553516 13.669898,43.5526839 13.7019101,43.5478821 C16.2388711,43.1530659 18.5954971,41.8971235 20.3380238,40.0121428 L24.7012765,35.2908878 C25.5656039,34.3556002 25.5485308,32.9059844 24.6623285,31.9915047 L24.6623285,31.9915047 Z" id="Fill-5" opacity="0.852728545"></path>
                        </g>
                    </g>
                </g>
            </g>
        </g>
    </g>
</svg>