<?xml version="1.0" encoding="UTF-8" standalone="no"?>
<svg width="25px" height="25px" viewBox="0 0 25 25" version="1.1" xmlns="http://www.w3.org/2000/svg" xmlns:xlink="http://www.w3.org/1999/xlink" xmlns:sketch="http://www.bohemiancoding.com/sketch/ns">
    <!-- Generator: sketchtool 3.5.2 (25235) - http://www.bohemiancoding.com/sketch -->
    <title>icon_time-development</title>
    <desc>Created with sketchtool.</desc>
    <defs></defs>
    <g id="portfolio" stroke="none" stroke-width="1" fill="none" fill-rule="evenodd" sketch:type="MSPage">
        <g id="portfolio-depoimentos" sketch:type="MSArtboardGroup" transform="translate(-130.000000, -915.000000)" fill="#373131">
            <g id="cases" sketch:type="MSLayerGroup" transform="translate(0.000000, -1.000000)">
                <g id="01" transform="translate(115.000000, 421.000000)" sketch:type="MSShapeGroup">
                    <g id="icons-time/team" transform="translate(0.000000, 478.000000)">
                        <g id="time_development" transform="translate(15.000000, 17.000000)">
                            <path d="M3.1249678,3.90632568 L3.1249678,0.78125483 C3.1249678,0.349382642 3.47435044,0 3.90632568,0 C4.33809482,0 4.68747746,0.349382642 4.68747746,0.78125483 L4.68747746,3.90632568 C4.68747746,4.33809482 4.33809482,4.68747746 3.90632568,4.68747746 C3.47435044,4.68752898 3.1249678,4.33809482 3.1249678,3.90632568 L3.1249678,3.90632568 Z M16.4063514,4.68752898 C16.8380175,4.68752898 17.1876063,4.33814634 17.1876063,3.9063772 L17.1876063,0.78125483 C17.1876063,0.349382642 16.8380175,0 16.4063514,0 C15.9744792,0 15.624839,0.349382642 15.624839,0.78125483 L15.624839,3.90632568 C15.624839,4.33809482 15.9744792,4.68752898 16.4063514,4.68752898 L16.4063514,4.68752898 Z M24.999897,18.7498068 C24.999897,22.2016929 22.2015383,25 18.7499098,25 C15.298539,25 12.4999742,22.2016929 12.4999742,18.7498068 C12.4999742,15.2984359 15.2984875,12.4999742 18.7499098,12.4999742 C22.2015383,12.4999742 24.999897,15.2983844 24.999897,18.7498068 L24.999897,18.7498068 Z M23.4375934,18.7498068 C23.4375934,16.1653233 21.3349086,14.0623809 18.7499614,14.0623809 C16.1652202,14.0623809 14.0625354,16.1652717 14.0625354,18.7498068 C14.0625354,21.3348055 16.1652202,23.4374388 18.7499614,23.4374388 C21.3349086,23.4374388 23.4375934,21.3348055 23.4375934,18.7498068 L23.4375934,18.7498068 Z M6.25003864,9.37500644 L3.1249678,9.37500644 L3.1249678,12.4999742 L6.25003864,12.4999742 L6.25003864,9.37500644 L6.25003864,9.37500644 Z M3.1249678,17.1875032 L6.25003864,17.1875032 L6.25003864,14.0623809 L3.1249678,14.0623809 L3.1249678,17.1875032 L3.1249678,17.1875032 Z M7.81244526,12.4999742 L10.9375676,12.4999742 L10.9375676,9.37500644 L7.81244526,9.37500644 L7.81244526,12.4999742 L7.81244526,12.4999742 Z M7.81244526,17.1875032 L10.9375676,17.1875032 L10.9375676,14.0623809 L7.81244526,14.0623809 L7.81244526,17.1875032 L7.81244526,17.1875032 Z M1.56256118,18.5944626 L1.56256118,7.81244526 L18.7499614,7.81244526 L18.7499614,10.9375161 L20.3125225,10.9375161 L20.3125225,4.8432338 C20.3125225,3.89411454 19.5555354,3.1249678 18.6203276,3.1249678 L17.9687065,3.1249678 L17.9687065,3.9063772 C17.9687065,4.76687558 17.2681894,5.46883534 16.406403,5.46883534 C15.5443589,5.46883534 14.8438933,4.76687558 14.8438933,3.9063772 L14.8438933,3.1249678 L5.46868076,3.1249678 L5.46868076,3.9063772 C5.46868076,4.76687558 4.76831824,5.46883534 3.9063772,5.46883534 C3.04423006,5.46883534 2.34381601,4.76687558 2.34381601,3.9063772 L2.34381601,3.1249678 L1.69296783,3.1249678 C0.75770847,3.1249678 0,3.89411454 0,4.8432338 L0,18.5945142 C0,19.5404905 0.75770847,20.3126256 1.69296783,20.3126256 L10.9375676,20.3126256 L10.9375676,18.7498583 L1.69296783,18.7498583 C1.62217418,18.7498068 1.56256118,18.6766946 1.56256118,18.5944626 L1.56256118,18.5944626 Z M15.624839,12.4999742 L15.624839,9.37500644 L12.5000258,9.37500644 L12.5000258,12.4999742 L15.624839,12.4999742 L15.624839,12.4999742 Z M21.0937258,18.7498068 L18.7499098,18.7498068 L18.7499098,16.4059908 C18.7499098,15.9743762 18.4005272,15.6249936 17.968655,15.6249936 C17.5367828,15.6249936 17.1876063,15.9743762 17.1876063,16.4059908 L17.1876063,19.5313192 C17.1876063,19.9629853 17.5367828,20.3125741 17.968655,20.3125741 L21.0937258,20.3125741 C21.525598,20.3125741 21.8749807,19.9629853 21.8749807,19.5313192 C21.8749807,19.099447 21.525598,18.7498068 21.0937258,18.7498068 L21.0937258,18.7498068 Z" id="icon_time-development"></path>
                        </g>
                    </g>
                </g>
            </g>
        </g>
    </g>
</svg>