<?xml version="1.0" encoding="UTF-8" standalone="no"?>
<svg width="19px" height="25px" viewBox="0 0 19 25" version="1.1" xmlns="http://www.w3.org/2000/svg" xmlns:xlink="http://www.w3.org/1999/xlink" xmlns:sketch="http://www.bohemiancoding.com/sketch/ns">
    <!-- Generator: sketchtool 3.5.2 (25235) - http://www.bohemiancoding.com/sketch -->
    <title>icon_team-members</title>
    <desc>Created with sketchtool.</desc>
    <defs></defs>
    <g id="portfolio" stroke="none" stroke-width="1" fill="none" fill-rule="evenodd" sketch:type="MSPage">
        <g id="portfolio-depoimentos" sketch:type="MSArtboardGroup" transform="translate(-265.000000, -915.000000)" fill="#373131">
            <g id="cases" sketch:type="MSLayerGroup" transform="translate(0.000000, -1.000000)">
                <g id="01" transform="translate(115.000000, 421.000000)" sketch:type="MSShapeGroup">
                    <g id="icons-time/team" transform="translate(0.000000, 478.000000)">
                        <g id="team_members" transform="translate(150.000000, 17.000000)">
                            <path d="M9.49866472,0 C6.0501165,0 3.24301765,2.72332373 3.24301765,6.0715761 C3.24301765,9.41865159 6.0501165,12.142858 9.49866472,12.142858 C12.9481224,12.142858 15.7543118,9.41865159 15.7543118,6.0715761 C15.7543118,2.72332373 12.9481224,0 9.49866472,0 M9.49866472,1.12472761 C12.3090738,1.12472761 14.5954712,3.34384829 14.5954712,6.07156171 C14.5954712,8.79900969 12.3090738,11.0181304 9.49866472,11.0181304 C6.68825567,11.0181304 4.40185827,8.79900969 4.40185827,6.07156171 C4.40185827,3.34384829 6.68825567,1.12472761 9.49866472,1.12472761 Z M9.49866472,12.5043692 C4.25975734,12.5043692 0,17.0848255 0,22.7177158 C0,23.5438927 0.896998433,24.1358684 2.73495095,24.5236537 C4.19094401,24.8278798 6.25291878,25 8.5310341,25 C11.4427171,25 18.9973294,24.5886769 18.9973294,22.7177158 C18.9973294,17.0848255 14.7348438,12.5043692 9.49866472,12.5043692 Z M9.49866472,13.6061975 C13.9571936,13.6061975 17.5843826,17.5322365 17.5843826,22.3579872 C17.5843826,22.5396418 16.9917497,23.1001223 14.286036,23.5046314 C12.3433026,23.7951717 10.0188035,23.8981717 8.6188116,23.8981717 C6.59393659,23.8981717 4.76366568,23.748621 3.46566181,23.4773431 C2.69909805,23.315486 1.41294684,22.9551197 1.41294684,22.3579872 C1.41294684,17.5322365 5.04013582,13.6061975 9.49866472,13.6061975 Z" id="icon_team-members"></path>
                        </g>
                    </g>
                </g>
            </g>
        </g>
    </g>
</svg>