<?xml version="1.0" encoding="UTF-8" standalone="no"?>
<svg width="69px" height="41px" viewBox="0 0 69 41" version="1.1" xmlns="http://www.w3.org/2000/svg" xmlns:xlink="http://www.w3.org/1999/xlink" xmlns:sketch="http://www.bohemiancoding.com/sketch/ns">
    <!-- Generator: sketchtool 3.5.2 (25235) - http://www.bohemiancoding.com/sketch -->
    <title>see_more</title>
    <desc>Created with sketchtool.</desc>
    <defs></defs>
    <g id="portfolio" stroke="none" stroke-width="1" fill="none" fill-rule="evenodd" sketch:type="MSPage">
        <g id="portfolio-depoimentos" sketch:type="MSArtboardGroup" transform="translate(-686.000000, -550.000000)" fill="#F2F2F2">
            <g id="cases" sketch:type="MSLayerGroup" transform="translate(0.000000, -1.000000)">
                <g id="02_hover" transform="translate(528.000000, 421.000000)" sketch:type="MSShapeGroup">
                    <path d="M225.820686,147.430407 C225.078034,146.556679 224.290623,145.741184 223.53523,144.996876 C219.155873,140.68647 214.455191,137.085228 209.258093,134.401755 C205.535814,132.480162 201.883324,131.214231 198.352936,130.583349 C196.223971,130.203198 194.268632,130.096981 192.544985,130.096981 C190.74625,130.096981 188.750887,130.192047 186.623613,130.583349 C183.054103,131.240588 179.399132,132.508885 175.719358,134.401755 C170.667701,137.001426 165.932632,140.573044 161.442221,144.996876 C160.574083,145.851456 159.824103,146.638115 159.156652,147.430407 C157.613735,149.259412 157.615314,151.664896 159.156652,153.494577 C160.988196,155.67028 163.434426,157.941725 166.501093,160.383253 C173.027681,165.576286 179.423147,168.874646 185.68749,170.232376 C187.892333,170.703651 190.184328,170.903132 192.544985,170.903132 C194.830554,170.903132 197.084216,170.703651 199.289848,170.232376 C205.627701,168.866648 212.036809,165.592055 218.550544,160.383253 C221.817108,157.770854 224.198623,155.439261 225.820574,153.494577 C227.384348,151.620179 227.401936,149.2905 225.820686,147.430407 L225.820686,147.430407 Z M222.673294,150.799165 C221.024059,152.821343 218.745706,154.916398 215.927755,157.163852 C210.014387,161.880766 204.205534,164.945291 198.428137,166.151074 C196.298382,166.59036 194.343721,166.75008 192.544985,166.75008 L192.43224,166.75008 C190.595961,166.75008 188.679632,166.582475 186.6235,166.151074 C180.92198,164.937181 175.059686,161.946997 169.048681,157.163852 C166.21551,154.909077 163.989922,152.783723 162.37902,150.799165 C162.116775,150.612187 162.116775,150.387813 162.37902,150.125819 C162.566176,149.863824 162.893814,149.479731 163.352799,149.002036 C163.830838,148.506093 164.177755,148.141036 164.364912,147.916662 C168.711461,143.648495 173.152265,140.429882 177.630725,138.183217 C181.209819,136.386989 184.452255,135.199341 187.37348,134.70092 C189.061951,134.41347 190.783907,134.25206 192.544985,134.25206 C194.230975,134.25206 195.918657,134.394209 197.678157,134.70092 C200.640083,135.217701 203.890637,136.402871 207.421701,138.183217 C211.984833,140.483385 216.377833,143.686003 220.612314,147.916662 C221.586093,148.890299 222.274289,149.627398 222.673181,150.125819 C222.87477,150.377451 222.860451,150.612187 222.673294,150.799165 Z M192.544985,137.32233 C188.909971,137.32233 185.761789,138.594569 183.176431,141.178357 C180.591074,143.761245 179.316716,146.868909 179.316716,150.499662 C179.316716,154.131203 180.581377,157.210934 183.176431,159.784247 C185.752995,162.339876 188.909971,163.602654 192.544985,163.602654 C196.179211,163.602654 199.252191,162.330415 201.800907,159.784247 C204.386265,157.201247 205.66051,154.131203 205.66051,150.499662 C205.66051,146.868909 204.376569,143.770819 201.800907,141.178357 C199.242608,138.604255 196.179211,137.32233 192.544985,137.32233 Z M198.877314,156.864236 C197.116235,158.623745 195.017711,159.484632 192.544985,159.484632 C190.034039,159.484632 187.897858,158.586124 186.136779,156.826615 C184.375588,155.067332 183.476221,152.933192 183.476221,150.499662 C183.476221,147.991791 184.375588,145.895385 186.136779,144.135764 C187.897971,142.376255 190.034039,141.477747 192.544985,141.477747 C195.055255,141.477747 197.144196,142.385041 198.877314,144.135764 C200.629711,145.904846 201.501005,147.991791 201.501005,150.499662 C201.501005,152.970813 200.638505,155.104728 198.877314,156.864236 Z M194.716335,152.70694 C194.102252,153.320476 193.370502,153.620665 192.50827,153.620665 C191.63271,153.620665 190.887829,153.307357 190.273746,152.693822 C189.659624,152.080365 189.346017,151.336196 189.346017,150.487631 C189.346017,149.613143 189.659624,148.882132 190.273746,148.268557 C190.887869,147.655022 191.63271,147.341714 192.50827,147.341714 C193.383594,147.341714 194.112002,147.658085 194.716335,148.268557 C195.327391,148.885431 195.631209,149.613143 195.631209,150.487631 C195.631209,151.349314 195.330457,152.093405 194.716335,152.70694 Z" id="see_more"></path>
                </g>
            </g>
        </g>
    </g>
</svg>