<?xml version="1.0" standalone="no"?>
<!DOCTYPE svg PUBLIC "-//W3C//DTD SVG 1.1//EN" "http://www.w3.org/Graphics/SVG/1.1/DTD/svg11.dtd" >
<svg xmlns="http://www.w3.org/2000/svg">
<metadata></metadata>
<defs>
<font id="serifa_bqroman" horiz-adv-x="1366" >
<font-face units-per-em="2048" ascent="1638" descent="-410" />
<missing-glyph horiz-adv-x="598" />
<glyph horiz-adv-x="0" />
<glyph unicode="&#xd;" horiz-adv-x="598" />
<glyph unicode=" "  horiz-adv-x="598" />
<glyph unicode="&#x09;" horiz-adv-x="598" />
<glyph unicode="&#xa0;" horiz-adv-x="598" />
<glyph unicode="!" horiz-adv-x="598" d="M117 1442l69 -953h299l76 953h-444zM152 2h370v360h-370v-360z" />
<glyph unicode="&#x22;" horiz-adv-x="811" d="M46 1391.5q1 -15.5 5 -43.5l111 -512h65l109 536q2 43 0 64q-10 49 -49 73.5t-86 24.5q-51 0 -96.5 -27.5t-55.5 -83.5q-4 -16 -3 -31.5zM472 1391.5q1 -15.5 5 -43.5l113 -512h63l109 536q2 14 3 30.5t-3 33.5q-4 12 -12.5 29.5t-23.5 32.5t-39.5 25.5t-59.5 10.5 q-51 0 -96.5 -27.5t-55.5 -83.5q-4 -16 -3 -31.5z" />
<glyph unicode="#" d="M86 381h193l-52 -381h254l54 381h202l-55 -381h258l53 381h238v254h-201l25 194h223v254h-186l49 363h-256l-49 -363h-205l51 363h-254l-51 -363h-240v-254h205l-27 -194h-229v-254zM569 635l27 194h205l-29 -194h-203z" />
<glyph unicode="$" horiz-adv-x="1193" d="M59 0h340v111l78 -70v-240h287v193q80 23 146.5 48.5t119.5 84.5q39 41 61.5 85t34 86t14.5 76t3 52q0 76 -26.5 148.5t-80.5 125.5q-14 12 -31.5 25.5t-50.5 36.5q-61 37 -123 67q-53 27 -105 51.5t-105 47.5q-41 23 -79 46t-59 62q-4 8 -10 22.5t-6 37.5 q0 41 26.5 72.5t65.5 43.5q18 6 29.5 7.5t21.5 1.5q12 0 39 -4.5t56 -24.5q51 -35 62 -93.5t15 -115.5h324v463h-326v-111l-63 70v246h-287v-189q-35 -8 -62.5 -15t-60.5 -22q-43 -20 -71.5 -41.5t-42.5 -33.5q-45 -39 -74 -90q-18 -31 -28.5 -65t-15.5 -63.5t-7 -52 t-2 -35.5q0 -84 24.5 -142t58 -99t70.5 -66.5t62 -42.5l315 -162q20 -12 45 -27.5t44.5 -34.5t32.5 -44t13 -55q0 -59 -44 -96t-101 -37q-35 0 -58.5 10t-33.5 16q-29 18 -46.5 43t-27.5 49.5t-13.5 45t-5.5 30.5q-2 14 -2 27v28l-340 2v-489z" />
<glyph unicode="%" horiz-adv-x="1792" d="M37 1034q-2 -43 2 -87t4 -54q2 -16 6 -46t15.5 -68t32 -79t55.5 -79q47 -53 105 -74t132 -21q47 0 79 7.5t48 15.5q18 8 46 25.5t63 56.5q66 78 85 172t19 194q0 76 -6 123t-14 78q-29 102 -79 154.5t-87 72.5q-45 23 -90 29t-64 6q-43 0 -74.5 -8t-48.5 -12 q-29 -10 -56.5 -25.5t-47.5 -36.5q-20 -18 -41 -49t-39.5 -74t-30.5 -98t-14 -123zM285 977l8 178q2 18 7 43t14.5 48.5t25.5 38.5t43 15q20 0 31.5 -8t17.5 -14q29 -33 36 -77t11 -85q2 -25 3 -50.5t1 -51.5q0 -39 -1 -78t-3 -80q-2 -23 -6 -52.5t-14 -55t-27.5 -43 t-48.5 -17.5q-20 0 -34.5 9.5t-23 21.5t-13.5 24.5t-7 18.5q-12 41 -16 88t-4 127zM535 2h180q10 23 18 43.5t19 42.5q16 43 31.5 87t31.5 89q45 127 92 250t94 248q63 170 125 338t123 340h-182zM1061 446q0 -61 7 -125.5t28.5 -122t60.5 -105.5t103 -77q18 -10 58 -21 t97 -11q33 0 89.5 11t115.5 66q84 80 106.5 188.5t22.5 223.5q0 96 -18.5 183t-83.5 161q-49 53 -108.5 77t-133.5 24q-16 0 -55 -4.5t-80 -22.5q-16 -6 -47 -25.5t-62 -56.5q-66 -78 -84 -171.5t-16 -191.5zM1307 408l6 192q0 2 2 17.5t6 36t12 43t23 38.5q18 23 49 23 q29 0 51 -25q29 -37 36 -86t11 -92q2 -35 2 -68v-67q-2 -29 -3 -56.5t-3 -56.5q-2 -18 -6 -46t-13.5 -53.5t-27.5 -43t-47 -17.5q-31 0 -49.5 20.5t-29.5 55.5t-15 82t-4 103z" />
<glyph unicode="&#x26;" horiz-adv-x="1622" d="M49 426q0 -113 33 -183.5t59 -103.5q33 -41 62.5 -62.5t46.5 -31.5q49 -29 100 -45t95 -23.5t80 -8.5t55 -1q92 0 157.5 9.5t100.5 17.5q59 16 104 38.5t98 55.5l86 -88h471v236h-229l-78 81q37 51 59.5 88t40 73t31 77t29.5 102h139v230h-530v-230h94q-6 -27 -10 -44 t-11.5 -32.5t-17.5 -32t-27 -38.5l-251 254q68 51 126 104.5t93 130.5q20 45 25 82t5 58q-2 133 -77.5 215t-198.5 110q-29 8 -73 13.5t-111 5.5q-61 0 -101.5 -5t-66.5 -12q-59 -16 -110.5 -46.5t-89.5 -73.5t-59.5 -98.5t-21.5 -119.5q0 -96 45 -162.5t111 -136.5l-62 -49 q-41 -31 -74.5 -56.5t-68.5 -66.5q-41 -53 -59.5 -108t-18.5 -123zM444 393q0 49 21.5 88t56.5 70q10 8 22.5 15t22.5 16l289 -299q-27 -25 -70 -53.5t-127 -28.5q-14 0 -42.5 3t-59.5 15t-58.5 38t-41.5 69q-8 23 -10.5 40t-2.5 27zM504 1165q0 20 7 36t11 22q18 29 47 43 t62 14q53 0 93 -34t40 -87q0 -33 -20.5 -72.5t-81.5 -78.5l-44 -25q-43 43 -65.5 70.5t-34.5 54.5q-2 6 -8 21.5t-6 35.5z" />
<glyph unicode="'" horiz-adv-x="425" d="M68 1377q2 -21 4 -29l110 -512h66l108 536q2 14 3 28.5t-1 31.5q-10 51 -49 76.5t-88 25.5q-53 0 -97 -27.5t-54 -83.5q-4 -25 -2 -46z" />
<glyph unicode="(" horiz-adv-x="681" d="M98 512q4 -53 7.5 -103.5t11.5 -99.5q8 -61 25.5 -130.5t40 -141.5t48 -138.5t54.5 -121.5q23 -47 49 -92t55 -91l277 -2l-66 109q-16 41 -33.5 80t-34.5 80q-12 35 -29.5 99.5t-34.5 151.5t-29.5 190.5t-12.5 215.5q0 31 3 94.5t12.5 146.5t28.5 177t52 188 q23 66 50.5 128.5t56.5 125.5l41 66h-277q-27 -43 -51.5 -86t-46.5 -88q-33 -66 -58.5 -132.5t-45 -125t-32 -103.5t-18.5 -65q-10 -43 -17 -80t-12.5 -73t-8.5 -73.5t-5 -82.5v-23z" />
<glyph unicode=")" horiz-adv-x="681" d="M8 -406l273 -2q27 41 50 82t46 84q25 49 50.5 110.5t49 127t42 130t30.5 118.5q10 49 16 99t13 103q2 51 1 102.5t-6 102.5q-10 98 -33.5 193.5t-50 175.5t-52 137t-38.5 82q-25 53 -52.5 102.5t-55.5 98.5l-275 2q20 -35 36 -60.5t28 -49t23.5 -50.5t27.5 -65 q29 -90 47.5 -157t30.5 -119t18 -98t13 -98q12 -109 12 -215q0 -121 -11.5 -222t-27.5 -183t-35.5 -146.5t-38.5 -109.5q-29 -72 -62.5 -139.5t-68.5 -135.5z" />
<glyph unicode="*" horiz-adv-x="854" d="M27 1057l227 -41l-158 -170l213 -158l113 215l115 -207l215 152q-25 31 -42.5 51.5t-36 38.5t-39 36.5t-50.5 43.5q49 10 82.5 17t59.5 11.5t48.5 6.5t48.5 4l-84 258l-217 -113l33 242h-268l41 -236l-222 103z" />
<glyph unicode="+" d="M86 467h467v-467h262v467h465v260h-465v465h-262v-465h-467v-260z" />
<glyph unicode="," horiz-adv-x="468" d="M37 -328h270l113 326v369h-373v-367h127z" />
<glyph unicode="-" horiz-adv-x="681" d="M59 389h557v279h-557v-279z" />
<glyph unicode="." horiz-adv-x="468" d="M45 4h375v365h-375v-365z" />
<glyph unicode="/" horiz-adv-x="768" d="M10 -23h217q33 80 60.5 161t56.5 163q100 295 202.5 587t205.5 585l-228 2z" />
<glyph unicode="0" horiz-adv-x="1236" d="M57 737q2 -55 3 -91t4.5 -67.5t9.5 -67.5t16 -87q10 -35 19.5 -68.5t23.5 -68.5q41 -96 115 -173t172 -112q61 -23 117.5 -26t78.5 -3q27 0 67 3.5t87 16.5t98.5 39.5t102.5 73.5q66 61 98.5 125t60.5 150q8 37 15.5 71.5t13.5 78.5t9 100.5t3 134.5q0 33 -1 59.5t-4 57 t-9 68.5t-18 91q-12 43 -26.5 85t-37.5 83q-35 66 -76 111t-81.5 72.5t-78.5 43t-65 21.5q-47 12 -85 14.5t-58 2.5q-78 0 -136.5 -10.5t-103.5 -29t-77.5 -41t-59.5 -46.5q-41 -39 -68.5 -80t-45 -78t-28 -67.5t-14.5 -49.5q-6 -20 -11 -38.5t-9 -39.5q-4 -33 -7 -56.5 t-6.5 -50t-4.5 -61.5t-3 -90zM455 700q0 55 1 93t4 72t7 70t10 91q8 51 21.5 95t56.5 79q20 16 35.5 20.5t25.5 4.5q27 0 45.5 -12.5t24.5 -18.5q37 -31 49.5 -71t18.5 -87q8 -76 15 -150.5t7 -152.5q0 -72 -5 -143.5t-11 -143.5q-6 -55 -18.5 -104t-59.5 -84 q-23 -16 -41 -20.5t-29 -4.5q-43 0 -66.5 23t-31.5 35q-23 35 -32 76t-15 84z" />
<glyph unicode="1" horiz-adv-x="1236" d="M127 823q35 23 69.5 44.5t69.5 43.5q35 23 67 47.5t66 49.5l80 71v-827h-196v-252h782v252h-166v1194h-381q-47 -39 -81 -66.5t-73.5 -57.5t-94 -65.5t-142.5 -91.5v-342z" />
<glyph unicode="2" horiz-adv-x="1236" d="M49 997h397q4 57 13.5 110.5t52.5 88.5q10 8 27.5 17.5t46.5 9.5q31 0 53.5 -11.5t37.5 -26t22.5 -30.5t11.5 -25q8 -20 10 -35.5t2 -25.5q0 -33 -14.5 -65.5t-51.5 -92.5q-37 -41 -72.5 -82t-72.5 -79q-92 -96 -190 -185l-265 -239v-324h1100v426h-330v-178h-325 q43 43 87 85t89 85q41 37 82 74.5t82 76.5q35 35 66.5 68t66.5 68q55 61 92 112t57 131q10 39 11.5 70t1.5 47q0 14 -1 38.5t-7.5 54.5t-18.5 63.5t-35 64.5q-29 43 -59.5 66.5t-46.5 34.5q-53 33 -108.5 51t-104.5 26.5t-88 9.5t-58 1q-92 0 -161.5 -12.5t-122 -32t-91 -46 t-67.5 -57.5q-37 -37 -58.5 -73.5t-34 -76.5t-17.5 -85t-9 -97z" />
<glyph unicode="3" horiz-adv-x="1236" d="M23 403q8 -59 18 -116.5t39 -106.5q31 -57 90 -100q53 -43 112.5 -64.5t113 -32t95 -11.5t62.5 -1q29 0 58.5 1t58.5 3q61 4 119.5 13.5t110.5 30t97 53t80 84.5q20 29 44 84t26 143q0 78 -23.5 150.5t-83.5 121.5q-59 49 -121.5 62.5t-136.5 17.5q74 18 115 28.5 t76 27.5q23 12 49.5 31.5t48 51t35.5 76.5t14 109q0 66 -13 116t-33.5 85.5t-44 60.5t-44.5 41q-43 33 -89 53.5t-88 30.5t-75 14t-49 6q-33 2 -55.5 3t-42.5 1q-18 0 -41 -1t-56 -3q-78 -12 -148.5 -31.5t-139.5 -66.5q-61 -43 -94 -93t-47.5 -98.5t-16.5 -89t-2 -67.5h399 q0 51 10.5 99t57.5 77q23 16 41 19.5t31 3.5q31 0 53 -12.5t36.5 -29t22.5 -33t13 -24.5q10 -23 12 -41t2 -28q0 -12 -4 -40t-21 -59q-18 -33 -45.5 -50t-55.5 -26.5t-51.5 -11.5t-31.5 -2q-14 -2 -27 -2h-26v-250q59 2 118.5 -4t104.5 -47q20 -18 31.5 -40.5t16.5 -44 t6 -40t1 -26.5q0 -53 -16.5 -88t-40 -55.5t-49 -28t-45.5 -7.5q-47 0 -87 26t-57 69q-4 16 -6 31.5t-4 47.5h-407z" />
<glyph unicode="4" horiz-adv-x="1236" d="M29 365h628v-138h-180v-227h686v227h-108v138h125v247h-125v832h-488l-538 -766v-313zM317 606l359 547l-8 -547h-351z" />
<glyph unicode="5" horiz-adv-x="1236" d="M63 385q0 -8 5.5 -53t17.5 -84q27 -78 89.5 -138.5t139.5 -91.5q37 -14 79 -23t50 -11q27 -4 47.5 -7.5t44 -4.5t54.5 -1h80q51 4 96 10.5t94 22.5q43 14 69.5 29.5t43.5 25.5q78 51 119 121t59 162q10 55 13 97t3 65q0 70 -12 126t-31.5 99t-42 74t-43.5 51 q-16 16 -40.5 34.5t-59.5 34t-81 24.5t-105 9q-102 0 -154.5 -25.5t-85.5 -58.5q-10 -10 -19.5 -21t-19.5 -24l-2 355h625v262h-1006v-885h381q12 41 27.5 75t52.5 52q6 4 23.5 10t39.5 6q29 0 49.5 -9t35 -22.5t22.5 -26.5t12 -21q14 -29 19.5 -65t5.5 -101q0 -25 -1 -48.5 t-7 -48.5q-2 -8 -10.5 -29.5t-24 -44t-39 -40t-60.5 -17.5q-41 0 -75.5 22.5t-51.5 59.5q-10 18 -14 43t-4 29l-258 2h-150z" />
<glyph unicode="6" horiz-adv-x="1236" d="M59 672q0 -96 7.5 -156.5t13.5 -99.5q2 -6 7 -28.5t14.5 -53.5t21.5 -66t29 -63q45 -74 110 -127q53 -43 138 -75t237 -32q84 0 148.5 13.5t112.5 35t82 48t58 51.5q59 59 88 131t41 156q4 33 5.5 58t1.5 38q0 63 -13.5 125.5t-41 119t-68.5 102.5t-97 77q-66 35 -124 42 t-85 7q-18 0 -48.5 -2t-66.5 -13.5t-73 -36t-70 -67.5q-12 -16 -22 -33.5t-27 -52.5q0 39 1 66.5t4 52t7.5 51.5t10.5 68q12 55 31.5 109t68.5 89q37 27 80 27q6 0 24.5 -2t36.5 -12q39 -18 49.5 -52t18.5 -77h389q-6 43 -12 78.5t-25 76.5q-37 86 -102.5 132t-133 67.5 t-126 26t-82.5 4.5q-121 0 -221.5 -30t-190.5 -116q-43 -41 -71.5 -83t-46 -80t-27.5 -70.5t-17 -53.5q-10 -37 -18 -70.5t-14 -74.5t-9.5 -95t-3.5 -130zM455 496q0 8 2 31.5t10 53t25.5 60.5t50.5 53q25 16 47 20.5t33 4.5q35 0 55 -10.5t31 -20.5q25 -23 39 -51.5t21 -57 t9 -50t2 -27.5v-35q0 -63 -15 -122.5t-69 -100.5q-27 -18 -48 -22.5t-32 -4.5q-29 0 -67.5 17.5t-67.5 78.5q-14 29 -22 71t-4 112z" />
<glyph unicode="7" horiz-adv-x="1236" d="M41 967h338v221h391q-55 -96 -104 -191q-55 -109 -105.5 -216t-99.5 -218q-63 -141 -124 -280.5t-122 -280.5h442q29 80 58.5 160t62.5 157q35 82 71 163t71 165q49 111 80.5 180.5t57 121.5t52.5 98.5t64 107.5v289h-1133v-477z" />
<glyph unicode="8" horiz-adv-x="1236" d="M59 387q0 -66 12.5 -114t31 -83.5t41 -60.5t42.5 -41q61 -49 128 -68.5t143 -35.5q41 -4 81 -7.5t80 -3.5q35 0 71 2t71 7q86 16 132 30.5t83 32.5q18 10 51 31.5t68 66.5q27 37 42 74t23 71t9 60.5t1 42.5q0 104 -29.5 164.5t-58.5 89.5q-23 23 -64.5 48.5t-115.5 47.5 q-16 4 -33.5 8.5t-33.5 8.5q45 10 86 21.5t76.5 29.5t65.5 46t52 71q25 49 30 91t5 64q0 135 -71.5 224.5t-190.5 130.5q-33 10 -67 17t-99 17q-35 2 -62 3h-49q-23 0 -47 -2.5t-57 -4.5q-25 -4 -70 -10t-99 -26.5t-108.5 -58.5t-95.5 -103q-39 -59 -48 -110.5t-9 -82.5 q0 -51 11 -88t19 -53q20 -45 49 -74t65 -48t77 -31.5t86 -20.5q-49 -16 -93 -32.5t-83 -40t-68.5 -58.5t-50.5 -84q-20 -51 -24.5 -93t-4.5 -65zM442 399v37q4 82 30 123t54 59q29 16 51.5 20.5t36.5 4.5q57 0 101 -35q35 -27 52 -67.5t19 -128.5q0 -12 -1 -35t-8 -48.5 t-24.5 -52t-47.5 -47.5q-10 -6 -33 -16t-58 -10q-66 0 -108.5 44t-56.5 103q-6 29 -7 49zM458 1028.5q-3 23.5 1 54.5q4 51 21.5 83t40 50.5t47 24.5t46.5 6q39 0 67 -14t45 -33.5t25.5 -39t12.5 -30.5q6 -18 7 -37.5t1 -25.5q0 -37 -5 -58.5t-11 -37.5q-4 -10 -13.5 -26.5 t-27 -32t-43 -27t-60.5 -11.5q-57 0 -95 34t-52 87q-4 10 -7 33.5z" />
<glyph unicode="9" horiz-adv-x="1236" d="M55 950q0 -23 2 -65.5t15.5 -95t42 -107.5t80.5 -104q39 -37 80.5 -58.5t79.5 -34t70 -15.5t52 -3q55 0 99.5 12.5t77 29.5t56 37.5t35.5 37.5q18 25 34 57.5t26 60.5l-21 -227q-10 -72 -21 -106.5t-34 -63.5q-35 -51 -73 -64.5t-64 -13.5q-29 0 -50.5 9.5t-37 21.5 t-24.5 26.5t-13 24.5q-4 14 -5 29.5t-1 19.5h-383q4 -43 11 -87t26 -85q29 -63 77 -105t106 -66.5t124.5 -35t132.5 -10.5q20 0 65.5 2t101.5 14.5t117.5 38t114.5 72.5q72 61 111 142t68 168q8 35 15 69.5t12 76.5t8 96t3 128q0 78 -6 133.5t-18 128.5q-2 8 -7 31 t-15.5 53.5t-24 63.5t-31.5 63q-16 31 -43 60.5t-55 52.5q-51 43 -104.5 65.5t-100.5 32.5t-86 12.5t-62 2.5q-109 0 -188.5 -18.5t-136.5 -49.5t-95 -70t-63 -80q-43 -70 -61.5 -147.5t-18.5 -159.5zM444.5 944q-2.5 27 1.5 70q6 96 35 141t66 64q8 4 24.5 10t38.5 6 q14 0 36 -5t44.5 -19.5t43 -40t32.5 -64.5q4 -16 9 -43t5 -70q0 -68 -13 -131t-67 -104q-43 -33 -88 -33q-37 0 -64.5 15.5t-47 40t-31.5 56t-18 64.5q-4 16 -6.5 43z" />
<glyph unicode=":" horiz-adv-x="555" d="M129 2h373v367h-373v-367zM131 659h371v363h-371v-363z" />
<glyph unicode=";" horiz-adv-x="555" d="M123 -324h276q14 41 27.5 82t28.5 82q14 41 25.5 82t21.5 82v363h-375v-367h131zM129 657h373v367h-373v-367z" />
<glyph unicode="&#x3c;" d="M0 592l1366 -598v282l-1004 443l1004 448v285l-1366 -606v-254z" />
<glyph unicode="=" d="M0 252h1366v262h-1366v-262zM0 682h1366v258h-1366v-258z" />
<glyph unicode="&#x3e;" d="M0 -6l1366 598v254l-1366 606v-285l1001 -448l-1001 -443v-282z" />
<glyph unicode="?" horiz-adv-x="980" d="M-80 1061h381q4 45 11 84t42 65q18 12 36 15.5t26 3.5q37 0 59.5 -17.5t32.5 -39t13 -44t3 -30.5q0 -59 -27.5 -105.5t-60.5 -89.5l-139 -135q-23 -25 -32 -37t-19 -29q-23 -43 -30 -97t-1 -154h348q10 53 23.5 84.5t52.5 72.5q29 29 60.5 55.5t62.5 55.5q78 72 125 158 t47 198q0 80 -22.5 132.5t-41.5 78.5q-39 59 -91 95t-102 54.5t-93 24.5t-64 8q-25 2 -50.5 3.5t-49.5 1.5q-145 0 -229.5 -32t-135.5 -73q-49 -39 -75.5 -83t-39 -86t-15.5 -78zM203 2h372v350h-372v-350z" />
<glyph unicode="@" horiz-adv-x="1835" d="M137 500q0 -74 10.5 -134.5t25.5 -109.5t32.5 -87t32.5 -63q51 -86 115.5 -146t135 -100t141 -62.5t133 -34t113 -14.5t76.5 -3q102 0 187.5 15.5t154 38t119.5 48t86 46.5q78 47 124 88t73 69l-86 113q-16 -16 -51 -49t-86 -68q-74 -53 -149 -83t-140.5 -46t-118.5 -20 t-86 -4q-90 0 -176 19t-162 60t-138.5 103.5t-101.5 148.5q-29 61 -42 130t-13 139q0 78 15.5 160.5t45 163.5t71.5 153.5t95 132.5q88 98 204 154.5t251 58.5q115 0 217.5 -47t173.5 -140q41 -51 64.5 -103t35 -99t14.5 -85t3 -61q0 -82 -14.5 -148.5t-37 -118.5t-48 -91 t-45.5 -66q-31 -41 -58.5 -54t-50.5 -13q-29 0 -35 15.5t-6 25.5q0 14 5 45t13.5 73t18.5 89t20 96l86 401h-172l-18 -84q-12 29 -20.5 41.5t-18.5 24.5q-16 20 -56 46t-112 26q-43 0 -80 -10.5t-66.5 -25t-50 -29.5t-30.5 -24q-80 -61 -126 -133.5t-70.5 -142.5t-32 -127 t-7.5 -90q0 -72 14.5 -126t37 -94t50 -66.5t52.5 -43.5q16 -10 51 -24.5t86 -14.5t91 16.5t70 38t49 43t28 33.5q8 -18 14 -32.5t16 -30.5q18 -27 41 -42t45.5 -22.5t41 -9.5t28.5 -2q53 0 98 18.5t80 42t57.5 47t32.5 33.5q63 72 100.5 147t55.5 141.5t23.5 121.5t5.5 88 q0 96 -18.5 174t-45 138.5t-58.5 104.5t-59 73q-25 27 -66.5 61.5t-102 65t-138.5 51t-176 20.5q-104 0 -204.5 -26.5t-191.5 -74.5t-168 -117t-136 -153q-63 -90 -101.5 -178t-57.5 -166.5t-25.5 -141t-6.5 -101.5zM750 408v36q0 23 4 64t16 93t33.5 111.5t54.5 118.5 q16 33 39 63t55 48q6 4 20.5 11.5t35.5 7.5q23 0 55.5 -17.5t48.5 -71.5q4 -16 5 -30.5t3 -20.5q0 -43 -9 -97t-24.5 -110.5t-35 -107.5t-39.5 -88q-37 -66 -80 -96.5t-78 -30.5q-33 0 -57 18q-16 12 -29.5 34t-17.5 65z" />
<glyph unicode="A" horiz-adv-x="1662" d="M16 -2h621v254h-162l60 162h518l63 -164h-164v-250h688v250h-86l-479 1196h-489l-482 -1194h-88v-254zM623 651q27 70 52 137.5t48 137.5q20 53 37.5 107t34.5 108l180 -490h-352z" />
<glyph unicode="B" horiz-adv-x="1449" d="M49 0q90 0 178 1t179 1q84 -2 165.5 -3t165.5 -1h66t63 2q84 2 168 12q63 12 94 22.5t62 26.5q63 33 100 82.5t55.5 98.5t23.5 91t5 64q0 23 -4 66t-29 96q-35 72 -79.5 102.5t-71.5 40.5q-29 10 -70 20.5t-71 16.5q43 12 84 26.5t76.5 36t64.5 51.5t47 75q20 47 23.5 89 t3.5 62q0 76 -22.5 141.5t-80.5 116.5q-53 51 -115.5 69.5t-134.5 31.5q-33 2 -64.5 4t-64.5 2q-62 3 -126 3h-32q-80 -1 -159 -1h-498v-250h142v-942h-144v-254zM590 248v368h160h36q25 0 50.5 -7t51 -24.5t48.5 -52.5q31 -43 31 -100q0 -29 -9.5 -56.5t-25.5 -49.5 q-23 -35 -51.5 -51.5t-60.5 -22.5q-27 -5 -58 -5h-10q-36 1 -76 1h-86zM590 860v348q104 0 164.5 -2t103.5 -20q16 -6 40 -22.5t40 -57.5q4 -10 7 -24.5t3 -37.5q0 -43 -14 -73.5t-23 -42.5q-33 -45 -75.5 -56.5t-102.5 -11.5h-143z" />
<glyph unicode="C" horiz-adv-x="1579" d="M73 728q1 -20 1 -48v-10l22 -168q12 -45 28.5 -95.5t39.5 -91.5q12 -25 45 -75t92 -101q55 -49 113.5 -78.5t111 -48t95.5 -27t67 -10.5q25 -4 49.5 -5t50.5 -5q37 -2 62 -2t44 1t35.5 2t37.5 3q92 12 165.5 29.5t153.5 69.5q49 33 84 69.5t59.5 72.5t38 67.5t19.5 54.5 q14 39 20 74.5t13 78.5h-410q-4 -27 -12 -59.5t-21 -56.5q-23 -49 -57.5 -79t-71.5 -45.5t-68.5 -20.5t-48.5 -5q-66 0 -108.5 22.5t-60.5 39.5q-45 39 -73 91t-43.5 109.5t-21.5 117.5t-6 116q0 131 21.5 211t50.5 127q43 74 109.5 117.5t154.5 43.5q45 0 82 -12 t63.5 -28.5t45 -35t28.5 -32.5q35 -47 44 -97.5t13 -109.5h367v539h-340v-142q-6 6 -30.5 38t-53.5 55q-43 33 -97 52t-103.5 27.5t-86 10.5t-49.5 2q-143 0 -228 -32t-136 -67q-68 -45 -114 -97t-74.5 -103.5t-44 -95.5t-23.5 -70q-10 -31 -17.5 -62.5t-15.5 -64.5 q-6 -45 -8 -73t-3 -48v-20v-20z" />
<glyph unicode="D" horiz-adv-x="1662" d="M47 6h848q31 2 61.5 4t61.5 6q51 10 87 18.5t63.5 16.5t50 18.5t47.5 22.5q84 47 132 101.5t66 82.5q45 68 71 136.5t38 130t15 112t3 78.5q0 119 -23.5 213t-59 165t-79 120t-79.5 80q-55 45 -113.5 70.5t-112 39t-96.5 18.5t-67 7h-908v-248h140v-944h-146v-248z M606 256v942h187q59 -4 88.5 -10t58.5 -17q84 -31 129 -91t65.5 -124.5t23.5 -119t3 -74.5q0 -145 -27.5 -231.5t-66.5 -141.5q-33 -43 -71 -68.5t-80 -39t-88 -18.5t-95 -7h-127z" />
<glyph unicode="E" horiz-adv-x="1449" d="M47 0h1348v475h-314v-227h-487v364h145v-143h254v532h-252v-143h-147v342h491v-203h312v441h-1346v-244h142v-942h-146v-252z" />
<glyph unicode="F" d="M47 0h739v250h-192v330h139v-150h256v539h-256v-148h-137v373h475v-225h313v471h-1333v-244h142v-946h-146v-250z" />
<glyph unicode="G" horiz-adv-x="1748" d="M72 739q0 -176 54 -335.5t187 -272.5q66 -55 134.5 -87t131 -48t112.5 -20.5t81 -4.5q43 0 92 6.5t98.5 18.5t94.5 31.5t80 48.5q16 14 30.5 30.5t40.5 51.5v-156h340v502h117v252h-643v-252h170q-10 -47 -19.5 -70.5t-19.5 -46.5q-29 -53 -66.5 -84t-76.5 -46t-73 -19.5 t-54 -4.5q-25 0 -74 7.5t-107 40.5q-80 45 -134 148t-56 298q0 193 54.5 297t135.5 150q53 29 96.5 36t67.5 7q92 0 171 -48.5t114 -132.5q10 -29 14 -60.5t6 -39.5h365v508h-340v-164q-23 31 -42 56.5t-48 47.5q-68 51 -166 75t-184 24q-25 0 -73 -4t-108.5 -17.5t-127 -42 t-128.5 -78.5q-92 -76 -142 -166t-73.5 -176t-27.5 -156.5t-4 -103.5z" />
<glyph unicode="H" horiz-adv-x="1748" d="M47 0h719v252h-158v328h529v-330h-164v-250h717v252h-142v944h148v244h-719v-250h160v-348h-529v354h164v244h-719v-244h140v-944h-146v-252z" />
<glyph unicode="I" horiz-adv-x="811" d="M31 0h743v258h-160v938h164v250h-741v-250h156v-940h-162v-256z" />
<glyph unicode="J" horiz-adv-x="1150" d="M16 504q0 -106 6.5 -164.5t22.5 -106.5q27 -78 74 -126t99 -74.5t98 -37.5t71 -15q45 -8 80 -9.5t51 -1.5q49 0 83 3t54 8q119 18 182.5 58t98.5 81q47 53 61.5 106.5t24.5 118.5v848h115v250h-727v-254h194v-369q0 -227 -6 -454q-2 -39 -8 -71t-35 -50q-8 -4 -19.5 -9.5 t-31.5 -5.5q-18 0 -43 12.5t-41 55.5q-6 18 -9 46t-5.5 56.5t-2.5 57.5v47h-387z" />
<glyph unicode="K" horiz-adv-x="1579" d="M51 0h680v250h-135v471q25 -27 48.5 -52.5t45.5 -52.5q35 -41 65.5 -79.5t63.5 -79.5q41 -51 84 -102.5t86 -104.5h-123v-248h695v248h-91l-458 530l401 416h123v248h-678v-254h109l-371 -391v395h139v248h-680v-250h138v-942h-142v-250z" />
<glyph unicode="L" d="M51 0h1239v553h-342v-293h-338v934h205v248h-760v-250h138v-942h-142v-250z" />
<glyph unicode="M" horiz-adv-x="2134" d="M57 -2h586v254h-127v903l326 -1155h377l337 1147v-895h-135v-248h647v246h-133v942h140v252h-744l-270 -979l-254 979h-744v-250h127v-944h-133v-252z" />
<glyph unicode="N" horiz-adv-x="1705" d="M55 4h629v248h-158l-12 801l524 -1049h512v1194h127v244h-614v-246h156l8 -717l-477 961h-695v-246h140v-944h-140v-246z" />
<glyph unicode="O" horiz-adv-x="1705" d="M70 721q0 -152 31.5 -252t60.5 -154q70 -129 169 -201.5t199.5 -107.5t187.5 -42t130 -7q117 0 193.5 14.5t123.5 30.5q27 10 77 32.5t110 67.5q53 41 82.5 74t46.5 55q53 72 82.5 148t45 144.5t18.5 122.5t3 85q0 104 -16.5 186t-42 145.5t-57 111t-60.5 79.5 q-33 37 -64.5 65t-72.5 54q-68 43 -136.5 66.5t-130 35t-110.5 14.5t-76 3q-25 0 -73 -2t-109 -12q-92 -16 -149.5 -37t-92.5 -39q-131 -68 -205.5 -165t-111.5 -197.5t-45 -186.5t-8 -131zM510 674v49q0 94 12.5 184t63.5 174q45 74 109.5 117t154.5 43q74 0 123 -25.5 t69 -41.5q70 -55 108 -159t38 -292q0 -190 -43 -298t-117 -161q-78 -55 -174 -55q-66 0 -110 17.5t-66 31.5q-31 20 -58.5 50t-50 74t-38 104.5t-19.5 140.5q-2 25 -2 47z" />
<glyph unicode="P" horiz-adv-x="1409" d="M47 2h756v252h-195v266q86 -2 144 -2q57 0 100 2t81 5t85 7q53 10 80.5 17.5t52.5 19.5q84 37 131 96.5t69.5 122t27.5 116.5t5 79q0 70 -12 124t-31.5 96t-43 71t-46.5 51q-39 37 -78.5 58.5t-76.5 32.5t-68 15.5t-51 6.5q-49 4 -98.5 6t-98.5 2q-39 1 -80 1h-40 q-62 -1 -121 -1q-123 -2 -246 -2h-244l-2 -250h146v-942h-146v-250zM602 768v432h117q51 0 88 -7t63.5 -22.5t49.5 -44.5q27 -31 36 -67.5t9 -77.5q0 -18 -3.5 -48t-17.5 -59.5t-43 -56t-80 -39.5q-37 -10 -85 -11h-36q-41 0 -98 1z" />
<glyph unicode="Q" horiz-adv-x="1705" d="M74 737q0 -39 2 -72.5t12 -103.5q10 -47 20.5 -87t24.5 -77t33.5 -72.5t48.5 -74.5q55 -74 118.5 -120t124 -73.5t112 -40t81.5 -18.5q18 -4 36 -6t36 -6q47 -2 92 -4t92 -2q96 0 189.5 7t189.5 11q98 4 199 4h201v246h-310q39 29 72 55.5t61 65.5q45 57 69 119.5t34 119 t12 101.5t2 67q0 164 -51 303.5t-178 243.5q-96 80 -175 106.5t-128 36.5q-70 10 -116 15.5t-82 7.5q-18 1 -35 1t-33 -1q-31 -2 -72 -4q-43 -4 -72 -8t-50.5 -8.5t-41 -8.5t-39.5 -10q-88 -25 -153.5 -67t-112.5 -87t-78 -88t-45 -71q-14 -27 -25.5 -58.5t-20.5 -59.5 t-14.5 -48.5t-7.5 -26.5q-10 -57 -16 -104t-6 -103zM508 674v45v45q6 94 19.5 185t70.5 167q12 16 32.5 38t51.5 41t74 32.5t98 13.5q61 0 120.5 -20.5t102.5 -59.5q47 -45 67.5 -94t26.5 -70l13 -49q8 -55 12 -97t4 -97q0 -45 -4 -88l-8 -86q-16 -72 -35.5 -136.5 t-71.5 -117.5q-14 -14 -34.5 -32t-49 -32t-66.5 -24.5t-87 -10.5q-55 0 -95 12.5t-70 30t-49.5 38t-31.5 36.5q-39 49 -53.5 97t-24.5 108q-6 43 -9 72.5t-3 52.5z" />
<glyph unicode="R" horiz-adv-x="1536" d="M37 0h717v252h-152v323q39 1 71 1h30q42 -1 65 -7q31 -8 51.5 -24.5t32.5 -34.5t18.5 -34.5t8.5 -22.5l153 -453h475v250h-125l-88 262q-4 12 -13 33.5t-25.5 45t-43 46t-65.5 35.5q-12 4 -29.5 8t-33 7t-28.5 5l-12 2q49 12 93.5 24.5t82 32t70.5 49t58 77.5 q10 23 24 67.5t14 112.5q0 115 -51 208t-161 136q-23 8 -46.5 15t-45 11.5t-37 6.5t-21.5 2q-27 2 -52.5 3t-53.5 3q-41 2 -87 2h-86h-700v-250h145v-940h-153v-254zM600 825v373h182q59 -10 102.5 -24.5t69.5 -63.5q14 -27 17.5 -50.5t3.5 -35.5q0 -16 -5 -44t-26 -62 q-35 -53 -78 -67.5t-65 -19.5q-14 -2 -28.5 -3t-31.5 -3h-141z" />
<glyph unicode="S" d="M63 2h332v133q2 -4 12.5 -15t24.5 -25.5t30.5 -30t35.5 -27.5q53 -35 131 -45t147 -10q86 0 155.5 14t122 36.5t90.5 51.5t60 57q33 39 52.5 84t28.5 85t11 73t2 49q0 57 -11 103.5t-28.5 81t-38 59t-38.5 41.5q-16 14 -32.5 26.5t-53.5 34.5q-57 29 -90 43.5t-63 24.5 l-64.5 21.5t-96.5 31.5q-49 16 -98 34.5t-96 37.5q-31 12 -56.5 27.5t-39.5 43.5q-4 12 -6.5 22.5t-4.5 25.5q0 49 46 93t155 46q84 0 126 -21.5t66 -46.5q35 -37 43.5 -75.5t12.5 -92.5h336v453h-328v-119q-27 31 -41 47.5t-31 28.5q-37 29 -81 44t-85 21.5t-72.5 7.5 t-41.5 1q-104 0 -182 -20.5t-135.5 -53.5t-94.5 -74t-59 -82q-35 -66 -43.5 -122t-8.5 -85q0 -16 3.5 -49t14.5 -71.5t33.5 -80.5t63.5 -75q23 -20 49.5 -37.5t55.5 -34.5q53 -25 92 -42t83 -35.5t103.5 -39t153.5 -51.5q63 -23 98 -43t51 -49q8 -14 10.5 -29.5t2.5 -19.5 q0 -57 -43 -96q-23 -20 -47.5 -30.5t-47 -15.5t-41 -6.5t-26.5 -1.5q-84 0 -128 25t-67 51q-37 41 -45 88t-12 101h-357v-496z" />
<glyph unicode="T" horiz-adv-x="1492" d="M16 922h334v270h182v-940h-176v-250h770v250h-174v940h189v-270h336v522h-1461v-522z" />
<glyph unicode="U" horiz-adv-x="1536" d="M6 1190h117q0 -63 1 -124.5t1 -125.5q0 -86 -2 -169t-2 -167q0 -53 2 -103t6 -100q6 -39 11 -65.5t11.5 -48t13.5 -38t17 -34.5q27 -49 74 -97t118.5 -85t169 -59.5t224.5 -22.5q94 0 170 12t134 31.5t101.5 45.5t73.5 52q53 45 83 94.5t45.5 95.5t19.5 83.5t8 60.5 q2 33 3 63.5t1 61.5q2 60 2 121.5t-2 122.5v395h123v254h-633v-252h152v-660q-2 -43 -5.5 -82.5t-14.5 -74.5t-33.5 -65.5t-61.5 -53.5q-35 -23 -72 -32t-78 -9q-20 0 -63 7t-90 42q-35 27 -52.5 58.5t-26.5 66.5t-10 74t-1 80v649h153v252h-688v-254z" />
<glyph unicode="V" horiz-adv-x="1662" d="M14 1194h107l475 -1192h463l479 1194h109v250h-656v-252h168l-303 -846l-293 848h168v248h-717v-250z" />
<glyph unicode="W" horiz-adv-x="2134" d="M2 1190h92l289 -1190h479l203 1012l199 -1012h479l297 1192h90v250h-582v-252h164l-174 -821l-219 1073h-438l-234 -1055l-168 803h168v252h-645v-252z" />
<glyph unicode="X" horiz-adv-x="1662" d="M16 0h686v233h-170l248 322l273 -322h-172v-233h759v250h-96l-452 489q23 23 44 44.5t44 43.5q31 35 62.5 70t62.5 70q102 115 204 223h109v254h-670v-236h160l-236 -301l-249 303h165v232h-741v-250h98l420 -457l-454 -485h-95v-250z" />
<glyph unicode="Y" horiz-adv-x="1536" d="M0 1192h88l465 -682v-256h-195v-254h809v254h-194v258l463 680h92v252h-651v-252h159l-237 -379l-236 379h166v252h-729v-252z" />
<glyph unicode="Z" horiz-adv-x="1409" d="M29 0h1331v504h-338v-252h-490l807 887v305h-1288v-494h338v238h445q-172 -184 -336 -367q-72 -76 -139.5 -151.5t-137.5 -151.5q-31 -33 -60.5 -64.5t-60.5 -64.5q-18 -20 -35.5 -40.5t-35.5 -43.5v-305z" />
<glyph unicode="[" horiz-adv-x="681" d="M125 -408h512v230h-168v1397h178v225h-522v-1852z" />
<glyph unicode="\" horiz-adv-x="724" d="M4 1446l467 -1483h262l-467 1483h-262z" />
<glyph unicode="]" horiz-adv-x="681" d="M33 -182v-228h520v1854h-510v-225h164v-1401h-174z" />
<glyph unicode="^" horiz-adv-x="1492" d="M233 637h281l238 473l225 -473h283l-398 809h-213z" />
<glyph unicode="_" horiz-adv-x="1024" d="M-20 -231v-261h1064v261h-1064z" />
<glyph unicode="`" horiz-adv-x="598" d="M-340 1489q31 -23 62.5 -47.5t62.5 -48.5q37 -31 75 -63t77 -60q18 -14 36.5 -25.5t36.5 -23.5l260 -2l-225 319h-385v-49z" />
<glyph unicode="a" horiz-adv-x="1323" d="M43 307q0 -115 64.5 -197.5t175.5 -115.5q29 -8 64.5 -13.5t94.5 -5.5q88 0 149.5 17.5t104.5 44t73 59.5t58 64v-160h465v240h-123v479q0 8 -3 48t-13 75q-16 51 -49 90q-27 33 -60.5 56.5t-65.5 37.5t-58.5 21.5t-38.5 11.5l-40 8t-42 8q-41 4 -80 7t-80 3 q-43 0 -87 -3t-87 -7q-18 -4 -51 -9t-73 -18.5t-82 -38t-81 -65.5q-49 -53 -62.5 -96t-17.5 -72q-2 -14 -3 -27.5t-1 -27.5l379 -2q2 25 8 52.5t22.5 52t49.5 41t90 16.5q12 0 43 -4.5t64 -24.5q35 -23 44 -52.5t11 -72.5v-33q0 -14 -2 -30q-97 2 -157 3h-29q-42 0 -76 -2 q-45 -3 -85 -8.5t-96 -11.5q-12 -4 -59 -16.5t-90 -34.5q-20 -12 -49 -33.5t-55.5 -56.5t-45 -84t-18.5 -113zM418 322q0 12 5 34.5t23 44.5q35 41 86.5 53.5t108.5 16.5h172q-4 -29 -6 -54.5t-12 -54.5q-6 -20 -20.5 -47.5t-41 -53t-65.5 -43t-97 -17.5q-59 0 -88.5 18.5 t-42.5 36.5q-16 20 -19 37.5t-3 28.5z" />
<glyph unicode="b" horiz-adv-x="1449" d="M18 4h508v178q10 -20 25.5 -44.5t30.5 -41.5q18 -20 46.5 -41.5t69.5 -40t95.5 -30t121.5 -11.5q76 0 135.5 15.5t103.5 39t76 52.5t50 53q43 55 65.5 122t34 128t12.5 107.5t1 62.5q0 88 -15.5 156.5t-38 121t-52.5 90t-56 62.5q-41 37 -83 58.5t-81 30.5t-70.5 11 t-54.5 2q-16 0 -53 -2t-84 -12t-97.5 -32.5t-93.5 -63.5q-16 -16 -26 -28.5t-33 -43.5l-2 598h-533v-237h121v-1020h-123v-240zM543 518v43t8 74t29.5 83t62.5 73q35 27 70 31.5t51 4.5q43 0 72.5 -12t42.5 -22q59 -41 74.5 -108t15.5 -138q0 -57 -5.5 -108.5t-27.5 -102.5 q-16 -37 -37.5 -59.5t-43 -34t-43 -14.5t-38.5 -3q-35 0 -58.5 6.5t-35.5 12.5q-57 23 -96 85t-41 189z" />
<glyph unicode="c" horiz-adv-x="1236" d="M59 541q0 -121 29 -209t72 -149.5t94 -98.5t96 -57q47 -23 95.5 -34t89 -16.5t73.5 -6.5t49 -1q141 0 225.5 32t135.5 69q43 31 69.5 63.5t44 70.5t27.5 81t21 94h-346q0 -8 -2.5 -25.5t-10.5 -38t-22.5 -42t-38.5 -37.5q-29 -16 -51.5 -19.5t-36.5 -3.5q-53 0 -89 24.5 t-59 69.5q-20 39 -30.5 95.5t-10.5 152.5q0 12 1 43t10.5 69t30 75.5t61.5 64.5q10 6 32.5 15t57.5 9q53 0 93 -27.5t56 -76.5q6 -18 8.5 -32.5t6.5 -49.5h331v406h-307v-117q-29 35 -46 52.5t-36 31.5q-33 25 -68.5 37t-69.5 18t-59.5 7t-35.5 1q-72 0 -146.5 -17 t-134.5 -56q-61 -41 -99 -91.5t-59.5 -99.5t-30.5 -91t-11 -62q-4 -41 -6.5 -74t-2.5 -49z" />
<glyph unicode="d" horiz-adv-x="1409" d="M49 549q0 -47 3 -83t7 -52q12 -98 39 -168t64 -118t79 -75.5t85 -44.5q92 -35 192 -35q68 0 121 13.5t94 34t69.5 46t45.5 48.5q16 23 25.5 41t19.5 45v-201h506v244h-117v1253h-539v-237h129v-373q-20 31 -46.5 65.5t-66.5 64.5t-99.5 48t-145.5 18q-61 0 -98 -8 t-64 -18q-98 -35 -172 -117q-23 -25 -46 -59.5t-41.5 -82.5t-31 -109.5t-12.5 -139.5zM473 539q4 115 30.5 176t71.5 88q29 16 59 20t40 4q74 0 122 -43t68 -112q14 -43 16.5 -86t2.5 -58q0 -12 -1 -43.5t-10.5 -71.5t-31 -81t-60.5 -72q-51 -35 -108 -35q-23 0 -64 11.5 t-78 58.5q-39 51 -49 116q-8 54 -8 107v21z" />
<glyph unicode="e" horiz-adv-x="1193" d="M57 532q0 -68 8.5 -119t14.5 -75q6 -23 24.5 -75t59.5 -105q78 -98 200.5 -146.5t249.5 -48.5q20 0 75.5 4t123.5 22.5t137.5 58.5t118.5 114q23 35 37 71.5t29 77.5l-387 2q-16 -35 -33 -62.5t-49 -41.5q-8 -4 -20.5 -7t-33.5 -3q-37 0 -59.5 13t-32.5 24q-43 41 -52 90 t-13 106h688v143q-6 45 -10.5 78t-9.5 58.5t-11 47t-14 44.5q-18 51 -53 101t-93.5 90t-142.5 64.5t-203 24.5q-82 0 -143.5 -12t-108.5 -31.5t-81.5 -44t-59.5 -49.5q-27 -25 -54.5 -60.5t-50 -85.5t-37 -117t-14.5 -151zM453 639q4 57 13 107.5t54 84.5q16 14 40 23.5 t48 9.5q20 0 51 -11t58 -52q14 -23 21 -47.5t11.5 -48t5.5 -41t1 -23.5z" />
<glyph unicode="f" horiz-adv-x="811" d="M16 809h146v-569h-131v-238h717v238h-173v569h193v238h-193q2 88 14.5 136t51.5 66q29 14 60.5 16.5t39.5 2.5q31 0 59.5 -3t37.5 -5v249q-59 14 -109.5 22.5t-116.5 8.5t-111.5 -9t-70.5 -15q-53 -16 -84 -31t-49 -31q-29 -20 -45 -39.5t-25 -32.5q-53 -76 -60 -160 q-5 -64 -5 -135v-40h-146v-238z" />
<glyph unicode="g" horiz-adv-x="1409" d="M53 535q0 -88 15.5 -156t40 -118t53 -85t57.5 -59q43 -37 86 -58.5t81 -32t69.5 -13.5t54.5 -3q102 0 172 31t98 53q16 12 35 28.5t47 47.5v-86t-4 -88q-2 -27 -5 -41t-7 -27q-16 -47 -60.5 -75.5t-99.5 -28.5q-35 0 -70.5 15.5t-56.5 43.5q-8 12 -15 31.5t-7 22.5h-416 q2 -8 8 -42t18 -67q25 -66 84 -115q45 -39 94.5 -61.5t106.5 -32.5q18 -4 37.5 -7t38.5 -7l82 -4t82 -2q72 0 135 8t86 12q61 16 118.5 36.5t110.5 61.5q43 33 70 68t42 68.5t22.5 63.5t9.5 50q4 23 5 46.5t3 47.5v752h123v238h-504q2 -39 2 -64q0 -23 -1 -41t-3 -33.5 t-4 -40.5q-25 37 -47.5 66t-48 51.5t-57.5 40t-75 29.5q-47 14 -82.5 16t-54.5 2q-109 0 -184.5 -32.5t-125.5 -79.5t-80 -97.5t-42 -87.5q-27 -76 -32 -147.5t-5 -97.5zM477 549q4 117 34 174t83 82q27 12 47.5 15t32.5 3q70 0 121 -51q47 -47 62 -106.5t15 -124.5 q0 -106 -34.5 -164t-71.5 -82q-33 -20 -59.5 -24.5t-40.5 -4.5q-37 0 -66 12.5t-53 34.5q-47 47 -59 109q-11 53 -11 109v18z" />
<glyph unicode="h" horiz-adv-x="1449" d="M33 2h635v242h-99v377q6 53 19.5 93t60.5 66q27 14 49.5 18.5t34.5 4.5q8 0 28.5 -3t43.5 -14q47 -20 60.5 -56t21.5 -87v-401h-107v-240h635v240h-119v508q0 6 -2 25.5t-7 44t-12 52t-20 50.5q-23 43 -59.5 72.5t-82.5 47t-95 25.5t-96 8q-123 0 -199 -41t-105 -78 q-16 -20 -28 -43.5t-25 -48.5v635h-532v-237h119v-1020h-119v-240z" />
<glyph unicode="i" horiz-adv-x="724" d="M39 2h641v238h-107v807h-532v-238h119v-569h-121v-238zM162 1161h409v336h-409v-336z" />
<glyph unicode="j" horiz-adv-x="681" d="M-18 -152v-239q61 -6 123.5 -11.5t125.5 -7.5h39q29 0 64 6.5t71.5 20.5t69.5 43q47 41 58.5 82t15.5 63q6 31 6 60v1182h-530v-238h120v-834v-28t-4 -29q-4 -16 -10 -27.5t-10 -15.5q-25 -33 -76 -33q-20 0 -38.5 3t-24.5 3zM147 1159h412v338h-412v-338z" />
<glyph unicode="k" horiz-adv-x="1409" d="M18 0h613v219h-96v105l180 127l143 -234h-119v-217h631v229h-100l-271 426l228 164h119v228h-674v-220h174l-303 -213v883h-520v-237h118v-1020h-123v-240z" />
<glyph unicode="l" horiz-adv-x="724" d="M35 2h643v238h-111v1253h-530v-236h119v-1019h-121v-236z" />
<glyph unicode="m" horiz-adv-x="2134" d="M37 2h629v238h-91v360q4 53 14.5 96t51.5 74q27 18 48.5 22.5t35.5 4.5q10 0 32.5 -3t47.5 -20q41 -27 49 -66.5t10 -89.5v-378h-94v-238h600v238h-88v374q4 49 15.5 88t54.5 68q25 16 46 20.5t32 4.5q27 0 43 -7.5t26 -11.5q39 -20 50.5 -53t15.5 -78v-405h-95v-240h633 v242h-121v506q-4 55 -9 81.5t-17 53.5q-23 51 -64 87t-91 59.5t-105.5 34.5t-108.5 11q-104 0 -168.5 -33.5t-95.5 -64.5q-23 -20 -40 -47t-21 -31q-4 4 -22.5 29.5t-41.5 48.5q-37 35 -79 54.5t-82 28.5t-71.5 11t-45.5 2q-121 0 -194 -34.5t-108 -73.5q-10 -14 -28.5 -41 t-40.5 -66v189h-510v-238h121v-567h-123v-240z" />
<glyph unicode="n" horiz-adv-x="1449" d="M39 2h629v238h-97v374q6 53 17.5 93.5t58.5 68.5q43 25 92 25q31 0 51.5 -7.5t30.5 -11.5q43 -25 53.5 -62.5t14.5 -88.5v-393h-101v-236h621v236h-113v512q-2 39 -5 70.5t-19 68.5q-14 37 -36 62.5t-43.5 44t-42 28.5t-32.5 14q-59 25 -117.5 29t-78.5 4 q-72 0 -126.5 -13.5t-95.5 -33.5t-68.5 -45t-43.5 -49q-16 -23 -28.5 -49.5t-22.5 -53.5v220h-494v-236h117v-571h-121v-238z" />
<glyph unicode="o" d="M57 532q0 -115 27 -191.5t49 -113.5q43 -72 104.5 -121t134 -79.5t152.5 -45t158 -14.5q135 0 261 40t218 138q49 53 77 109.5t41 108t16 94.5t3 67q0 74 -13 133.5t-31.5 105.5t-41 80t-41.5 54q-29 31 -72.5 63.5t-105 60.5t-142.5 45t-181 17q-135 0 -233.5 -31.5 t-166 -79.5t-108.5 -104.5t-62 -107.5q-23 -55 -33 -112t-10 -116zM475 518v27t4 59.5t15.5 73.5t33 73.5t56 57t86.5 22.5q43 0 72.5 -12t41.5 -20q23 -14 35 -28.5t17 -22.5q14 -25 23 -58t12 -63.5t4.5 -52t1.5 -25.5q0 -111 -19.5 -174.5t-54.5 -104.5 q-12 -14 -42 -34.5t-81 -20.5q-35 0 -58.5 8t-35.5 15q-37 20 -58.5 53t-34 71.5t-15.5 79.5t-3 76z" />
<glyph unicode="p" horiz-adv-x="1409" d="M23 -152v-237h679v239h-151v312q35 -59 55 -84q33 -35 99.5 -70t179.5 -35q106 0 190 31t154 113q33 39 64.5 102.5t45.5 173.5q6 47 7.5 82t1.5 53q0 152 -36 246t-71 141q-41 55 -91 87t-97 47.5t-88 20.5t-64 5q-66 0 -119 -13t-93 -33.5t-67.5 -43t-43.5 -43.5 q-18 -23 -28.5 -43t-23.5 -49v194h-499v-235h116v-961h-120zM543 524q2 78 19.5 148.5t76.5 115.5q31 23 58.5 29t41.5 6q39 0 68 -14t48 -33.5t31.5 -39t16.5 -29.5q16 -35 22.5 -81t6.5 -130q0 -66 -15.5 -127.5t-68.5 -106.5q-33 -27 -60.5 -32t-44.5 -5 q-45 0 -73.5 16.5t-40.5 26.5q-57 49 -71.5 116.5t-14.5 139.5z" />
<glyph unicode="q" horiz-adv-x="1409" d="M51 518q0 -31 2 -58.5t10 -86.5q10 -47 21.5 -95.5t32.5 -91.5q10 -20 28.5 -45.5t46 -52.5t66.5 -51.5t92 -40.5q16 -6 58.5 -15.5t95.5 -9.5q111 2 179.5 36t98.5 63q20 20 38 43.5t22 29.5l2 -293h-150v-237h684v235h-121v961h125v238h-508v-189q-23 41 -36 62.5 t-29 40.5q-16 14 -43 34.5t-64.5 37t-86 28.5t-107.5 12q-27 0 -75 -5t-104.5 -26.5t-110.5 -64.5t-93 -119q-25 -47 -38 -95t-26 -101q-4 -35 -7 -71t-3 -73zM467 522q0 121 28.5 186.5t84.5 92.5q25 10 46 13t31 3q51 0 85 -21.5t54.5 -51t30 -57.5t11.5 -40 q10 -41 12 -83t2 -54q0 -72 -18.5 -140.5t-75.5 -111.5q-29 -23 -57.5 -28t-43.5 -5q-76 0 -120.5 53.5t-59.5 124.5q-8 35 -9 72t-1 47z" />
<glyph unicode="r" horiz-adv-x="980" d="M37 2h688v242h-150v217q4 47 10.5 71.5t16.5 45.5q14 27 30.5 43t26.5 24q39 31 86.5 46.5t96.5 17.5q31 0 58.5 -4.5t37.5 -6.5v355q-37 4 -52.5 5t-35.5 1q-82 0 -153.5 -44t-112.5 -116q-12 -20 -21.5 -42.5t-23.5 -68.5l6 263h-504v-242h121v-565h-125v-242z" />
<glyph unicode="s" horiz-adv-x="1110" d="M74 756q0 -104 25.5 -156.5t66.5 -85.5q16 -14 36.5 -24.5t24.5 -14.5q31 -14 70 -27.5t75 -22.5t60.5 -15.5t28.5 -6.5q25 -4 48 -8t47 -10t44.5 -15.5t36.5 -27.5q4 -6 14.5 -19.5t10.5 -35.5q0 -12 -5.5 -28.5t-17.5 -32t-32.5 -26t-53.5 -10.5t-53.5 9.5t-30.5 15.5 q-41 25 -55.5 58.5t-18.5 50.5q-8 27 -10 45h-309v-367h291v119q4 -6 27.5 -37t49.5 -51q27 -20 82.5 -39t145.5 -19q61 0 108 11.5t82 30t58.5 40t40.5 41.5q27 33 43 66t24 62.5t10 54t2 41.5q0 14 -3 41.5t-13 61.5t-30.5 67.5t-57.5 62.5q-41 33 -89 48t-63 20 q-35 10 -66.5 18t-64.5 16q-47 10 -97 20.5t-85 45.5q-16 16 -21.5 29.5t-5.5 23.5t5.5 24.5t16.5 29t31.5 23.5t51.5 9q49 0 84 -22q41 -27 54 -63t20 -85h299v357h-277v-113l-8 9t-18.5 21.5t-23.5 25t-26 20.5q-29 23 -64.5 36t-68.5 19t-58.5 7t-35.5 1 q-78 0 -134 -19.5t-95 -48t-63.5 -61.5t-37.5 -61q-16 -41 -19 -77t-3 -52z" />
<glyph unicode="t" horiz-adv-x="894" d="M-16 813h139v-510q4 -37 8 -73.5t21 -71.5q35 -86 101 -123t157 -49q35 -4 63.5 -5t42.5 -1q121 0 187.5 28.5t101.5 67.5q57 63 67 144q8 67 7 140v31h-211q-4 -47 -7.5 -82t-11.5 -51q-10 -23 -24.5 -30t-24.5 -7q-14 0 -24.5 6t-14.5 11q-20 16 -22 39.5t-2 52.5v481 h260v240h-258v331l-412 -139v-192h-143v-238z" />
<glyph unicode="u" horiz-adv-x="1409" d="M10 811h121v-514q2 -12 5 -58t22 -89q27 -66 77 -101t101 -52t94 -20.5t59 -3.5q86 0 144.5 12.5t89.5 28.5q29 14 51.5 33t38.5 38t26.5 35.5t16.5 24.5q6 10 11 19.5t12 19.5v-182h503v240h-120v805h-533v-236h119v-365q-4 -57 -15.5 -99t-62.5 -68 q-25 -14 -47.5 -16.5t-32.5 -2.5t-33.5 3t-48.5 18q-41 23 -51 60.5t-14 86.5v619h-533v-236z" />
<glyph unicode="v" horiz-adv-x="1280" d="M0 813h66l327 -811h494l323 807h70v240h-551v-240h111l-170 -504l-172 506h108v238h-606v-236z" />
<glyph unicode="w" horiz-adv-x="2004" d="M4 811h76l254 -809h500l170 678l157 -676h498l254 809h90v236h-547v-238h113l-127 -498l-178 738h-473l-183 -744l-127 504h119v240h-596v-240z" />
<glyph unicode="x" horiz-adv-x="1280" d="M6 0h537v217h-119l176 201l180 -201h-116v-217h604v236h-66l-282 303l243 270h86v238h-518v-216h92l-151 -169l-150 172h94v213h-589v-238h79l252 -270l-286 -301h-66v-238z" />
<glyph unicode="y" horiz-adv-x="1280" d="M-4 811h76l389 -834q-23 -53 -50.5 -86.5t-91.5 -33.5q-35 0 -70.5 5t-68.5 9v-270l74 -9q33 -2 56.5 -3t43.5 -1h43q25 0 60 2q20 2 49 7.5t59.5 18.5t63.5 36.5t63 66.5q12 16 25.5 37t36.5 60q117 254 228.5 499.5t221.5 493.5h78v240h-553v-240h117l-174 -432 l-170 432h106v242h-612v-240z" />
<glyph unicode="z" horiz-adv-x="1110" d="M27 2h1036v348h-303v-131h-279l572 553v277h-1008v-334h299v116h256l-573 -550v-279z" />
<glyph unicode="{" horiz-adv-x="724" d="M70 504q6 -2 20 -7t31 -16q25 -14 39 -29.5t20 -25.5q23 -31 33 -63.5t14 -67.5t3 -71t-1 -72v-258q0 -43 1 -90.5t10.5 -91.5t30 -83t59.5 -69q66 -51 144.5 -60.5t156.5 -11.5h94v14q-57 16 -101 34t-79 71q-35 55 -38 116.5t-3 122.5v220q0 74 -1 128t-7.5 96 t-19.5 74.5t-40 61.5q-33 37 -68.5 54.5t-80.5 29.5q51 14 92 34.5t72 65.5q20 31 30.5 66t14.5 78t5 97t1 126v194q2 72 3 111t11 74q10 37 27.5 62.5t38 42t40 24.5t31.5 12q39 12 72 19v16q-66 0 -115 -1t-88 -4t-70.5 -10.5t-64.5 -21.5q-92 -41 -123 -115.5t-35 -169.5 v-362q0 -37 -1 -80t-9 -84t-27.5 -78t-56.5 -61q-10 -6 -24.5 -13.5t-40.5 -13.5v-14z" />
<glyph unicode="|" horiz-adv-x="468" d="M104 -512h261v2044h-261v-2044z" />
<glyph unicode="}" horiz-adv-x="724" d="M0 -498v-14h113q49 0 88 3t69.5 10t61.5 20q47 20 77.5 51t49 67.5t27 80.5t10.5 92v358q0 37 1 80t9 85t27.5 78t56.5 60q29 20 65 27v16q-6 2 -20 6t-31 15q-25 16 -39 30.5t-20 24.5q-23 31 -33 64.5t-14 68.5t-3 70.5t1 70.5v260q0 43 -1 89.5t-10.5 90.5t-30 84 t-59.5 70q-66 49 -144.5 59.5t-156.5 10.5q-25 0 -48 1t-46 1v-16q53 -14 96 -30t78 -63q39 -55 43 -120.5t4 -128.5v-222q0 -72 1 -126t7.5 -96t20.5 -74.5t41 -63.5q31 -35 66.5 -53.5t80.5 -30.5q-49 -12 -89 -32.5t-70 -65.5q-23 -31 -34.5 -66t-16.5 -78t-5 -98v-125 v-195q0 -51 -1 -87.5t-4 -64.5t-12 -50.5t-26 -46.5q-35 -49 -80 -66.5t-100 -30.5z" />
<glyph unicode="~" horiz-adv-x="1492" d="M211 616l113 -213q47 53 75.5 83t61.5 46q18 8 36.5 11.5t39.5 5.5q41 0 76.5 -15.5t72.5 -31.5l64 -31q51 -25 102 -44t111 -19q43 0 97 16t130 70q37 29 57.5 48t34.5 36l-106 215q-59 -70 -110.5 -97.5t-94.5 -27.5q-25 0 -50.5 6t-48 14t-39 15.5t-18.5 9.5l-74 32 q-53 27 -102 45.5t-109 18.5q-72 0 -126 -23.5t-93 -55.5t-63.5 -64.5t-36.5 -49.5z" />
<glyph unicode="&#xa1;" horiz-adv-x="598" d="M25 2h446l-68 954h-301zM68 1083h372v359h-372v-359z" />
<glyph unicode="&#xa3;" horiz-adv-x="1236" d="M27 653h151v-399h-141v-254h1167v473h-360v-217h-252v397h207v244h-203v207q4 41 14.5 74.5t48.5 50.5q6 4 20.5 8t35.5 4q31 0 49 -10t27 -17q39 -31 45 -72.5t6 -90.5h379q0 25 -3.5 71.5t-20.5 101t-57 106.5t-114 89q-25 12 -52.5 21.5t-54 15.5t-46 9t-25.5 3 q-35 4 -70 6.5t-69 2.5q-35 0 -66 -2t-63 -7q-53 -8 -82 -13t-52 -15q-78 -27 -142 -81t-93 -128q-10 -25 -16.5 -53.5t-12.5 -81.5v-205h-155v-238z" />
<glyph unicode="&#xa4;" d="M12 219l195 -194l166 168q39 -25 114.5 -58t194.5 -33q59 0 107.5 9.5t86 22.5t65.5 27.5t48 26.5l166 -168l197 195l-166 168q12 20 27.5 49t28.5 67t22.5 86t9.5 107q0 35 -8.5 105.5t-46.5 150.5q-8 16 -15.5 28.5t-15.5 27.5l166 163l-197 197l-166 -166 q-41 25 -114.5 56.5t-192.5 31.5q-94 0 -158.5 -19.5t-97.5 -35.5q-14 -8 -27.5 -15.5t-27.5 -17.5l-164 164l-195 -195l164 -163q-25 -41 -55.5 -115t-30.5 -197q0 -29 7 -99.5t44 -146.5q8 -16 17.5 -30.5t19.5 -28.5zM348 694q0 111 58.5 197t164.5 123q39 14 67 17t44 3 q98 0 181 -52t124 -142q23 -47 27 -86.5t4 -57.5q0 -100 -49 -182t-140 -125q-20 -10 -55 -21.5t-88 -11.5q-100 0 -186 54.5t-127 150.5q-18 43 -21.5 79t-3.5 54z" />
<glyph unicode="&#xa6;" horiz-adv-x="468" d="M104 389v-780h261v780h-261zM104 631h261v780h-261v-780z" />
<glyph unicode="&#xa7;" horiz-adv-x="1110" d="M37 610q0 -12 2 -33.5t9 -48t22.5 -55.5t40.5 -53q23 -23 52.5 -39t61.5 -33l326 -135q31 -14 57.5 -28.5t42.5 -43.5q10 -16 11.5 -25.5t1.5 -19.5q0 -27 -24 -56.5t-89 -29.5q-66 0 -93.5 29t-35.5 57q-2 8 -4 22.5t-2 37.5h-371q6 -47 14.5 -92.5t30.5 -86.5 q23 -39 48.5 -63.5t37.5 -34.5q55 -41 140 -70.5t231 -29.5q133 0 208.5 23.5t127.5 56.5q78 53 121 126.5t45 168.5q0 61 -21.5 118.5t-69.5 96.5q-14 10 -28.5 19t-44.5 28q31 14 55.5 29.5t45 33t35.5 40t26 54.5q10 33 13 56.5t3 38.5q0 12 -3 37.5t-13 58.5 q-20 63 -59.5 95t-98.5 67l-352 147q-35 16 -64 39t-29 66q0 27 25 54.5t84 27.5q45 0 71.5 -15.5t40 -38t17.5 -46t6 -42.5h361q-8 72 -16.5 107t-26.5 67q-8 16 -29 43t-59 56q-51 37 -106.5 57t-106 29.5t-89 10.5t-57.5 1q-57 0 -115.5 -6t-113 -21.5t-103.5 -45.5 t-88 -75q-20 -25 -48 -74.5t-28 -136.5q0 -12 2.5 -35.5t9.5 -53t22.5 -60.5t43.5 -55q16 -14 39 -29.5t43 -28.5q-59 -31 -102 -62.5t-68 -94.5q-4 -10 -10 -38t-6 -63zM344 684q0 45 20.5 71.5t53.5 55.5q96 -29 170 -54.5t106 -54.5q41 -35 41 -90q0 -41 -16.5 -64.5 t-26.5 -33.5q-12 -10 -19 -16t-22 -17q-102 29 -168.5 54.5t-101.5 60.5q-25 25 -31 50.5t-6 37.5z" />
<glyph unicode="&#xa8;" horiz-adv-x="598" d="M-344 1223h373v315h-373v-315zM188 1225h373v313h-373v-313z" />
<glyph unicode="&#xa9;" horiz-adv-x="1705" d="M125 725q0 -121 30.5 -217t74.5 -168t93.5 -121t84.5 -76q96 -72 209.5 -110.5t236.5 -38.5q39 0 103.5 8t140.5 33.5t157.5 77t153.5 137.5q57 68 92 137.5t53.5 132t23.5 114.5t5 85q2 121 -34 231.5t-107 208.5q-106 143 -259 218t-327 75q-117 0 -209 -28.5 t-161.5 -68.5t-118 -85t-76.5 -78q-23 -27 -51.5 -69t-54 -100t-43 -133t-17.5 -165zM190 723q0 113 30 202t73 155.5t90 110.5t80 69q59 43 118.5 68.5t111.5 38.5t94 16t69 3q113 0 201 -29.5t153.5 -70.5t109.5 -87t69 -79q45 -61 70.5 -120.5t38.5 -112.5t16.5 -96 t3.5 -70q0 -104 -32 -201.5t-88.5 -179.5t-137 -144.5t-181.5 -97.5q-76 -27 -134 -33t-89 -6q-102 0 -196.5 29t-175.5 83t-144.5 130t-99.5 170q-49 119 -50 252zM365 754q0 -152 36.5 -246t83.5 -141q43 -45 99.5 -68t108.5 -33t93 -11t54 -1q53 0 103 3t104 7l59 4 q35 4 70.5 6t70.5 7q2 150 0 301h-86q-4 -31 -9 -69t-16.5 -74t-32 -65.5t-52.5 -47.5q-31 -16 -60.5 -19.5t-40.5 -3.5q-59 0 -92 15.5t-49 31.5q-37 35 -57.5 90.5t-31.5 118t-13 122.5t-2 105q0 123 16 193t59 115q55 55 140 55q70 0 112.5 -27.5t69 -72.5t40 -99.5 t23.5 -107.5h84q-2 86 -2 172v172q-84 -4 -166 0l-57 2q-41 4 -84 6t-84 2q-12 0 -44 -1t-73 -5t-88 -16.5t-90 -32.5q-39 -20 -68.5 -47t-56.5 -62q-29 -43 -50 -105.5t-21 -172.5z" />
<glyph unicode="&#xab;" horiz-adv-x="937" d="M39 537l178 -445h264l-180 445l184 434h-258zM461 537l182 -445h262l-182 440l186 437h-260z" />
<glyph unicode="&#xac;" d="M0 465h1104v-465h262v725h-1366v-260z" />
<glyph unicode="&#xad;" horiz-adv-x="681" d="M59 389h557v279h-557v-279z" />
<glyph unicode="&#xae;" horiz-adv-x="1705" d="M125 725q0 -121 30.5 -217t74.5 -168t93.5 -121t84.5 -76q96 -72 209.5 -110.5t236.5 -38.5q39 0 103.5 8t140.5 33.5t157.5 77t153.5 137.5q57 68 92 137.5t53.5 132t23.5 114.5t5 85q2 121 -34 231.5t-107 208.5q-106 143 -259 218t-327 75q-117 0 -209 -28.5 t-161.5 -68.5t-118 -85t-76.5 -78q-23 -27 -51.5 -69t-54 -100t-43 -133t-17.5 -165zM190 723q0 113 30 202t73 155.5t90 110.5t80 69q59 43 118.5 68.5t111.5 38.5t94 16t69 3q113 0 201 -29.5t153.5 -70.5t109.5 -87t69 -79q45 -61 70.5 -120.5t38.5 -112.5t16.5 -96 t3.5 -70q0 -104 -32 -201.5t-88.5 -179.5t-137 -144.5t-181.5 -97.5q-76 -27 -134 -33t-89 -6q-102 0 -196.5 29t-175.5 83t-144.5 130t-99.5 170q-49 119 -50 252zM467 256q104 6 209 6q102 0 211 -6v121q-41 6 -67.5 10t-33.5 25q-4 10 -4 26v41v211h17q6 -2 25.5 -3 t37.5 -17q23 -16 32 -40t24 -71q8 -29 15 -54.5t13 -51.5q8 -29 22.5 -69t30.5 -65q47 -70 136 -69q45 0 76.5 17.5t52 40t32 46t15.5 35.5q14 35 22 70t17 71l-105 19q-2 -14 -8 -46t-12 -46q-8 -16 -23 -17q-8 -2 -13 5.5t-9 15.5q-4 14 -7.5 27.5t-7.5 27.5l-18 78 q-10 35 -25.5 69.5t-44.5 57.5q-4 4 -10 8t-14 10q12 4 30.5 7.5t40.5 13.5q14 6 38 19.5t46.5 38t40 59t17.5 84.5q-2 78 -46 135t-116 82q-39 12 -80 17t-90 5t-110.5 -2t-141.5 -2q-53 0 -107.5 2t-107.5 4v-125q31 -2 55.5 -4t32.5 -16q4 -8 4 -23v-30v-568q0 -8 -2 -18 t-6 -17q-12 -16 -39 -19l-45 -5v-121zM782 840v135q0 29 1 48t10 32q4 8 11 10t17 4q10 0 23.5 1t34.5 1q57 0 84.5 -9t48.5 -34q23 -25 22 -65q0 -16 -10 -48t-51 -55q-31 -16 -62.5 -18t-95.5 -2h-33z" />
<glyph unicode="&#xb0;" horiz-adv-x="724" d="M10 1174q0 -78 32 -148t91 -121q33 -29 66.5 -45t64.5 -25.5t56.5 -12.5t41.5 -3q104 0 192.5 56.5t129.5 152.5q10 18 20.5 55t10.5 91q0 104 -54.5 192t-152.5 129q-47 23 -86.5 27t-59.5 4q-74 0 -137 -26.5t-111 -75t-76 -113t-28 -137.5zM250 1178q0 47 32.5 79.5 t79.5 32.5t81 -32.5t34 -79.5t-32.5 -81t-79.5 -34t-81 33.5t-34 81.5z" />
<glyph unicode="&#xb1;" d="M86 0h1194v260h-1194v-260zM86 760h467v-428h262v428h465v260h-465v426h-262v-426h-467v-260z" />
<glyph unicode="&#xb4;" horiz-adv-x="598" d="M-57 1219h254l362 278v39h-385z" />
<glyph unicode="&#xb6;" d="M168 1006q0 -78 18.5 -136.5t46 -101.5t58.5 -71.5t57 -45.5q41 -25 80 -37t55 -16v-940h174v1628h240v-1628h172v1628h74v160h-512q-51 0 -96.5 -5t-92.5 -22q-37 -12 -84 -40.5t-89 -78t-71.5 -122t-29.5 -172.5z" />
<glyph unicode="&#xb7;" horiz-adv-x="382" d="M10 592q0 -37 13.5 -70t38 -57.5t56 -38.5t68.5 -14t67 11t51.5 28.5t33.5 35t18 27.5q18 37 19 80q0 78 -50.5 130t-127.5 52q-41 0 -71 -12t-50.5 -30.5t-32.5 -38t-18 -33.5q-10 -23 -12.5 -41.5t-2.5 -28.5z" />
<glyph unicode="&#xb8;" horiz-adv-x="598" d="M-133 -451q72 -20 132 -32.5t138 -12.5q66 0 132.5 15.5t113.5 68.5q27 29 33 56.5t6 44.5q0 53 -34 90t-83 53q-27 10 -45 11t-31 1q-23 0 -40 -2t-58 -12l100 178h-114l-140 -223l46 -41q27 4 45 8t45 4q35 0 70.5 -17.5t35.5 -60.5q0 -23 -11 -39t-28.5 -25t-39 -13 t-40.5 -4q-51 0 -101 17t-97 38z" />
<glyph unicode="&#xbb;" horiz-adv-x="937" d="M18 92h261l188 426q-10 31 -21.5 61.5t-21.5 63.5q-31 80 -66.5 161t-70.5 163l-262 2l180 -447zM440 90h262l191 432l-184 447h-260l180 -447z" />
<glyph unicode="&#xbf;" horiz-adv-x="980" d="M47 377q0 -72 17.5 -123t29.5 -74q23 -43 61 -81t95 -66.5t136 -45t183 -16.5q143 0 228.5 36t134.5 77q37 31 59.5 64.5t35.5 70.5t21.5 78t14.5 88l-387 2q-4 -45 -12.5 -86t-42.5 -65q-25 -18 -58 -19q-57 0 -83.5 40t-26.5 93q0 59 27.5 103.5t62.5 85.5l139 135 q23 23 32 36t17 27q12 23 20.5 46.5t11.5 54t5 68.5t2 91h-358q-4 -25 -8.5 -46t-15.5 -44.5t-31.5 -49.5t-57.5 -58l-49 -43q-12 -10 -37 -33t-52.5 -54.5t-54 -73.5t-40.5 -93q-18 -59 -19 -125zM401 1094h373v350h-373v-350z" />
<glyph unicode="&#xc0;" horiz-adv-x="1662" d="M16 -2h621v254h-162l60 162h518l63 -164h-164v-250h688v250h-86l-479 1196h-489l-482 -1194h-88v-254zM385 1858l348 -273h262l-229 318h-381v-45zM623 651q27 70 52 137.5t48 137.5q20 53 37.5 107t34.5 108l180 -490h-352z" />
<glyph unicode="&#xc1;" horiz-adv-x="1662" d="M16 -2h621v254h-162l60 162h518l63 -164h-164v-250h688v250h-86l-479 1196h-489l-482 -1194h-88v-254zM623 651q27 70 52 137.5t48 137.5q20 53 37.5 107t34.5 108l180 -490h-352zM659 1585h256l367 277v43h-389z" />
<glyph unicode="&#xc2;" horiz-adv-x="1662" d="M16 -2h621v254h-162l60 162h518l63 -164h-164v-250h688v250h-86l-479 1196h-489l-482 -1194h-88v-254zM410 1589h254l167 187l175 -187h254l-252 314h-353zM623 651q27 70 52 137.5t48 137.5q20 53 37.5 107t34.5 108l180 -490h-352z" />
<glyph unicode="&#xc3;" horiz-adv-x="1662" d="M16 -2h621v254h-162l60 162h518l63 -164h-164v-250h688v250h-86l-479 1196h-489l-482 -1194h-88v-254zM393 1614l150 -15q25 41 49 62.5t74 21.5q55 0 101 -24.5t95 -48.5q49 -25 85 -31t61 -6q16 0 51 5t74 30q37 25 60.5 54.5t38.5 58t21.5 53t10.5 36.5q4 14 6 28.5 t6 31.5l-154 10q-23 -39 -45 -59.5t-69 -20.5q-53 0 -95.5 22.5t-89.5 45.5q-18 10 -57 24.5t-94 14.5q-78 0 -143.5 -43t-98.5 -117q-10 -25 -18.5 -52.5t-18.5 -80.5zM623 651q27 70 52 137.5t48 137.5q20 53 37.5 107t34.5 108l180 -490h-352z" />
<glyph unicode="&#xc4;" horiz-adv-x="1662" d="M16 -2h621v254h-162l60 162h518l63 -164h-164v-250h688v250h-86l-479 1196h-489l-482 -1194h-88v-254zM340 1589h379v305h-379v-305zM623 651q27 70 52 137.5t48 137.5q20 53 37.5 107t34.5 108l180 -490h-352zM938 1591h377v307h-377v-307z" />
<glyph unicode="&#xc5;" horiz-adv-x="1662" d="M16 -2h621v254h-162l60 162h518l63 -164h-164v-250h688v250h-86l-479 1196h-489l-482 -1194h-88v-254zM594 1810q-8 -78 31 -142t110 -95q33 -14 56.5 -17.5t39.5 -3.5q49 0 93.5 18.5t77 50.5t52 75t19.5 92q0 51 -18.5 96t-51 77t-75.5 50.5t-92 18.5q-47 0 -89 -16.5 t-75 -46.5t-53.5 -70t-24.5 -87zM623 651q27 70 52 137.5t48 137.5q20 53 37.5 107t34.5 108l180 -490h-352zM728 1773.5q-5 24.5 1 47.5q10 33 42 55t67 22q23 0 40 -9t28.5 -21.5t18.5 -24.5t9 -18q4 -10 5 -22.5t1 -14.5q2 -43 -34 -75t-79 -32q-25 0 -45 13.5t-34.5 34 t-19.5 45z" />
<glyph unicode="&#xc6;" horiz-adv-x="2134" d="M0 0h580v254h-146l68 154h489l29 -156h-162v-252h1223v473h-314v-229h-372l-70 370h111v-143h254v530h-254v-147h-154l-72 348h564v-207h313v447h-1458l-537 -1190h-92v-252zM596 647l244 582l110 -582h-354z" />
<glyph unicode="&#xc7;" horiz-adv-x="1579" d="M73 726q1 -19 1 -46v-10l22 -168q23 -74 36 -113t30 -74q35 -68 73.5 -109.5t61.5 -62.5q55 -51 114.5 -81.5t113 -49t97.5 -27t70 -10.5q23 -4 47.5 -5t48.5 -5h21l-111 -180l43 -41q6 0 34 6t54 6q35 0 72 -17.5t37 -60.5q0 -23 -12.5 -39t-29.5 -25t-37.5 -13 t-37.5 -4q-53 0 -102 17t-98 38l-35 -103q51 -14 89 -23t68.5 -13.5t56 -6.5t54.5 -2h37t65.5 8.5t76.5 26t71 51.5q25 29 31 56.5t6 42.5q0 53 -33 90t-80 53q-25 8 -46 10t-32 2q-25 0 -42 -2t-58 -12l76 137h20t21 2q88 10 158.5 27.5t148.5 64.5q68 41 109.5 89.5 t67.5 94.5t37 88t17 70q4 20 7.5 41t7.5 41h-410q-10 -55 -26.5 -103t-61.5 -89q-37 -35 -88 -53.5t-105 -18.5q-129 0 -206 101q-43 53 -74 146t-31 247q0 55 5 113.5t20.5 113.5t43 106.5t75.5 92.5q55 49 108 61t84 12q86 0 154.5 -46t97.5 -126q16 -41 19 -86t5 -57h367 v539h-340v-142q-20 27 -39.5 49.5t-46.5 43.5q-45 35 -97 53t-100.5 27.5t-86 10.5t-50.5 1q-135 0 -217 -28t-133 -60q-78 -49 -137 -121q-39 -45 -64.5 -90t-44 -92.5t-32 -96.5t-25.5 -104q-6 -45 -8 -73t-3 -49.5t0 -40.5z" />
<glyph unicode="&#xc8;" horiz-adv-x="1449" d="M47 0h1348v475h-314v-227h-487v364h145v-143h254v532h-252v-143h-147v342h491v-203h312v441h-1346v-244h142v-942h-146v-252zM279 1858l348 -273h262l-230 318h-380v-45z" />
<glyph unicode="&#xc9;" horiz-adv-x="1449" d="M47 0h1348v475h-314v-227h-487v364h145v-143h254v532h-252v-143h-147v342h491v-203h312v441h-1346v-244h142v-942h-146v-252zM553 1585h256l367 277v43h-390z" />
<glyph unicode="&#xca;" horiz-adv-x="1449" d="M47 0h1348v475h-314v-227h-487v364h145v-143h254v532h-252v-143h-147v342h491v-203h312v441h-1346v-244h142v-942h-146v-252zM303 1589h254l168 187l174 -187h254l-252 314h-352z" />
<glyph unicode="&#xcb;" horiz-adv-x="1449" d="M47 0h1348v475h-314v-227h-487v364h145v-143h254v532h-252v-143h-147v342h491v-203h312v441h-1346v-244h142v-942h-146v-252zM240 1589h378v309h-378v-309zM836 1591h376v310h-376v-310z" />
<glyph unicode="&#xcc;" horiz-adv-x="811" d="M-43 1858l348 -273h264l-229 318h-383v-45zM31 0h743v258h-160v938h164v250h-741v-250h156v-940h-162v-256z" />
<glyph unicode="&#xcd;" horiz-adv-x="811" d="M31 0h743v258h-160v938h164v250h-741v-250h156v-940h-162v-256zM231 1585h258l365 277v43h-387z" />
<glyph unicode="&#xce;" horiz-adv-x="811" d="M-16 1589h254l168 187l174 -187h254l-252 314h-353zM31 0h743v258h-160v938h164v250h-741v-250h156v-940h-162v-256z" />
<glyph unicode="&#xcf;" horiz-adv-x="811" d="M-80 1589h379v309h-379v-309zM31 0h743v258h-160v938h164v250h-741v-250h156v-940h-162v-256zM514 1591h379v310h-379v-310z" />
<glyph unicode="&#xd1;" horiz-adv-x="1705" d="M55 4h629v248h-158l-12 801l524 -1049h512v1194h127v244h-614v-246h156l8 -717l-477 961h-695v-246h140v-944h-140v-246zM414 1614l151 -15q25 41 48.5 62.5t72.5 21.5q55 0 101.5 -24.5t95.5 -48.5q49 -25 86 -31t59 -6q16 0 51 5t76 30q37 25 60.5 54.5t38 58t20.5 53 t10 36.5q4 14 7 28.5t7 31.5l-153 10q-23 -39 -45.5 -59.5t-69.5 -20.5q-53 0 -95 22.5t-89 45.5q-18 10 -58 24.5t-96 14.5q-78 0 -142.5 -43t-98.5 -117q-10 -25 -18.5 -52.5t-18.5 -80.5z" />
<glyph unicode="&#xd2;" horiz-adv-x="1705" d="M70 721q0 -152 31.5 -252t60.5 -154q70 -129 169 -201.5t199.5 -107.5t187.5 -42t130 -7q117 0 193.5 14.5t123.5 30.5q27 10 77 32.5t110 67.5q53 41 82.5 74t46.5 55q53 72 82.5 148t45 144.5t18.5 122.5t3 85q0 104 -16.5 186t-42 145.5t-57 111t-60.5 79.5 q-33 37 -64.5 65t-72.5 54q-68 43 -136.5 66.5t-130 35t-110.5 14.5t-76 3q-25 0 -73 -2t-109 -12q-92 -16 -149.5 -37t-92.5 -39q-131 -68 -205.5 -165t-111.5 -197.5t-45 -186.5t-8 -131zM406 1858l348 -273h264l-230 318h-382v-45zM510 674v49q0 94 12.5 184t63.5 174 q45 74 109.5 117t154.5 43q74 0 123 -25.5t69 -41.5q70 -55 108 -159t38 -292q0 -190 -43 -298t-117 -161q-78 -55 -174 -55q-66 0 -110 17.5t-66 31.5q-31 20 -58.5 50t-50 74t-38 104.5t-19.5 140.5q-2 25 -2 47z" />
<glyph unicode="&#xd3;" horiz-adv-x="1705" d="M70 721q0 -152 31.5 -252t60.5 -154q70 -129 169 -201.5t199.5 -107.5t187.5 -42t130 -7q117 0 193.5 14.5t123.5 30.5q27 10 77 32.5t110 67.5q53 41 82.5 74t46.5 55q53 72 82.5 148t45 144.5t18.5 122.5t3 85q0 104 -16.5 186t-42 145.5t-57 111t-60.5 79.5 q-33 37 -64.5 65t-72.5 54q-68 43 -136.5 66.5t-130 35t-110.5 14.5t-76 3q-25 0 -73 -2t-109 -12q-92 -16 -149.5 -37t-92.5 -39q-131 -68 -205.5 -165t-111.5 -197.5t-45 -186.5t-8 -131zM510 674v49q0 94 12.5 184t63.5 174q45 74 109.5 117t154.5 43q74 0 123 -25.5 t69 -41.5q70 -55 108 -159t38 -292q0 -190 -43 -298t-117 -161q-78 -55 -174 -55q-66 0 -110 17.5t-66 31.5q-31 20 -58.5 50t-50 74t-38 104.5t-19.5 140.5q-2 25 -2 47zM680 1585h258l365 277v43h-388z" />
<glyph unicode="&#xd4;" horiz-adv-x="1705" d="M70 721q0 -152 31.5 -252t60.5 -154q70 -129 169 -201.5t199.5 -107.5t187.5 -42t130 -7q117 0 193.5 14.5t123.5 30.5q27 10 77 32.5t110 67.5q53 41 82.5 74t46.5 55q53 72 82.5 148t45 144.5t18.5 122.5t3 85q0 104 -16.5 186t-42 145.5t-57 111t-60.5 79.5 q-33 37 -64.5 65t-72.5 54q-68 43 -136.5 66.5t-130 35t-110.5 14.5t-76 3q-25 0 -73 -2t-109 -12q-92 -16 -149.5 -37t-92.5 -39q-131 -68 -205.5 -165t-111.5 -197.5t-45 -186.5t-8 -131zM430 1589h256l168 187l174 -187h252l-250 314h-352zM510 674v49q0 94 12.5 184 t63.5 174q45 74 109.5 117t154.5 43q74 0 123 -25.5t69 -41.5q70 -55 108 -159t38 -292q0 -190 -43 -298t-117 -161q-78 -55 -174 -55q-66 0 -110 17.5t-66 31.5q-31 20 -58.5 50t-50 74t-38 104.5t-19.5 140.5q-2 25 -2 47z" />
<glyph unicode="&#xd5;" horiz-adv-x="1705" d="M70 721q0 -152 31.5 -252t60.5 -154q70 -129 169 -201.5t199.5 -107.5t187.5 -42t130 -7q117 0 193.5 14.5t123.5 30.5q27 10 77 32.5t110 67.5q53 41 82.5 74t46.5 55q53 72 82.5 148t45 144.5t18.5 122.5t3 85q0 104 -16.5 186t-42 145.5t-57 111t-60.5 79.5 q-33 37 -64.5 65t-72.5 54q-68 43 -136.5 66.5t-130 35t-110.5 14.5t-76 3q-25 0 -73 -2t-109 -12q-92 -16 -149.5 -37t-92.5 -39q-131 -68 -205.5 -165t-111.5 -197.5t-45 -186.5t-8 -131zM414 1614l151 -15q25 41 48.5 62.5t72.5 21.5q55 0 101.5 -24.5t95.5 -48.5 q49 -25 86 -31t59 -6q16 0 51 5t76 30q37 25 60.5 54.5t38 58t20.5 53t10 36.5q4 14 7 28.5t7 31.5l-153 10q-23 -39 -45.5 -59.5t-69.5 -20.5q-53 0 -95 22.5t-89 45.5q-18 10 -58 24.5t-96 14.5q-78 0 -142.5 -43t-98.5 -117q-10 -25 -18.5 -52.5t-18.5 -80.5zM510 674v49 q0 94 12.5 184t63.5 174q45 74 109.5 117t154.5 43q74 0 123 -25.5t69 -41.5q70 -55 108 -159t38 -292q0 -190 -43 -298t-117 -161q-78 -55 -174 -55q-66 0 -110 17.5t-66 31.5q-31 20 -58.5 50t-50 74t-38 104.5t-19.5 140.5q-2 25 -2 47z" />
<glyph unicode="&#xd6;" horiz-adv-x="1705" d="M72 723q0 -176 44 -300t111.5 -207t145.5 -132t145 -74q51 -18 102.5 -29.5t96.5 -16.5t79.5 -6t55.5 -1q98 0 163.5 11.5t104.5 21.5t116 43t159 104q84 74 131 163t70.5 173t28.5 153.5t5 104.5q0 182 -55 322.5t-156.5 236.5t-246 146.5t-322.5 52.5 q-115 0 -205 -18.5t-159.5 -47t-120 -65.5t-84.5 -70q-76 -74 -118 -160t-62.5 -164.5t-24.5 -143t-4 -97.5zM362 1581h381v309h-381v-309zM510 721q0 98 13.5 191.5t66.5 177.5q31 49 66.5 78.5t70.5 45t66.5 20.5t56.5 5q72 0 119 -22.5t69 -38.5q68 -53 109 -155.5 t41 -289.5q0 -147 -23.5 -240.5t-58.5 -146.5q-10 -16 -30.5 -40.5t-51.5 -46t-74 -37t-98 -15.5q-59 0 -99 15.5t-61 25.5q-61 35 -97 90t-55.5 119.5t-24.5 133.5t-5 130zM958 1581h379v309h-379v-309z" />
<glyph unicode="&#xd7;" d="M125 225l184 -186l373 373l375 -373l182 186l-371 371l371 375l-182 180l-375 -371l-373 371l-184 -180l373 -375z" />
<glyph unicode="&#xd8;" horiz-adv-x="1705" d="M72 719q0 -18 2 -59.5t10 -95.5t24.5 -115.5t45.5 -116.5q12 -23 29.5 -48.5t47.5 -68.5l-122 -131l92 -90l116 127q10 -8 51.5 -35t84.5 -47q61 -31 124.5 -47.5t120 -23.5t100.5 -9t64 -2q104 0 173 13.5t110 27.5q33 10 86 33.5t112.5 66.5t117 106.5t98.5 155.5 q23 47 33 89.5t20 93.5q10 72 14 109.5t4 74.5q0 59 -6 121q-16 102 -40.5 187t-90.5 173q-14 16 -27.5 32.5t-27.5 33.5l123 127l-88 88l-130 -131q-53 29 -92 47t-75.5 31.5t-78.5 22.5t-104 20q-41 4 -69.5 6t-56 3t-58.5 -1t-74 -4q-76 -10 -135 -22.5t-129 -43.5 q-88 -41 -145.5 -93t-79.5 -79q-29 -35 -59.5 -82t-56.5 -110.5t-42 -146.5t-16 -187zM508 723q0 43 4 85t16 122q2 6 6.5 22.5t10.5 40t16 49t23 48.5q8 16 28.5 41.5t53 50t76.5 42t102 17.5q78 0 131 -26.5t76 -43.5q20 -16 34.5 -35.5t20.5 -25.5l-580 -598l-10 59 q-4 39 -6 77t-2 75zM569 373l594 618l25 -184v-117q0 -61 -7 -120.5t-23.5 -117t-47.5 -104.5q-31 -49 -67.5 -77.5t-73.5 -44t-70 -19.5t-53 -4q-45 0 -82 10t-65.5 25.5t-48 33t-29.5 29.5q-16 18 -33 45t-19 27z" />
<glyph unicode="&#xd9;" horiz-adv-x="1536" d="M6 1190h117q0 -63 1 -124.5t1 -125.5q0 -86 -2 -169t-2 -167q0 -53 2 -103t6 -100q6 -39 11 -65.5t11.5 -48t13.5 -38t17 -34.5q27 -49 74 -97t118.5 -85t169 -59.5t224.5 -22.5q94 0 170 12t134 31.5t101.5 45.5t73.5 52q53 45 83 94.5t45.5 95.5t19.5 83.5t8 60.5 q2 33 3 63.5t1 61.5q4 121 0 244v395h123v254h-633v-252h152v-660q-2 -43 -5.5 -82.5t-14.5 -74.5t-33.5 -65.5t-61.5 -53.5q-35 -23 -72 -32t-78 -9q-20 0 -63 7t-90 42q-35 27 -52.5 58.5t-26.5 66.5t-10 74t-1 80v649h153v252h-688v-254zM319 1858l349 -273h264l-230 318 h-383v-45z" />
<glyph unicode="&#xda;" horiz-adv-x="1536" d="M6 1190h117q0 -63 1 -124.5t1 -125.5q0 -86 -2 -169t-2 -167q0 -53 2 -103t6 -100q6 -39 11 -65.5t11.5 -48t13.5 -38t17 -34.5q27 -49 74 -97t118.5 -85t169 -59.5t224.5 -22.5q94 0 170 12t134 31.5t101.5 45.5t73.5 52q53 45 83 94.5t45.5 95.5t19.5 83.5t8 60.5 q2 33 3 63.5t1 61.5q4 121 0 244v395h123v254h-633v-252h152v-660q-2 -43 -5.5 -82.5t-14.5 -74.5t-33.5 -65.5t-61.5 -53.5q-35 -23 -72 -32t-78 -9q-20 0 -63 7t-90 42q-35 27 -52.5 58.5t-26.5 66.5t-10 74t-1 80v649h153v252h-688v-254zM596 1585h256l367 277v43h-390z " />
<glyph unicode="&#xdb;" horiz-adv-x="1536" d="M6 1190h117q0 -63 1 -124.5t1 -125.5q0 -86 -2 -169t-2 -167q0 -53 2 -103t6 -100q6 -39 11 -65.5t11.5 -48t13.5 -38t17 -34.5q27 -49 74 -97t118.5 -85t169 -59.5t224.5 -22.5q94 0 170 12t134 31.5t101.5 45.5t73.5 52q53 45 83 94.5t45.5 95.5t19.5 83.5t8 60.5 q2 33 3 63.5t1 61.5q4 121 0 244v395h123v254h-633v-252h152v-660q-2 -43 -5.5 -82.5t-14.5 -74.5t-33.5 -65.5t-61.5 -53.5q-35 -23 -72 -32t-78 -9q-20 0 -63 7t-90 42q-35 27 -52.5 58.5t-26.5 66.5t-10 74t-1 80v649h153v252h-688v-254zM346 1589h254l168 187l174 -187 h254l-252 314h-352z" />
<glyph unicode="&#xdc;" horiz-adv-x="1536" d="M4 1190h119q0 -63 1 -124.5t1 -125.5q0 -86 -2 -169t-2 -167q0 -53 2 -103t6 -100q6 -39 11 -65.5t11.5 -48t13.5 -38t17 -34.5q27 -49 74 -97t118.5 -85t169 -59.5t224.5 -22.5q94 0 170 12t134 31.5t101.5 45.5t73.5 52q53 45 83 94.5t45.5 95.5t19.5 83.5t8 60.5 q2 33 3 63.5t1 61.5q4 121 0 244v395h123v254h-633v-252h152v-633q-2 -66 -9.5 -138.5t-52.5 -125.5q-18 -20 -66.5 -50t-127.5 -30q-20 0 -66.5 8t-93.5 43q-55 41 -70.5 95.5t-19.5 125.5q-2 25 -2 50v47v608h153v252h-690v-254zM295 1591h379v310h-379v-310zM891 1591 h379v310h-379v-310z" />
<glyph unicode="&#xdf;" horiz-adv-x="1409" d="M20 2h627v240h-82v874q4 35 7 52.5t8 33.5q4 12 13 27.5t26.5 30t42 25.5t61.5 11q27 0 42 -5t26 -9q47 -20 64 -62t17 -96q0 -59 -21.5 -95t-50 -55.5t-60 -26.5t-50.5 -11l-2 -258q51 -2 97 -9t85 -38q27 -20 41.5 -47t20.5 -51.5t7 -45t1 -30.5q0 -66 -27.5 -122 t-89.5 -79q-23 -10 -46 -13t-32 -5v-238h173q66 6 99.5 13t67.5 18q27 10 75 33.5t95 78.5q55 61 76 133t21 154q0 59 -10.5 105.5t-28 81t-38 58t-38.5 40.5q-53 47 -116.5 64.5t-135.5 29.5q12 4 59.5 16.5t90.5 38.5q51 31 79.5 72t43 81t17.5 74.5t3 53.5 q0 72 -19.5 126t-48 92t-59.5 62.5t-55 36.5q-41 23 -90.5 36t-96.5 24q-14 2 -63 8t-103 6q-41 0 -79.5 -3t-79.5 -7q-18 -4 -55 -10.5t-81.5 -21.5t-92.5 -42t-89 -72q-43 -45 -66.5 -93t-35.5 -107l-12 -62q-2 -27 -4.5 -51.5t-2.5 -50.5q-4 -41 -3 -84t1 -86v-602h-123 v-242z" />
<glyph unicode="&#xe0;" horiz-adv-x="1323" d="M43 307q0 -115 64.5 -197.5t175.5 -115.5q29 -8 64.5 -13.5t94.5 -5.5q88 0 149.5 17.5t104.5 44t73 59.5t58 64v-160h465v240h-123v479q0 8 -3 48t-13 75q-16 51 -49 90q-27 33 -60.5 56.5t-65.5 37.5t-58.5 21.5t-38.5 11.5l-40 8t-42 8q-41 4 -80 7t-80 3 q-43 0 -87 -3t-87 -7q-18 -4 -51 -9t-73 -18.5t-82 -38t-81 -65.5q-49 -53 -62.5 -96t-17.5 -72q-2 -14 -3 -27.5t-1 -27.5l379 -2q2 25 8 52.5t22.5 52t49.5 41t90 16.5q12 0 43 -4.5t64 -24.5q35 -23 44 -52.5t11 -72.5v-33q0 -14 -2 -30q-96 2 -156.5 3t-105.5 -2 t-85 -8.5t-96 -11.5q-12 -4 -59 -16.5t-90 -34.5q-20 -12 -49 -33.5t-55.5 -56.5t-45 -84t-18.5 -113zM215 1489q31 -23 61.5 -47.5t61.5 -48.5q39 -31 77 -63t77 -60q18 -14 36.5 -25.5t36.5 -23.5l258 -2l-223 319h-385v-49zM418 322q0 12 5 34.5t23 44.5q35 41 86.5 53.5 t108.5 16.5h172q-4 -29 -6 -54.5t-12 -54.5q-6 -20 -20.5 -47.5t-41 -53t-65.5 -43t-97 -17.5q-59 0 -88.5 18.5t-42.5 36.5q-16 20 -19 37.5t-3 28.5z" />
<glyph unicode="&#xe1;" horiz-adv-x="1323" d="M43 307q0 -115 64.5 -197.5t175.5 -115.5q29 -8 64.5 -13.5t94.5 -5.5q88 0 149.5 17.5t104.5 44t73 59.5t58 64v-160h465v240h-123v479q0 8 -3 48t-13 75q-16 51 -49 90q-27 33 -60.5 56.5t-65.5 37.5t-58.5 21.5t-38.5 11.5l-40 8t-42 8q-41 4 -80 7t-80 3 q-43 0 -87 -3t-87 -7q-18 -4 -51 -9t-73 -18.5t-82 -38t-81 -65.5q-49 -53 -62.5 -96t-17.5 -72q-2 -14 -3 -27.5t-1 -27.5l379 -2q2 25 8 52.5t22.5 52t49.5 41t90 16.5q12 0 43 -4.5t64 -24.5q35 -23 44 -52.5t11 -72.5v-33q0 -14 -2 -30q-96 2 -156.5 3t-105.5 -2 t-85 -8.5t-96 -11.5q-12 -4 -59 -16.5t-90 -34.5q-20 -12 -49 -33.5t-55.5 -56.5t-45 -84t-18.5 -113zM418 322q0 12 5 34.5t23 44.5q35 41 86.5 53.5t108.5 16.5h172q-4 -29 -6 -54.5t-12 -54.5q-6 -20 -20.5 -47.5t-41 -53t-65.5 -43t-97 -17.5q-59 0 -88.5 18.5 t-42.5 36.5q-16 20 -19 37.5t-3 28.5zM498 1219h254l360 278v39h-383z" />
<glyph unicode="&#xe2;" horiz-adv-x="1323" d="M43 307q0 -115 64.5 -197.5t175.5 -115.5q29 -8 64.5 -13.5t94.5 -5.5q88 0 149.5 17.5t104.5 44t73 59.5t58 64v-160h465v240h-123v479q0 8 -3 48t-13 75q-16 51 -49 90q-27 33 -60.5 56.5t-65.5 37.5t-58.5 21.5t-38.5 11.5l-40 8t-42 8q-41 4 -80 7t-80 3 q-43 0 -87 -3t-87 -7q-18 -4 -51 -9t-73 -18.5t-82 -38t-81 -65.5q-49 -53 -62.5 -96t-17.5 -72q-2 -14 -3 -27.5t-1 -27.5l379 -2q2 25 8 52.5t22.5 52t49.5 41t90 16.5q12 0 43 -4.5t64 -24.5q35 -23 44 -52.5t11 -72.5v-33q0 -14 -2 -30q-96 2 -156.5 3t-105.5 -2 t-85 -8.5t-96 -11.5q-12 -4 -59 -16.5t-90 -34.5q-20 -12 -49 -33.5t-55.5 -56.5t-45 -84t-18.5 -113zM244 1225h252l170 182l170 -182h243l-55 80q-23 29 -47.5 57.5t-46.5 56.5q-23 29 -44.5 58.5t-43.5 58.5h-355zM418 322q0 12 5 34.5t23 44.5q35 41 86.5 53.5 t108.5 16.5h172q-4 -29 -6 -54.5t-12 -54.5q-6 -20 -20.5 -47.5t-41 -53t-65.5 -43t-97 -17.5q-59 0 -88.5 18.5t-42.5 36.5q-16 20 -19 37.5t-3 28.5z" />
<glyph unicode="&#xe3;" horiz-adv-x="1323" d="M43 307q0 -115 64.5 -197.5t175.5 -115.5q29 -8 64.5 -13.5t94.5 -5.5q88 0 149.5 17.5t104.5 44t73 59.5t58 64v-160h465v240h-123v479q0 8 -3 48t-13 75q-16 51 -49 90q-27 33 -60.5 56.5t-65.5 37.5t-58.5 21.5t-38.5 11.5l-40 8t-42 8q-41 4 -80 7t-80 3 q-43 0 -87 -3t-87 -7q-18 -4 -51 -9t-73 -18.5t-82 -38t-81 -65.5q-49 -53 -62.5 -96t-17.5 -72q-2 -14 -3 -27.5t-1 -27.5l379 -2q2 25 8 52.5t22.5 52t49.5 41t90 16.5q12 0 43 -4.5t64 -24.5q35 -23 44 -52.5t11 -72.5v-33q0 -14 -2 -30q-96 2 -156.5 3t-105.5 -2 t-85 -8.5t-96 -11.5q-12 -4 -59 -16.5t-90 -34.5q-20 -12 -49 -33.5t-55.5 -56.5t-45 -84t-18.5 -113zM223 1243l156 -6q23 39 45 59.5t70 20.5q41 0 72.5 -14.5t66.5 -30.5q41 -23 98 -45.5t107 -22.5q37 0 71.5 12.5t65.5 32.5q33 25 54.5 51.5t33.5 52t18 48t11 37.5 q4 16 6 31.5t6 31.5l-152 8q-25 -37 -47 -57t-69 -20q-53 0 -97.5 24.5t-91.5 46.5q-47 23 -84 29t-59 6q-55 0 -97 -18.5t-72 -43t-47.5 -51t-25.5 -43.5q-10 -23 -19.5 -53.5t-19.5 -85.5zM418 322q0 12 5 34.5t23 44.5q35 41 86.5 53.5t108.5 16.5h172q-4 -29 -6 -54.5 t-12 -54.5q-6 -20 -20.5 -47.5t-41 -53t-65.5 -43t-97 -17.5q-59 0 -88.5 18.5t-42.5 36.5q-16 20 -19 37.5t-3 28.5z" />
<glyph unicode="&#xe4;" horiz-adv-x="1323" d="M41 303q0 -78 27.5 -132t66.5 -90t78 -55.5t63 -27.5q47 -16 92.5 -20.5t61.5 -4.5q121 0 194.5 31t108.5 59q20 16 40 38t54 63v-166h465v242h-123v499q-4 39 -9 64.5t-9 42.5q-20 63 -61 104t-87.5 64.5t-86 34t-56.5 14.5q-16 4 -32.5 6t-32.5 6q-43 4 -86 7t-84 3 t-79 -3t-77 -7q-18 -4 -52 -9t-76 -19.5t-87 -41t-84 -69.5q-61 -70 -70 -150q-4 -16 -4 -32t-2 -33l381 -2q8 57 23.5 95t70.5 56q10 4 28.5 8.5t47.5 4.5q12 0 43 -4.5t64 -26.5q35 -25 42 -54.5t9 -72.5v-33q0 -14 -2 -30q-29 2 -55.5 3t-55.5 1q-55 2 -111.5 0 t-111.5 -7q-78 -10 -148.5 -24t-136.5 -62q-66 -47 -103.5 -117.5t-37.5 -152.5zM211 1225h373v315h-373v-315zM418 326q0 53 39 89t92 48q41 10 102 10h160q-4 -43 -6 -62.5t-10 -41.5q-6 -20 -19.5 -49t-39 -54.5t-66.5 -44t-101 -18.5h-26q-16 0 -36 6t-40.5 19.5 t-34.5 37.5q-4 10 -9 23.5t-5 36.5zM743 1229h373v313h-373v-313z" />
<glyph unicode="&#xe5;" horiz-adv-x="1323" d="M43 305q0 -113 62.5 -192.5t168.5 -114.5q53 -16 101.5 -19.5t64.5 -3.5q88 0 150.5 17.5t105.5 44t74 59.5t57 64v-160h465v240h-123v487q-4 47 -7 72.5t-11 48.5q-14 39 -33.5 65.5t-30.5 36.5q-63 66 -139 88.5t-162 36.5q-41 4 -80.5 7t-80.5 3q-39 0 -77 -3t-75 -7 q-63 -10 -114.5 -23.5t-106.5 -47.5q-47 -29 -87 -74t-56 -99q-6 -23 -8.5 -44t-6.5 -66l381 -2q4 29 6 44t6 28q12 35 47 62.5t113 27.5q14 0 44 -5.5t61 -27.5q45 -33 50 -79t1 -105q-90 2 -152 2q-59 0 -104 -2t-84 -6.5t-88 -10.5q-39 -10 -77 -20.5t-73 -26.5 q-86 -43 -134 -121t-48 -174zM416 324q0 12 5 32.5t25 44.5q27 33 68 47.5t129 24.5h170q0 -10 -4 -44t-16 -69q-6 -18 -21.5 -45.5t-41 -53t-65.5 -43t-96 -17.5q-61 0 -92 20.5t-43 42.5q-4 6 -11 21.5t-7 38.5zM420 1456q-6 -53 10 -101t49 -85t79 -58.5t99 -21.5 q18 0 48 5t63 20.5t63.5 45t51.5 78.5q12 29 14 50.5t2 35.5q0 49 -18.5 93.5t-50 77t-75.5 51t-93 18.5q-72 0 -131.5 -36t-88.5 -101q-10 -23 -15 -42.5t-7 -29.5zM552 1438.5q1 11.5 3 17.5q10 35 42 57.5t67 24.5q41 0 72.5 -32.5t31.5 -73.5q0 -35 -20.5 -63t-51.5 -42 q-27 -8 -43 -8q-37 0 -65.5 26.5t-34.5 65.5q-2 16 -1 27.5z" />
<glyph unicode="&#xe6;" horiz-adv-x="1921" d="M39 301q0 -55 14.5 -95t24.5 -56q29 -55 67.5 -86t78.5 -48.5t75 -23.5t55 -8q43 -6 69 -8.5t45 -3.5t37.5 0t43.5 1q74 6 133 20.5t119 57.5q47 35 67.5 69t42.5 87q12 -29 24.5 -53.5t33.5 -47.5q31 -35 98.5 -71.5t179.5 -52.5q41 -6 74 -8.5t49 -2.5q135 0 225.5 36 t133.5 69q57 43 85.5 101.5t55.5 129.5h-389q-20 -35 -41 -60.5t-58 -37.5q-16 -6 -31.5 -8t-19.5 -2q-35 0 -60.5 12t-35.5 18q-37 23 -55.5 58t-22.5 75q-2 14 -3 27.5t-1 28.5l721 2v94q-2 35 -4 68.5t-6 68.5q-8 45 -15.5 77t-15.5 55.5t-16.5 43t-18.5 39.5 q-43 76 -106.5 118t-126 61.5t-115.5 22.5t-74 3q-125 0 -208 -29.5t-121 -64.5q-25 -20 -44.5 -46t-23.5 -32q-23 29 -40 50.5t-46 43.5q-43 33 -100.5 49.5t-110.5 23.5t-94 8t-49 1q-88 0 -155 -15.5t-115 -41t-79.5 -57t-50.5 -62.5q-20 -37 -30.5 -79t-18.5 -85h369 q12 51 24 70q18 25 46 37t87 12q10 0 30 -1t42 -9q23 -10 37 -23.5t18 -19.5q29 -41 32 -83t1 -89q-78 2 -130 3t-99 -1t-99.5 -7.5t-128.5 -15.5q-41 -10 -60 -14t-42 -14q-59 -27 -94 -66t-53.5 -80t-24.5 -76.5t-6 -56.5zM420 295q0 25 13 56.5t67 54.5q25 10 51.5 14 t59 5t73.5 1h96q-2 -8 -5 -41t-15 -61q-23 -61 -78 -99.5t-121 -38.5q-10 0 -32.5 2t-47 13.5t-43 33t-18.5 60.5zM1155 631q4 59 17.5 107t60.5 83q29 23 54.5 28t39.5 5q33 0 54.5 -10t31.5 -17q47 -37 57.5 -89t12.5 -107h-328z" />
<glyph unicode="&#xe7;" horiz-adv-x="1236" d="M59 541q0 -106 22.5 -187.5t58.5 -140.5t78 -98t81 -62q45 -27 95 -43t94 -24.5t78 -11.5t50 -3l-114 -186l45 -41q6 0 33.5 6t54.5 6q2 0 18.5 -1t37 -9t36.5 -23.5t16 -46.5q0 -23 -12 -38t-29.5 -24t-38 -13t-36.5 -4q-53 0 -102.5 17t-98.5 38l-35 -103 q51 -14 89 -23t69 -13.5t56.5 -6.5t53.5 -2h37t66 8.5t77 26t70 51.5q25 29 31 56.5t6 42.5q0 37 -14 62.5t-33.5 43t-39 25.5t-28.5 12q-27 10 -46 11t-29 1q-31 0 -51.5 -4t-49.5 -10l80 141q18 2 54 7.5t80 18.5t94.5 37.5t95.5 67.5q31 29 50 61t32.5 65.5t21.5 71.5 t17 79h-346q0 -8 -3.5 -27.5t-12.5 -43t-26.5 -45t-50.5 -36.5q-10 -4 -26.5 -9t-42.5 -5q-68 0 -105 37t-55 82t-21.5 84t-3.5 43q-2 25 -3 50.5t-1 51.5q0 39 3 64.5t8 42.5q18 72 56 107.5t66 45.5q18 8 34 9t26 1q37 0 63.5 -11t44 -27.5t27.5 -34t14 -27.5 q6 -20 9.5 -41.5t5.5 -44.5h331v406h-307v-117q-31 35 -45 50t-35 32q-31 25 -67.5 38t-70.5 19t-60.5 8t-34.5 2q-55 0 -100 -9t-64 -15q-55 -16 -113.5 -50t-105.5 -94.5t-78 -151.5t-31 -222z" />
<glyph unicode="&#xe8;" horiz-adv-x="1193" d="M57 532q0 -68 8.5 -119t14.5 -75q6 -23 24.5 -75t59.5 -105q78 -98 200.5 -146.5t249.5 -48.5q20 0 75.5 4t123.5 22.5t137.5 58.5t118.5 114q23 35 37 71.5t29 77.5l-387 2q-16 -35 -33 -62.5t-49 -41.5q-8 -4 -20.5 -7t-33.5 -3q-37 0 -59.5 13t-32.5 24q-43 41 -52 90 t-13 106h688v143q-6 45 -10.5 78t-9.5 58.5t-11 47t-14 44.5q-18 51 -53 101t-93.5 90t-142.5 64.5t-203 24.5q-82 0 -143.5 -12t-108.5 -31.5t-81.5 -44t-59.5 -49.5q-27 -25 -54.5 -60.5t-50 -85.5t-37 -117t-14.5 -151zM152 1489q31 -23 61.5 -47.5t60.5 -48.5 q39 -31 76 -63t78 -60q16 -14 34.5 -25.5t39.5 -23.5l258 -2l-223 319h-385v-49zM453 639q4 57 13 107.5t54 84.5q16 14 40 23.5t48 9.5q20 0 51 -11t58 -52q14 -23 21 -47.5t11.5 -48t5.5 -41t1 -23.5z" />
<glyph unicode="&#xe9;" horiz-adv-x="1193" d="M57 532q0 -68 8.5 -119t14.5 -75q6 -23 24.5 -75t59.5 -105q78 -98 200.5 -146.5t249.5 -48.5q20 0 75.5 4t123.5 22.5t137.5 58.5t118.5 114q23 35 37 71.5t29 77.5l-387 2q-16 -35 -33 -62.5t-49 -41.5q-8 -4 -20.5 -7t-33.5 -3q-37 0 -59.5 13t-32.5 24q-43 41 -52 90 t-13 106h688v143q-6 45 -10.5 78t-9.5 58.5t-11 47t-14 44.5q-18 51 -53 101t-93.5 90t-142.5 64.5t-203 24.5q-82 0 -143.5 -12t-108.5 -31.5t-81.5 -44t-59.5 -49.5q-27 -25 -54.5 -60.5t-50 -85.5t-37 -117t-14.5 -151zM434 1219h252l363 278v39h-385zM453 639 q4 57 13 107.5t54 84.5q16 14 40 23.5t48 9.5q20 0 51 -11t58 -52q14 -23 21 -47.5t11.5 -48t5.5 -41t1 -23.5z" />
<glyph unicode="&#xea;" horiz-adv-x="1193" d="M57 532q0 -68 8.5 -119t14.5 -75q6 -23 24.5 -75t59.5 -105q78 -98 200.5 -146.5t249.5 -48.5q20 0 75.5 4t123.5 22.5t137.5 58.5t118.5 114q23 35 37 71.5t29 77.5l-387 2q-16 -35 -33 -62.5t-49 -41.5q-8 -4 -20.5 -7t-33.5 -3q-37 0 -59.5 13t-32.5 24q-43 41 -52 90 t-13 106h688v143q-6 45 -10.5 78t-9.5 58.5t-11 47t-14 44.5q-18 51 -53 101t-93.5 90t-142.5 64.5t-203 24.5q-82 0 -143.5 -12t-108.5 -31.5t-81.5 -44t-59.5 -49.5q-27 -25 -54.5 -60.5t-50 -85.5t-37 -117t-14.5 -151zM190 1225h252l170 182l170 -182h244l-55 80 q-23 29 -47.5 57.5t-46.5 56.5q-23 29 -44.5 58.5t-44.5 58.5h-354zM453 639q4 57 13 107.5t54 84.5q16 14 40 23.5t48 9.5q20 0 51 -11t58 -52q14 -23 21 -47.5t11.5 -48t5.5 -41t1 -23.5z" />
<glyph unicode="&#xeb;" horiz-adv-x="1193" d="M57 532q0 -68 8.5 -119t14.5 -75q6 -23 24.5 -75t59.5 -105q78 -98 200.5 -146.5t249.5 -48.5q20 0 75.5 4t123.5 22.5t137.5 58.5t118.5 114q23 35 37 71.5t29 77.5l-387 2q-16 -35 -33 -62.5t-49 -41.5q-8 -4 -20.5 -7t-33.5 -3q-37 0 -59.5 13t-32.5 24q-43 41 -52 90 t-13 106h688v143q-6 45 -10.5 78t-9.5 58.5t-11 47t-14 44.5q-18 51 -53 101t-93.5 90t-142.5 64.5t-203 24.5q-82 0 -143.5 -12t-108.5 -31.5t-81.5 -44t-59.5 -49.5q-27 -25 -54.5 -60.5t-50 -85.5t-37 -117t-14.5 -151zM145 1223h373v315h-373v-315zM453 639 q4 57 13 107.5t54 84.5q16 14 40 23.5t48 9.5q20 0 51 -11t58 -52q14 -23 21 -47.5t11.5 -48t5.5 -41t1 -23.5zM680 1225h373v313h-373v-313z" />
<glyph unicode="&#xec;" horiz-adv-x="724" d="M-84 1489q31 -23 62.5 -47.5t62.5 -48.5q37 -31 75 -63t77 -60q18 -14 36.5 -25.5t36.5 -23.5l260 -2l-225 319h-385v-49zM39 2h641v238h-105v807h-534v-238h119v-569h-121v-238z" />
<glyph unicode="&#xed;" horiz-adv-x="724" d="M39 2h641v238h-105v807h-534v-238h119v-569h-121v-238zM199 1219h254l362 278v39h-385z" />
<glyph unicode="&#xee;" horiz-adv-x="724" d="M-55 1225h252l170 182l170 -182h243l-55 80q-23 29 -46.5 57.5t-47.5 56.5q-23 29 -44.5 58.5t-43.5 58.5h-353zM39 2h641v238h-105v807h-534v-238h119v-569h-121v-238z" />
<glyph unicode="&#xef;" horiz-adv-x="724" d="M-88 1223h373v315h-373v-315zM39 2h641v238h-105v807h-534v-238h119v-569h-121v-238zM444 1225h373v313h-373v-313z" />
<glyph unicode="&#xf1;" horiz-adv-x="1449" d="M39 2h629v238h-97v374q6 53 17.5 93.5t58.5 68.5q43 25 92 25q31 0 51.5 -7.5t30.5 -11.5q43 -25 53.5 -62.5t14.5 -88.5v-393h-101v-236h621v236h-113v512q-2 39 -5 70.5t-19 68.5q-14 37 -36 62.5t-43.5 44t-42 28.5t-32.5 14q-59 25 -117.5 29t-78.5 4 q-72 0 -126.5 -13.5t-95.5 -33.5t-68.5 -45t-43.5 -49q-16 -23 -28.5 -49.5t-22.5 -53.5v220h-494v-236h117v-571h-121v-238zM289 1243l153 -6q25 39 46.5 59.5t68.5 20.5q41 0 73 -14.5t66 -30.5q43 -23 99.5 -45.5t105.5 -22.5q37 0 73 12.5t64 32.5q33 25 54.5 51.5 t34 52t18.5 48l10 37.5q4 16 7 31.5t7 31.5l-153 8q-25 -37 -46.5 -57t-68.5 -20q-53 0 -98 24.5t-92 46.5q-47 23 -84 29t-60 6q-55 0 -97 -18.5t-71.5 -43t-47 -51t-25.5 -43.5q-10 -23 -18.5 -53.5t-18.5 -85.5z" />
<glyph unicode="&#xf2;" d="M57 532q0 -115 27 -191.5t49 -113.5q43 -72 104.5 -121t134 -79.5t152.5 -45t158 -14.5q135 0 261 40t218 138q49 53 77 109.5t41 108t16 94.5t3 67q0 74 -13 133.5t-31.5 105.5t-41 80t-41.5 54q-29 31 -72.5 63.5t-105 60.5t-142.5 45t-181 17q-135 0 -233.5 -31.5 t-166 -79.5t-108.5 -104.5t-62 -107.5q-23 -55 -33 -112t-10 -116zM238 1489q31 -23 61.5 -47.5t60.5 -48.5q39 -31 76 -63t76 -60q18 -14 36.5 -25.5t37.5 -23.5l260 -2l-225 319h-383v-49zM475 518v27t4 59.5t15.5 73.5t33 73.5t56 57t86.5 22.5q43 0 72.5 -12t41.5 -20 q23 -14 35 -28.5t17 -22.5q14 -25 23 -58t12 -63.5t4.5 -52t1.5 -25.5q0 -111 -19.5 -174.5t-54.5 -104.5q-12 -14 -42 -34.5t-81 -20.5q-35 0 -58.5 8t-35.5 15q-37 20 -58.5 53t-34 71.5t-15.5 79.5t-3 76z" />
<glyph unicode="&#xf3;" d="M57 532q0 -115 27 -191.5t49 -113.5q43 -72 104.5 -121t134 -79.5t152.5 -45t158 -14.5q135 0 261 40t218 138q49 53 77 109.5t41 108t16 94.5t3 67q0 74 -13 133.5t-31.5 105.5t-41 80t-41.5 54q-29 31 -72.5 63.5t-105 60.5t-142.5 45t-181 17q-135 0 -233.5 -31.5 t-166 -79.5t-108.5 -104.5t-62 -107.5q-23 -55 -33 -112t-10 -116zM475 518v27t4 59.5t15.5 73.5t33 73.5t56 57t86.5 22.5q43 0 72.5 -12t41.5 -20q23 -14 35 -28.5t17 -22.5q14 -25 23 -58t12 -63.5t4.5 -52t1.5 -25.5q0 -111 -19.5 -174.5t-54.5 -104.5 q-12 -14 -42 -34.5t-81 -20.5q-35 0 -58.5 8t-35.5 15q-37 20 -58.5 53t-34 71.5t-15.5 79.5t-3 76zM518 1219h254l363 278v39h-385z" />
<glyph unicode="&#xf4;" d="M57 532q0 -115 27 -191.5t49 -113.5q43 -72 104.5 -121t134 -79.5t152.5 -45t158 -14.5q135 0 261 40t218 138q49 53 77 109.5t41 108t16 94.5t3 67q0 74 -13 133.5t-31.5 105.5t-41 80t-41.5 54q-29 31 -72.5 63.5t-105 60.5t-142.5 45t-181 17q-135 0 -233.5 -31.5 t-166 -79.5t-108.5 -104.5t-62 -107.5q-23 -55 -33 -112t-10 -116zM266 1225h250l170 182l170 -182h244l-56 80q-23 29 -46 57.5t-46 56.5q-23 29 -45 58.5t-45 58.5h-352zM475 518v27t4 59.5t15.5 73.5t33 73.5t56 57t86.5 22.5q43 0 72.5 -12t41.5 -20q23 -14 35 -28.5 t17 -22.5q14 -25 23 -58t12 -63.5t4.5 -52t1.5 -25.5q0 -111 -19.5 -174.5t-54.5 -104.5q-12 -14 -42 -34.5t-81 -20.5q-35 0 -58.5 8t-35.5 15q-37 20 -58.5 53t-34 71.5t-15.5 79.5t-3 76z" />
<glyph unicode="&#xf5;" d="M57 532q0 -115 27 -191.5t49 -113.5q43 -72 104.5 -121t134 -79.5t152.5 -45t158 -14.5q135 0 261 40t218 138q49 53 77 109.5t41 108t16 94.5t3 67q0 74 -13 133.5t-31.5 105.5t-41 80t-41.5 54q-29 31 -72.5 63.5t-105 60.5t-142.5 45t-181 17q-135 0 -233.5 -31.5 t-166 -79.5t-108.5 -104.5t-62 -107.5q-23 -55 -33 -112t-10 -116zM246 1243l155 -6q23 39 45.5 59.5t69.5 20.5q41 0 71.5 -14.5t65.5 -30.5q43 -23 99.5 -45.5t105.5 -22.5q37 0 73 12.5t64 32.5q33 25 54.5 51.5t34 52t18.5 48l10 37.5q4 16 7 31.5t7 31.5l-153 8 q-25 -37 -46.5 -57t-68.5 -20q-53 0 -98 24.5t-92 46.5q-47 23 -84 29t-60 6q-55 0 -97 -18.5t-71.5 -43t-47 -51t-25.5 -43.5q-10 -23 -18.5 -53.5t-18.5 -85.5zM475 518v27t4 59.5t15.5 73.5t33 73.5t56 57t86.5 22.5q43 0 72.5 -12t41.5 -20q23 -14 35 -28.5t17 -22.5 q14 -25 23 -58t12 -63.5t4.5 -52t1.5 -25.5q0 -111 -19.5 -174.5t-54.5 -104.5q-12 -14 -42 -34.5t-81 -20.5q-35 0 -58.5 8t-35.5 15q-37 20 -58.5 53t-34 71.5t-15.5 79.5t-3 76z" />
<glyph unicode="&#xf6;" d="M57 528q0 -74 12.5 -133t32 -105t42 -80t40.5 -54q27 -31 70 -65t103.5 -61.5t140.5 -45t178 -17.5q27 0 85 3t130 21.5t146.5 57.5t136.5 111q45 51 84.5 139t39.5 240q0 51 -6 98t-22 94q-43 121 -134.5 200t-209.5 118q-37 10 -95.5 22t-152.5 12q-109 0 -192 -19.5 t-144 -50t-104 -68.5t-72 -75q-39 -51 -60.5 -102t-33 -97t-13.5 -83t-2 -60zM229 1223h371v315h-371v-315zM477 553q6 113 34 172t75 84q14 8 35.5 15t58.5 7q76 0 116 -39.5t58 -91t20.5 -96.5t2.5 -55q0 -125 -27 -195.5t-74 -105.5q-41 -31 -100 -35q-98 0 -153.5 83 t-45.5 257zM762 1223h373v315h-373v-315z" />
<glyph unicode="&#xf7;" d="M0 465h1366v260h-1366v-260zM518 225q-2 -72 46 -117t118 -45q70 -2 117 45t49 117q0 72 -48 119t-118 47t-117 -48t-47 -118zM518 961q-2 -72 47 -118t117 -46q70 0 117 46.5t49 114.5q0 72 -48 119t-118 49q-49 -2 -90 -26.5t-62 -71.5q-10 -23 -11 -40t-1 -27z" />
<glyph unicode="&#xf8;" d="M57 532q0 -127 31 -202.5t59 -120.5q6 -10 12.5 -21.5t14.5 -21.5l-106 -96l73 -84l115 106q39 -23 71.5 -41t65.5 -31.5t69 -23.5t81 -19q47 -6 90 -8t57 -2q96 0 171 17.5t132.5 43t98.5 57.5t67 60q51 51 80 107.5t43 109t17.5 95.5t3.5 69q0 123 -31 198t-60 116 q-12 18 -24 36.5t-27 36.5l103 93l-76 81l-113 -102q-31 14 -67.5 31.5t-86 33t-110.5 25.5t-139 10q-37 0 -112 -7t-160 -38.5t-166.5 -98.5t-133.5 -183q-31 -72 -37 -135.5t-6 -90.5zM475 440v101q0 55 11.5 107t35 97.5t68.5 67.5q29 16 53.5 19.5t36.5 3.5 q33 0 58.5 -9.5t44 -21.5t30.5 -25.5t21 -21.5zM506 319l364 332q2 -33 4.5 -64.5t2.5 -64.5v-35t-5.5 -62.5t-17.5 -73.5t-37 -68q-35 -45 -80 -56.5t-65 -11.5q-39 0 -66.5 12.5t-47 28.5t-32 33.5t-20.5 29.5z" />
<glyph unicode="&#xf9;" horiz-adv-x="1409" d="M10 811h121v-514q2 -12 5 -58t22 -89q27 -66 77 -101t101 -52t94 -20.5t59 -3.5q86 0 144.5 12.5t89.5 28.5q29 14 51.5 33t38.5 38t26.5 35.5t16.5 24.5q6 10 11 19.5t12 19.5v-182h503v240h-120v805h-533v-236h119v-365q-4 -57 -15.5 -99t-62.5 -68 q-25 -14 -47.5 -16.5t-32.5 -2.5t-33.5 3t-48.5 18q-41 23 -51 60.5t-14 86.5v619h-533v-236zM258 1489q31 -23 61.5 -47.5t61.5 -48.5q39 -31 76 -63t78 -60q18 -14 36.5 -25.5t36.5 -23.5l258 -2l-223 319h-385v-49z" />
<glyph unicode="&#xfa;" horiz-adv-x="1409" d="M10 811h121v-514q2 -12 5 -58t22 -89q27 -66 77 -101t101 -52t94 -20.5t59 -3.5q86 0 144.5 12.5t89.5 28.5q29 14 51.5 33t38.5 38t26.5 35.5t16.5 24.5q6 10 11 19.5t12 19.5v-182h503v240h-120v805h-533v-236h119v-365q-4 -57 -15.5 -99t-62.5 -68 q-25 -14 -47.5 -16.5t-32.5 -2.5t-33.5 3t-48.5 18q-41 23 -51 60.5t-14 86.5v619h-533v-236zM541 1219h252l362 278v39h-385z" />
<glyph unicode="&#xfb;" horiz-adv-x="1409" d="M10 811h121v-514q2 -12 5 -58t22 -89q27 -66 77 -101t101 -52t94 -20.5t59 -3.5q86 0 144.5 12.5t89.5 28.5q29 14 51.5 33t38.5 38t26.5 35.5t16.5 24.5q6 10 11 19.5t12 19.5v-182h503v240h-120v805h-533v-236h119v-365q-4 -57 -15.5 -99t-62.5 -68 q-25 -14 -47.5 -16.5t-32.5 -2.5t-33.5 3t-48.5 18q-41 23 -51 60.5t-14 86.5v619h-533v-236zM287 1225h252l170 182l170 -182h241q-25 39 -55 80q-23 29 -46.5 57.5t-45.5 56.5q-23 29 -44.5 58.5t-43.5 58.5h-355z" />
<glyph unicode="&#xfc;" horiz-adv-x="1409" d="M10 811h121q-2 -88 -3 -174t-1 -172q2 -49 3 -98.5t5 -98.5q4 -41 10.5 -76.5t28.5 -72.5q31 -53 80 -82t98 -43t89 -16.5t53 -2.5q139 0 210.5 33t112.5 82q18 23 32.5 46.5t29.5 45.5v-180h503v240h-120v805h-533v-236h119v-367q-4 -53 -13.5 -93t-54.5 -68 q-29 -16 -53.5 -20.5t-36.5 -4.5q-43 0 -76 16q-45 23 -56 62t-15 90v621h-533v-236zM244 1227h370v313h-370v-313zM774 1227h373v313h-373v-313z" />
<glyph unicode="&#xff;" horiz-adv-x="1280" d="M-4 811h76l389 -834q-23 -53 -50.5 -86.5t-91.5 -33.5q-35 0 -70.5 5t-68.5 9v-270l74 -9q33 -2 56.5 -3t43.5 -1h43q25 0 60 2q20 2 49 7.5t59.5 18.5t63.5 36.5t63 66.5q12 16 25.5 37t36.5 60q117 254 228.5 499.5t221.5 493.5h78v240h-553v-240h117l-174 -432 l-170 432h106v242h-612v-240zM188 1223h373v315h-373v-315zM723 1225h373v313h-373v-313z" />
<glyph unicode="&#x152;" horiz-adv-x="2217" d="M72 723q0 -154 43 -288t153 -247q55 -55 114.5 -90t113 -56.5t97.5 -31.5t69 -14q18 -4 35.5 -5t33.5 -5q63 -2 125 -3t121 1q45 2 89 4t87 6t85 5t83 3h840v467h-301v-223h-453v370h139v-139h232v516h-234v-137h-139v344h457v-199h301v445h-758q-41 2 -80 2h-80 q-70 4 -138.5 9t-137.5 11h-6q-23 2 -46.5 3.5t-46.5 1.5q-37 2 -72.5 1t-72.5 -6q-72 -10 -136.5 -22t-129.5 -41q-59 -27 -127 -77t-126.5 -132t-96 -198.5t-37.5 -274.5zM489 727q0 96 18.5 171t47.5 129t65.5 90t71.5 57q33 18 67 28t63.5 15.5t54 6.5t36.5 1 q31 0 62 -2t61 -4v-971q-57 -10 -86.5 -14.5t-60.5 -4.5q-70 0 -122 16.5t-89 40t-60.5 50t-37.5 49.5q-31 47 -61 129t-30 213z" />
<glyph unicode="&#x153;" horiz-adv-x="1961" d="M55 526q0 -78 12.5 -139t32 -108.5t42 -82t40.5 -57.5q31 -35 59.5 -56.5t45.5 -31.5q25 -14 53.5 -28.5t67 -26.5t87 -19.5t111.5 -7.5q135 0 215 31t127 70q23 20 45.5 48.5t24.5 33.5q25 -35 39 -50.5t30 -31.5q41 -37 122 -70t210 -33q59 0 119.5 11.5t116 35 t102.5 60.5t80 88q27 37 39 72.5t25 80.5l-388 2q-23 -53 -48 -81.5t-83 -28.5q-35 0 -56 9t-34 17q-25 18 -40 40t-24 43.5t-12.5 39l-5.5 27.5t-3 20.5t-1 20.5h703v102t-3 68t-6.5 54.5t-9.5 62.5q-6 31 -14 61.5t-21 58.5q-6 16 -18 39t-39 56q-18 23 -39.5 43t-44.5 37 q-41 27 -89 43t-91 24t-76 10t-45 2q-14 0 -51 -3t-83 -13t-95 -31.5t-92 -60.5q-20 -18 -42 -45t-24 -31q-18 27 -36.5 50.5t-43.5 43.5q-41 31 -117.5 59.5t-203.5 28.5q-55 0 -118 -7t-116 -25q-49 -16 -107.5 -52t-109.5 -97.5t-85 -154t-34 -221.5zM460 529.5 q1 29.5 1 35.5q6 154 50 221.5t130 67.5q35 0 66 -12q59 -23 90.5 -87.5t31.5 -193.5q0 -96 -8 -151.5t-28 -96.5q-23 -47 -61 -75.5t-91 -28.5q-25 0 -67 15.5t-70 70.5q-20 35 -29.5 80t-12.5 85t-2 69.5zM1208 637q4 55 16.5 108.5t59.5 88.5q37 27 86 26q31 0 60 -12 q29 -14 45 -39t24 -49.5t10 -45t2 -26.5q2 -12 2 -24t3 -25z" />
<glyph unicode="&#x178;" horiz-adv-x="1536" d="M0 1192h88l465 -682v-256h-195v-254h809v254h-194v258l463 680h92v252h-651v-252h159l-237 -379l-236 379h166v252h-729v-252zM283 1589h379v309h-379v-309zM879 1591h376v310h-376v-310z" />
<glyph unicode="&#x2c6;" horiz-adv-x="598" d="M-311 1225h252l170 182l170 -182h243l-55 80q-23 29 -46.5 57.5t-47.5 56.5q-23 29 -44.5 58.5t-43.5 58.5h-353z" />
<glyph unicode="&#x2dc;" horiz-adv-x="598" d="M-332 1243l156 -6q23 39 45 59.5t70 20.5q41 0 72.5 -14.5t66.5 -30.5q43 -23 99 -45.5t106 -22.5q37 0 71.5 12.5t65.5 32.5q33 25 54.5 51.5t33.5 52t18 48t11 37.5q4 16 6 31.5t6 31.5l-152 8q-25 -37 -47 -57t-69 -20q-53 0 -97.5 24.5t-91.5 46.5q-47 23 -84 29 t-59 6q-55 0 -97 -18.5t-72 -43t-47.5 -51t-25.5 -43.5q-10 -23 -19.5 -53.5t-19.5 -85.5z" />
<glyph unicode="&#x2000;" horiz-adv-x="1015" />
<glyph unicode="&#x2001;" horiz-adv-x="2030" />
<glyph unicode="&#x2002;" horiz-adv-x="1015" />
<glyph unicode="&#x2003;" horiz-adv-x="2030" />
<glyph unicode="&#x2004;" horiz-adv-x="676" />
<glyph unicode="&#x2005;" horiz-adv-x="507" />
<glyph unicode="&#x2006;" horiz-adv-x="338" />
<glyph unicode="&#x2007;" horiz-adv-x="338" />
<glyph unicode="&#x2008;" horiz-adv-x="253" />
<glyph unicode="&#x2009;" horiz-adv-x="406" />
<glyph unicode="&#x200a;" horiz-adv-x="112" />
<glyph unicode="&#x2010;" horiz-adv-x="681" d="M59 389h557v279h-557v-279z" />
<glyph unicode="&#x2011;" horiz-adv-x="681" d="M59 389h557v279h-557v-279z" />
<glyph unicode="&#x2012;" horiz-adv-x="681" d="M59 389h557v279h-557v-279z" />
<glyph unicode="&#x2013;" horiz-adv-x="1236" d="M63 379h1111v289h-1111v-289z" />
<glyph unicode="&#x2014;" d="M0 465h1366v260h-1366v-260z" />
<glyph unicode="&#x2018;" horiz-adv-x="468" d="M43 754h375v362h-131l139 330h-274l-109 -326v-366z" />
<glyph unicode="&#x2019;" horiz-adv-x="468" d="M39 748q66 4 133 4q68 0 137 -2l113 325v367h-375v-363h129z" />
<glyph unicode="&#x201a;" horiz-adv-x="468" d="M37 -328h270l113 326v369h-373v-367h127z" />
<glyph unicode="&#x201c;" horiz-adv-x="1024" d="M45 752h375v364h-133l135 326h-266l-111 -326v-364zM600 752h377v364h-133l137 328h-274l-107 -328v-364z" />
<glyph unicode="&#x201d;" horiz-adv-x="1024" d="M39 754h270l111 331v359h-373v-363h129zM596 754h268l115 325v365h-377v-363h131z" />
<glyph unicode="&#x201e;" horiz-adv-x="1024" d="M39 -328h268l113 328v365h-373v-365h129zM594 -328h270l115 326v367h-379v-365h129z" />
<glyph unicode="&#x2022;" horiz-adv-x="681" d="M25 723q0 -92 50 -172t134 -119q16 -8 52 -18.5t87 -10.5q94 0 171 47.5t114 137.5q18 41 22 78t4 55q0 68 -19 118t-47 84.5t-58.5 56t-53.5 32.5q-16 8 -51 18t-84 10q-66 0 -124 -24.5t-102 -67.5t-69.5 -100t-25.5 -125z" />
<glyph unicode="&#x2026;" horiz-adv-x="2048" d="M178 152q0 -37 12.5 -65t30 -46t34.5 -28.5t30 -14.5q20 -8 34.5 -9t22.5 -1q72 0 117 48t45 118q0 68 -46 114.5t-114 46.5q-70 0 -118 -48t-48 -115zM862 152q0 -55 29 -96.5t80 -57.5q8 -4 21.5 -7t33.5 -3q70 0 116 48t46 118q-2 68 -48 114.5t-114 46.5 q-47 0 -88 -24.5t-61 -69.5q-4 -10 -9.5 -27.5t-5.5 -41.5zM1544 152q0 -37 12.5 -65t29 -46t34.5 -28.5t31 -14.5q20 -8 33.5 -9t23.5 -1q70 0 116 48t46 118q0 68 -47 114.5t-115 46.5t-116 -48t-48 -115z" />
<glyph unicode="&#x202f;" horiz-adv-x="406" />
<glyph unicode="&#x205f;" horiz-adv-x="507" />
<glyph unicode="&#x2122;" horiz-adv-x="1579" d="M57 1249h93q2 2 10 31t24 51q8 12 19.5 16.5t38.5 6.5h39v-414q0 -14 -1 -41t-18 -35q-16 -6 -39 -6l-33 -4v-88q35 2 67 3t67 1q53 0 103 -1t103 -3v88l-41 4q-10 0 -22 2t-18 12q-8 10 -7.5 25.5t-1.5 42.5v414h39q10 0 23.5 -2t23.5 -9q8 -6 15.5 -18t13.5 -26.5 t10 -28t6 -21.5h93q-4 49 -6.5 98.5t-4.5 98.5q-55 -2 -112 -2q-55 0 -111 -2q-92 0 -181 1t-181 3q-2 -49 -4.5 -98.5t-6.5 -98.5zM682 766q133 2 268 0v88h-18q-18 4 -30.5 5t-18.5 9q-8 8 -9.5 13.5t-1.5 15.5v270l162 -401h70l162 399v-266q0 -18 -7.5 -31.5 t-44.5 -13.5h-12v-88q29 2 56.5 3t56.5 1q43 0 85 -1t85 -3v88l-19 2q-37 2 -41 16.5t-4 30.5v397v11q0 8 2 17t9.5 16.5t21.5 9.5q8 2 25 2l18 2v88q-109 -4 -215 0l-190 -455l-185 455q-18 0 -37.5 -1t-40.5 -1q-35 -2 -67.5 -1t-67.5 3l-2 -88q27 0 34 -2t24 -6l6 -7 v-405q-2 -23 -3 -44.5t-20 -31.5q-8 -4 -16 -4l-35 -6v-86z" />
<glyph unicode="&#x25fc;" horiz-adv-x="1044" d="M0 0v1044h1044v-1044h-1044z" />
<glyph unicode="&#xfb01;" horiz-adv-x="1536" d="M16 809h146v-569h-131v-238h717v238h-173v569h193v238h-193q2 88 14.5 136t51.5 66q29 14 60.5 16.5t39.5 2.5q31 0 59.5 -3t37.5 -5v249q-59 14 -109.5 22.5t-116.5 8.5t-111.5 -9t-70.5 -15q-53 -16 -84 -31t-49 -31q-29 -20 -45 -39.5t-25 -32.5q-53 -76 -60 -159.5 t-5 -175.5h-146v-238zM850 2h641v238h-107v807h-532v-238h119v-569h-121v-238zM973 1161h409v336h-409v-336z" />
<glyph unicode="&#xfb02;" horiz-adv-x="1536" d="M16 809h146v-569h-131v-238h717v238h-173v569h193v238h-193q2 88 14.5 136t51.5 66q29 14 60.5 16.5t39.5 2.5q31 0 59.5 -3t37.5 -5v249q-59 14 -109.5 22.5t-116.5 8.5t-111.5 -9t-70.5 -15q-53 -16 -84 -31t-49 -31q-29 -20 -45 -39.5t-25 -32.5q-53 -76 -60 -159.5 t-5 -175.5h-146v-238zM844 2h643v238h-111v1253h-530v-236h119v-1019h-121v-236z" />
</font>
</defs>
</svg>
