<svg id="Layer_1" data-name="Layer 1" xmlns="http://www.w3.org/2000/svg" viewBox="0 0 179.34 183.87"><title>new_icons</title><path d="M89.26,148.75a0.65,0.65,0,0,0,.65-0.65v-6.46a0.65,0.65,0,1,0-1.29,0v6.46a0.65,0.65,0,0,0,.65.65M97,150a0.65,0.65,0,0,0,.65-0.65v-6.46a0.65,0.65,0,1,0-1.29,0v6.46A0.65,0.65,0,0,0,97,150m-3.88-1.29a0.65,0.65,0,0,0,.65-0.65v-3.88a0.65,0.65,0,1,0-1.29,0v3.88a0.65,0.65,0,0,0,.65.65m9,5.82H100.9v-1.94a1.29,1.29,0,0,0-1.29-1.29H78.92a1.29,1.29,0,0,0-1.29,1.29v7.76A9,9,0,0,0,82,168.14H78.28a0.65,0.65,0,1,0,0,1.29h22a0.65,0.65,0,1,0,0-1.29H96.5a9.06,9.06,0,0,0,4.19-5.82h1.51a3.88,3.88,0,1,0,0-7.76M91.85,168.14H86.68a7.73,7.73,0,0,1-5.77-2.59H97.62a7.73,7.73,0,0,1-5.77,2.59m7.76-7.76a7.71,7.71,0,0,1-1,3.88H80a7.7,7.7,0,0,1-1-3.88v-7.76H99.6v7.76Zm2.59,0.65h-1.32c0-.21,0-0.43,0-0.65v-4.52h1.29a2.59,2.59,0,1,1,0,5.17M81.51,148.75a0.65,0.65,0,0,0,.65-0.65v-3.88a0.65,0.65,0,1,0-1.29,0v3.88a0.65,0.65,0,0,0,.65.65M85.39,150A0.65,0.65,0,0,0,86,149.4v-6.46a0.65,0.65,0,1,0-1.29,0v6.46a0.65,0.65,0,0,0,.65.65" fill="#f2ebeb"/><path d="M36.83,100.9a18.64,18.64,0,1,1-18.64,18.64A18.66,18.66,0,0,1,36.83,100.9m0-2a20.64,20.64,0,1,0,20.64,20.64A20.66,20.66,0,0,0,36.83,98.9h0Z" fill="#f2ebeb"/><path d="M36.83,143.4c16.17,0,29.33,14.67,29.33,32.71,0,0.68-2.15,2.77-12,4.29a149.66,149.66,0,0,1-20.56,1.47,94.5,94.5,0,0,1-18.69-1.57c-2.78-.6-7.45-2-7.45-4.18,0-18,13.16-32.71,29.33-32.71m0-2C19.54,141.4,5.49,157,5.49,176.11c0,2.81,3,4.82,9,6.14a96.66,96.66,0,0,0,19.12,1.62c9.61,0,34.53-1.4,34.53-7.76,0-19.14-14.06-34.71-31.33-34.71h0Z" fill="#f2ebeb"/><path d="M87.21,69.18H0.5v-58H87.21v58Zm-84.71-2H85.21v-54H2.5v54Z" fill="#f2ebeb"/><rect x="30.19" y="76.75" width="27.33" height="2" fill="#f2ebeb"/><rect x="42.85" y="68.18" width="2" height="9.56" fill="#f2ebeb"/><rect x="1.5" y="56.25" width="85.01" height="2" fill="#f2ebeb"/><polygon points="34.14 46.39 33.08 45.33 42.85 35.56 32.88 25.58 33.94 24.52 44.98 35.56 34.14 46.39" fill="#f2ebeb"/><rect x="42" y="47.97" width="13" height="1" fill="#f2ebeb"/><path d="M143.83,100.9a18.64,18.64,0,1,1-18.64,18.64,18.66,18.66,0,0,1,18.64-18.64m0-2a20.64,20.64,0,1,0,20.64,20.64A20.66,20.66,0,0,0,143.83,98.9h0Z" fill="#f2ebeb"/><path d="M143.83,143.4c16.17,0,29.33,14.67,29.33,32.71,0,0.68-2.15,2.77-12,4.29a149.66,149.66,0,0,1-20.56,1.47,94.5,94.5,0,0,1-18.69-1.57c-2.78-.6-7.45-2-7.45-4.18,0-18,13.16-32.71,29.33-32.71m0-2c-17.28,0-31.33,15.57-31.33,34.71,0,2.81,3,4.82,9,6.14a96.66,96.66,0,0,0,19.12,1.62c9.61,0,34.53-1.4,34.53-7.76,0-19.14-14.06-34.71-31.33-34.71h0Z" fill="#f2ebeb"/><path d="M178.95,69.18H92.24v-58h86.71v58Zm-84.71-2h82.71v-54H94.24v54Z" fill="#f2ebeb"/><rect x="121.93" y="76.75" width="27.32" height="2" fill="#f2ebeb"/><rect x="134.59" y="68.18" width="2" height="9.56" fill="#f2ebeb"/><rect x="93.24" y="56.25" width="85.01" height="2" fill="#f2ebeb"/><rect x="94" y="32.97" width="85" height="1" fill="#f2ebeb"/><rect x="120" y="21.97" width="32" height="1" fill="#f2ebeb"/><path d="M124,52H105V38h19V52Zm-18-1h17V39H106V51Z" fill="#f2ebeb"/><rect x="134" y="43.97" width="33" height="1" fill="#f2ebeb"/><rect x="134" y="48.97" width="33" height="1" fill="#f2ebeb"/><rect x="134" y="38.97" width="33" height="1" fill="#f2ebeb"/></svg>