<svg id="Layer_1" data-name="Layer 1" xmlns="http://www.w3.org/2000/svg" viewBox="0 0 146.65 184.94"><title>ic_metho_thursday</title><path d="M31,140.3a20.64,20.64,0,1,1,20.64-20.64A20.66,20.66,0,0,1,31,140.3h0Z" fill="#666"/><path d="M27.79,184a96.66,96.66,0,0,1-19.12-1.62c-6.06-1.32-9-3.33-9-6.14,0-19.14,14.05-34.71,31.33-34.71s31.33,15.57,31.33,34.71c0,6.36-24.92,7.76-34.53,7.76h0Z" fill="#666"/><rect x="68.5" y="111.79" width="76.79" height="50.78" fill="none" stroke="#666" stroke-miterlimit="10" stroke-width="2"/><line x1="94.51" y1="171.24" x2="119.28" y2="171.24" fill="none" stroke="#666" stroke-miterlimit="10" stroke-width="2"/><line x1="106.9" y1="171.24" x2="106.9" y2="162.57" fill="none" stroke="#666" stroke-miterlimit="10" stroke-width="2"/><line x1="68.5" y1="152.66" x2="145.57" y2="152.66" fill="none" stroke="#666" stroke-miterlimit="10" stroke-width="2"/><line x1="68.65" y1="130.5" x2="145.65" y2="130.5" fill="none" stroke="#666" stroke-miterlimit="10"/><line x1="91.65" y1="120.5" x2="121.65" y2="120.5" fill="none" stroke="#666" stroke-miterlimit="10"/><rect x="80.15" y="135.5" width="16" height="12" fill="none" stroke="#666" stroke-miterlimit="10"/><line x1="104.65" y1="140.5" x2="135.65" y2="140.5" fill="none" stroke="#666" stroke-miterlimit="10"/><line x1="104.65" y1="144.5" x2="135.65" y2="144.5" fill="none" stroke="#666" stroke-miterlimit="10"/><line x1="104.65" y1="135.5" x2="135.65" y2="135.5" fill="none" stroke="#666" stroke-miterlimit="10"/><path d="M31.68,22.31h3.11a0.61,0.61,0,0,0,0-1.23H31.68a0.61,0.61,0,1,0,0,1.23h0Zm0,0" fill="#666"/><path d="M44.51,51.12a2.41,2.41,0,0,0-3.44,0l-2.52,2.52a1.68,1.68,0,0,1-2.87-1.19V49.6h3.26a2.42,2.42,0,0,0,2.42-2.42V21.7a2.42,2.42,0,0,0-2.42-2.42H27.52a2.42,2.42,0,0,0-2.42,2.42V43.48a2.4,2.4,0,0,0-1.38,2.17V46a2.4,2.4,0,0,0-3.57,2.09v6.72a11.82,11.82,0,0,0,2.63,7.42,0.61,0.61,0,0,0,1-.77,10.59,10.59,0,0,1-2.36-6.65V48.11a1.17,1.17,0,0,1,2.35,0v2.37a0.61,0.61,0,1,0,1.23,0V45.66a1.17,1.17,0,0,1,2.35,0v4.07a0.61,0.61,0,1,0,1.23,0V45.11a1.17,1.17,0,1,1,2.35,0v5.2a0.61,0.61,0,1,0,1.23,0V37a1.17,1.17,0,0,1,2.35,0V52.42a2.91,2.91,0,0,0,5,2.06L41.94,52a1.16,1.16,0,0,1,.85-0.35,1.18,1.18,0,0,1,.86,2l-4.38,4.74a10.3,10.3,0,0,1-6,3.17,0.61,0.61,0,0,0,.09,1.22h0.1a11.53,11.53,0,0,0,6.67-3.55l4.38-4.74a2.41,2.41,0,0,0,0-3.32h0Zm-5.57-2.74H35.68V44.84h4.45v2.34a1.19,1.19,0,0,1-1.19,1.19h0ZM27.52,20.52H38.94a1.19,1.19,0,0,1,1.19,1.19v1.4H26.33V21.7a1.19,1.19,0,0,1,1.19-1.19h0Zm-1.19,3.81M40.13,43.62H35.68V37a2.4,2.4,0,0,0-2.4-2.4h0a2.4,2.4,0,0,0-2.4,2.4v6a2.4,2.4,0,0,0-3.2.81,2.39,2.39,0,0,0-1.34-.56V24.33H40.13V43.62Zm-6.85-9" fill="#666"/><path d="M14.54,0.06h97a6,6,0,0,1,6,6v69a6,6,0,0,1-6,6h-74l-7.31,7.31-6.4-7.31H14.54a6,6,0,0,1-6-6v-69A6,6,0,0,1,14.54.06Z" fill="none" stroke="#666" stroke-miterlimit="10" stroke-width="2"/><line x1="82.82" y1="25.63" x2="105.15" y2="25.63" fill="none" stroke="#666" stroke-miterlimit="10" stroke-width="1.5"/><polyline points="69.22 21.39 72.87 25.05 82.82 15.09" fill="none" stroke="#666" stroke-miterlimit="10" stroke-width="1.5"/><line x1="82.82" y1="46.52" x2="105.15" y2="46.52" fill="none" stroke="#666" stroke-miterlimit="10" stroke-width="1.5"/><polyline points="69.22 43.39 72.87 47.05 82.82 37.09" fill="none" stroke="#666" stroke-miterlimit="10" stroke-width="1.5"/><line x1="83.36" y1="67.42" x2="105.7" y2="67.42" fill="none" stroke="#666" stroke-miterlimit="10" stroke-width="1.5"/><polyline points="69.22 65.39 72.87 69.05 82.82 59.09" fill="none" stroke="#666" stroke-miterlimit="10" stroke-width="1.5"/></svg>