<?xml version="1.0" encoding="UTF-8" standalone="no"?>
<!-- Created with Inkscape (http://www.inkscape.org/) -->

<svg
   xmlns:dc="http://purl.org/dc/elements/1.1/"
   xmlns:cc="http://creativecommons.org/ns#"
   xmlns:rdf="http://www.w3.org/1999/02/22-rdf-syntax-ns#"
   xmlns:svg="http://www.w3.org/2000/svg"
   xmlns="http://www.w3.org/2000/svg"
   xmlns:sodipodi="http://sodipodi.sourceforge.net/DTD/sodipodi-0.dtd"
   xmlns:inkscape="http://www.inkscape.org/namespaces/inkscape"
   width="42.333332mm"
   height="42.333046mm"
   viewBox="0 0 150 149.99898"
   id="svg4778"
   version="1.1"
   inkscape:version="0.91 r13725"
   sodipodi:docname="continual-improvement.svg">
  <defs
     id="defs4780" />
  <sodipodi:namedview
     id="base"
     pagecolor="#ffffff"
     bordercolor="#666666"
     borderopacity="1.0"
     inkscape:pageopacity="0.0"
     inkscape:pageshadow="2"
     inkscape:zoom="1.3616759"
     inkscape:cx="38.221868"
     inkscape:cy="10.890681"
     inkscape:document-units="px"
     inkscape:current-layer="layer1"
     showgrid="false"
     borderlayer="false"
     showborder="true"
     fit-margin-top="0"
     fit-margin-left="0"
     fit-margin-right="0"
     fit-margin-bottom="0"
     inkscape:window-width="1920"
     inkscape:window-height="1011"
     inkscape:window-x="0"
     inkscape:window-y="27"
     inkscape:window-maximized="1" />
  <metadata
     id="metadata4783">
    <rdf:RDF>
      <cc:Work
         rdf:about="">
        <dc:format>image/svg+xml</dc:format>
        <dc:type
           rdf:resource="http://purl.org/dc/dcmitype/StillImage" />
        <dc:title></dc:title>
      </cc:Work>
    </rdf:RDF>
  </metadata>
  <g
     inkscape:label="Layer 1"
     inkscape:groupmode="layer"
     id="layer1"
     transform="translate(-5.68098,-38.110193)">
    <g
       id="g5651"
       transform="matrix(0.81751987,0,0,0.81751985,-97.484202,-52.75387)">
      <g
         transform="matrix(1.25,0,0,-1.25,308.14564,202.88627)"
         id="g564">
        <path
           inkscape:connector-curvature="0"
           id="path566"
           style="fill:none;stroke:#666666;stroke-width:2.44642377;stroke-linecap:butt;stroke-linejoin:miter;stroke-miterlimit:10;stroke-dasharray:none;stroke-opacity:1"
           d="m 0,0 c 0,-39.858 -32.311,-72.169 -72.169,-72.169 -39.858,0 -72.17,32.311 -72.17,72.169 0,39.858 32.312,72.169 72.17,72.169 C -32.311,72.169 0,39.858 0,0 Z" />
      </g>
      <g
         transform="matrix(1.25,0,0,-1.25,209.77774,183.66397)"
         id="g568">
        <path
           inkscape:connector-curvature="0"
           id="path570"
           style="fill:#666666;fill-opacity:1;fill-rule:nonzero;stroke:none"
           d="m 0,0 c -0.193,0 -0.387,0.032 -0.577,0.103 l -13.625,5.086 3.017,14.225 c 0.19,0.893 1.068,1.462 1.959,1.274 0.894,-0.19 1.465,-1.068 1.275,-1.958 L -10.378,7.29 0.577,3.201 C 1.432,2.881 1.865,1.93 1.546,1.075 1.3,0.41 0.668,0 0,0" />
      </g>
      <g
         transform="matrix(1.25,0,0,-1.25,256.03664,206.76917)"
         id="g572">
        <path
           inkscape:connector-curvature="0"
           id="path574"
           style="fill:#666666;fill-opacity:1;fill-rule:nonzero;stroke:none"
           d="m 0,0 c -0.91,0 -1.652,0.739 -1.652,1.652 0,15.767 -12.827,28.594 -28.594,28.594 -6.193,0 -12.082,-1.942 -17.039,-5.624 -0.733,-0.545 -1.765,-0.394 -2.31,0.342 -0.546,0.73 -0.391,1.766 0.342,2.311 5.527,4.107 12.1,6.276 19.007,6.276 17.59,0 31.898,-14.308 31.898,-31.899 C 1.652,0.739 0.913,0 0,0" />
      </g>
      <g
         transform="matrix(1.25,0,0,-1.25,217.64334,240.94727)"
         id="g576">
        <path
           inkscape:connector-curvature="0"
           id="path578"
           style="fill:#666666;fill-opacity:1;fill-rule:nonzero;stroke:none"
           d="m 0,0 c -17.59,0 -31.902,14.312 -31.902,31.903 0,0.912 0.74,1.652 1.652,1.652 0.913,0 1.653,-0.74 1.653,-1.652 0,-15.767 12.827,-28.599 28.597,-28.599 6.189,0 12.082,1.947 17.035,5.629 0.733,0.542 1.769,0.39 2.311,-0.342 C 19.891,7.858 19.74,6.822 19.007,6.28 13.48,2.172 6.906,0 0,0" />
      </g>
      <g
         transform="matrix(1.25,0,0,-1.25,238.05434,248.01347)"
         id="g580">
        <path
           inkscape:connector-curvature="0"
           id="path582"
           style="fill:#666666;fill-opacity:1;fill-rule:nonzero;stroke:none"
           d="M 0,0 C -0.113,0 -0.23,0.009 -0.345,0.036 -1.239,0.226 -1.807,1.1 -1.617,1.994 l 2.427,11.439 -10.955,4.09 c -0.856,0.318 -1.292,1.271 -0.972,2.126 0.319,0.855 1.268,1.29 2.126,0.971 L 4.634,15.534 1.613,1.31 C 1.449,0.532 0.765,0 0,0" />
      </g>
    </g>
  </g>
</svg>
