<?xml version="1.0" encoding="UTF-8" standalone="no"?>
<!-- Created with Inkscape (http://www.inkscape.org/) -->

<svg
   xmlns:dc="http://purl.org/dc/elements/1.1/"
   xmlns:cc="http://creativecommons.org/ns#"
   xmlns:rdf="http://www.w3.org/1999/02/22-rdf-syntax-ns#"
   xmlns:svg="http://www.w3.org/2000/svg"
   xmlns="http://www.w3.org/2000/svg"
   xmlns:sodipodi="http://sodipodi.sourceforge.net/DTD/sodipodi-0.dtd"
   xmlns:inkscape="http://www.inkscape.org/namespaces/inkscape"
   width="42.333332mm"
   height="42.333046mm"
   viewBox="0 0 150 149.99898"
   id="svg4778"
   version="1.1"
   inkscape:version="0.91 r13725"
   sodipodi:docname="happiness.svg">
  <defs
     id="defs4780" />
  <sodipodi:namedview
     id="base"
     pagecolor="#ffffff"
     bordercolor="#666666"
     borderopacity="1.0"
     inkscape:pageopacity="0.0"
     inkscape:pageshadow="2"
     inkscape:zoom="1"
     inkscape:cx="30.071954"
     inkscape:cy="18.663248"
     inkscape:document-units="px"
     inkscape:current-layer="layer1"
     showgrid="false"
     borderlayer="false"
     showborder="true"
     fit-margin-top="0"
     fit-margin-left="0"
     fit-margin-right="0"
     fit-margin-bottom="0"
     inkscape:window-width="1920"
     inkscape:window-height="1011"
     inkscape:window-x="0"
     inkscape:window-y="27"
     inkscape:window-maximized="1" />
  <metadata
     id="metadata4783">
    <rdf:RDF>
      <cc:Work
         rdf:about="">
        <dc:format>image/svg+xml</dc:format>
        <dc:type
           rdf:resource="http://purl.org/dc/dcmitype/StillImage" />
        <dc:title></dc:title>
      </cc:Work>
    </rdf:RDF>
  </metadata>
  <g
     inkscape:label="Layer 1"
     inkscape:groupmode="layer"
     id="layer1"
     transform="translate(-5.68098,-38.110193)">
    <g
       id="g5797"
       transform="matrix(0.81751987,0,0,0.81751985,-37.313154,38.289496)">
      <g
         transform="matrix(1.25,0,0,-1.25,234.5437,91.520948)"
         id="g592">
        <path
           inkscape:connector-curvature="0"
           id="path594"
           style="fill:none;stroke:#666666;stroke-width:2.44642377;stroke-linecap:butt;stroke-linejoin:miter;stroke-miterlimit:10;stroke-dasharray:none;stroke-opacity:1"
           d="m 0,0 c 0,-39.858 -32.311,-72.169 -72.169,-72.169 -39.858,0 -72.17,32.311 -72.17,72.169 0,39.858 32.312,72.169 72.17,72.169 C -32.311,72.169 0,39.858 0,0 Z" />
      </g>
      <g
         transform="matrix(1.25,0,0,-1.25,144.3317,127.71445)"
         id="g596">
        <path
           inkscape:connector-curvature="0"
           id="path598"
           style="fill:#666666;fill-opacity:1;fill-rule:nonzero;stroke:none"
           d="m 0,0 c -13.501,0 -24.487,10.986 -24.487,24.487 0,0.753 0.608,1.362 1.361,1.362 0.752,0 1.361,-0.609 1.361,-1.362 0,-12.001 9.763,-21.764 21.765,-21.764 12.002,0 21.765,9.763 21.765,21.764 0,0.753 0.609,1.362 1.362,1.362 0.752,0 1.361,-0.609 1.361,-1.362 C 24.488,10.986 13.504,0 0,0" />
      </g>
      <g
         transform="matrix(1.25,0,0,-1.25,117.5113,77.688648)"
         id="g600">
        <path
           inkscape:connector-curvature="0"
           id="path602"
           style="fill:#666666;fill-opacity:1;fill-rule:nonzero;stroke:none"
           d="m 0,0 c -0.162,0 -0.325,0.029 -0.484,0.091 -0.702,0.265 -1.056,1.052 -0.79,1.754 0.077,0.204 1.984,5.044 8.221,5.044 6.214,0 8.232,-4.81 8.315,-5.014 C 15.543,1.178 15.209,0.383 14.512,0.101 13.818,-0.181 13.025,0.154 12.741,0.845 12.672,1.01 11.26,4.166 6.947,4.166 2.568,4.166 1.284,0.914 1.271,0.88 1.066,0.338 0.547,0 0,0" />
      </g>
      <g
         transform="matrix(1.25,0,0,-1.25,171.4082,77.688648)"
         id="g604">
        <path
           inkscape:connector-curvature="0"
           id="path606"
           style="fill:#666666;fill-opacity:1;fill-rule:nonzero;stroke:none"
           d="m 0,0 c -0.537,0 -1.045,0.319 -1.26,0.843 -0.069,0.162 -1.478,3.323 -5.796,3.323 -4.31,0 -5.623,-3.161 -5.68,-3.297 -0.276,-0.693 -1.06,-1.039 -1.759,-0.768 -0.695,0.271 -1.046,1.045 -0.782,1.744 0.079,0.204 1.986,5.044 8.221,5.044 6.216,0 8.234,-4.81 8.317,-5.014 C 1.542,1.175 1.205,0.383 0.508,0.101 0.34,0.035 0.168,0 0,0" />
      </g>
      <g
         transform="matrix(1.25,0,0,-1.25,191.4732,92.145948)"
         id="g608">
        <path
           inkscape:connector-curvature="0"
           id="path610"
           style="fill:none;stroke:#666666;stroke-width:2.44642377;stroke-linecap:butt;stroke-linejoin:miter;stroke-miterlimit:10;stroke-dasharray:none;stroke-opacity:1"
           d="m 0,0 c 0,-20.828 -16.885,-37.713 -37.713,-37.713 -20.828,0 -37.713,16.885 -37.713,37.713 0,20.828 16.885,37.713 37.713,37.713 C -16.885,37.713 0,20.828 0,0 Z" />
      </g>
    </g>
  </g>
</svg>
