<svg id="Layer_1" data-name="Layer 1" xmlns="http://www.w3.org/2000/svg" viewBox="0 0 146.34 146.34"><title>ic</title><circle cx="73.17" cy="73.17" r="72.17" fill="none" stroke="#666" stroke-miterlimit="10" stroke-width="2"/><path d="M73.16,72.26A7.9,7.9,0,0,0,68,86.11v7.34a5.22,5.22,0,0,0,10.44,0V86.11a7.91,7.91,0,0,0-5.23-13.85h0Zm3.07,12.12-0.54.4v8.67a2.51,2.51,0,0,1-5,0V84.78l-0.56-.4A5.16,5.16,0,0,1,68,80.18a5.21,5.21,0,0,1,10.42,0,5.13,5.13,0,0,1-2.14,4.2h0Zm0,0" fill="#666"/><path d="M92.25,59.37a1.84,1.84,0,0,0-.31,0H55.73V54.87a17.43,17.43,0,0,1,33.65-6.38,1.36,1.36,0,0,0,2.52-1A20.14,20.14,0,0,0,53,54.87v4.65a8.08,8.08,0,0,0-6.36,7.88v36.12a8.09,8.09,0,0,0,8.08,8.08H91.59a8.09,8.09,0,0,0,8.08-8.08V67.4a8.07,8.07,0,0,0-7.42-8h0Zm4.7,44.15a5.37,5.37,0,0,1-5.36,5.38H54.74a5.38,5.38,0,0,1-5.37-5.38V67.4a5.34,5.34,0,0,1,5.08-5.34l0.28,0H91.87a5.36,5.36,0,0,1,5.08,5.36v36.12Zm0,0" fill="#666"/></svg>