<?xml version="1.0" encoding="UTF-8" standalone="no"?>
<svg width="90px" height="66px" viewBox="0 0 90 66" version="1.1" xmlns="http://www.w3.org/2000/svg" xmlns:xlink="http://www.w3.org/1999/xlink" xmlns:sketch="http://www.bohemiancoding.com/sketch/ns">
    <!-- Generator: sketchtool 3.4.4 (395) - http://www.bohemiancoding.com/sketch -->
    <title>ic-talk</title>
    <desc>Created with sketchtool.</desc>
    <defs></defs>
    <g id="contact" stroke="none" stroke-width="1" fill="none" fill-rule="evenodd" sketch:type="MSPage">
        <g id="contact_desktop" sketch:type="MSArtboardGroup" transform="translate(-337.000000, -881.000000)">
            <g id="contact-section" sketch:type="MSLayerGroup" transform="translate(0.000000, 801.000000)">
                <g id="For-general-inquirie-+-Wanna-say-hi?-+-ic-talk" transform="translate(223.000000, 81.000000)" sketch:type="MSShapeGroup">
                    <g id="ic-talk" transform="translate(115.000000, 0.000000)">
                        <path d="M46.3817747,38 L46.3817747,29.4891857 L50.5174243,18 L56,18 L51.6858421,29.4891857 L55.9088734,29.4891857 L55.9088734,38 L46.3817747,38 Z M32,38 L32,29.4891857 L36.1356496,18 L41.6182253,18 L37.3040674,29.4891857 L41.528347,29.4891857 L41.528347,38 L32,38 Z" id="Fill-1" fill="#373131"></path>
                        <path d="M88,0.438119894 L0.808988764,0.438119894 L6.20224719,54.7617273 L52.7119101,54.5598246 L73.8310112,63.0949687 L70.108764,54.4837715 L82.6094382,54.4294479 L88,0.438119894 L88,0.438119894 Z" id="Stroke-2" stroke="#373131" stroke-width="2" stroke-linecap="round" stroke-linejoin="round"></path>
                    </g>
                </g>
            </g>
        </g>
    </g>
</svg>