<svg id="Layer_1" data-name="Layer 1" xmlns="http://www.w3.org/2000/svg" viewBox="0 0 146.34 146.34"><title>ic</title><circle cx="73.17" cy="73.17" r="72.17" fill="none" stroke="#666" stroke-miterlimit="10" stroke-width="2"/><polygon points="97.48 48.97 97.48 44.97 49.48 44.97 49.48 48.97 45.48 48.97 45.48 96.97 49.48 96.97 49.48 100.97 97.48 100.97 97.48 96.97 101.48 96.97 101.48 48.97 97.48 48.97" fill="none" stroke="#666" stroke-miterlimit="10" stroke-width="2"/><polygon points="97.48 100.52 97.48 104.97 105.48 104.97 105.48 96.97 102.34 96.97 97.48 96.97 97.48 100.52" fill="none" stroke="#666" stroke-miterlimit="10" stroke-width="2"/><polygon points="45.73 96.97 41.48 96.97 41.48 104.97 49.48 104.97 49.48 100.52 49.48 96.97 45.73 96.97" fill="none" stroke="#666" stroke-miterlimit="10" stroke-width="2"/><polygon points="102.34 48.97 105.48 48.97 105.48 40.97 97.48 40.97 97.48 43.91 97.48 48.97 102.34 48.97" fill="none" stroke="#666" stroke-miterlimit="10" stroke-width="2"/><polygon points="49.48 43.91 49.48 40.97 41.48 40.97 41.48 48.97 45.73 48.97 49.48 48.97 49.48 43.91" fill="none" stroke="#666" stroke-miterlimit="10" stroke-width="2"/></svg>