<?xml version="1.0" encoding="UTF-8" standalone="no"?>
<svg width="40px" height="39px" viewBox="0 0 40 39" version="1.1" xmlns="http://www.w3.org/2000/svg" xmlns:xlink="http://www.w3.org/1999/xlink" xmlns:sketch="http://www.bohemiancoding.com/sketch/ns">
    <!-- Generator: sketchtool 3.5.2 (25235) - http://www.bohemiancoding.com/sketch -->
    <title>ic_zoom</title>
    <desc>Created with sketchtool.</desc>
    <defs></defs>
    <g id="portfolio" stroke="none" stroke-width="1" fill="none" fill-rule="evenodd" sketch:type="MSPage">
        <g id="portfolio-depoimentos" sketch:type="MSArtboardGroup" transform="translate(-762.000000, -489.000000)" fill="#F2EBEB">
            <g id="cases" sketch:type="MSLayerGroup" transform="translate(0.000000, -59.000000)">
                <g id="02_hover" transform="translate(528.000000, 421.000000)" sketch:type="MSShapeGroup">
                    <g id="icons" transform="translate(110.000000, 127.000000)">
                        <path d="M145.142373,18.25 L145.142373,2.26266667 C145.142373,1.01533333 145.112542,0 143.844068,0 C142.572881,0 142.542373,1.01533333 142.542373,2.26266667 L142.542373,18.25 L126.301695,18.25 C125.030508,18.25 124,18.2626667 124,19.5126667 C124,20.7626667 125.030508,20.7733333 126.301695,20.7733333 L142.542373,20.7733333 L142.542373,36.76 C142.542373,38.0126667 142.572881,39.0233333 143.844068,39.0233333 C145.112542,39.0233333 145.142373,38.0126667 145.142373,36.76 L145.142373,20.7733333 L161.383729,20.7733333 C162.654915,20.7733333 163.684746,20.7626667 163.684746,19.5126667 C163.684746,18.2626667 162.654915,18.25 161.383729,18.25 L145.142373,18.25 Z" id="ic_zoom"></path>
                    </g>
                </g>
            </g>
        </g>
    </g>
</svg>