<?xml version="1.0" encoding="utf-8"?>
<svg width="100%" height="100%" viewBox="0 0 162 162" version="1.1" xmlns="http://www.w3.org/2000/svg" xmlns:xlink="http://www.w3.org/1999/xlink" xmlns:sketch="http://www.bohemiancoding.com/sketch/ns">
    <!-- Generator: Sketch 3.4.4 (17249) - http://www.bohemiancoding.com/sketch -->
    <title>icon-service3</title>
    <desc>Created with Sketch.</desc>
    <defs></defs>
    <g id="landing" stroke="none" stroke-width="1" fill="none" fill-rule="evenodd" sketch:type="MSPage">
        <g id="landing_page" sketch:type="MSArtboardGroup" transform="translate(-1050.000000, -1078.000000)" stroke="#444141" stroke-width="2">
            <g id="our-services1" sketch:type="MSLayerGroup" transform="translate(0.000000, 768.000000)">
                <g id="content" transform="translate(70.000000, 60.000000)" sketch:type="MSShapeGroup">
                    <g id="services" transform="translate(0.000000, 251.000000)">
                        <g id="strategy" transform="translate(896.000000, 0.000000)">
                            <g id="icon-service3" transform="translate(85.000000, 0.000000)">
                                <path d="M67.4875112,110.712241 L92.5331898,107.114092 C92.5331898,99.2804157 103.266895,89.6277122 103.266895,76.3824028 C103.266895,63.550559 92.9212215,53.1474099 80.1591695,53.1474099 C67.3971175,53.1474099 57.0514443,63.550559 57.0514443,76.3824028 C57.0514443,89.5113211 67.4875112,99.1606991 67.4875112,106.995484 L67.4875112,110.712241 L67.4875112,110.712241 Z" id="Stroke-1"></path>
                                <path d="M69.1833859,115.884108 L92.0607172,112.399025" id="Stroke-3"></path>
                                <path d="M69.1833859,120.531328 L92.0607172,117.046245" id="Stroke-5"></path>
                                <path d="M89.0554563,124.016854 C89.0554563,125.942296 85.2280532,127.501937 80.5066342,127.501937 C75.7852151,127.501937 71.9567097,125.942296 71.9567097,124.016854" id="Stroke-7"></path>
                                <path d="M77.0286801,102.092425 C77.0286801,87.2209655 72.7647415,81.9600869 72.7647415,81.9600869 C72.7647415,84.0130046 74.4215925,85.6768433 76.4631681,85.6768433 C78.505846,85.6768433 80.1604923,84.0130046 80.1604923,81.9600869 C80.1604923,84.0130046 81.8151386,85.6768433 83.8589189,85.6768433 C85.8993921,85.6768433 87.5562431,84.0130046 87.5562431,81.9600869 C87.5562431,81.9600869 84.1874229,90.0099184 84.1874229,102.092425" id="Stroke-9"></path>
                                <path d="M80.6716579,33.3353135 L80.6716579,47.7456426" id="Stroke-11"></path>
                                <path d="M98.6376331,37.061492 L91.484402,49.5264267" id="Stroke-13"></path>
                                <path d="M111.387008,47.1990477 L100.202437,56.1788997" id="Stroke-15"></path>
                                <path d="M62.4896196,37.061492 L69.6428506,49.5264267" id="Stroke-17"></path>
                                <path d="M49.7402447,47.1990477 L60.9248158,56.1788997" id="Stroke-19"></path>
                                <path d="M159.840034,80.0012798 C159.840034,124.183349 124.221595,159.999667 80.2836262,159.999667 C36.3456571,159.999667 0.726116233,124.183349 0.726116233,80.0012798 C0.726116233,35.8192108 36.3456571,0.00289214297 80.2836262,0.00289214297 C124.221595,0.00289214297 159.840034,35.8192108 159.840034,80.0012798 L159.840034,80.0012798 Z" id="Stroke-21"></path>
                            </g>
                        </g>
                    </g>
                </g>
            </g>
        </g>
    </g>
</svg>