<?xml version="1.0" encoding="utf-8"?>
<svg width="100%" height="100%" viewBox="0 0 162 162" version="1.1" xmlns="http://www.w3.org/2000/svg" xmlns:xlink="http://www.w3.org/1999/xlink" xmlns:sketch="http://www.bohemiancoding.com/sketch/ns">
    <!-- Generator: Sketch 3.4.4 (17249) - http://www.bohemiancoding.com/sketch -->
    <title>icon-service2</title>
    <desc>Created with Sketch.</desc>
    <defs></defs>
    <g id="landing" stroke="none" stroke-width="1" fill="none" fill-rule="evenodd" sketch:type="MSPage">
        <g id="landing_page" sketch:type="MSArtboardGroup" transform="translate(-602.000000, -1080.000000)">
            <g id="our-services1" sketch:type="MSLayerGroup" transform="translate(0.000000, 768.000000)">
                <g id="content" transform="translate(70.000000, 60.000000)" sketch:type="MSShapeGroup">
                    <g id="services" transform="translate(0.000000, 251.000000)">
                        <g id="ux" transform="translate(448.000000, 2.000000)">
                            <g id="icon-service2" transform="translate(85.000000, 0.000000)">
                                <path d="M159.270179,80.3649103 C159.270179,124.346152 123.616662,159.999669 79.6354207,159.999669 C35.6541793,159.999669 -0.00044137931,124.346152 -0.00044137931,80.3649103 C-0.00044137931,36.383669 35.6541793,0.730151724 79.6354207,0.730151724 C123.616662,0.730151724 159.270179,36.383669 159.270179,80.3649103 L159.270179,80.3649103 Z" id="Stroke-1" stroke="#444141" stroke-width="2"></path>
                                <path d="M77.5904,41.8639448 L83.9992276,41.8639448 C84.6977103,41.8639448 85.2637793,41.2978759 85.2637793,40.6004966 C85.2637793,39.9009103 84.6977103,39.3348414 83.9992276,39.3348414 L77.5904,39.3348414 C76.8919172,39.3348414 76.3258483,39.9009103 76.3258483,40.6004966 C76.3258483,41.2978759 76.8919172,41.8639448 77.5904,41.8639448" id="Fill-3" fill-opacity="0.85" fill="#444141"></path>
                                <path d="M94.9932138,85.7248 L85.8301793,85.7248 L85.8301793,72.1910069 C85.8301793,69.4654897 83.6133517,67.2464552 80.886731,67.2464552 C78.1612138,67.2464552 75.9432828,69.4654897 75.9432828,72.1910069 L75.9432828,84.4955586 C75.2282483,84.0928 74.4039724,83.8621793 73.5278345,83.8621793 C71.7766621,83.8621793 70.2362483,84.7791448 69.3579034,86.1562483 C68.598731,85.5129379 67.6431448,85.0958345 66.5970759,85.0053517 L66.5970759,46.0304552 L94.9932138,46.0304552 L94.9932138,85.7248 Z M69.0390069,38.1772138 L92.5501793,38.1772138 C93.8974897,38.1772138 94.9932138,39.2729379 94.9932138,40.6213517 L94.9932138,43.5013517 L66.5970759,43.5013517 L66.5970759,40.6213517 C66.5970759,39.2729379 67.6928,38.1772138 69.0390069,38.1772138 L69.0390069,38.1772138 Z M92.5391448,95.5256276 L85.8301793,95.5256276 L85.8301793,88.2528 L94.9932138,88.2528 L94.9932138,93.0726621 C94.9932138,94.4243862 93.8930759,95.5256276 92.5391448,95.5256276 L92.5391448,95.5256276 Z M104.006179,101.164248 C103.073766,100.199834 101.821352,99.6635586 100.480662,99.6525241 C99.1311448,99.6436966 97.878731,100.159007 96.9297655,101.106869 L91.7457655,106.291972 C90.5385931,107.499145 89.0036966,107.471559 87.9697655,107.042317 C86.934731,106.614179 85.8301793,105.548248 85.8301793,103.842317 L85.8301793,98.0536276 L92.5391448,98.0536276 C95.286731,98.0536276 97.5212138,95.8191448 97.5212138,93.0715586 L97.5212138,40.6213517 C97.5212138,37.8792828 95.2911448,35.6492138 92.5501793,35.6492138 L69.0390069,35.6492138 C66.2991448,35.6492138 64.0679724,37.8792828 64.0679724,40.6213517 L64.0679724,85.4555586 C62.3896276,86.246731 61.2243862,87.9537655 61.2243862,89.9289379 L61.2243862,90.6671448 C60.5093517,90.2643862 59.6861793,90.034869 58.8100414,90.034869 C56.0834207,90.034869 53.8654897,92.2516966 53.8654897,94.9772138 L53.8654897,108.817766 C53.8654897,114.363697 55.7888,119.790455 59.2812138,124.098317 C59.5328,124.406179 59.8969379,124.566179 60.2643862,124.566179 C60.5446621,124.566179 60.8260414,124.47349 61.0599724,124.283697 C61.602869,123.843421 61.6856276,123.047834 61.2464552,122.506041 C58.1170759,118.646179 56.3934897,113.78549 56.3934897,108.817766 L56.3934897,94.9772138 C56.3934897,93.6464552 57.4770759,92.562869 58.8100414,92.562869 C60.1408,92.562869 61.2243862,93.6464552 61.2243862,94.9772138 L61.2243862,99.8555586 C61.2243862,100.552938 61.7904552,101.119007 62.4889379,101.119007 C63.1863172,101.119007 63.7523862,100.552938 63.7523862,99.8555586 L63.7523862,89.9289379 C63.7523862,88.5981793 64.8359724,87.5145931 66.1689379,87.5145931 C67.4996966,87.5145931 68.5832828,88.5981793 68.5832828,89.9289379 L68.5832828,98.3151448 C68.5832828,99.0136276 69.1493517,99.5796966 69.8478345,99.5796966 C70.5452138,99.5796966 71.1112828,99.0136276 71.1112828,98.3151448 L71.1112828,88.806731 C71.1112828,87.4737655 72.194869,86.3901793 73.5278345,86.3901793 C74.8596966,86.3901793 75.9432828,87.4737655 75.9432828,88.806731 L75.9432828,99.5134897 C75.9432828,100.210869 76.5082483,100.776938 77.206731,100.776938 C77.9052138,100.776938 78.4701793,100.210869 78.4701793,99.5134897 L78.4701793,72.1910069 C78.4701793,70.8591448 79.5537655,69.7755586 80.886731,69.7755586 C82.2185931,69.7755586 83.3021793,70.8591448 83.3021793,72.1910069 L83.3021793,103.842317 C83.3021793,106.311834 84.7190069,108.433766 87.0009379,109.378317 C89.282869,110.323972 91.7854897,109.826317 93.5322483,108.080662 L98.7162483,102.894455 C99.1819034,102.429903 99.7943172,102.171697 100.459697,102.181628 C101.117352,102.186041 101.731972,102.450869 102.189903,102.923145 C103.089214,103.851145 103.106869,105.322041 102.229628,106.27211 L93.2056276,116.035421 C89.9879724,119.517903 85.6337655,121.837352 80.9485241,122.566731 C80.258869,122.673766 79.7865931,123.319283 79.8936276,124.010041 C79.990731,124.634593 80.5292138,125.080386 81.1416276,125.080386 C81.2056276,125.080386 81.2718345,125.074869 81.3380414,125.064938 C86.5849379,124.248386 91.458869,121.650869 95.062731,117.752386 L104.086731,107.987972 C105.874317,106.053628 105.839007,103.055559 104.006179,101.164248 L104.006179,101.164248 Z" id="Fill-5" opacity="0.852728545" fill="#444141"></path>
                            </g>
                        </g>
                    </g>
                </g>
            </g>
        </g>
    </g>
</svg>