<svg data-name="Layer 1" xmlns="http://www.w3.org/2000/svg" viewBox="0 0 169.47 183.87"><title>new_icons</title><path d="M80.28 131.21a1.08 1.08 0 0 1-.38-.07l-9-3.36 2-9.41a1.09 1.09 0 1 1 2.14.45l-1.61 7.57 7.25 2.71a1.09 1.09 0 0 1-.38 2.12zm0 0" fill="#f2ebeb"/><path d="M104.76 143.44a1.09 1.09 0 0 1-1.09-1.09 18.92 18.92 0 0 0-30.19-15.2 1.09 1.09 0 0 1-1.3-1.76 21.11 21.11 0 0 1 33.68 17 1.09 1.09 0 0 1-1.09 1.09zm0 0M84.44 161.53a21.13 21.13 0 0 1-21.11-21.11 1.09 1.09 0 1 1 2.19 0 18.92 18.92 0 0 0 30.19 15.2 1.09 1.09 0 0 1 1.3 1.76 20.93 20.93 0 0 1-12.58 4.16zm0 0" fill="#f2ebeb"/><path d="M95.24 165.27h-.23a1.09 1.09 0 0 1-.84-1.3l1.61-7.57-7.25-2.71a1.09 1.09 0 0 1 .76-2l9 3.37-2 9.41a1.09 1.09 0 0 1-1.07.87zm0 0M31.44 140.17a20.64 20.64 0 1 1 20.64-20.64 20.66 20.66 0 0 1-20.64 20.64zM28.25 183.87a96.66 96.66 0 0 1-19.12-1.62c-6.06-1.32-9-3.33-9-6.14 0-19.14 14.05-34.71 31.33-34.71s31.31 15.6 31.31 34.71c0 6.36-24.92 7.76-34.53 7.76zM138.24 100.9a18.64 18.64 0 1 1-18.64 18.64 18.66 18.66 0 0 1 18.64-18.64m0-2a20.64 20.64 0 1 0 20.64 20.64 20.66 20.66 0 0 0-20.64-20.64z" fill="#f2ebeb"/><path d="M138.24 143.4c16.17 0 29.33 14.67 29.33 32.71 0 .68-2.15 2.77-12 4.29a149.66 149.66 0 0 1-20.57 1.47 94.51 94.51 0 0 1-18.69-1.57c-2.78-.6-7.45-2-7.45-4.18 0-18 13.16-32.71 29.33-32.71m0-2C121 141.4 106.9 157 106.9 176.11c0 2.81 3 4.82 9 6.14a96.66 96.66 0 0 0 19.1 1.62c9.61 0 34.53-1.4 34.53-7.76 0-19.14-14.06-34.71-31.33-34.71zM141.88 24.22H145a.61.61 0 0 0 0-1.22h-3.11a.61.61 0 1 0 0 1.23zm0 0" fill="#f2ebeb"/><path d="M154.71 53a2.41 2.41 0 0 0-3.44 0l-2.52 2.52a1.68 1.68 0 0 1-2.87-1.19v-2.82h3.26a2.42 2.42 0 0 0 2.42-2.42V23.61a2.42 2.42 0 0 0-2.42-2.42h-11.41a2.42 2.42 0 0 0-2.42 2.42v21.78a2.4 2.4 0 0 0-1.38 2.17v.36a2.4 2.4 0 0 0-3.57 2.08v6.72a11.82 11.82 0 0 0 2.64 7.44.61.61 0 0 0 1-.77 10.59 10.59 0 0 1-2.36-6.65V50a1.17 1.17 0 0 1 2.35 0v2.37a.61.61 0 1 0 1.23 0v-4.81a1.17 1.17 0 0 1 2.35 0v4.07a.61.61 0 1 0 1.23 0V47a1.17 1.17 0 1 1 2.35 0v5.2a.61.61 0 1 0 1.23 0V38.95a1.17 1.17 0 0 1 2.35 0v15.37a2.91 2.91 0 0 0 5 2.06l2.52-2.52a1.16 1.16 0 0 1 .85-.35 1.18 1.18 0 0 1 .86 2l-4.38 4.74a10.3 10.3 0 0 1-6 3.17.61.61 0 0 0 .09 1.22h.1a11.53 11.53 0 0 0 6.67-3.55l4.38-4.74a2.41 2.41 0 0 0 0-3.32zm-5.57-2.74h-3.26v-3.51h4.45v2.34a1.19 1.19 0 0 1-1.19 1.19zm-11.41-27.84h11.42a1.19 1.19 0 0 1 1.19 1.19V25h-13.8v-1.4a1.19 1.19 0 0 1 1.19-1.19zm-1.19 3.81l13.79 19.28h-4.45v-6.56a2.4 2.4 0 0 0-2.4-2.4 2.4 2.4 0 0 0-2.4 2.4v6a2.4 2.4 0 0 0-3.2.81 2.39 2.39 0 0 0-1.34-.56V26.24h13.79v19.28zm-6.85-9" fill="#f2ebeb"/><path d="M143.36 91.74L135.58 84H62a7 7 0 0 1-7-7V8a7 7 0 0 1 7-7h97a7 7 0 0 1 7 7v69a7 7 0 0 1-7 7h-8.82zM62 3a5 5 0 0 0-5 5v69a5 5 0 0 0 5 5h74.41l6.85 6.85 6-6.85H159a5 5 0 0 0 5-5V8a5 5 0 0 0-5-5H62z" fill="#f2ebeb"/><path d="M72.12 54.2v-2.91c0-1.86-1.12-4-2.43-6.44-1.76-3.32-3.76-7.09-3.76-11.61a14.32 14.32 0 0 1 28.65 0c0 4.57-2.06 8.36-3.88 11.7-1.33 2.45-2.49 4.57-2.49 6.42v.54zm8.14-34a13.09 13.09 0 0 0-13.07 13.04c0 4.21 1.92 7.83 3.61 11 1.38 2.6 2.57 4.85 2.57 7v1.47L87 50.81c.18-2 1.32-4.09 2.61-6.47 1.75-3.21 3.73-6.85 3.73-11.1a13.09 13.09 0 0 0-13.08-13.08zM73.662 55.907l13.565-2.056.187 1.237-13.565 2.056zM73.662 58.646l13.565-2.056.188 1.236-13.565 2.056zM80.47 64c-2.83 0-5.69-.92-5.69-2.68H76c0 .49 1.57 1.43 4.44 1.43s4.44-.94 4.44-1.43h1.25c.03 1.76-2.83 2.68-5.66 2.68z" fill="#f2ebeb"/><path d="M83.27 48.39H82a37.47 37.47 0 0 1 1.11-9.14 2.82 2.82 0 0 1-2.87-1 2.88 2.88 0 0 1-2.41 1A30.34 30.34 0 0 1 79 48.39h-1.22a26.76 26.76 0 0 0-1.47-9.68 2.81 2.81 0 0 1-1.05-2.19v-1.75l1.11 1.36a7.77 7.77 0 0 1 1 1.78 1.57 1.57 0 0 0 2.31-1.38h1.25a1.57 1.57 0 0 0 2.72 1.06c.25-.79.44-1.25.46-1.3l1.2-2.85v3.1a2.8 2.8 0 0 1-.53 1.65 35.55 35.55 0 0 0-1.51 10.2zM118.6 27.85l-.77.77 8.33 8.33H98.77V38h27.39l-8.33 8.32.77.77 9.64-9.63zm0 0" fill="#f2ebeb"/></svg>