<svg data-name="Layer 1" xmlns="http://www.w3.org/2000/svg" viewBox="0 0 179.34 183.87"><title>new_icons</title><path d="M89.26 148.75a.65.65 0 0 0 .65-.65v-6.46a.65.65 0 1 0-1.29 0v6.46a.65.65 0 0 0 .65.65M97 150a.65.65 0 0 0 .65-.65v-6.46a.65.65 0 1 0-1.29 0v6.46a.65.65 0 0 0 .64.65m-3.88-1.29a.65.65 0 0 0 .65-.65v-3.88a.65.65 0 1 0-1.29 0v3.88a.65.65 0 0 0 .65.65m9 5.82h-1.23v-1.94a1.29 1.29 0 0 0-1.29-1.29H78.92a1.29 1.29 0 0 0-1.29 1.29v7.76a9 9 0 0 0 4.37 7.79h-3.72a.65.65 0 1 0 0 1.29h22a.65.65 0 1 0 0-1.29H96.5a9.06 9.06 0 0 0 4.19-5.82h1.51a3.88 3.88 0 1 0 0-7.76m-10.35 13.58h-5.17a7.73 7.73 0 0 1-5.77-2.59h16.71a7.73 7.73 0 0 1-5.77 2.59m7.76-7.76a7.71 7.71 0 0 1-1 3.88H80a7.7 7.7 0 0 1-1-3.88v-7.76h20.6v7.76zm2.59.65h-1.32v-5.17h1.29a2.59 2.59 0 1 1 0 5.17m-20.66-12.28a.65.65 0 0 0 .65-.65v-3.88a.65.65 0 1 0-1.29 0v3.88a.65.65 0 0 0 .65.65m3.87 1.25a.65.65 0 0 0 .61-.6v-6.46a.65.65 0 1 0-1.29 0v6.46a.65.65 0 0 0 .65.65M36.83 100.9a18.64 18.64 0 1 1-18.64 18.64 18.66 18.66 0 0 1 18.64-18.64m0-2a20.64 20.64 0 1 0 20.64 20.64A20.66 20.66 0 0 0 36.83 98.9z" fill="#f2ebeb"/><path d="M36.83 143.4c16.17 0 29.33 14.67 29.33 32.71 0 .68-2.15 2.77-12 4.29a149.66 149.66 0 0 1-20.56 1.47 94.5 94.5 0 0 1-18.69-1.57c-2.78-.6-7.45-2-7.45-4.18 0-18 13.16-32.71 29.33-32.71m0-2c-17.25-.01-31.3 15.59-31.3 34.7 0 2.81 3 4.82 9 6.14a96.66 96.66 0 0 0 19.12 1.62c9.61 0 34.53-1.4 34.53-7.76 0-19.14-14.06-34.71-31.33-34.71zM87.21 69.18H.5v-58h86.71v58zm-84.71-2h82.71v-54H2.5v54zM30.19 76.75h27.33v2H30.19z" fill="#f2ebeb"/><path fill="#f2ebeb" d="M42.85 68.18h2v9.56h-2zM1.5 56.25h85.01v2H1.5zM34.14 46.39l-1.06-1.06 9.77-9.77-9.97-9.98 1.06-1.06 11.04 11.04-10.84 10.83zM42 47.97h13v1H42zM143.83 100.9a18.64 18.64 0 1 1-18.64 18.64 18.66 18.66 0 0 1 18.64-18.64m0-2a20.64 20.64 0 1 0 20.64 20.64 20.66 20.66 0 0 0-20.64-20.64z"/><path d="M143.83 143.4c16.17 0 29.33 14.67 29.33 32.71 0 .68-2.15 2.77-12 4.29a149.66 149.66 0 0 1-20.56 1.47 94.5 94.5 0 0 1-18.69-1.57c-2.78-.6-7.45-2-7.45-4.18 0-18 13.16-32.71 29.33-32.71m0-2c-17.28 0-31.33 15.57-31.33 34.71 0 2.81 3 4.82 9 6.14a96.66 96.66 0 0 0 19.12 1.62c9.61 0 34.53-1.4 34.53-7.76 0-19.14-14.06-34.71-31.33-34.71zM178.95 69.18H92.24v-58h86.71v58zm-84.71-2h82.71v-54H94.24v54zM121.93 76.75h27.32v2h-27.32z" fill="#f2ebeb"/><path fill="#f2ebeb" d="M134.59 68.18h2v9.56h-2zM93.24 56.25h85.01v2H93.24zM94 32.97h85v1H94zM120 21.97h32v1h-32zM124 52h-19V38h19v14zm-18-1h17V39h-17v12zM134 43.97h33v1h-33zM134 48.97h33v1h-33zM134 38.97h33v1h-33z"/></svg>