<svg data-name="Layer 1" xmlns="http://www.w3.org/2000/svg" viewBox="0 0 146.65 184.94"><title>new_icons</title><path d="M31 140.3a20.64 20.64 0 1 1 20.64-20.64A20.66 20.66 0 0 1 31 140.3zM27.79 184a96.66 96.66 0 0 1-19.12-1.62c-6.06-1.32-9-3.33-9-6.14 0-19.14 14.05-34.71 31.33-34.71s31.33 15.57 31.33 34.71c0 6.36-24.92 7.76-34.53 7.76zM146.29 163.57H67.5v-52.78h78.79v52.78zm-76.79-2h74.79v-48.78H69.5v48.78zM94.51 170.24h24.77v2H94.51z" fill="#f2ebeb"/><path fill="#f2ebeb" d="M105.9 162.57h2v8.67h-2zM68.5 151.66h77.07v2H68.5zM68.65 130h77v1h-77zM91.65 120h30v1h-30zM96.65 148h-17v-13h17v13zm-16-1h15v-11h-15v11zM104.65 140h31v1h-31zM104.65 144h31v1h-31zM104.65 135h31v1h-31zM31.68 22.31h3.11a.61.61 0 0 0 0-1.23h-3.11a.61.61 0 1 0 0 1.23zm0 0"/><path d="M44.51 51.12a2.41 2.41 0 0 0-3.44 0l-2.52 2.52a1.68 1.68 0 0 1-2.87-1.19V49.6h3.26a2.42 2.42 0 0 0 2.42-2.42V21.7a2.42 2.42 0 0 0-2.42-2.42H27.52a2.42 2.42 0 0 0-2.42 2.42v21.78a2.4 2.4 0 0 0-1.38 2.17V46a2.4 2.4 0 0 0-3.57 2.09v6.72a11.82 11.82 0 0 0 2.63 7.42.61.61 0 0 0 1-.77 10.59 10.59 0 0 1-2.36-6.65v-6.7a1.17 1.17 0 0 1 2.35 0v2.37a.61.61 0 1 0 1.23 0v-4.82a1.17 1.17 0 0 1 2.35 0v4.07a.61.61 0 1 0 1.23 0v-4.62a1.17 1.17 0 1 1 2.35 0v5.2a.61.61 0 1 0 1.23 0V37a1.17 1.17 0 0 1 2.35 0v15.42a2.91 2.91 0 0 0 5 2.06L41.94 52a1.16 1.16 0 0 1 .85-.35 1.18 1.18 0 0 1 .86 2l-4.38 4.74a10.3 10.3 0 0 1-6 3.17.61.61 0 0 0 .09 1.22h.1a11.53 11.53 0 0 0 6.67-3.55l4.38-4.74a2.41 2.41 0 0 0 0-3.32zm-5.57-2.74h-3.26v-3.54h4.45v2.34a1.19 1.19 0 0 1-1.19 1.19zM27.52 20.52h11.42a1.19 1.19 0 0 1 1.19 1.19v1.4h-13.8V21.7a1.19 1.19 0 0 1 1.19-1.19zM40.13 43.62h-4.45V37a2.4 2.4 0 0 0-2.4-2.4 2.4 2.4 0 0 0-2.4 2.4v6a2.4 2.4 0 0 0-3.2.81 2.39 2.39 0 0 0-1.34-.56V24.33h13.79v19.29zm-6.85-9" fill="#f2ebeb"/><path d="M30.18 89.84l-6.81-7.78h-8.83a7 7 0 0 1-7-7v-69a7 7 0 0 1 7-7h97a7 7 0 0 1 7 7v69a7 7 0 0 1-7 7H38zM14.54 1.06a5 5 0 0 0-5 5v69a5 5 0 0 0 5 5h9.74l6 6.85 6.85-6.85h74.41a5 5 0 0 0 5-5v-69a5 5 0 0 0-5-5h-97z" fill="#f2ebeb"/><path fill="#f2ebeb" d="M82.82 24.88h22.33v1.5H82.82zM72.87 26.11l-4.18-4.18 1.06-1.07 3.12 3.12 9.42-9.42 1.06 1.07-10.48 10.48zM82.82 45.77h22.33v1.5H82.82zM72.87 48.1l-4.18-4.18 1.06-1.06 3.12 3.12 9.42-9.42 1.06 1.07L72.87 48.1zM83.36 66.67h22.33v1.5H83.36zM72.87 70.11l-4.18-4.19 1.06-1.06 3.12 3.12 9.42-9.42 1.06 1.07-10.48 10.48z"/></svg>