<svg id="Layer_1" data-name="Layer 1" xmlns="http://www.w3.org/2000/svg" viewBox="0 0 169.47 184.93"><title>3_ic_metho_tuesday</title><path d="M80.28,133.24a1.08,1.08,0,0,1-.38-0.07l-9-3.36,2-9.41a1.09,1.09,0,1,1,2.14.45l-1.61,7.57,7.25,2.71a1.09,1.09,0,0,1-.38,2.12h0Zm0,0" fill="#666"/><path d="M104.76,145.47a1.09,1.09,0,0,1-1.09-1.09,18.92,18.92,0,0,0-30.19-15.2,1.09,1.09,0,0,1-1.3-1.76,21.11,21.11,0,0,1,33.68,17,1.09,1.09,0,0,1-1.09,1.09h0Zm0,0" fill="#666"/><path d="M84.44,163.56a21.13,21.13,0,0,1-21.11-21.11,1.09,1.09,0,1,1,2.19,0,18.92,18.92,0,0,0,30.19,15.2,1.09,1.09,0,0,1,1.3,1.76,20.93,20.93,0,0,1-12.58,4.16h0Zm0,0" fill="#666"/><path d="M95.24,167.3l-0.23,0a1.09,1.09,0,0,1-.84-1.3l1.61-7.57-7.25-2.71a1.09,1.09,0,0,1,.76-2l9,3.37-2,9.41a1.09,1.09,0,0,1-1.07.87h0Zm0,0" fill="#666"/><path d="M31.44,142.2a20.64,20.64,0,1,1,20.64-20.64A20.66,20.66,0,0,1,31.44,142.2h0Z" fill="#666"/><path d="M28.25,185.9a96.66,96.66,0,0,1-19.12-1.62c-6.06-1.32-9-3.33-9-6.14,0-19.14,14.05-34.71,31.33-34.71S62.77,159,62.77,178.15c0,6.36-24.92,7.76-34.53,7.76h0Z" fill="#666"/><path d="M138.24,102.93a18.64,18.64,0,1,1-18.64,18.64,18.66,18.66,0,0,1,18.64-18.64m0-2a20.64,20.64,0,1,0,20.64,20.64,20.66,20.66,0,0,0-20.64-20.64h0Z" fill="#666"/><path d="M138.24,145.43c16.17,0,29.33,14.67,29.33,32.71,0,0.68-2.15,2.77-12,4.29A149.66,149.66,0,0,1,135,183.9a94.51,94.51,0,0,1-18.69-1.57c-2.78-.6-7.45-2-7.45-4.18,0-18,13.16-32.71,29.33-32.71m0-2c-17.28,0-31.33,15.57-31.33,34.71,0,2.81,3,4.82,9,6.14A96.66,96.66,0,0,0,135,185.9c9.61,0,34.53-1.4,34.53-7.76,0-19.14-14.06-34.71-31.33-34.71h0Z" fill="#666"/><path d="M141.88,24.22H145A0.61,0.61,0,0,0,145,23h-3.11a0.61,0.61,0,1,0,0,1.23h0Zm0,0" fill="#666"/><path d="M154.71,53a2.41,2.41,0,0,0-3.44,0l-2.52,2.52a1.68,1.68,0,0,1-2.87-1.19V51.51h3.26a2.42,2.42,0,0,0,2.42-2.42V23.61a2.42,2.42,0,0,0-2.42-2.42H137.73a2.42,2.42,0,0,0-2.42,2.42V45.39a2.4,2.4,0,0,0-1.38,2.17v0.36A2.4,2.4,0,0,0,130.36,50v6.72A11.82,11.82,0,0,0,133,64.16a0.61,0.61,0,0,0,1-.77,10.59,10.59,0,0,1-2.36-6.65V50a1.17,1.17,0,0,1,2.35,0v2.37a0.61,0.61,0,1,0,1.23,0V47.56a1.17,1.17,0,0,1,2.35,0v4.07a0.61,0.61,0,1,0,1.23,0V47a1.17,1.17,0,1,1,2.35,0v5.2a0.61,0.61,0,1,0,1.23,0V38.95a1.17,1.17,0,0,1,2.35,0V54.32a2.91,2.91,0,0,0,5,2.06l2.52-2.52a1.16,1.16,0,0,1,.85-0.35,1.18,1.18,0,0,1,.86,2l-4.38,4.74a10.3,10.3,0,0,1-6,3.17,0.61,0.61,0,0,0,.09,1.22h0.1a11.53,11.53,0,0,0,6.67-3.55l4.38-4.74a2.41,2.41,0,0,0,0-3.32h0Zm-5.57-2.74h-3.26V46.75h4.45v2.34a1.19,1.19,0,0,1-1.19,1.19h0ZM137.73,22.42h11.42a1.19,1.19,0,0,1,1.19,1.19V25H136.54v-1.4a1.19,1.19,0,0,1,1.19-1.19h0Zm-1.19,3.81,13.79,19.28h-4.45V38.95a2.4,2.4,0,0,0-2.4-2.4h0a2.4,2.4,0,0,0-2.4,2.4v6a2.4,2.4,0,0,0-3.2.81,2.39,2.39,0,0,0-1.34-.56V26.24h13.79V45.52Zm-6.85-9" fill="#666"/><path d="M159,2H62a6,6,0,0,0-6,6V77a6,6,0,0,0,6,6h74l7.31,7.31,6.4-7.31H159a6,6,0,0,0,6-6V8A6,6,0,0,0,159,2Z" fill="none" stroke="#666" stroke-miterlimit="10" stroke-width="2"/><path d="M72.75,53.48L87.6,51.36C87.6,46.74,94,41,94,33.24a13.7,13.7,0,0,0-27.4,0c0,7.74,6.19,13.43,6.19,18v2.19Z" fill="none" stroke="#666" stroke-miterlimit="10" stroke-width="1.25"/><line x1="73.75" y1="56.53" x2="87.32" y2="54.47" fill="none" stroke="#666" stroke-miterlimit="10" stroke-width="1.25"/><line x1="73.75" y1="59.27" x2="87.32" y2="57.21" fill="none" stroke="#666" stroke-miterlimit="10" stroke-width="1.25"/><path d="M85.54,61.32c0,1.14-2.27,2.05-5.07,2.05s-5.07-.92-5.07-2.05" fill="none" stroke="#666" stroke-miterlimit="10" stroke-width="1.25"/><path d="M78.41,48.39c0-8.77-2.53-11.87-2.53-11.87a2.19,2.19,0,0,0,4.38,0,2.19,2.19,0,0,0,4.38,0,33.35,33.35,0,0,0-2,11.87" fill="none" stroke="#666" stroke-miterlimit="10" stroke-width="1.25"/><path d="M118.6,27.85l-0.77.77,8.33,8.33H98.77V38h27.39l-8.33,8.32,0.77,0.77,9.64-9.63Zm0,0" fill="#666"/></svg>