<svg width="537" height="287" viewBox="0 0 537 287" xmlns="http://www.w3.org/2000/svg"><title>404</title><g fill="none" fill-rule="evenodd"><path d="M147.207 40.356H78.012L.712 149.062v43.92h91.014v19H64.61v32.08h98.182v-32.08h-15.585v-19h16.832v-35.51h-16.833V40.356zm-55.48 117.116h-49.56l48.936-73.51h.623v73.51zM519.456 40.356H450.26l-77.3 108.706v43.92h91.015v19h-27.117v32.08h98.183v-32.08h-15.584v-19h16.832v-35.51h-16.832V40.356zm-55.48 117.116h-49.56l48.936-73.51h.623v73.51z" fill="#373131"/><path d="M269.483 127.237c-11.73 0-22.928-8.812-22.928-21.094 0-13.087 11.73-22.695 24.263-22.695 11.73 0 22.93 8.81 22.93 21.09 0 13.088-12 22.7-24.265 22.7zm0 76.9c-11.73 0-22.928-8.815-22.928-21.097 0-12.817 11.73-22.425 24.263-22.425 11.73 0 22.93 8.542 22.93 21.09 0 12.815-12 22.432-24.265 22.432zm144.512-60.657L394.83 71.873l-52.34-52.417L270.997.27l-71.492 19.186-52.35 52.417L128 143.477l.042.156-.042.155 8.552 31.964 3.496 13.076 7.11 26.573 6.607 6.61 2.698 2.706 22.288 22.32 20.748 20.773 23.568 6.325 6.268 1.684 14.548 3.903.075.02 16.288 4.374.098.022 10.653 2.86 28.842-7.74.218-.054 16.725-4.49.28-.075 12.495-3.352.004-.006 12.937-3.47 26.71-26.75 2.41-2.41 7.444-7.46.015-.01 11.43-11.45 2.502-2.508 1.83-1.823 1.5-5.62.55-2.052.222-.843.005-.014 7.802-29.16 6.508-24.33 2.57-9.592-.04-.154.04-.154z" fill="#FF4245"/></g></svg>