<svg data-name="Layer 1" xmlns="http://www.w3.org/2000/svg" viewBox="0 0 179.34 150.73"><title>ic_metho_wednesday</title><path d="M89.26 117.78a.65.65 0 0 0 .65-.65v-6.46a.65.65 0 1 0-1.29 0v6.46a.65.65 0 0 0 .65.65m7.73 1.3a.65.65 0 0 0 .65-.65V112a.65.65 0 1 0-1.29 0v6.46a.65.65 0 0 0 .65.65m-3.88-1.29a.65.65 0 0 0 .65-.65v-3.88a.65.65 0 1 0-1.29 0v3.88a.65.65 0 0 0 .65.65m9 5.82h-1.24v-1.94a1.29 1.29 0 0 0-1.29-1.29H78.92a1.29 1.29 0 0 0-1.29 1.29v7.76a9 9 0 0 0 4.37 7.71h-3.72a.65.65 0 1 0 0 1.29h22a.65.65 0 1 0 0-1.29H96.5a9.06 9.06 0 0 0 4.19-5.82h1.51a3.88 3.88 0 1 0 0-7.76m-10.35 13.58h-5.17a7.73 7.73 0 0 1-5.77-2.59h16.71a7.73 7.73 0 0 1-5.77 2.59m7.76-7.76a7.71 7.71 0 0 1-1 3.88H80a7.7 7.7 0 0 1-1-3.88v-7.76h20.6v7.76zm2.59.65h-1.32v-5.17h1.29a2.59 2.59 0 1 1 0 5.17m-20.66-12.28a.65.65 0 0 0 .65-.65v-3.88a.65.65 0 1 0-1.29 0v3.88a.65.65 0 0 0 .65.65m3.88 1.29a.65.65 0 0 0 .65-.65V112a.65.65 0 1 0-1.29 0v6.46a.65.65 0 0 0 .65.65M36.83 67.76A18.64 18.64 0 1 1 18.19 86.4a18.66 18.66 0 0 1 18.64-18.64m0-2A20.64 20.64 0 1 0 57.46 86.4a20.66 20.66 0 0 0-20.63-20.64z" fill="#666"/><path d="M36.83 110.26c16.17 0 29.33 14.67 29.33 32.71 0 .68-2.15 2.77-12 4.29a149.66 149.66 0 0 1-20.56 1.47 94.5 94.5 0 0 1-18.69-1.57c-2.78-.6-7.45-2-7.45-4.18 0-18 13.16-32.71 29.33-32.71m0-2c-17.28 0-31.33 15.57-31.33 34.71 0 2.81 3 4.82 9 6.14a96.66 96.66 0 0 0 19.12 1.62c9.61 0 34.53-1.4 34.53-7.76 0-19.14-14.06-34.71-31.33-34.71z" fill="#666"/><path fill="none" stroke="#666" stroke-miterlimit="10" stroke-width="2" d="M1.66 1h69.72v46.11H1.66zM25.28 54.98h22.49M36.52 54.98v-7.87M1.66 38.11h69.98"/><path fill="none" stroke="#666" stroke-miterlimit="10" stroke-width="1.5" d="M27.93 11.6l8.65 8.65-8.49 8.48"/><path fill="none" stroke="#666" stroke-miterlimit="10" d="M35 30.5h11"/><path d="M143.83 67.76a18.64 18.64 0 1 1-18.64 18.64 18.66 18.66 0 0 1 18.64-18.64m0-2a20.64 20.64 0 1 0 20.63 20.64 20.66 20.66 0 0 0-20.64-20.64z" fill="#666"/><path d="M143.83 110.26c16.17 0 29.33 14.67 29.33 32.71 0 .68-2.15 2.77-12 4.29a149.66 149.66 0 0 1-20.56 1.47 94.5 94.5 0 0 1-18.69-1.57c-2.78-.6-7.45-2-7.45-4.18 0-18 13.16-32.71 29.33-32.71m0-2c-17.28 0-31.33 15.57-31.33 34.71 0 2.81 3 4.82 9 6.14a96.66 96.66 0 0 0 19.12 1.62c9.61 0 34.53-1.4 34.53-7.76 0-19.14-14.06-34.71-31.33-34.71z" fill="#666"/><path fill="none" stroke="#666" stroke-miterlimit="10" stroke-width="2" d="M109.28 1H179v46.11h-69.72zM132.89 54.98h22.49M144.14 54.98v-7.87M109.28 38.11h69.97"/><path fill="none" stroke="#666" stroke-miterlimit="10" d="M110 18.5h70M131 9.5h27M119.5 22.5h15v11h-15zM143 27.5h27M143 31.5h27M143 23.5h27"/></svg>