<svg data-name="Layer 1" xmlns="http://www.w3.org/2000/svg" viewBox="0 0 146.65 184.94"><title>ic_metho_thursday</title><path d="M31 140.3a20.64 20.64 0 1 1 20.64-20.64A20.66 20.66 0 0 1 31 140.3zM27.79 184a96.66 96.66 0 0 1-19.12-1.62c-6.06-1.32-9-3.33-9-6.14 0-19.14 14.05-34.71 31.33-34.71s31.33 15.57 31.33 34.71c0 6.36-24.92 7.76-34.53 7.76z" fill="#666"/><path fill="none" stroke="#666" stroke-miterlimit="10" stroke-width="2" d="M68.5 111.79h76.79v50.78H68.5zM94.51 171.24h24.77M106.9 171.24v-8.67M68.5 152.66h77.07"/><path fill="none" stroke="#666" stroke-miterlimit="10" d="M68.65 130.5h77M91.65 120.5h30M80.15 135.5h16v12h-16zM104.65 140.5h31M104.65 144.5h31M104.65 135.5h31"/><path d="M31.68 22.31h3.11a.61.61 0 0 0 0-1.23h-3.11a.61.61 0 1 0 0 1.23zm0 0" fill="#666"/><path d="M44.51 51.12a2.41 2.41 0 0 0-3.44 0l-2.52 2.52a1.68 1.68 0 0 1-2.87-1.19V49.6h3.26a2.42 2.42 0 0 0 2.42-2.42V21.7a2.42 2.42 0 0 0-2.42-2.42H27.52a2.42 2.42 0 0 0-2.42 2.42v21.78a2.4 2.4 0 0 0-1.38 2.17V46a2.4 2.4 0 0 0-3.57 2.09v6.72a11.82 11.82 0 0 0 2.63 7.42.61.61 0 0 0 1-.77 10.59 10.59 0 0 1-2.36-6.65v-6.7a1.17 1.17 0 0 1 2.35 0v2.37a.61.61 0 1 0 1.23 0v-4.82a1.17 1.17 0 0 1 2.35 0v4.07a.61.61 0 1 0 1.23 0v-4.62a1.17 1.17 0 1 1 2.35 0v5.2a.61.61 0 1 0 1.23 0V37a1.17 1.17 0 0 1 2.35 0v15.42a2.91 2.91 0 0 0 5 2.06L41.94 52a1.16 1.16 0 0 1 .85-.35 1.18 1.18 0 0 1 .86 2l-4.38 4.74a10.3 10.3 0 0 1-6 3.17.61.61 0 0 0 .09 1.22h.1a11.53 11.53 0 0 0 6.67-3.55l4.38-4.74a2.41 2.41 0 0 0 0-3.32zm-5.57-2.74h-3.26v-3.54h4.45v2.34a1.19 1.19 0 0 1-1.19 1.19zM27.52 20.52h11.42a1.19 1.19 0 0 1 1.19 1.19v1.4h-13.8V21.7a1.19 1.19 0 0 1 1.19-1.19zM40.13 43.62h-4.45V37a2.4 2.4 0 0 0-2.4-2.4 2.4 2.4 0 0 0-2.4 2.4v6a2.4 2.4 0 0 0-3.2.81 2.39 2.39 0 0 0-1.34-.56V24.33h13.79v19.29zm-6.85-9" fill="#666"/><path d="M14.54.06h97a6 6 0 0 1 6 6v69a6 6 0 0 1-6 6h-74l-7.31 7.31-6.4-7.31h-9.29a6 6 0 0 1-6-6v-69a6 6 0 0 1 6-6z" fill="none" stroke="#666" stroke-miterlimit="10" stroke-width="2"/><path fill="none" stroke="#666" stroke-miterlimit="10" stroke-width="1.5" d="M82.82 25.63h22.33M69.22 21.39l3.65 3.66 9.95-9.96M82.82 46.52h22.33M69.22 43.39l3.65 3.66 9.95-9.96M83.36 67.42h22.34M69.22 65.39l3.65 3.66 9.95-9.96"/></svg>