<svg xmlns="http://www.w3.org/2000/svg" width="160" height="159.999" viewBox="0 0 150 149.99898"><path d="M0 0c0-39.858-32.31-72.17-72.17-72.17-39.857 0-72.17 32.312-72.17 72.17 0 39.858 32.313 72.17 72.17 72.17C-32.31 72.17 0 39.857 0 0z" fill="none" stroke="#666" stroke-width="2.446" stroke-miterlimit="10" transform="matrix(1.0219 0 0 -1.0219 148.75 75)"/><path d="M75.857 103.992c-.81 0-1.466-.655-1.466-1.464a1.464 1.464 0 1 1-2.93 0v-4.395c0-.81.657-1.465 1.466-1.465.81 0 1.465.656 1.465 1.465a1.464 1.464 0 1 1 2.93 0v4.395c0 .81-.654 1.464-1.463 1.464M74.392 43.935c-12.117 0-21.973 9.855-21.973 21.973 0 12.117 9.854 21.973 21.972 21.973 12.117 0 21.974-9.855 21.974-21.972S86.51 43.935 74.392 43.935m0 46.876C60.66 90.81 49.49 79.64 49.49 65.91c0-13.733 11.17-24.903 24.902-24.903 13.73 0 24.903 11.17 24.903 24.903 0 13.73-11.172 24.903-24.903 24.903" fill="#666"/><path d="M74.393 99.583c-8.173 0-16.343-2.947-22.766-8.84l-1.06 1.058a1.464 1.464 0 1 1-2.07-2.07l1.987-1.985c.025-.03.054-.06.082-.09.03-.028.06-.057.09-.082l1.985-1.984a1.465 1.465 0 0 1 2.07 2.072l-1.008 1.01c12.058 10.972 30.794 10.634 42.44-1.01 11.645-11.648 11.983-30.387 1.01-42.446l-1.01 1.012c-.57.572-1.5.572-2.07 0a1.462 1.462 0 0 1 0-2.072l4.143-4.142c.57-.574 1.5-.574 2.07 0 .573.57.573 1.5 0 2.07l-1.058 1.06c12.11 13.2 11.774 33.8-1.012 46.588-6.567 6.567-15.196 9.848-23.822 9.85m-12.396 7.34h24.785c-7.663-3.857-17.118-3.857-24.785 0m29.918 2.93h-35.05a1.466 1.466 0 0 1-.877-2.638c5.373-4.022 11.736-6.15 18.404-6.15 6.665 0 13.027 2.128 18.4 6.15a1.466 1.466 0 0 1-.878 2.638" fill="#666"/></svg>