<svg width="132" height="37" viewBox="0 0 132 37" xmlns="http://www.w3.org/2000/svg"><title>ESPN_wordmark</title><path d="M4.134.016h28.348L31.28 10.32H2.98L4.135.015zM2.47 14.108h28.382l-.873 8.38H12.24l-.463 4.01H29.55l-1.103 9.57H0l2.47-21.96zm30.474-3.79s.197-3.512.988-5.342c.74-1.72 1.73-2.965 3.393-4.008.988-.586 2.75-.952 2.75-.952H91.14s2.14.037 3.062.458c.99.457 2.422 1.135 3.18 3.184.74 1.958.592 2.6.592 4.557 0 1.92-.05 2.104-.05 2.104h-64.98zm-.462 3.88h26.125s2.322 0 3.393.715c1.12.823 1.63 1.83 1.96 3.422.313 1.592-.56 9.626-1.07 11.584-.56 1.92-1.22 3.732-3.92 5.233-2.422 1.373-6.095.915-6.095.915H30.308l1.334-9.57h21.134l.428-4.064H38.626s-2.372.366-4.595-1.775c-1.35-1.282-1.498-3.24-1.58-4.1-.1-.494.032-2.36.032-2.36zm33.982 0h30.818s-.28 3.954-1.12 5.363c-.84 1.465-1.58 2.252-2.98 2.6-1.434.366-3.575.366-3.575.366H76.2l-1.402 13.542H64.042l2.422-21.87zm32.91-3.787h32.022s.61-3.11.28-5.068c-.33-1.958-1.12-3.276-2.422-4.228C127.54-.22 124.412.016 124.46.016h-23.784L99.374 10.41zm-.41 3.79h10.606l-2.42 21.868H96.623l2.34-21.87zm21.313.09h10.51l-2.422 21.778h-10.46l2.372-21.777z" fill="#F2EBEB" fill-rule="evenodd"/></svg>