<svg xmlns="http://www.w3.org/2000/svg" width="160" height="159.999" viewBox="0 0 150 149.99898"><path d="M0 0c0-39.858-32.31-72.17-72.17-72.17-39.857 0-72.17 32.312-72.17 72.17 0 39.858 32.313 72.17 72.17 72.17C-32.31 72.17 0 39.857 0 0z" fill="none" stroke="#666" stroke-width="2.446" stroke-miterlimit="10" transform="matrix(1.0219 0 0 -1.0219 148.75 75)"/><path d="M0 0l-4.73-1.246-3.454 3.45 1.264 4.72 4.73 1.26L1.26 4.73 0 0zm-49.042-1.246l-4.733 1.26-1.26 4.73 3.455 3.454 4.73-1.264 1.26-4.73-3.452-3.45zM-4.09 12.68l-14.203 14.216 11.525 11.526c3.743-.874 7.837.124 10.762 3.05 3.19 3.188 4.066 7.793 2.735 11.802l-5.44-5.422c-1.915-1.928-5.09-1.86-7.088.14-1.996 1.994-2.053 5.158-.14 7.086L-.514 60.5c-4.005 1.345-8.596.472-11.802-2.73-2.912-2.912-3.91-7.006-3.036-10.75l-11.525-11.538-11.526 11.525c.86 3.743-.138 7.837-3.054 10.762-3.188 3.202-7.793 4.075-11.802 2.73l5.422-5.422c1.914-1.928 1.86-5.092-.138-7.087-1.996-1.998-5.16-2.052-7.088-.138l-5.42 5.422c-1.347-4.01-.474-8.614 2.73-11.802 2.914-2.926 7.004-3.913 10.765-3.05l11.526-11.526-14.203-14.202c-2.595.177-5.23-.682-7.2-2.653-3.633-3.63-3.633-9.51 0-13.133 3.62-3.618 9.5-3.618 13.123 0 1.967 1.97 2.83 4.62 2.663 7.2l14.202 14.204L-12.676 4.11c-.18-2.596.678-5.23 2.663-7.215 3.618-3.618 9.498-3.618 13.12 0C6.74.53 6.74 6.41 3.107 10.03c-1.97 1.982-4.62 2.827-7.197 2.65z" fill="none" stroke="#666" stroke-width="2.446" stroke-miterlimit="10" transform="matrix(1.0219 0 0 -1.0219 102.467 104.27)"/></svg>