<svg xmlns="http://www.w3.org/2000/svg" width="160" height="159.999" viewBox="0 0 150 149.99898"><path d="M0 0c0-39.858-32.31-72.17-72.17-72.17-39.857 0-72.17 32.312-72.17 72.17 0 39.858 32.313 72.17 72.17 72.17C-32.31 72.17 0 39.857 0 0z" fill="none" stroke="#666" stroke-width="2.446" stroke-miterlimit="10" transform="matrix(1.0219 0 0 -1.0219 148.75 75)"/><path d="M68.332 59.285c-.197 0-.395-.033-.59-.105L53.82 53.982 56.9 39.446a1.688 1.688 0 0 1 3.305.7l-2.48 11.69 11.195 4.178a1.688 1.688 0 0 1-.59 3.27" fill="#666"/><path d="M106.15 78.174a1.69 1.69 0 0 1-1.688-1.688c0-16.113-13.108-29.22-29.22-29.22-6.33 0-12.347 1.984-17.413 5.747a1.683 1.683 0 0 1-2.36-.35 1.686 1.686 0 0 1 .348-2.36c5.648-4.198 12.365-6.415 19.423-6.415 17.977 0 32.598 14.62 32.598 32.598 0 .933-.755 1.688-1.688 1.688M74.763 106.115c-17.976 0-32.6-14.625-32.6-32.602a1.69 1.69 0 0 1 3.376 0c0 16.113 13.107 29.226 29.223 29.226 6.324 0 12.346-1.99 17.408-5.754a1.69 1.69 0 0 1 2.016 2.712c-5.648 4.198-12.366 6.417-19.423 6.417" fill="#666"/><path d="M91.45 111.892a1.684 1.684 0 0 1-1.652-2.038l2.48-11.69-11.196-4.18a1.688 1.688 0 1 1 1.18-3.164l13.922 5.198-3.087 14.535a1.685 1.685 0 0 1-1.648 1.34" fill="#666"/></svg>