<svg xmlns="http://www.w3.org/2000/svg" width="160" height="159.999" viewBox="0 0 150 149.99898"><path d="M0 0c0-39.858-32.31-72.17-72.17-72.17-39.857 0-72.17 32.312-72.17 72.17 0 39.858 32.313 72.17 72.17 72.17C-32.31 72.17 0 39.857 0 0z" fill="none" stroke="#666" stroke-width="2.446" stroke-miterlimit="10" transform="matrix(1.0219 0 0 -1.0219 148.75 75)"/><path d="M78.125 86.457l-.556.405v8.863c0 1.415-1.166 2.558-2.58 2.558a2.555 2.555 0 0 1-2.558-2.558v-8.863l-.573-.405a5.276 5.276 0 0 1-2.192-4.296 5.334 5.334 0 0 1 5.322-5.32c2.95 0 5.326 2.39 5.326 5.32a5.243 5.243 0 0 1-2.19 4.297M74.99 74.074c-4.448 0-8.088 3.64-8.088 8.087 0 2.325 1.032 4.55 2.766 6.065v7.5a5.336 5.336 0 0 0 5.322 5.322c2.95 0 5.343-2.393 5.343-5.322v-7.5a8.07 8.07 0 0 0 2.743-6.064c0-4.446-3.623-8.086-8.086-8.086" fill="#666"/><path d="M99.3 106.016c0 3.032-2.457 5.495-5.472 5.495H56.172a5.495 5.495 0 0 1-5.49-5.494v-36.91a5.46 5.46 0 0 1 5.19-5.46l.283-.017h37.957a5.476 5.476 0 0 1 5.188 5.476v36.91zm-4.8-45.118a1.977 1.977 0 0 0-.318-.03h-37V56.3c0-9.82 7.987-17.807 17.807-17.807 7.362 0 13.883 4.43 16.58 11.287a1.39 1.39 0 0 0 1.8.776 1.392 1.392 0 0 0 .778-1.786c-3.136-7.92-10.65-13.04-19.16-13.04-11.338 0-20.566 9.232-20.566 20.57v4.75c-3.74.81-6.505 4.13-6.505 8.056v36.91c0 4.55 3.705 8.255 8.255 8.255h37.656c4.546 0 8.255-3.704 8.255-8.254v-36.91c0-4.296-3.32-7.87-7.582-8.208" fill="#666"/></svg>