<svg xmlns="http://www.w3.org/2000/svg" width="160" height="159.999" viewBox="0 0 150 149.99898"><path d="M0 0c0-39.858-32.31-72.17-72.17-72.17-39.857 0-72.17 32.312-72.17 72.17 0 39.858 32.313 72.17 72.17 72.17C-32.31 72.17 0 39.857 0 0z" fill="none" stroke="#666" stroke-width="2.446" stroke-miterlimit="10" transform="matrix(1.0219 0 0 -1.0219 148.75 75)"/><path d="M75 104.588c-13.797 0-25.023-11.226-25.023-25.023a1.39 1.39 0 1 1 2.78 0c0 12.264 9.978 22.24 22.243 22.24 12.265 0 22.242-9.976 22.242-22.24a1.39 1.39 0 1 1 2.782 0c0 13.797-11.224 25.023-25.024 25.023M53.074 63.69a1.39 1.39 0 0 1-1.302-1.885c.077-.208 2.026-5.154 8.4-5.154 6.35 0 8.412 4.917 8.497 5.125a1.393 1.393 0 0 1-.767 1.813 1.393 1.393 0 0 1-1.81-.76c-.07-.17-1.513-3.394-5.92-3.394-4.475 0-5.787 3.323-5.8 3.358-.21.554-.74.9-1.3.9M97.135 63.69a1.39 1.39 0 0 1-1.287-.86c-.07-.166-1.51-3.396-5.923-3.396-4.404 0-5.746 3.23-5.804 3.37a1.394 1.394 0 0 1-1.797.784 1.386 1.386 0 0 1-.8-1.782c.082-.21 2.03-5.155 8.402-5.155 6.352 0 8.414 4.917 8.5 5.125a1.393 1.393 0 0 1-1.29 1.916" fill="#666"/><path d="M0 0c0-20.828-16.885-37.713-37.713-37.713S-75.426-20.828-75.426 0s16.885 37.713 37.713 37.713S0 20.828 0 0z" fill="none" stroke="#666" stroke-width="2.446" stroke-miterlimit="10" transform="matrix(1.0219 0 0 -1.0219 113.54 75.51)"/></svg>