<svg id="Layer_1" data-name="Layer 1" xmlns="http://www.w3.org/2000/svg" xmlns:xlink="http://www.w3.org/1999/xlink" viewBox="0 0 146.34 146.34"><defs><clipPath id="clip-path"><path d="M54.28,45.28C50.29,45.28,41,47.21,41,65c0,10.24,6.45,17.93,13.06,24.92a98.67,98.67,0,0,0,19,15.45A99,99,0,0,0,92,89.95c6.61-7,13.07-14.68,13.07-24.92,0-17.82-9.28-19.74-13.26-19.74C79.95,45.28,75,60.65,75,60.8a2,2,0,0,1-1.91,1.41h0a2,2,0,0,1-1.91-1.41C71.09,60.65,66.16,45.28,54.28,45.28Zm18.77,63.36a1.94,1.94,0,0,1-1-.25A96.37,96.37,0,0,1,51.88,92.15c-6.94-7.34-13.71-15.45-13.71-26.8,0-21.33,12.8-23,16.72-23,9.87,0,15.52,8,18.17,13.31,2.64-5.27,8.3-13.31,18.17-13.31,3.92,0,16.72,1.66,16.72,23,0,11.34-6.77,19.46-13.71,26.8A96.19,96.19,0,0,1,74,108.39,1.94,1.94,0,0,1,73.05,108.64Z" fill="none" clip-rule="evenodd"/></clipPath><clipPath id="clip-path-2"><rect x="38.17" y="42.36" width="70" height="67" fill="#666"/></clipPath></defs><title>ic</title><circle cx="73.17" cy="72.83" r="72.17" fill="none" stroke="#666" stroke-miterlimit="10" stroke-width="2"/><g clip-path="url(#clip-path)"><rect x="38.17" y="42.36" width="70" height="67" fill="#666"/><g clip-path="url(#clip-path-2)"><rect x="33.17" y="37.36" width="79.77" height="76.27" fill="#666"/></g></g></svg>