<svg data-name="Layer 1" xmlns="http://www.w3.org/2000/svg" viewBox="0 0 146.34 146.34"><title>ic</title><circle cx="73.31" cy="72.8" r="72.17" fill="none" stroke="#666" stroke-miterlimit="10" stroke-width="2"/><path d="M74.15 101.17a1.43 1.43 0 0 1-1.43-1.43 1.43 1.43 0 0 1-2.87 0v-4.3a1.43 1.43 0 0 1 2.87 0 1.43 1.43 0 0 1 2.87 0v4.3a1.43 1.43 0 0 1-1.43 1.43zm0 0M72.72 88.27A24.37 24.37 0 1 1 97.09 63.9a24.4 24.4 0 0 1-24.37 24.37zm0-45.87a21.5 21.5 0 1 0 21.5 21.5 21.53 21.53 0 0 0-21.5-21.5zm0 0" fill="#666"/><path d="M89.86 106.9H55.57a1.43 1.43 0 0 1-.86-2.58 29.95 29.95 0 0 1 36 0 1.43 1.43 0 0 1-.86 2.58zM60.59 104h24.25a27.39 27.39 0 0 0-24.25 0zm12.13-7.18a32.87 32.87 0 0 1-22.28-8.62l-1 1a1.43 1.43 0 1 1-2-2l1.94-1.94.08-.09.09-.08 1.94-1.94a1.43 1.43 0 0 1 2 2l-1 1A30.1 30.1 0 0 0 95 43.65l-1 1a1.43 1.43 0 0 1-2-2l4-4.09a1.43 1.43 0 0 1 2 2l-1 1a33 33 0 0 1-24.3 55.23zm0 0" fill="#666"/></svg>