<svg data-name="Layer 1" xmlns="http://www.w3.org/2000/svg" viewBox="0 0 146.34 146.34"><defs><clipPath id="a"><path d="M109.89 63.14l-.63 1.6a1.52 1.52 0 0 0-.27.6c-.89 4.11-4 8.83-7.52 13.35L76.95 53.9 64 53.73a3.51 3.51 0 0 1 0-7l24.28-3.37 1.22-.7a1.46 1.46 0 0 1 2 .08l18.26 18.48a1.5 1.5 0 0 1 .13 1.92zm-6 22.56a3.58 3.58 0 0 1-.31 5.3 3.39 3.39 0 0 1-2.13.74 3.68 3.68 0 0 1-2.6-1.1L86.16 77.77a1.68 1.68 0 0 0-2.39 0 1.74 1.74 0 0 0 0 2.45l16.37 16.55a3.58 3.58 0 0 1-.31 5.3 3.39 3.39 0 0 1-2.13.74 3.68 3.68 0 0 1-2.6-1.1L78.8 85.24a1.7 1.7 0 0 0-2.43 0 1.72 1.72 0 0 0 0 2.42l12.81 12.95a3.58 3.58 0 0 1-.31 5.3 3.39 3.39 0 0 1-2.13.74 3.68 3.68 0 0 1-2.6-1.1L70.9 92.17a5.87 5.87 0 0 0-1.56-2.88A5.76 5.76 0 0 0 66 87.6a5.93 5.93 0 0 0-1.32-6.27 5.78 5.78 0 0 0-7-.94 5.87 5.87 0 0 0-1.58-2.79 5.79 5.79 0 0 0-8.25 0c-.2-.64-.38-1.27-.51-1.9a1.53 1.53 0 0 0-.27-.6l-8.19-9.24a1.5 1.5 0 0 1 .13-2l18.2-18.47a1.46 1.46 0 0 1 2-.08l.14.14A6.71 6.71 0 0 0 64 56.92l11.63.15zm-26.72 22.1a3.5 3.5 0 0 1-5.24.31l-.27-.27a5.9 5.9 0 0 0 .89-.74l1.45-1.48a5.89 5.89 0 0 0 1.68-3.74l1.14 1.12a3.65 3.65 0 0 1 .35 4.8zm-8.75-2.16a2.66 2.66 0 0 1-1.9-.79 2.73 2.73 0 0 1 0-3.83L68 99.51a2.66 2.66 0 0 1 3.79 0 2.73 2.73 0 0 1 0 3.83l-1.46 1.48a2.66 2.66 0 0 1-1.91.82zm-4.52-7a2.66 2.66 0 0 1-3.79 0 2.73 2.73 0 0 1 0-3.83l3.21-3.25a2.66 2.66 0 0 1 3.79 0 2.73 2.73 0 0 1 0 3.83zm-6.44-6.2a2.66 2.66 0 0 1-3.79 0 2.73 2.73 0 0 1 0-3.83l5-5a2.66 2.66 0 0 1 3.79 0 2.73 2.73 0 0 1 0 3.83zm-7.61-5.84a2.66 2.66 0 0 1-1.85-.8 2.73 2.73 0 0 1 0-3.83l2-2.16a2.66 2.66 0 0 1 3.79 0 2.73 2.73 0 0 1 0 3.83l-2.1 2.12a2.66 2.66 0 0 1-1.83.83zM112 58.93L93.74 40.45a4.59 4.59 0 0 0-6-.48l-.51.29-23.48 3.27a6.54 6.54 0 0 0-1.56.25l-.82-.78-.1-.09a4.59 4.59 0 0 0-6.29.24L36.72 61.62a4.72 4.72 0 0 0-.4 6.15l.15.23 7.83 8.84a25.77 25.77 0 0 0 1 3.3 6 6 0 0 0 .41 7.86 5.76 5.76 0 0 0 4 1.71 6.08 6.08 0 0 0 0 .72 5.89 5.89 0 0 0 1.7 4.16 5.76 5.76 0 0 0 4.12 1.73h.54l.05.06v.24a5.89 5.89 0 0 0 1.7 4.16A5.76 5.76 0 0 0 62 102.6l.56.56a5.88 5.88 0 0 0 1.7 3.9 5.76 5.76 0 0 0 3.85 1.7l1.54 1.55A6.64 6.64 0 0 0 81 106.83l1 1a6.85 6.85 0 0 0 4.83 2 6.56 6.56 0 0 0 4.08-1.43 6.76 6.76 0 0 0 2.42-4.08A6.84 6.84 0 0 0 97.7 106a6.56 6.56 0 0 0 4.08-1.43 6.79 6.79 0 0 0 .86-9.74 6.55 6.55 0 0 0 2.94-1.33 6.79 6.79 0 0 0 .58-10l-2.48-2.5a3.14 3.14 0 0 0 .26-.29c4.64-6 7.13-10.41 8.05-14.34a3.2 3.2 0 0 0 .19-.4l.51-1.3a4.73 4.73 0 0 0-.69-5.74z" fill="none" clip-rule="evenodd"/></clipPath><clipPath id="b"><path fill="#666" d="M35.37 39.08h78.22v73.48H35.37z"/></clipPath></defs><title>ic</title><circle cx="73.17" cy="73.51" r="72.17" fill="none" stroke="#666" stroke-miterlimit="10" stroke-width="2"/><g clip-path="url(#a)"><path fill="#666" d="M35.37 39.08h78.22v73.48H35.37z"/><g clip-path="url(#b)"><path fill="#666" d="M29.44 33.15h89.82v85.1H29.44z"/></g></g></svg>