<svg data-name="Layer 1" xmlns="http://www.w3.org/2000/svg" viewBox="0 0 146.34 146.34"><defs><clipPath id="a"><circle cx="73.25" cy="75.76" r="2.95" fill="#666"/></clipPath><clipPath id="b"><path fill="#666" d="M46.67 31.46h71v71h-71z"/></clipPath><clipPath id="c"><path d="M73.25 69.85a5.91 5.91 0 1 0 5.91 5.91 5.91 5.91 0 0 0-5.91-5.91zm0 14.77a8.86 8.86 0 1 1 8.86-8.86 8.87 8.87 0 0 1-8.86 8.86z" fill="#666" clip-rule="evenodd"/></clipPath><clipPath id="d"><path d="M73.25 61A14.77 14.77 0 1 0 88 75.76 14.78 14.78 0 0 0 73.25 61zm0 32.49A17.72 17.72 0 1 1 91 75.76a17.74 17.74 0 0 1-17.75 17.72z" fill="#666" clip-rule="evenodd"/></clipPath><clipPath id="e"><path d="M73.25 52.13a23.63 23.63 0 1 0 23.63 23.63 23.65 23.65 0 0 0-23.63-23.63zm0 50.21a26.58 26.58 0 1 1 26.58-26.58 26.61 26.61 0 0 1-26.58 26.58z" fill="#666" clip-rule="evenodd"/></clipPath><clipPath id="f"><path d="M73.25 77.24a1.48 1.48 0 0 1-1-2.52l35.44-35.44a1.48 1.48 0 1 1 2.09 2.09L74.29 76.8a1.47 1.47 0 0 1-1.04.44z" fill="#666" clip-rule="evenodd"/></clipPath><clipPath id="g"><path d="M107.21 35c-4.15 1.62-11 5.1-12 9.41-.52 2.12.37 4.29 2.73 6.65s4.54 3.25 6.65 2.73c4.33-1.06 7.8-7.88 9.41-12h-5.3a1.48 1.48 0 0 1-1.48-1.48V35zm-3.82 21.89c-2.54 0-5.07-1.25-7.56-3.74-3.11-3.11-4.29-6.29-3.51-9.45 1.91-7.74 15.36-12 15.93-12.2a1.48 1.48 0 0 1 1.92 1.41v5.91h5.91a1.48 1.48 0 0 1 1.41 1.92c-.18.57-4.46 14-12.21 15.93a7.81 7.81 0 0 1-1.89.25z" fill="#666" clip-rule="evenodd"/></clipPath><clipPath id="h"><path fill="#666" d="M99.83 36.17h2.95V47.7h-2.95z"/></clipPath><clipPath id="i"><path d="M48.15 102.34a1.48 1.48 0 0 1-1-2.52l7.38-7.38a1.48 1.48 0 0 1 2.09 2.09l-7.38 7.38a1.47 1.47 0 0 1-1.09.43z" fill="#666" clip-rule="evenodd"/></clipPath><clipPath id="j"><path d="M98.35 102.34a1.47 1.47 0 0 1-1-.43l-7.38-7.38a1.48 1.48 0 0 1 2.03-2.1l7.38 7.38a1.48 1.48 0 0 1-1.03 2.53z" fill="#666" clip-rule="evenodd"/></clipPath></defs><title>ic</title><circle cx="73.17" cy="73.17" r="72.17" fill="none" stroke="#666" stroke-miterlimit="10" stroke-width="2"/><circle cx="73.25" cy="75.76" r="2.95" fill="#666"/><g clip-path="url(#a)"><path fill="#666" d="M46.67 31.46h71v71h-71z"/><g clip-path="url(#b)"><path fill="#666" d="M65.3 67.81h15.91v15.91H65.3z"/></g></g><path d="M73.25 69.85a5.91 5.91 0 1 0 5.91 5.91 5.91 5.91 0 0 0-5.91-5.91zm0 14.77a8.86 8.86 0 1 1 8.86-8.86 8.87 8.87 0 0 1-8.86 8.86z" fill="#666" fill-rule="evenodd"/><g clip-path="url(#c)"><path fill="#666" d="M46.67 31.46h71v71h-71z"/><g clip-path="url(#b)"><path fill="#666" d="M59.39 61.9h27.72v27.72H59.39z"/></g></g><path d="M73.25 61A14.77 14.77 0 1 0 88 75.76 14.78 14.78 0 0 0 73.25 61zm0 32.49A17.72 17.72 0 1 1 91 75.76a17.74 17.74 0 0 1-17.75 17.72z" fill="#666" fill-rule="evenodd"/><g clip-path="url(#d)"><path fill="#666" d="M46.67 31.46h71v71h-71z"/><g clip-path="url(#b)"><path fill="#666" d="M50.53 53.04h45.44v45.44H50.53z"/></g></g><path d="M73.25 52.13a23.63 23.63 0 1 0 23.63 23.63 23.65 23.65 0 0 0-23.63-23.63zm0 50.21a26.58 26.58 0 1 1 26.58-26.58 26.61 26.61 0 0 1-26.58 26.58z" fill="#666" fill-rule="evenodd"/><g clip-path="url(#e)"><path fill="#666" d="M46.67 31.46h71v71h-71z"/><g clip-path="url(#b)"><path fill="#666" d="M41.67 44.18h63.16v63.16H41.67z"/></g></g><path d="M73.25 77.24a1.48 1.48 0 0 1-1-2.52l35.44-35.44a1.48 1.48 0 1 1 2.09 2.09L74.29 76.8a1.47 1.47 0 0 1-1.04.44z" fill="#666" fill-rule="evenodd"/><g clip-path="url(#f)"><path fill="#666" d="M46.67 31.46h71v71h-71z"/><g clip-path="url(#b)"><path fill="#666" d="M66.77 33.84h48.39v48.39H66.77z"/></g></g><path d="M107.21 35c-4.15 1.62-11 5.1-12 9.41-.52 2.12.37 4.29 2.73 6.65s4.54 3.25 6.65 2.73c4.33-1.06 7.8-7.88 9.41-12h-5.3a1.48 1.48 0 0 1-1.48-1.48V35zm-3.82 21.89c-2.54 0-5.07-1.25-7.56-3.74-3.11-3.11-4.29-6.29-3.51-9.45 1.91-7.74 15.36-12 15.93-12.2a1.48 1.48 0 0 1 1.92 1.41v5.91h5.91a1.48 1.48 0 0 1 1.41 1.92c-.18.57-4.46 14-12.21 15.93a7.81 7.81 0 0 1-1.89.25z" fill="#666" fill-rule="evenodd"/><g clip-path="url(#g)"><path fill="#666" d="M46.67 31.46h71v71h-71z"/><g clip-path="url(#b)"><path fill="#666" d="M87.09 26.46h35.46v35.46H87.09z"/></g></g><path fill="#666" d="M99.83 36.17h2.95V47.7h-2.95z"/><g clip-path="url(#h)"><path fill="#666" d="M46.67 31.46h71v71h-71z"/><g clip-path="url(#b)"><path fill="#666" d="M94.83 31.17h12.95V52.7H94.83z"/></g></g><path d="M48.15 102.34a1.48 1.48 0 0 1-1-2.52l7.38-7.38a1.48 1.48 0 0 1 2.09 2.09l-7.38 7.38a1.47 1.47 0 0 1-1.09.43z" fill="#666" fill-rule="evenodd"/><g clip-path="url(#i)"><path fill="#666" d="M46.67 31.46h71v71h-71z"/><g clip-path="url(#b)"><path fill="#666" d="M41.67 87h20.34v20.34H41.67z"/></g></g><path d="M98.35 102.34a1.47 1.47 0 0 1-1-.43l-7.38-7.38a1.48 1.48 0 0 1 2.03-2.1l7.38 7.38a1.48 1.48 0 0 1-1.03 2.53z" fill="#666" fill-rule="evenodd"/><g clip-path="url(#j)"><path fill="#666" d="M46.67 31.46h71v71h-71z"/><g clip-path="url(#b)"><path fill="#666" d="M84.49 87h20.34v20.34H84.49z"/></g></g></svg>