<svg data-name="Layer 1" xmlns="http://www.w3.org/2000/svg" viewBox="0 0 146.34 146.34"><title>ic</title><circle cx="73.31" cy="72.8" r="72.17" fill="none" stroke="#666" stroke-miterlimit="10" stroke-width="2"/><path d="M73.31 101.75a24.52 24.52 0 0 1-24.49-24.49 1.36 1.36 0 0 1 2.72 0 21.77 21.77 0 0 0 43.53 0 1.36 1.36 0 0 1 2.72 0 24.51 24.51 0 0 1-24.49 24.49zM51.85 61.73a1.34 1.34 0 0 1-.48-.09 1.36 1.36 0 0 1-.79-1.75 8.53 8.53 0 0 1 8.22-5 8.76 8.76 0 0 1 8.31 5 1.36 1.36 0 0 1-2.52 1 6.09 6.09 0 0 0-5.79-3.32 5.86 5.86 0 0 0-5.68 3.29 1.36 1.36 0 0 1-1.27.88zM95 61.73a1.36 1.36 0 0 1-1.26-.84 6.1 6.1 0 0 0-5.8-3.32 5.88 5.88 0 0 0-5.68 3.3 1.36 1.36 0 0 1-2.54-1 8.54 8.54 0 0 1 8.22-5 8.76 8.76 0 0 1 8.32 5 1.36 1.36 0 0 1-.75 1.77 1.39 1.39 0 0 1-.51.1z" fill="#666"/><circle cx="73.31" cy="73.3" r="37.71" fill="none" stroke="#666" stroke-miterlimit="10" stroke-width="2"/></svg>