<svg width="40" height="37" viewBox="0 0 40 37" xmlns="http://www.w3.org/2000/svg"><title>ic_link</title><path d="M8.847 36.268c-2.353 0-4.608-.882-6.274-2.55-3.43-3.43-3.43-9.017 0-12.447l7.548-7.547c3.432-3.43 9.02-3.43 12.45 0 1.47 1.47 2.352 3.43 2.548 5.587.098.784-.588 1.47-1.372 1.568-.785.098-1.47-.588-1.57-1.372-.097-1.372-.685-2.744-1.665-3.725-2.254-2.253-5.978-2.253-8.33 0L4.63 23.33c-2.255 2.254-2.255 5.978 0 8.33 2.254 2.255 5.98 2.255 8.332 0l5.587-5.587c.59-.587 1.47-.587 2.06 0 .587.59.587 1.47 0 2.06l-5.588 5.586c-1.57 1.666-3.823 2.548-6.175 2.548zm14.8-11.175c-2.352 0-4.607-.882-6.273-2.548-1.47-1.47-2.353-3.43-2.548-5.588-.098-.784.588-1.47 1.372-1.568.784-.1 1.47.587 1.568 1.372.098 1.372.686 2.744 1.667 3.725 1.078 1.078 2.548 1.666 4.116 1.666 1.568 0 3.038-.588 4.116-1.666l7.548-7.548c2.254-2.256 2.254-5.98 0-8.333-2.255-2.255-5.98-2.255-8.332 0l-5.587 5.587c-.588.588-1.47.588-2.058 0-.59-.588-.59-1.47 0-2.06l5.586-5.585C26.49.88 28.743 0 31.097 0c2.352 0 4.607.882 6.273 2.55 1.667 1.665 2.55 3.92 2.55 6.272 0 2.352-.883 4.607-2.55 6.273l-7.547 7.548c-1.568 1.568-3.823 2.45-6.175 2.45z" fill="#F2F2F2" fill-rule="evenodd"/></svg>