<svg width="114" height="64" viewBox="0 0 114 64" xmlns="http://www.w3.org/2000/svg"><title>ic-location</title><g fill="none" fill-rule="evenodd"><path d="M56.55 0c-8.036 0-14.526 6.444-14.526 14.425 0 2.783.895 5.44 2.14 7.623l9.467 16.27c.595 1.063 1.792 1.595 2.92 1.595 1.13 0 2.267-.532 2.92-1.594l9.466-16.262c1.255-2.184 2.14-4.792 2.14-7.623C71.076 6.455 64.586 0 56.55 0zm0 18.686c-2.92 0-5.302-2.367-5.302-5.266 0-2.898 2.383-5.265 5.302-5.265 2.92 0 5.303 2.367 5.303 5.265 0 2.91-2.384 5.266-5.303 5.266z" fill="#373131"/><g stroke="#373131" stroke-width="2"><path d="M20 24h74l20 40H0l20-40z"/><path d="M28 62l13.5-36.5M74 26l12.5 35.5" stroke-linecap="square"/></g></g></svg>