<svg data-name="Layer 1" xmlns="http://www.w3.org/2000/svg" viewBox="0 0 146.34 146.34"><defs><clipPath id="a"><path d="M60.71 42.65h3a.81.81 0 1 0 0-1.58h-3a.81.81 0 1 0 0 1.58z" fill="#666" clip-rule="evenodd"/></clipPath><clipPath id="b"><path fill="#666" d="M53.67 35.01h39v78h-39z"/></clipPath><clipPath id="c"><path d="M84.87 41.07H67.76a.81.81 0 1 0 0 1.58h17.11a.81.81 0 1 0 0-1.58z" fill="#666" clip-rule="evenodd"/></clipPath><clipPath id="d"><path d="M84.87 45.13H60.71a.81.81 0 1 0 0 1.58h24.16a.81.81 0 1 0 0-1.58z" fill="#666" clip-rule="evenodd"/></clipPath><clipPath id="e"><path d="M84.87 49.18h-3a.81.81 0 1 0 0 1.58h3a.81.81 0 1 0 0-1.58z" fill="#666" clip-rule="evenodd"/></clipPath><clipPath id="f"><path d="M60.71 50.76h17.11a.81.81 0 1 0 0-1.58H60.71a.81.81 0 1 0 0 1.58z" fill="#666" clip-rule="evenodd"/></clipPath><clipPath id="g"><path d="M84.87 53.23H60.71a.81.81 0 1 0 0 1.58h24.16a.81.81 0 1 0 0-1.58z" fill="#666" clip-rule="evenodd"/></clipPath><clipPath id="h"><path d="M91.62 113H54.71a1 1 0 0 1-1-1v-3.6a6.7 6.7 0 0 1 4.51-6.28L67.34 99v-4.53h1.94v5.18a1 1 0 0 1-.64.9L58.91 104a4.78 4.78 0 0 0-3.22 4.49v2.64h35v-2.64a4.78 4.78 0 0 0-3.27-4.49l-9.73-3.41a1 1 0 0 1-.64-.9v-5.58H79V99l9.08 3.19a6.7 6.7 0 0 1 4.51 6.28V112a1 1 0 0 1-.97 1z" fill="#666" clip-rule="evenodd"/></clipPath><clipPath id="i"><path d="M72.92 73.91c-4.82 0-8.74 4.7-8.74 10.49s3.92 10.49 8.74 10.49 8.74-4.7 8.74-10.49-3.92-10.49-8.74-10.49zm0 22.88c-5.89 0-10.68-5.56-10.68-12.39S67 72 72.92 72s10.69 5.57 10.69 12.4-4.8 12.39-10.69 12.39z" fill="#666" clip-rule="evenodd"/></clipPath><clipPath id="j"><path d="M80 84.57a6.71 6.71 0 0 1-5.67-3.13 10.77 10.77 0 0 1-7.25 3 8.9 8.9 0 0 1-4.21-1l.9-1.69a6.9 6.9 0 0 0 3.31.78c2.54 0 5.56-1.48 6.45-3.17a1 1 0 0 1 .84-.51 1 1 0 0 1 .84.48c1.66 2.85 3.4 3.76 6.23 3.22l1-.1.2 1.9-.88.09a9.45 9.45 0 0 1-1.76.13z" fill="#666" clip-rule="evenodd"/></clipPath></defs><title>ic</title><circle cx="73.17" cy="73.51" r="72.17" fill="none" stroke="#666" stroke-miterlimit="10" stroke-width="2"/><path d="M90.91 41.07a5.06 5.06 0 0 0-5-5.07H59.7a5.06 5.06 0 0 0-5 5.07v14.19a5.06 5.06 0 0 0 5 5.07h14.1v4.05a1 1 0 0 0 .62.94 1 1 0 0 0 1.1-.22l4.74-4.77h5.62a5.06 5.06 0 0 0 5-5.07V41.07z" fill="none" stroke="#666" stroke-miterlimit="10" stroke-width="2"/><path d="M60.71 42.65h3a.81.81 0 1 0 0-1.58h-3a.81.81 0 1 0 0 1.58z" fill="#666" fill-rule="evenodd"/><g clip-path="url(#a)"><path fill="#666" d="M53.67 35.01h39v78h-39z"/><g clip-path="url(#b)"><path fill="#666" d="M54.7 36.07h15.03v11.58H54.7z"/></g></g><path d="M84.87 41.07H67.76a.81.81 0 1 0 0 1.58h17.11a.81.81 0 1 0 0-1.58z" fill="#666" fill-rule="evenodd"/><g clip-path="url(#c)"><path fill="#666" d="M53.67 35.01h39v78h-39z"/><g clip-path="url(#b)"><path fill="#666" d="M61.75 36.07h29.13v11.58H61.75z"/></g></g><path d="M84.87 45.13H60.71a.81.81 0 1 0 0 1.58h24.16a.81.81 0 1 0 0-1.58z" fill="#666" fill-rule="evenodd"/><g clip-path="url(#d)"><path fill="#666" d="M53.67 35.01h39v78h-39z"/><g clip-path="url(#b)"><path fill="#666" d="M54.7 40.13h36.17v11.58H54.7z"/></g></g><path d="M84.87 49.18h-3a.81.81 0 1 0 0 1.58h3a.81.81 0 1 0 0-1.58z" fill="#666" fill-rule="evenodd"/><g clip-path="url(#e)"><path fill="#666" d="M53.67 35.01h39v78h-39z"/><g clip-path="url(#b)"><path fill="#666" d="M75.84 44.18h15.03v11.58H75.84z"/></g></g><path d="M60.71 50.76h17.11a.81.81 0 1 0 0-1.58H60.71a.81.81 0 1 0 0 1.58z" fill="#666" fill-rule="evenodd"/><g clip-path="url(#f)"><path fill="#666" d="M53.67 35.01h39v78h-39z"/><g clip-path="url(#b)"><path fill="#666" d="M54.7 44.18h29.13v11.58H54.7z"/></g></g><path d="M84.87 53.23H60.71a.81.81 0 1 0 0 1.58h24.16a.81.81 0 1 0 0-1.58z" fill="#666" fill-rule="evenodd"/><g clip-path="url(#g)"><path fill="#666" d="M53.67 35.01h39v78h-39z"/><g clip-path="url(#b)"><path fill="#666" d="M54.7 48.23h36.17v11.58H54.7z"/></g></g><path d="M91.62 113H54.71a1 1 0 0 1-1-1v-3.6a6.7 6.7 0 0 1 4.51-6.28L67.34 99v-4.53h1.94v5.18a1 1 0 0 1-.64.9L58.91 104a4.78 4.78 0 0 0-3.22 4.49v2.64h35v-2.64a4.78 4.78 0 0 0-3.27-4.49l-9.73-3.41a1 1 0 0 1-.64-.9v-5.58H79V99l9.08 3.19a6.7 6.7 0 0 1 4.51 6.28V112a1 1 0 0 1-.97 1z" fill="#666" fill-rule="evenodd"/><g clip-path="url(#h)"><path fill="#666" d="M53.67 35.01h39v78h-39z"/><g clip-path="url(#b)"><path fill="#666" d="M48.74 89.11h48.85V118H48.74z"/></g></g><path d="M72.92 73.91c-4.82 0-8.74 4.7-8.74 10.49s3.92 10.49 8.74 10.49 8.74-4.7 8.74-10.49-3.92-10.49-8.74-10.49zm0 22.88c-5.89 0-10.68-5.56-10.68-12.39S67 72 72.92 72s10.69 5.57 10.69 12.4-4.8 12.39-10.69 12.39z" fill="#666" fill-rule="evenodd"/><g clip-path="url(#i)"><path fill="#666" d="M53.67 35.01h39v78h-39z"/><g clip-path="url(#b)"><path fill="#666" d="M57.24 67.01h31.37v34.79H57.24z"/></g></g><path d="M80 84.57a6.71 6.71 0 0 1-5.67-3.13 10.77 10.77 0 0 1-7.25 3 8.9 8.9 0 0 1-4.21-1l.9-1.69a6.9 6.9 0 0 0 3.31.78c2.54 0 5.56-1.48 6.45-3.17a1 1 0 0 1 .84-.51 1 1 0 0 1 .84.48c1.66 2.85 3.4 3.76 6.23 3.22l1-.1.2 1.9-.88.09a9.45 9.45 0 0 1-1.76.13z" fill="#666" fill-rule="evenodd"/><g clip-path="url(#j)"><path fill="#666" d="M53.67 35.01h39v78h-39z"/><g clip-path="url(#b)"><path fill="#666" d="M57.89 73.81h29.76v15.76H57.89z"/></g></g></svg>