<?xml version="1.0" encoding="utf-8"?>
<svg width="100%" height="100%" viewBox="0 0 162 162" version="1.1" xmlns="http://www.w3.org/2000/svg" xmlns:xlink="http://www.w3.org/1999/xlink" xmlns:sketch="http://www.bohemiancoding.com/sketch/ns">
    <!-- Generator: Sketch 3.4.4 (17249) - http://www.bohemiancoding.com/sketch -->
    <title>ic-fullstack</title>
    <desc>Created with Sketch.</desc>
    <defs></defs>
    <g id="landing" stroke="none" stroke-width="1" fill="none" fill-rule="evenodd" sketch:type="MSPage">
        <g id="landing_page" sketch:type="MSArtboardGroup" transform="translate(-154.000000, -1078.000000)" stroke="#444141">
            <g id="our-services1" sketch:type="MSLayerGroup" transform="translate(0.000000, 768.000000)">
                <g id="content" transform="translate(70.000000, 60.000000)" sketch:type="MSShapeGroup">
                    <g id="services" transform="translate(0.000000, 251.000000)">
                        <g id="fullstack">
                            <g id="ic-fullstack" transform="translate(85.000000, 0.000000)">
                                <path d="M80.3623624,69.8590685 C82.3298107,69.8590685 83.9242934,71.460832 83.9242934,73.4372641 C83.9242934,75.4136961 82.3298107,77.0165681 80.3623624,77.0165681 C78.3949141,77.0165681 76.8004313,75.4136961 76.8004313,73.4372641 C76.8004313,71.460832 78.3949141,69.8590685 80.3623624,69.8590685 L80.3623624,69.8590685 Z" id="Stroke-6" stroke-width="1.5"></path>
                                <path d="M51.9785831,60.4118784 L39.1962382,73.2525901 L51.7314107,85.8438923" id="Stroke-8" stroke-width="1.5"></path>
                                <path d="M108.218914,60.4118784 L121.001259,73.2525901 L108.466087,85.8438923" id="Stroke-10" stroke-width="1.5"></path>
                                <path d="M159.997452,80.0012798 C159.997452,124.183349 124.343935,159.999667 80.3626934,159.999667 C36.381452,159.999667 0.726831348,124.183349 0.726831348,80.0012798 C0.726831348,35.8192108 36.381452,0.00289214297 80.3626934,0.00289214297 C124.343935,0.00289214297 159.997452,35.8192108 159.997452,80.0012798 L159.997452,80.0012798 Z" id="Stroke-12" stroke-width="2"></path>
                                <path d="M28.6632727,44.6752448 L131.685618,44.6752448 L131.685618,113.114332 L28.6632727,113.114332 L28.6632727,44.6752448 Z" id="Stroke-1" stroke-width="2"></path>
                                <path d="M63.5582796,124.798781 L96.7908313,124.798781" id="Stroke-2" stroke-width="2"></path>
                                <path d="M80.1747762,124.798781 L80.1747762,113.114221" id="Stroke-3" stroke-width="2"></path>
                                <path d="M28.6637141,99.7602796 L132.061231,99.7602796" id="Stroke-4" stroke-width="2"></path>
                                <path d="M80.3623624,54.9478142 L76.8004313,54.9478142 L76.8004313,60.316216 L73.2373969,61.5089479 L69.6754658,57.9296438 L64.925121,62.7016797 L68.487052,66.2798753 L67.2997417,69.8591793 L61.9568451,69.8591793 L61.9568451,77.0166789 L67.2997417,77.0166789 L68.487052,80.5948745 L64.925121,84.1741786 L69.6754658,88.945106 L73.2373969,85.3669104 L76.8004313,86.5596423 L76.8004313,91.9280441 L80.3623624,91.9280441 L83.9242934,91.9280441 L83.9242934,86.5596423 L87.4873279,85.3669104 L91.0492589,88.945106 L95.7996038,84.1741786 L92.2376727,80.5948745 L93.4249831,77.0166789 L98.7678796,77.0166789 L98.7678796,69.8591793 L93.4249831,69.8591793 L92.2376727,66.2798753 L95.7996038,62.7016797 L91.0492589,57.9296438 L87.4873279,61.5089479 L83.9242934,60.316216 L83.9242934,54.9478142 L80.3623624,54.9478142 L80.3623624,54.9478142 Z" id="Stroke-5" stroke-width="1.5"></path>
                            </g>
                        </g>
                    </g>
                </g>
            </g>
        </g>
    </g>
</svg>