<svg viewBox="0 0 162 162" xmlns="http://www.w3.org/2000/svg"><title>icon-service3</title><g stroke="#444141" stroke-width="2" fill="none" fill-rule="evenodd"><path d="M68.488 111.712l25.045-3.598c0-7.834 10.734-17.486 10.734-30.732 0-12.83-10.346-23.235-23.108-23.235-12.763 0-23.11 10.404-23.11 23.235 0 13.13 10.438 22.78 10.438 30.613v3.717zM70.183 116.884L93.06 113.4M70.183 121.53l22.878-3.484M90.055 125.017c0 1.925-3.827 3.485-8.548 3.485-4.722 0-8.55-1.56-8.55-3.485"/><path d="M78.03 103.092c0-14.87-4.265-20.132-4.265-20.132a3.708 3.708 0 0 0 3.698 3.717c2.043 0 3.697-1.664 3.697-3.717a3.707 3.707 0 0 0 3.7 3.717c2.04 0 3.696-1.664 3.696-3.717 0 0-3.37 8.05-3.37 20.132M81.672 34.335v14.41M99.638 38.06l-7.154 12.466M112.387 48.2l-11.185 8.98M63.49 38.06l7.153 12.466M50.74 48.2l11.185 8.98"/><path d="M160.84 81c0 44.183-35.618 80-79.556 80-43.938 0-79.558-35.817-79.558-80 0-44.18 35.62-79.997 79.558-79.997 43.938 0 79.556 35.816 79.556 79.998z"/></g></svg>