<svg viewBox="0 0 162 162" xmlns="http://www.w3.org/2000/svg"><title>ic-fullstack</title><g stroke="#444141" fill="none" fill-rule="evenodd"><path d="M81.362 70.86a3.57 3.57 0 0 1 3.562 3.577 3.57 3.57 0 0 1-3.562 3.58 3.57 3.57 0 0 1-3.562-3.58 3.57 3.57 0 0 1 3.562-3.578zM52.98 61.412l-12.784 12.84L52.73 86.845M109.22 61.412L122 74.252l-12.534 12.592" stroke-width="1.5"/><path d="M160.997 81c0 44.183-35.653 80-79.634 80-43.982 0-79.636-35.817-79.636-80 0-44.18 35.654-79.997 79.636-79.997 43.98 0 79.634 35.816 79.634 79.998z" stroke-width="2"/><path d="M29.663 45.675h103.023v68.44H29.663v-68.44zM64.558 125.8H97.79M81.175 125.8v-11.686M29.664 100.76H133.06" stroke-width="2"/><path d="M81.362 55.948H77.8v5.368l-3.563 1.193-3.562-3.58-4.75 4.772 3.562 3.578-1.187 3.58h-5.343v7.157H68.3l1.187 3.578-3.562 3.58 4.75 4.77 3.562-3.578L77.8 87.56v5.368h7.124V87.56l3.563-1.193 3.562 3.578 4.75-4.77-3.562-3.58 1.187-3.578h5.343V70.86h-5.343l-1.187-3.58 3.562-3.578-4.75-4.772-3.563 3.58-3.563-1.194v-5.368h-3.562z" stroke-width="1.5"/></g></svg>