<svg width="26" height="26" viewBox="0 0 26 26" xmlns="http://www.w3.org/2000/svg"><title>instagram</title><path d="M3.337 0h19.326C24.498 0 26 1.36 26 3.337v19.326C26 24.64 24.498 26 22.663 26H3.337C1.5 26 0 24.64 0 22.663V3.337C0 1.36 1.5 0 3.337 0zM18.94 2.89c-.644 0-1.17.525-1.17 1.17v2.8c0 .645.526 1.172 1.17 1.172h2.94c.643 0 1.17-.527 1.17-1.17V4.058c0-.645-.527-1.17-1.17-1.17h-2.94zm4.122 8.105h-2.29c.218.707.335 1.456.335 2.23 0 4.326-3.62 7.83-8.082 7.83-4.463 0-8.08-3.504-8.08-7.83 0-.774.115-1.523.332-2.23H2.89v10.983c0 .57.464 1.034 1.033 1.034h18.105c.57 0 1.034-.465 1.034-1.034V10.995zm-10.037-3.11c-2.884 0-5.222 2.264-5.222 5.06 0 2.793 2.338 5.058 5.222 5.058 2.883 0 5.222-2.265 5.222-5.06 0-2.794-2.338-5.06-5.222-5.06z" fill="#F2EBEB" fill-rule="evenodd"/></svg>