<svg xmlns="http://www.w3.org/2000/svg" width="160" height="159.999" viewBox="0 0 150 149.99898"><path d="M0 0c0-39.858-32.31-72.17-72.17-72.17-39.857 0-72.17 32.312-72.17 72.17 0 39.858 32.313 72.17 72.17 72.17C-32.31 72.17 0 39.857 0 0z" fill="none" stroke="#666" stroke-width="2.446" stroke-miterlimit="10" transform="matrix(1.0219 0 0 -1.0219 148.75 75)"/><path d="M0 0v4h-48V0h-4v-48h4v-4H0v4h4V0H0z" fill="none" stroke="#666" stroke-width="2.446" stroke-miterlimit="10" transform="matrix(1.0219 0 0 -1.0219 99.843 50.267)"/><path d="M0 0v-4.452h8v8H0V0z" fill="none" stroke="#666" stroke-width="2.446" stroke-miterlimit="10" transform="matrix(1.0219 0 0 -1.0219 99.843 102.944)"/><path d="M0 0h-4.254v-8h8v8H0z" fill="none" stroke="#666" stroke-width="2.446" stroke-miterlimit="10" transform="matrix(1.0219 0 0 -1.0219 46.964 99.318)"/><path d="M0 0h3.137v8h-8V0H0z" fill="none" stroke="#666" stroke-width="2.446" stroke-miterlimit="10" transform="matrix(1.0219 0 0 -1.0219 104.813 50.267)"/><path d="M0 0v2.94h-8v-8h8V0z" fill="none" stroke="#666" stroke-width="2.446" stroke-miterlimit="10" transform="matrix(1.0219 0 0 -1.0219 50.792 45.095)"/></svg>