<svg width="26" height="22" viewBox="0 0 26 22" xmlns="http://www.w3.org/2000/svg"><title>twitter</title><path d="M23.078 3.328s2.085-.167 2.922-.8c0 0-.2.728-2.71 3.037 0 0 .845 12.458-12.03 15.51 0 0-6.53 1.414-11.26-2.197 0 0 4.953.895 7.74-2.233 0 0-3.595.037-4.732-3.685 0 0 1.357.297 2.164-.075 0 0-4.072-.857-3.998-5.36 0 0 1.1.82 2.09.67 0 0-3.667-3.165-1.393-7.11 0 0 4.915 5.897 11.005 5.547a5.41 5.41 0 0 1-.164-1.322c0-2.932 2.345-5.31 5.235-5.31 1.46 0 2.78.608 3.73 1.587a5.932 5.932 0 0 0 3.56-1.154s.08 1.137-2.157 2.895z" fill="#F2EBEB" fill-rule="evenodd"/></svg>