<svg data-name="Layer 1" xmlns="http://www.w3.org/2000/svg" viewBox="0 0 192 184.94"><title>new_icons</title><path d="M44.53 141.24a20.64 20.64 0 1 1 20.64-20.64 20.66 20.66 0 0 1-20.64 20.64zM41.34 184.94a96.66 96.66 0 0 1-19.12-1.62c-6.06-1.32-9-3.33-9-6.14 0-19.14 14.05-34.71 31.33-34.71S75.86 158 75.86 177.18c0 6.36-24.92 7.76-34.53 7.76zM45 90.78L37.22 83H7a7 7 0 0 1-7-7V7a7 7 0 0 1 7-7h71a7 7 0 0 1 7 7v69a7 7 0 0 1-7 7H51.8zM7 2a5 5 0 0 0-5 5v69a5 5 0 0 0 5 5h31l6.85 6.85 6-6.85H78a5 5 0 0 0 5-5V7a5 5 0 0 0-5-5H7z" fill="#f2ebeb"/><path d="M42.73 61.2a14.44 14.44 0 0 1-14.42-14.43.8.8 0 1 1 1.6 0 12.82 12.82 0 0 0 25.65 0 .8.8 0 1 1 1.6 0A14.44 14.44 0 0 1 42.73 61.2zM30.09 37.62a.79.79 0 0 1-.29-.05.8.8 0 0 1-.47-1 5 5 0 0 1 4.84-3 5.16 5.16 0 0 1 4.9 3 .8.8 0 0 1-1.49.61 3.59 3.59 0 0 0-3.41-2 3.45 3.45 0 0 0-3.34 1.94.8.8 0 0 1-.75.52zM55.5 37.62a.8.8 0 0 1-.74-.5 3.59 3.59 0 0 0-3.42-2A3.46 3.46 0 0 0 48 37.11a.8.8 0 0 1-1.5-.58 5 5 0 0 1 4.84-3 5.16 5.16 0 0 1 4.9 3 .8.8 0 0 1-.44 1 .82.82 0 0 1-.3.06z" fill="#f2ebeb"/><path d="M42.73 68.22a24.83 24.83 0 1 1 24.84-24.84 24.86 24.86 0 0 1-24.84 24.84zm0-48.17a23.33 23.33 0 1 0 23.34 23.33A23.36 23.36 0 0 0 42.73 20zM93.57 132.28a1.08 1.08 0 0 1-.38-.07l-9-3.36 2-9.41a1.09 1.09 0 1 1 2.14.45l-1.61 7.57 7.25 2.71a1.09 1.09 0 0 1-.38 2.12zm0 0" fill="#f2ebeb"/><path d="M118.05 144.51a1.09 1.09 0 0 1-1.09-1.09 18.92 18.92 0 0 0-30.19-15.2 1.09 1.09 0 0 1-1.3-1.76 21.11 21.11 0 0 1 33.68 17 1.09 1.09 0 0 1-1.09 1.09zm0 0M97.73 162.6a21.13 21.13 0 0 1-21.11-21.11 1.09 1.09 0 1 1 2.19 0 18.92 18.92 0 0 0 30.19 15.2 1.09 1.09 0 0 1 1.3 1.76 20.93 20.93 0 0 1-12.58 4.16zm0 0" fill="#f2ebeb"/><path d="M108.53 166.34h-.23a1.09 1.09 0 0 1-.84-1.3l1.61-7.57-7.25-2.71a1.09 1.09 0 0 1 .76-2l9 3.37-2 9.41a1.09 1.09 0 0 1-1.07.87zm0 0M151.53 102a18.64 18.64 0 1 1-18.64 18.64A18.66 18.66 0 0 1 151.53 102m0-2a20.64 20.64 0 1 0 20.64 20.64A20.66 20.66 0 0 0 151.53 100z" fill="#f2ebeb"/><path d="M151.53 144.47c16.17 0 29.33 14.67 29.33 32.71 0 .68-2.15 2.77-12 4.29a149.66 149.66 0 0 1-20.56 1.47 94.5 94.5 0 0 1-18.69-1.57c-2.78-.6-7.45-2-7.45-4.18 0-18 13.16-32.71 29.33-32.71m0-2c-17.28 0-31.33 15.57-31.33 34.71 0 2.81 3 4.82 9 6.14a96.66 96.66 0 0 0 19.12 1.62c9.61 0 34.53-1.4 34.53-7.76 0-19.14-14.06-34.71-31.33-34.71zM152 90.78L144.22 83H114a7 7 0 0 1-7-7V7a7 7 0 0 1 7-7h71a7 7 0 0 1 7 7v69a7 7 0 0 1-7 7h-26.2zM114 2a5 5 0 0 0-5 5v69a5 5 0 0 0 5 5h31l6.85 6.85 6-6.85H185a5 5 0 0 0 5-5V7a5 5 0 0 0-5-5h-71z" fill="#f2ebeb"/><path d="M150.43 33.63h-7.6v-7.05h7.6v7.05zm-6.1-1.5h4.6v-4.05h-4.6v4.05zM153.24 43.11h-10.4v-7.06h10.4v7.05zm-8.9-1.5h7.4v-4.06h-7.4v4.05zM160.1 52.91h-17.27v-7.06h17.27v7.05zm-15.76-1.5h14.26v-4.06h-14.27v4.05z" fill="#f2ebeb"/><path d="M161.84 66.58h-20.75a4.35 4.35 0 0 1-4.35-4.35V17.48a4.35 4.35 0 0 1 4.35-4.35h20.75a4.35 4.35 0 0 1 4.35 4.35v44.76a4.35 4.35 0 0 1-4.35 4.34zm-20.75-52a2.85 2.85 0 0 0-2.85 2.85v44.81a2.85 2.85 0 0 0 2.85 2.85h20.75a2.85 2.85 0 0 0 2.85-2.85V17.48a2.85 2.85 0 0 0-2.85-2.85h-20.75z" fill="#f2ebeb"/><path d="M153.44 63.19h-4a.75.75 0 0 1 0-1.5h4a.75.75 0 0 1 0 1.5zM153.44 18.73h-4a.75.75 0 0 1 0-1.5h4a.75.75 0 0 1 0 1.5zM137 21h29v1h-29zM137 59h29v1h-29z" fill="#f2ebeb"/></svg>