<svg data-name="Layer 1" xmlns="http://www.w3.org/2000/svg" viewBox="0 0 207.68 182.9"><title>ic_metho_monday</title><path d="M43.73 139.21a20.64 20.64 0 1 1 20.64-20.64 20.66 20.66 0 0 1-20.64 20.64zM40.54 182.9a96.66 96.66 0 0 1-19.12-1.62c-6.06-1.32-9-3.33-9-6.14 0-19.14 14.05-34.71 31.33-34.71S75.06 156 75.06 175.15c0 6.36-24.92 7.76-34.53 7.76z" fill="#666"/><path fill="none" stroke="#666" stroke-miterlimit="10" stroke-width="1.5" d="M47.96 49.97h6.25v14.38h-6.25zM58.62 43.35h6.25v21h-6.25zM69.66 27.16h6.25v37.18h-6.25zM18 55.51l14.85-2.12c0-4.62 6.36-10.31 6.36-18.12a13.7 13.7 0 0 0-27.4 0C11.85 43 18 48.7 18 53.32v2.19zM19.04 58.56l13.57-2.06M19.04 61.3l13.57-2.06M30.83 63.35c0 1.14-2.27 2.05-5.07 2.05s-5.07-.92-5.07-2.05"/><path d="M23.7 50.43c0-8.77-2.53-11.87-2.53-11.87a2.19 2.19 0 0 0 4.38 0 2.19 2.19 0 0 0 4.38 0 33.35 33.35 0 0 0-2 11.87" fill="none" stroke="#666" stroke-miterlimit="10" stroke-width="1.5"/><path d="M78 1H7a6 6 0 0 0-6 6v69a6 6 0 0 0 6 6h31.14l7.31 7.31L51.86 82H78a6 6 0 0 0 6-6V7a6 6 0 0 0-6-6z" fill="none" stroke="#666" stroke-miterlimit="10" stroke-width="2"/><path fill="none" stroke="#666" stroke-miterlimit="10" stroke-width="1.5" d="M140.57 21.57h22.33"/><circle cx="128.6" cy="22.07" r="3.88" fill="none" stroke="#666" stroke-miterlimit="10" stroke-width="1.5"/><path fill="none" stroke="#666" stroke-miterlimit="10" stroke-width="1.5" d="M140.57 42.46h22.33"/><circle cx="128.6" cy="42.97" r="3.88" fill="none" stroke="#666" stroke-miterlimit="10" stroke-width="1.5"/><path fill="none" stroke="#666" stroke-miterlimit="10" stroke-width="1.5" d="M141.11 63.36h22.34"/><circle cx="129.28" cy="63.86" r="3.88" fill="none" stroke="#666" stroke-miterlimit="10" stroke-width="1.5"/><path d="M171 1h-57a6 6 0 0 0-6 6v69a6 6 0 0 0 6 6h24l7.31 7.31 6.4-7.31H171a6 6 0 0 0 6-6V7a6 6 0 0 0-6-6z" fill="none" stroke="#666" stroke-miterlimit="10" stroke-width="2"/><path d="M110.53 99.93a18.64 18.64 0 1 1-18.64 18.64 18.66 18.66 0 0 1 18.64-18.64m0-2a20.64 20.64 0 1 0 20.64 20.64 20.66 20.66 0 0 0-20.64-20.64z" fill="#666"/><path d="M110.53 142.43c16.17 0 29.33 14.67 29.33 32.71 0 .68-2.15 2.77-12 4.29a149.66 149.66 0 0 1-20.56 1.47 94.51 94.51 0 0 1-18.69-1.57c-2.78-.6-7.45-2-7.45-4.18 0-18 13.16-32.71 29.33-32.71m0-2c-17.28 0-31.33 15.57-31.33 34.71 0 2.81 3 4.82 9 6.14a96.66 96.66 0 0 0 19.12 1.62c9.61 0 34.53-1.4 34.53-7.76 0-19.14-14.06-34.71-31.33-34.71zM176.34 99.93a18.64 18.64 0 1 1-18.64 18.64 18.66 18.66 0 0 1 18.64-18.64m0-2A20.64 20.64 0 1 0 197 118.57a20.66 20.66 0 0 0-20.64-20.64z" fill="#666"/><path d="M176.34 142.43c16.17 0 29.33 14.67 29.33 32.71 0 .68-2.15 2.77-12 4.29a149.66 149.66 0 0 1-20.56 1.47 94.5 94.5 0 0 1-18.69-1.57c-2.78-.6-7.45-2-7.45-4.18 0-18 13.16-32.71 29.33-32.71m0-2c-17.24-.01-31.3 15.56-31.3 34.71 0 2.81 3 4.82 9 6.14a96.66 96.66 0 0 0 19.12 1.62c9.61 0 34.53-1.4 34.53-7.76 0-19.14-14.06-34.71-31.33-34.71z" fill="#666"/></svg>