<svg data-name="Layer 1" xmlns="http://www.w3.org/2000/svg" viewBox="0 0 169.47 184.93"><title>3_ic_metho_tuesday</title><path d="M80.28 133.24a1.08 1.08 0 0 1-.38-.07l-9-3.36 2-9.41a1.09 1.09 0 1 1 2.14.45l-1.61 7.57 7.25 2.71a1.09 1.09 0 0 1-.38 2.12zm0 0" fill="#666"/><path d="M104.76 145.47a1.09 1.09 0 0 1-1.09-1.09 18.92 18.92 0 0 0-30.19-15.2 1.09 1.09 0 0 1-1.3-1.76 21.11 21.11 0 0 1 33.68 17 1.09 1.09 0 0 1-1.09 1.09zm0 0M84.44 163.56a21.13 21.13 0 0 1-21.11-21.11 1.09 1.09 0 1 1 2.19 0 18.92 18.92 0 0 0 30.19 15.2 1.09 1.09 0 0 1 1.3 1.76 20.93 20.93 0 0 1-12.58 4.16zm0 0" fill="#666"/><path d="M95.24 167.3h-.23a1.09 1.09 0 0 1-.84-1.3l1.61-7.57-7.25-2.71a1.09 1.09 0 0 1 .76-2l9 3.37-2 9.41a1.09 1.09 0 0 1-1.07.87zm0 0M31.44 142.2a20.64 20.64 0 1 1 20.64-20.64 20.66 20.66 0 0 1-20.64 20.64zM28.25 185.9a96.66 96.66 0 0 1-19.12-1.62c-6.06-1.32-9-3.33-9-6.14 0-19.14 14.05-34.71 31.33-34.71S62.77 159 62.77 178.15c0 6.36-24.92 7.76-34.53 7.76zM138.24 102.93a18.64 18.64 0 1 1-18.64 18.64 18.66 18.66 0 0 1 18.64-18.64m0-2a20.64 20.64 0 1 0 20.64 20.64 20.66 20.66 0 0 0-20.64-20.64z" fill="#666"/><path d="M138.24 145.43c16.17 0 29.33 14.67 29.33 32.71 0 .68-2.15 2.77-12 4.29A149.66 149.66 0 0 1 135 183.9a94.51 94.51 0 0 1-18.69-1.57c-2.78-.6-7.45-2-7.45-4.18 0-18 13.16-32.71 29.33-32.71m0-2c-17.28 0-31.33 15.57-31.33 34.71 0 2.81 3 4.82 9 6.14A96.66 96.66 0 0 0 135 185.9c9.61 0 34.53-1.4 34.53-7.76 0-19.14-14.06-34.71-31.33-34.71zM141.88 24.22H145a.61.61 0 0 0 0-1.22h-3.11a.61.61 0 1 0 0 1.23zm0 0" fill="#666"/><path d="M154.71 53a2.41 2.41 0 0 0-3.44 0l-2.52 2.52a1.68 1.68 0 0 1-2.87-1.19v-2.82h3.26a2.42 2.42 0 0 0 2.42-2.42V23.61a2.42 2.42 0 0 0-2.42-2.42h-11.41a2.42 2.42 0 0 0-2.42 2.42v21.78a2.4 2.4 0 0 0-1.38 2.17v.36a2.4 2.4 0 0 0-3.57 2.08v6.72a11.82 11.82 0 0 0 2.64 7.44.61.61 0 0 0 1-.77 10.59 10.59 0 0 1-2.36-6.65V50a1.17 1.17 0 0 1 2.35 0v2.37a.61.61 0 1 0 1.23 0v-4.81a1.17 1.17 0 0 1 2.35 0v4.07a.61.61 0 1 0 1.23 0V47a1.17 1.17 0 1 1 2.35 0v5.2a.61.61 0 1 0 1.23 0V38.95a1.17 1.17 0 0 1 2.35 0v15.37a2.91 2.91 0 0 0 5 2.06l2.52-2.52a1.16 1.16 0 0 1 .85-.35 1.18 1.18 0 0 1 .86 2l-4.38 4.74a10.3 10.3 0 0 1-6 3.17.61.61 0 0 0 .09 1.22h.1a11.53 11.53 0 0 0 6.67-3.55l4.38-4.74a2.41 2.41 0 0 0 0-3.32zm-5.57-2.74h-3.26v-3.51h4.45v2.34a1.19 1.19 0 0 1-1.19 1.19zm-11.41-27.84h11.42a1.19 1.19 0 0 1 1.19 1.19V25h-13.8v-1.4a1.19 1.19 0 0 1 1.19-1.19zm-1.19 3.81l13.79 19.28h-4.45v-6.56a2.4 2.4 0 0 0-2.4-2.4 2.4 2.4 0 0 0-2.4 2.4v6a2.4 2.4 0 0 0-3.2.81 2.39 2.39 0 0 0-1.34-.56V26.24h13.79v19.28zm-6.85-9" fill="#666"/><path d="M159 2H62a6 6 0 0 0-6 6v69a6 6 0 0 0 6 6h74l7.31 7.31 6.4-7.31H159a6 6 0 0 0 6-6V8a6 6 0 0 0-6-6z" fill="none" stroke="#666" stroke-miterlimit="10" stroke-width="2"/><path d="M72.75 53.48l14.85-2.12C87.6 46.74 94 41 94 33.24a13.7 13.7 0 0 0-27.4 0c0 7.74 6.19 13.43 6.19 18v2.19zM73.75 56.53l13.57-2.06M73.75 59.27l13.57-2.06M85.54 61.32c0 1.14-2.27 2.05-5.07 2.05s-5.07-.92-5.07-2.05" fill="none" stroke="#666" stroke-miterlimit="10" stroke-width="1.25"/><path d="M78.41 48.39c0-8.77-2.53-11.87-2.53-11.87a2.19 2.19 0 0 0 4.38 0 2.19 2.19 0 0 0 4.38 0 33.35 33.35 0 0 0-2 11.87" fill="none" stroke="#666" stroke-miterlimit="10" stroke-width="1.25"/><path d="M118.6 27.85l-.77.77 8.33 8.33H98.77V38h27.39l-8.33 8.32.77.77 9.64-9.63zm0 0" fill="#666"/></svg>