<svg width="124" height="47" viewBox="0 0 124 47" xmlns="http://www.w3.org/2000/svg"><title>citrix</title><path d="M82.818 10.582h6.976v25.336h-6.976V10.582zM19.514 26.587l-.22.283c-.756.97-1.65 1.7-2.586 2.112a7.622 7.622 0 0 1-3.092.675c-1.866 0-3.412-.59-4.594-1.752C7.84 26.745 7.24 25.23 7.24 23.41c0-1.96.593-3.564 1.76-4.763 1.168-1.197 2.72-1.804 4.616-1.804 1.07 0 2.115.224 3.108.667 1.104.492 1.893 1.14 2.56 2.108l.23.333 3.82-5.823-.172-.156c-1.998-1.81-4.163-2.996-6.434-3.525-1.12-.26-2.398-.393-3.803-.393-3.688 0-6.798 1.27-9.243 3.775C1.24 16.33 0 19.512 0 23.282c0 3.77 1.236 6.94 3.675 9.424 2.44 2.482 5.552 3.742 9.25 3.742 1.505 0 2.743-.132 3.785-.402 1.152-.3 4.1-1.285 6.58-3.965l.152-.164-3.928-5.33zm16.948-16.005v6.23h6.642v19.106h7V16.81h6.61v-6.228H36.46zm35.012 8.943c0 1-.296 1.712-.905 2.176-.623.475-1.627.716-2.983.716h-.9v-6.04H67.7c1.392 0 2.383.246 2.945.73.55.473.83 1.288.83 2.42zm1.893 6.404c1.665-.428 2.968-1.23 3.876-2.392.976-1.248 1.47-2.874 1.47-4.832 0-2.795-.856-4.874-2.546-6.18-1.667-1.29-4.576-1.944-8.644-1.944h-7.835v25.336h7v-8.91l5.255 8.91h8.267l-6.843-9.99zm31.072 1.975l5.206 8.013h8.06l-8.965-13.39 8.102-11.946h-8.08l-4.315 6.645-4.33-6.645h-8.08l8.1 11.947-8.964 13.388h8.06l5.206-8.013zm16.396-11.72a2.577 2.577 0 0 1-2.574-2.574 2.573 2.573 0 0 1 5.145 0 2.575 2.575 0 0 1-2.57 2.575zm0-5.655a3.088 3.088 0 0 0-3.087 3.08 3.09 3.09 0 0 0 3.086 3.088 3.085 3.085 0 0 0 0-6.168zm1.44 2.36c0-.88-.703-1.01-1.122-1.01h-1.557v3.43h.545v-1.412h.768l.88 1.386.017.025h.657l-.925-1.455c.638-.14.736-.66.736-.966zM86.332 37.735a4.333 4.333 0 0 0-4.328 4.328 4.334 4.334 0 0 0 4.328 4.33 4.334 4.334 0 0 0 4.328-4.33 4.333 4.333 0 0 0-4.328-4.328m-59.77-27.154h6.978v25.336h-6.977V10.582zm3.464-1.864a4.333 4.333 0 0 0 4.328-4.328A4.334 4.334 0 0 0 30.026.06a4.333 4.333 0 0 0-4.328 4.33 4.333 4.333 0 0 0 4.328 4.328" fill="#F2F2F2" fill-rule="evenodd"/></svg>