<svg width="135" height="44" viewBox="0 0 135 44" xmlns="http://www.w3.org/2000/svg"><title>UOL</title><g fill="#F2F2F2" fill-rule="evenodd"><path d="M5.173 7.92C3.57 9.813 2.346 11.98 1.45 14.338.512 16.793.015 19.32.015 22.012c0 3.036.653 5.856 1.776 8.534a21.25 21.25 0 0 0 4.643 6.93c1.948 1.947 4.24 3.495 6.876 4.64a21.226 21.226 0 0 0 8.482 1.775c3.038 0 5.854-.608 8.538-1.775 2.588-1.124 4.9-2.662 6.876-4.64 1.978-1.975 3.483-4.3 4.585-6.93 1.133-2.697 1.778-5.497 1.778-8.533 0-2.693-.497-5.22-1.433-7.675-.898-2.356-2.106-4.48-3.725-6.416a20.742 20.742 0 0 0-5.56-4.695C29.548 1.318 26.148.19 22.194.19h-.573c-3.896 0-7.463 1.117-10.83 3.035C8.672 4.432 6.778 6.032 5.173 7.92zm28.595 17.357a15.41 15.41 0 0 0-1.604-4.182c-1.318.4-2.464 1.088-3.553 2.005a12.413 12.413 0 0 0-2.864 3.55c-.63 1.376-1.03 2.693-1.146 4.068-.172 1.317 0 2.52.343 3.665.173.4.287.745.516 1.09 1.432-.173 2.75-.574 4.068-1.147 1.375-.516 2.636-1.26 3.84-2.176l.114-.058c.23-.86.4-1.718.516-2.578.114-1.43.057-2.805-.23-4.237zM25.116 14.28c-2.006-.86-4.184-1.26-6.418-1.26-2.178.057-4.24.515-6.132 1.43a14.23 14.23 0 0 0-4.928 3.724c-.975 1.203-1.777 2.52-2.292 3.895a18.022 18.022 0 0 0 1.948 4.925c1.318 2.233 3.037 4.124 5.158 5.613 2.062 1.49 4.412 2.463 6.933 3.035a21.9 21.9 0 0 0 4.757.344 8.51 8.51 0 0 1-1.204-3.38c-.23-1.26-.172-2.52.057-3.894.287-1.66.918-3.208 1.777-4.64a13.913 13.913 0 0 1 3.553-3.78 12.98 12.98 0 0 1 2.865-1.603l-.516-.573c-1.604-1.66-3.438-2.978-5.558-3.838zm11.23-6.186C33.655 4.83 30.16 2.71 25.862 1.908c-4.24-.802-8.25-.172-12.034 1.89-1.948 1.088-3.61 2.463-4.928 4.067a17.044 17.044 0 0 0-3.094 5.67c-.688 2.177-.86 4.468-.63 6.7.572-1.43 1.432-2.748 2.464-4.01 1.49-1.774 3.323-3.09 5.387-4.065a17.337 17.337 0 0 1 6.647-1.49c2.35 0 4.64.46 6.762 1.376 2.234.916 4.183 2.29 5.844 4.123.63.63 1.147 1.374 1.663 2.12.745 0 1.49.056 2.12.228 1.662.458 2.98 1.317 4.012 2.577l.057-.8c.17-2.235-.058-4.355-.688-6.417a17.192 17.192 0 0 0-3.095-5.784zm-31.63 20.62c.286 1.717.8 3.378 1.66 4.868a14.578 14.578 0 0 0 3.268 4.066l.687.573c2.35 1.604 4.87 2.75 7.623 3.323 1.776.344 3.552.23 5.27-.172a14.72 14.72 0 0 0 5.16-2.233c-1.49-.344-2.81-1.145-3.84-2.348l-.4-.46c-2.18.23-4.357.172-6.534-.286-2.752-.63-5.158-1.775-7.393-3.38a19.09 19.09 0 0 1-5.215-6.07l-.345-.688c-.057.917-.057 1.89.058 2.807zm30.37-8.077c.574 1.203.917 2.52 1.09 3.838.17 1.317.23 2.577.114 3.837l-.23 1.26c1.72-2.005 2.866-4.238 3.554-6.816-.402-.4-.803-.8-1.26-1.145-.918-.63-2.007-.973-3.267-.973zm6.763-5.44a23.388 23.388 0 0 0-2.065-4.755 18.723 18.723 0 0 0-3.15-3.952 17.52 17.52 0 0 0-3.955-3.093c1.26.86 2.407 1.89 3.438 3.036 1.604 1.832 2.808 3.78 3.553 5.957.746 2.233 1.09 4.524.918 6.93-.058.745-.172 1.432-.287 2.176.288.46.574 1.03.803 1.604.574 1.66.688 3.436.4 5.212.86-2.463 1.32-5.04 1.263-7.732-.116-1.833-.402-3.666-.917-5.384zm-1.434 8.877l-.516-.86c-.745 2.578-2.12 4.87-3.897 6.93-.4 1.72-1.09 3.266-2.005 4.697-.917 1.434-2.12 2.693-3.496 3.782.974.057 1.95-.115 2.923-.46.916-.342 1.776-.857 2.636-1.544a24.232 24.232 0 0 0 3.152-3.666l.172-.23c.4-.86.803-1.718 1.09-2.52.286-.86.457-1.718.515-2.52.056-.86.056-1.604-.116-2.348-.114-.46-.286-.86-.458-1.26zM31.65 35.758a13.853 13.853 0 0 0 1.66-3.15c-2.292 1.66-4.813 2.806-7.564 3.38.4.63.917 1.144 1.49 1.545.573.402 1.204.688 1.948.917.917-.802 1.776-1.718 2.465-2.692zm-11.52 6.13l2.464.113c2.12-.056 4.126-.457 6.074-1.087 1.834-.63 3.61-1.49 5.158-2.577-.975.457-2.006.8-3.094.858-.344.058-.746.058-1.146.058-2.808 1.832-5.96 2.692-9.456 2.635zM2.71 13.992c-.745 2.062-1.146 4.238-1.26 6.587a21.422 21.422 0 0 0 1.66 8.706 20.525 20.525 0 0 0 2.12 3.78 20.942 20.942 0 0 0 2.75 3.208C5.747 33.81 4.43 30.947 4.03 27.74c-.115-1.09-.115-2.12-.058-3.21-.745-2.06-1.146-4.122-1.146-6.24 0-2.006.344-3.953.974-5.958.516-1.375 1.204-2.692 1.948-3.894-1.317 1.718-2.292 3.55-3.036 5.555zM95.314 8.15c-2.12 0-4.07.344-5.903 1.09-1.832.744-3.437 1.775-4.813 3.15-1.375 1.374-2.463 2.92-3.15 4.696-.746 1.775-1.09 3.723-1.09 5.842 0 2.005.344 3.952 1.09 5.728.687 1.718 1.775 3.322 3.15 4.696 1.433 1.318 3.038 2.406 4.87 3.15a16.317 16.317 0 0 0 5.847 1.09c2.12 0 4.01-.402 5.902-1.09a15.892 15.892 0 0 0 4.813-3.15c1.432-1.374 2.464-2.978 3.208-4.753.745-1.777 1.09-3.667 1.09-5.672 0-2.12-.345-4.067-1.09-5.842-.687-1.775-1.72-3.322-3.15-4.696-1.376-1.375-3.038-2.406-4.872-3.15-1.834-.746-3.782-1.09-5.902-1.09zm0 9.394c1.432 0 2.58.46 3.438 1.49.86.974 1.317 2.233 1.317 3.894 0 1.547-.46 2.864-1.318 3.78-.86.974-2.006 1.432-3.438 1.432-1.433 0-2.522-.458-3.382-1.43-.916-.918-1.318-2.235-1.318-3.782 0-1.66.402-2.92 1.318-3.894.86-1.03 1.95-1.49 3.382-1.49zm-19.6 11.398c.23-1.317.345-2.978.345-4.983V8.78H65.973v15.294c0 1.718-.173 2.92-.63 3.665-.46.687-1.147 1.03-2.178 1.03-1.032 0-1.72-.343-2.178-1.03-.4-.63-.63-1.89-.63-3.666V8.78h-10.03v15.18c-.056 2.118.117 3.722.345 4.982a9.145 9.145 0 0 0 1.204 3.208c1.146 1.775 2.693 3.093 4.642 4.008 1.89.974 4.124 1.433 6.646 1.433 2.52 0 4.7-.458 6.647-1.432 1.948-.915 3.496-2.233 4.584-4.008.573-.86 1.032-1.948 1.318-3.208zm48.94-20.16h-10.087v28.064h19.886V27.74h-9.8V8.78z"/></g></svg>