<svg data-name="Layer 1" xmlns="http://www.w3.org/2000/svg" viewBox="0 0 146.34 146.34"><defs><clipPath id="a"><path d="M54.28 45.28C50.29 45.28 41 47.21 41 65c0 10.24 6.45 17.93 13.06 24.92a98.67 98.67 0 0 0 19 15.45A99 99 0 0 0 92 89.95c6.61-7 13.07-14.68 13.07-24.92 0-17.82-9.28-19.74-13.26-19.74C79.95 45.28 75 60.65 75 60.8a2 2 0 0 1-1.91 1.41 2 2 0 0 1-1.91-1.41c-.09-.15-5.02-15.52-16.9-15.52zm18.77 63.36a1.94 1.94 0 0 1-1-.25 96.37 96.37 0 0 1-20.17-16.24c-6.94-7.34-13.71-15.45-13.71-26.8 0-21.33 12.8-23 16.72-23 9.87 0 15.52 8 18.17 13.31 2.64-5.27 8.3-13.31 18.17-13.31 3.92 0 16.72 1.66 16.72 23 0 11.34-6.77 19.46-13.71 26.8A96.19 96.19 0 0 1 74 108.39a1.94 1.94 0 0 1-.95.25z" fill="none" clip-rule="evenodd"/></clipPath><clipPath id="b"><path fill="#666" d="M38.17 42.36h70v67h-70z"/></clipPath></defs><title>ic</title><circle cx="73.17" cy="72.83" r="72.17" fill="none" stroke="#666" stroke-miterlimit="10" stroke-width="2"/><g clip-path="url(#a)"><path fill="#666" d="M38.17 42.36h70v67h-70z"/><g clip-path="url(#b)"><path fill="#666" d="M33.17 37.36h79.77v76.27H33.17z"/></g></g></svg>