<?xml version="1.0" encoding="UTF-8" standalone="no"?>
<svg width="52px" height="40px" viewBox="0 0 52 40" version="1.1" xmlns="http://www.w3.org/2000/svg" xmlns:xlink="http://www.w3.org/1999/xlink">
    <!-- Generator: sketchtool 3.6.1 (26313) - http://www.bohemiancoding.com/sketch -->
    <title>quotes</title>
    <desc>Created with sketchtool.</desc>
    <defs></defs>
    <g id="case-detail" stroke="none" stroke-width="1" fill="none" fill-rule="evenodd" opacity="0.3">
        <g id="casedetail_new01" transform="translate(-224.000000, -1242.000000)" fill="#89817E">
            <g id="depoimento" transform="translate(0.000000, 1171.000000)">
                <g id="Paulo-Fagiani-+-Toda-semana-tivemos--+-Fill-1" transform="translate(218.000000, 71.000000)">
                    <path d="M58.0002,6.1873627 C51.0097395,9.62478642 47.5158856,13.6636733 47.5158856,18.3047114 C50.494298,18.6481097 52.957957,19.8661758 54.9061746,21.9568451 C56.8530157,24.0488908 57.8281568,26.4685068 57.8281568,29.2184457 C57.8281568,32.1404279 56.8826072,34.604087 54.9921962,36.6094229 C53.1017852,38.6154469 50.7234596,39.6174267 47.8599721,39.6174267 C44.6503336,39.6174267 41.8721795,38.3147154 39.5234453,35.7072282 C37.174023,33.1004292 36,29.9355219 36,26.2111301 C36,15.0386428 42.2437929,6.30297575 54.7348195,0 L58.0002,6.1873627 Z M28.0002,6.1873627 C21.0097395,9.62478642 17.5158856,13.6636733 17.5158856,18.3047114 C20.494298,18.6481097 22.957957,19.8661758 24.9061746,21.9568451 C26.8530157,24.0488908 27.8281568,26.4685068 27.8281568,29.2184457 C27.8281568,32.1404279 26.8826072,34.604087 24.9921962,36.6094229 C23.1017852,38.6154469 20.7234596,39.6174267 17.8599721,39.6174267 C14.6503336,39.6174267 11.8721795,38.3147154 9.52344534,35.7072282 C7.174023,33.1004292 6,29.9355219 6,26.2111301 C6,15.0386428 12.2437929,6.30297575 24.7348195,0 L28.0002,6.1873627 Z" id="quotes"></path>
                </g>
            </g>
        </g>
    </g>
</svg>