<svg viewBox="0 0 162 162" xmlns="http://www.w3.org/2000/svg"><title>icon-service2</title><g fill="none" fill-rule="evenodd"><path d="M160.27 81.365c0 43.98-35.653 79.635-79.635 79.635C36.655 161 1 125.346 1 81.365 1 37.385 36.654 1.73 80.635 1.73c43.982 0 79.635 35.654 79.635 79.635z" stroke="#444141" stroke-width="2"/><path d="M78.59 42.864H85a1.264 1.264 0 1 0 0-2.53h-6.41a1.265 1.265 0 0 0 0 2.53" fill-opacity=".85" fill="#444141"/><path d="M95.993 86.725H86.83V73.19a4.95 4.95 0 0 0-4.943-4.944 4.95 4.95 0 0 0-4.944 4.945v12.306a4.908 4.908 0 0 0-2.415-.634c-1.75 0-3.292.917-4.17 2.294a4.92 4.92 0 0 0-2.76-1.15V47.03h28.395v39.695zM70.04 39.177h23.51a2.446 2.446 0 0 1 2.443 2.444v2.88H67.597v-2.88a2.446 2.446 0 0 1 2.442-2.443zm23.5 57.35h-6.71v-7.274h9.163v4.82c0 1.35-1.1 2.453-2.454 2.453zm11.466 5.637a4.924 4.924 0 0 0-3.525-1.51 4.927 4.927 0 0 0-3.55 1.453l-5.184 5.185c-1.207 1.207-2.742 1.18-3.776.75-1.035-.428-2.14-1.494-2.14-3.2v-5.788h6.71a4.987 4.987 0 0 0 4.98-4.982v-52.45a4.977 4.977 0 0 0-4.97-4.973H70.04c-2.74 0-4.972 2.23-4.972 4.97v44.836a4.95 4.95 0 0 0-2.844 4.473v.737a4.903 4.903 0 0 0-2.414-.632 4.95 4.95 0 0 0-4.945 4.942v13.84a24.338 24.338 0 0 0 5.416 15.28 1.267 1.267 0 0 0 1.78.187c.543-.44.626-1.236.186-1.778a21.8 21.8 0 0 1-4.853-13.688v-13.84a2.418 2.418 0 0 1 2.417-2.415 2.418 2.418 0 0 1 2.414 2.414v4.88a1.264 1.264 0 0 0 2.528 0v-9.928a2.418 2.418 0 0 1 2.417-2.415 2.418 2.418 0 0 1 2.413 2.414v8.385a1.264 1.264 0 1 0 2.528 0v-9.508a2.42 2.42 0 0 1 2.418-2.417 2.418 2.418 0 0 1 2.415 2.417v10.706a1.263 1.263 0 1 0 2.527 0V73.19a2.418 2.418 0 0 1 2.417-2.414 2.418 2.418 0 0 1 2.415 2.415v31.652c0 2.47 1.417 4.592 3.7 5.536 2.28.946 4.783.448 6.53-1.297l5.184-5.186a2.394 2.394 0 0 1 1.744-.712 2.438 2.438 0 0 1 1.77 4.09l-9.024 9.763a21.194 21.194 0 0 1-12.257 6.532 1.264 1.264 0 1 0 .388 2.498 23.736 23.736 0 0 0 13.725-7.313l9.024-9.764a4.966 4.966 0 0 0-.08-6.824z" opacity=".853" fill="#444141"/></g></svg>