<svg width="442" height="438" viewBox="0 0 442 438" xmlns="http://www.w3.org/2000/svg" xmlns:xlink="http://www.w3.org/1999/xlink"><title>ozzy</title><defs><path id="a" d="M0 .457h441.807V438H0V.457z"/></defs><g fill="none" fill-rule="evenodd"><path d="M61.084 400.94L0 431.862h404.236l-54.812-30.924H61.084z" fill="#444141"/><path d="M0 438h404.236v-6.137H0V438z" fill="#383232"/><g><path d="M334.964 408.323c-5.396 0-10.75-2.32-14.452-6.805l-82.798-100.28c-6.585-7.975-5.457-19.777 2.518-26.36 7.977-6.583 19.78-5.455 26.363 2.52l82.8 100.28c6.582 7.976 5.455 19.777-2.52 26.36a18.652 18.652 0 0 1-11.91 4.285" fill="#FF4245"/><path d="M359.65 389.755c0 12.93-10.485 23.414-23.418 23.414s-23.417-10.484-23.417-23.415c0-12.93 10.484-23.413 23.417-23.413 12.933 0 23.417 10.482 23.417 23.413" fill="#A40710"/><path d="M401.498 313.515s-1.106 5.607-5.345 7.692a9.76 9.76 0 0 1-.247.434l-8.603 14.04-38.503 62.826c-4.426 7.225-13.872 9.497-21.098 5.072-7.225-4.434-9.498-13.88-5.064-21.104.297-.493.68-1.03 1.02-1.472l55.415-70.364.025-.033v-.008l6.4-10.05.682-1.072 10.5 3.258 4.818 10.782z" fill="#FBD8C2"/><path d="M401.498 313.515s-1.106 5.607-5.345 7.692a9.76 9.76 0 0 1-.247.434l-8.603 14.04-1.805-35.133.682-1.072 10.5 3.258 4.818 10.782z" fill="#F2BAA1"/><path d="M379.098 310.597v.008l-.025.033v-.348c0 .102.008.204.025.307" fill="#FFE89A"/><path d="M435.095 273.168a4.04 4.04 0 0 1-4.028 4.027h-36.134a4.04 4.04 0 0 1-4.027-4.027v-3.893a4.04 4.04 0 0 1 4.027-4.027h36.134a4.04 4.04 0 0 1 4.028 4.027v3.893z" fill="#383232"/><path d="M435.095 278.093l-.05.442-.878 8.034-5.37 49.277h-31.592l-5.37-49.278-.877-8.035-.05-.442h44.187z" fill="#F2F2F2"/><mask id="b" fill="#fff"><use xlink:href="#a"/></mask><path d="M438.328 278.328h-50.654v-6.04h50.654v6.04z" fill="#383232" mask="url(#b)"/><path d="M412.868 305.532c-1.03 0-2.013-.772-2.013-1.85 0-1.147 1.03-1.99 2.13-1.99 1.03 0 2.014.774 2.014 1.85 0 1.147-1.055 1.99-2.132 1.99zm0 6.742c-1.03 0-2.013-.772-2.013-1.85 0-1.123 1.03-1.965 2.13-1.965 1.03 0 2.014.748 2.014 1.848 0 1.123-1.055 1.966-2.132 1.966zm12.69-5.318l-1.683-6.278-4.595-4.595L413 294.4l-6.277 1.683-4.598 4.595-1.68 6.278.002.014-.003.013.75 2.803.308 1.146.624 2.33.58.58.237.236 1.957 1.957 1.822 1.82 2.07.556.55.15 1.278.34.007.003 1.43.383.01.002.934.25 2.534-.678.02-.004 1.468-.394.024-.006 1.098-.295 1.136-.303 2.346-2.345.21-.212.655-.654h.002l1.004-1.004.22-.22.16-.16.132-.493.048-.18.02-.075.686-2.558.57-2.132.227-.842-.005-.013.004-.014z" fill="#B71F25" mask="url(#b)"/><path d="M435.045 278.33l-.877 8.033h-42.332l-.878-8.033h44.087z" fill-opacity=".4" fill="#89817E" mask="url(#b)"/><path d="M394.06 313.147a6.384 6.384 0 0 1-6.006-4.22l-5.676-15.742a6.383 6.383 0 0 1 12.01-4.327l5.676 15.742a6.382 6.382 0 0 1-6.005 8.547M427.293 296.206a5.106 5.106 0 0 1-2.3-9.666l9.41-4.737a5.107 5.107 0 0 1 6.857 2.264 5.104 5.104 0 0 1-2.265 6.856l-9.41 4.737a5.09 5.09 0 0 1-2.292.546" fill="#FBD8C2" mask="url(#b)"/><path d="M427.293 307.48a5.104 5.104 0 0 1-2.3-9.666l9.41-4.736a5.107 5.107 0 0 1 6.857 2.264 5.104 5.104 0 0 1-2.265 6.856l-9.41 4.736a5.074 5.074 0 0 1-2.292.547" fill="#FBD8C2" mask="url(#b)"/><path d="M427.293 318.756a5.106 5.106 0 0 1-2.3-9.667l9.41-4.737a5.104 5.104 0 0 1 4.593 9.12l-9.41 4.737c-.738.37-1.52.546-2.293.546" fill="#FBD8C2" mask="url(#b)"/><path d="M276.185 308.068v108.615H137.09V308.068c0-20.213 16.554-36.764 36.78-36.764h65.544c20.226 0 36.77 16.55 36.77 36.764" fill="#FF4245" mask="url(#b)"/><path d="M77.45 407.2a18.4 18.4 0 0 1-11.753-4.228c-7.87-6.495-8.98-18.138-2.486-26.006l81.693-98.94c6.497-7.868 18.14-8.983 26.01-2.486 7.87 6.494 8.982 18.138 2.486 26.006l-81.693 98.94A18.44 18.44 0 0 1 77.45 407.2" fill="#FF4245" mask="url(#b)"/><path d="M53.014 389.755c0 12.93 10.483 23.414 23.417 23.414 12.934 0 23.417-10.484 23.417-23.415 0-12.93-10.483-23.413-23.416-23.413s-23.416 10.482-23.416 23.413" fill="#A40710" mask="url(#b)"/><path d="M76.443 374.438l74.994 5.344c5.543.395 9.717 5.208 9.322 10.75-.362 5.065-4.415 8.984-9.34 9.322l-75.002 5.218c-8.46.588-15.798-5.792-16.386-14.252-.59-8.46 5.793-15.796 14.254-16.384.7-.05 1.477-.042 2.157.002M225.067 271.328s-3.51 11.928-18.427 11.928-18.427-11.928-18.427-11.928v-44.732h36.854v44.732z" fill="#FBD8C2" mask="url(#b)"/><path d="M225.067 260.102h-36.854v-9.79h36.854v9.79zM143.51 172.16c0 7.99-6.48 14.47-14.47 14.47-7.993 0-14.47-6.48-14.47-14.47s6.477-14.468 14.47-14.468c7.99 0 14.47 6.478 14.47 14.468M298.71 172.16c0 7.99-6.477 14.47-14.47 14.47-7.992 0-14.47-6.48-14.47-14.47s6.478-14.468 14.47-14.468c7.993 0 14.47 6.478 14.47 14.468" fill="#F2BAA1" mask="url(#b)"/><path d="M284.024 89.607v115.465c0 21.267-17.395 38.66-38.655 38.66h-77.452c-21.27 0-38.664-17.393-38.664-38.66V89.607c0-21.256 17.395-38.648 38.664-38.648h77.45c21.26 0 38.656 17.39 38.656 38.647" fill="#FBD8C2" mask="url(#b)"/><path d="M134.536 109.47v2.348s-.06-.876-.06-2.347h.06zM278.803 109.47c0 1.472-.062 2.348-.062 2.348v-2.347h.063zM171.55 44.24c-.816.08-1.34.09-1.51.09.442-.02.945-.05 1.51-.09" fill="#432427" mask="url(#b)"/><path d="M144.61 147.515a4.04 4.04 0 0 0 4.03 4.027h33.237a4.04 4.04 0 0 0 4.028-4.027v-2.12a4.04 4.04 0 0 0-4.028-4.027H148.64a4.04 4.04 0 0 0-4.03 4.028v2.12z" fill="#383232" mask="url(#b)"/><path d="M255.487 112.602H157.79a1.51 1.51 0 1 1 0-3.02h97.697a1.51 1.51 0 0 1 0 3.02M255.487 99.662H157.79a1.51 1.51 0 1 1 0-3.022h97.697a1.51 1.51 0 0 1 0 3.022" fill="#F2BAA1" mask="url(#b)"/><path d="M287.8 413.924c0 6.138-5.022 11.16-11.16 11.16H133.345c-6.138 0-11.16-5.022-11.16-11.16V336.54c0-6.137 5.022-11.16 11.16-11.16H276.64c6.138 0 11.16 5.023 11.16 11.16v77.384z" fill="#E6E6E6" mask="url(#b)"/><path d="M409.088 257.447c4.068-10.557-3.08-24.812-10.687-39.053-7.802-14.24-7.686-28.47 10.688-38.973-3.947 10.505 3.07 24.734 10.65 38.974 7.757 14.24 7.7 28.496-10.65 39.053M125.855 50.017l-9.58-9.578a1.374 1.374 0 0 1 1.94-1.944l9.582 9.58a1.374 1.374 0 0 1-1.942 1.94M130.673 45.198a1.373 1.373 0 0 1-.343-.578l-3.905-13.093a1.373 1.373 0 1 1 2.63-.785l3.907 13.093a1.373 1.373 0 0 1-2.29 1.363M107.94 50.934a1.374 1.374 0 0 1 1.363-2.288l13.095 3.905a1.372 1.372 0 1 1-.785 2.632l-13.095-3.904a1.385 1.385 0 0 1-.578-.344" fill="#FFF" mask="url(#b)"/><path d="M178.345 166.67c0 7.227-5.86 13.086-13.087 13.086-7.228 0-13.086-5.86-13.086-13.085 0-7.226 5.858-13.084 13.086-13.084 7.228 0 13.087 5.858 13.087 13.085" fill="#F2BAA1" mask="url(#b)"/><path d="M176.97 166.67c0 6.47-5.243 11.712-11.712 11.712-6.47 0-11.713-5.243-11.713-11.71 0-6.47 5.244-11.712 11.713-11.712 6.47 0 11.713 5.243 11.713 11.71" fill="#F4B38B" mask="url(#b)"/><path d="M175.004 166.67c0 5.382-4.364 9.745-9.746 9.745-5.382 0-9.745-4.363-9.745-9.744 0-5.38 4.363-9.743 9.745-9.743 5.382 0 9.746 4.363 9.746 9.744" fill="#FFF" mask="url(#b)"/><path d="M170.13 166.67a4.872 4.872 0 1 1 0 0" fill="#383232" mask="url(#b)"/><path d="M258.675 166.67c0 7.227-5.86 13.086-13.087 13.086-7.228 0-13.086-5.86-13.086-13.085 0-7.226 5.858-13.084 13.086-13.084 7.228 0 13.087 5.858 13.087 13.085" fill="#F2BAA1" mask="url(#b)"/><path d="M257.3 166.67c0 6.47-5.243 11.712-11.712 11.712-6.47 0-11.713-5.243-11.713-11.71 0-6.47 5.244-11.712 11.713-11.712 6.47 0 11.713 5.243 11.713 11.71" fill="#F4B38B" mask="url(#b)"/><path d="M255.334 166.67c0 5.382-4.364 9.745-9.746 9.745-5.382 0-9.745-4.363-9.745-9.744 0-5.38 4.363-9.743 9.745-9.743 5.382 0 9.746 4.363 9.746 9.744" fill="#FFF" mask="url(#b)"/><path d="M250.46 166.67a4.872 4.872 0 1 1 0 0M165.274 44.38c-22.722 0-41.305 18.58-41.305 41.288V196.62h10.565v-84.8s-.06-.876-.06-2.346c.01-7.945 1.72-33.402 23.396-33.402H255.405c21.675 0 23.387 25.457 23.398 33.402 0 1.47-.062 2.346-.062 2.346v84.8h10.566V85.67c0-22.707-18.583-41.287-41.294-41.287h-82.738z" fill="#383232" mask="url(#b)"/><path d="M204.874 375.07c-.92 0-1.8-.69-1.8-1.65 0-1.025.92-1.777 1.904-1.777.92 0 1.8.69 1.8 1.65 0 1.026-.942 1.778-1.904 1.778zm0 6.023c-.92 0-1.8-.69-1.8-1.652 0-1.003.92-1.755 1.904-1.755.92 0 1.8.67 1.8 1.652 0 1.003-.942 1.756-1.904 1.756zm11.334-4.75l-1.503-5.607-4.105-4.104-5.608-1.503-5.607 1.502-4.106 4.104-1.504 5.607.004.012-.004.013.67 2.502.276 1.025.557 2.08.517.518.212.21 1.747 1.75 1.627 1.626 1.85.495.49.132 1.142.305.005.002 1.28.342.006.002.836.224 2.262-.606.018-.004 1.31-.352.023-.006.98-.262 1.015-.273 2.095-2.095.19-.19.583-.583.898-.898.196-.196.143-.143.118-.44.044-.16.017-.067.612-2.284.51-1.905.202-.752-.003-.012.003-.013z" fill="#FFF" mask="url(#b)"/><path d="M134.536 141.697H123.97V138h10.566v3.697zM134.536 150.42H123.97v-3.698h10.566v3.697zM289.308 141.697H278.74V138h10.568v3.697zM289.308 150.42H278.74v-3.698h10.568v3.697z" fill="#5B5959" mask="url(#b)"/><path d="M289.308 191.683v17.33c0 22.72-18.584 41.298-41.295 41.298h-82.738c-22.722 0-41.304-18.578-41.304-41.296v-17.43h10.566s1.007 17.742 22.832 17.742c21.826 0 25.35-22.768 39.703-22.768h18.946c14.352 0 17.888 22.768 39.702 22.768 21.826 0 23.023-17.743 23.023-17.743h10.375l.193.1z" fill="#383232" mask="url(#b)"/><path d="M206.64 196.125c-5.284 0-9.568-4.283-9.568-9.567v-28.206c0-5.283 4.284-9.566 9.568-9.566s9.568 4.283 9.568 9.566v28.206c0 5.284-4.284 9.567-9.568 9.567" fill="#F4B38B" mask="url(#b)"/><path d="M186.795 204.637l-5.95 6.083a5.738 5.738 0 0 0-1.634 4.01v3.86c0 5.39 4.37 9.76 9.762 9.76h2.007a4.536 4.536 0 0 0 3.23-1.35l3.928-3.985a8.307 8.307 0 0 1 5.913-2.473h4.985c2.223 0 4.352.89 5.912 2.473l3.93 3.984a4.536 4.536 0 0 0 3.23 1.35h2.007c5.39 0 9.76-4.37 9.76-9.76v-3.86c0-1.498-.586-2.938-1.634-4.01l-5.95-6.083a20.674 20.674 0 0 0-14.78-6.218h-9.935a20.674 20.674 0 0 0-14.78 6.217" fill="#FBD8C2" mask="url(#b)"/><path d="M191.126 215.92c0-5.728 6.947-10.368 15.51-10.368 8.572 0 15.518 4.64 15.518 10.37h-31.028z" fill="#F4B38B" mask="url(#b)"/><path d="M224.94 131.79a4.04 4.04 0 0 0 4.03 4.027h33.237a4.04 4.04 0 0 0 4.028-4.027v-2.12a4.04 4.04 0 0 0-4.028-4.026H228.97a4.04 4.04 0 0 0-4.03 4.027v2.12zM126.7 72.346c4-13.324 14.335-19.86 14.335-19.86s-.568-7.67 1.194-11.895c2.59-6.213 6.764-9.638 6.764-9.638s-2.64 3.398-3.044 8.455c-.338 4.228 3.076 9.01 3.076 9.01s1.705-14.607 23.862-23.86c22.158-9.25 42.125 4.627 58.925 4.384 16.8-.243 28.247-18.988 28.247-18.988l-9.17 22.44s20.63-5.264 30.84-31.936c0 0 4.463 54.643-7.295 79.35 0 0-63.842 20.817-96.164-9.79-32.32-30.61-51.57 2.33-51.57 2.33" fill="#383232" mask="url(#b)"/></g></g></svg>